<svg xmlns="http://www.w3.org/2000/svg" width="145.511" height="148.103" viewBox="0 0 145.511 148.103">
  <g id="illustration_administrate-color" transform="translate(0 1.248)">
    <circle id="Ellipse_1642" data-name="Ellipse 1642" cx="72.755" cy="72.755" r="72.755" transform="translate(0 1.344)" fill="#f9f9f9"/>
    <circle id="Ellipse_341" data-name="Ellipse 341" cx="3.736" cy="3.736" r="3.736" transform="translate(120.489)" fill="none" stroke="#bdbdbd" stroke-linecap="round" stroke-width="2.497"/>
    <circle id="Ellipse_341-2" data-name="Ellipse 341" cx="8.736" cy="8.736" r="8.736" transform="translate(20.489 123)" fill="none" stroke="#bdbdbd" stroke-linecap="round" stroke-width="2.497"/>
    <g id="Group_15376" data-name="Group 15376" transform="translate(28.336 49.924)">
      <path id="Rectangle_5878" data-name="Rectangle 5878" d="M0,0H80.549a0,0,0,0,1,0,0V0A3.979,3.979,0,0,1,76.57,3.979H3.979A3.979,3.979,0,0,1,0,0V0A0,0,0,0,1,0,0Z" transform="translate(0 48.267)" fill="#fff" stroke="#1a1e23" stroke-linecap="round" stroke-linejoin="round" stroke-width="1"/>
      <path id="Rectangle_5879" data-name="Rectangle 5879" d="M0,0H15.424a0,0,0,0,1,0,0V0a1.636,1.636,0,0,1-1.636,1.636H1.636A1.636,1.636,0,0,1,0,0V0A0,0,0,0,1,0,0Z" transform="translate(32.623 48.267)" fill="#fff" stroke="#1a1e23" stroke-linecap="round" stroke-linejoin="round" stroke-width="1"/>
      <path id="Rectangle_5880" data-name="Rectangle 5880" d="M9.225,0H56.7a9.225,9.225,0,0,1,9.225,9.225v39a0,0,0,0,1,0,0H0a0,0,0,0,1,0,0v-39A9.225,9.225,0,0,1,9.225,0Z" transform="translate(7.374 0)" fill="#fff" stroke="#1a1e23" stroke-linecap="round" stroke-linejoin="round" stroke-width="1"/>
      <path id="Rectangle_6154" data-name="Rectangle 6154" d="M0,0H49.039a6,6,0,0,1,6,6V43.393a0,0,0,0,1,0,0H0a0,0,0,0,1,0,0V0A0,0,0,0,1,0,0Z" transform="translate(15.841 2.415)" fill="#ccf2ff"/>
      <path id="Rectangle_5881" data-name="Rectangle 5881" d="M6,0H55.091a6,6,0,0,1,6,6V43.393a0,0,0,0,1,0,0H0a0,0,0,0,1,0,0V6A6,6,0,0,1,6,0Z" transform="translate(9.789 2.415)" fill="none" stroke="#1a1e23" stroke-linecap="round" stroke-linejoin="round" stroke-width="1"/>
    </g>
    <g id="Group_15377" data-name="Group 15377" transform="translate(78.023 39.65)">
      <path id="Path_70589" data-name="Path 70589" d="M690.8,132.349h-4.876a.655.655,0,0,1-.651-.587l-.341-3.3a19.48,19.48,0,0,1-3.213-.855l-1.94,2.679a.651.651,0,0,1-.857.181l-4.223-2.438a.656.656,0,0,1-.27-.834l1.348-3.016a19.62,19.62,0,0,1-2.353-2.353l-3.016,1.348a.655.655,0,0,1-.834-.271l-2.438-4.222a.655.655,0,0,1,.183-.858L670,115.891a19.44,19.44,0,0,1-.853-3.213l-3.3-.342a.654.654,0,0,1-.587-.65V106.81a.655.655,0,0,1,.587-.652l3.3-.34A19.456,19.456,0,0,1,670,102.6l-2.678-1.939a.653.653,0,0,1-.183-.856l2.438-4.223a.657.657,0,0,1,.834-.27l3.016,1.348a19.7,19.7,0,0,1,2.353-2.354L674.429,91.3a.656.656,0,0,1,.27-.834l4.223-2.439a.651.651,0,0,1,.857.183l1.939,2.678a19.511,19.511,0,0,1,3.214-.853l.341-3.3a.655.655,0,0,1,.651-.586H690.8a.655.655,0,0,1,.651.586l.34,3.3a19.482,19.482,0,0,1,3.213.853l1.939-2.678a.655.655,0,0,1,.857-.183l4.222,2.439a.654.654,0,0,1,.27.834l-1.349,3.015a19.749,19.749,0,0,1,2.354,2.354l3.016-1.348a.656.656,0,0,1,.834.27l2.439,4.223a.653.653,0,0,1-.183.856l-2.678,1.939a19.462,19.462,0,0,1,.854,3.214l3.3.34a.655.655,0,0,1,.587.652v4.876a.654.654,0,0,1-.587.65l-3.3.342a19.445,19.445,0,0,1-.854,3.213l2.678,1.939a.655.655,0,0,1,.183.858l-2.439,4.222a.654.654,0,0,1-.834.271l-3.016-1.348a19.7,19.7,0,0,1-2.354,2.353l1.349,3.016a.654.654,0,0,1-.27.834l-4.222,2.438a.656.656,0,0,1-.857-.181L695,127.612a19.486,19.486,0,0,1-3.213.855l-.34,3.3a.655.655,0,0,1-.651.587Z" transform="translate(-665.26 -86.147)" fill="#ffc101" stroke="#1a1e23" stroke-linecap="round" stroke-linejoin="round" stroke-width="1.5"/>
      <path id="Path_70590" data-name="Path 70590" d="M699.046,133.364a13.43,13.43,0,1,1,13.43-13.43,13.445,13.445,0,0,1-13.43,13.43Z" transform="translate(-675.945 -96.832)" fill="#f8f8f8" stroke="#1a1e23" stroke-linecap="round" stroke-linejoin="round" stroke-width="1"/>
    </g>
  </g>
</svg>
