<svg xmlns="http://www.w3.org/2000/svg" width="145.511" height="148.103" viewBox="0 0 145.511 148.103">
  <g id="illustration_campaign-color" transform="translate(0 1.248)">
    <g id="illustration_donate-color">
      <circle id="Ellipse_1642" data-name="Ellipse 1642" cx="72.755" cy="72.755" r="72.755" transform="translate(0 1.344)" fill="#f9f9f9"/>
      <circle id="Ellipse_341" data-name="Ellipse 341" cx="3.736" cy="3.736" r="3.736" transform="translate(120.489)" fill="none" stroke="#bdbdbd" stroke-linecap="round" stroke-width="2.497"/>
      <circle id="Ellipse_341-2" data-name="Ellipse 341" cx="8.736" cy="8.736" r="8.736" transform="translate(20.489 123)" fill="none" stroke="#bdbdbd" stroke-linecap="round" stroke-width="2.497"/>
    </g>
    <g id="Group_15371" data-name="Group 15371" transform="translate(-30.301 -216.889)">
      <circle id="Ellipse_1819" data-name="Ellipse 1819" cx="28" cy="28" r="28" transform="translate(74.811 249.316)" fill="#ccf2ff"/>
      <path id="Path_70577" data-name="Path 70577" d="M76.043,267.382a27.813,27.813,0,0,1,52.335.005" transform="translate(0.803)" fill="none" stroke="#222831" stroke-linecap="round" stroke-linejoin="round" stroke-width="1.5"/>
      <path id="Path_70578" data-name="Path 70578" d="M103.252,299.231a28.248,28.248,0,0,1-6.375,0" transform="translate(2.954 5.187)" fill="none" stroke="#222831" stroke-linecap="round" stroke-linejoin="round" stroke-width="1.5"/>
      <path id="Path_70579" data-name="Path 70579" d="M88.62,252.3c-.191,1.984,1.388,3.731,3.134,4.691s3.742,1.42,5.448,2.451c2.016,1.22,4.427,4.965,6.113,3.319,1.086-1.06.013-3.035.019-4.553a3.24,3.24,0,0,1,.2-1.335c.592-1.306,2.414-1.24,3.805-1.589a5.053,5.053,0,0,0,3.655-3.9" transform="translate(2.1 0.246)" fill="none" stroke="#1a1e23" stroke-linecap="round" stroke-linejoin="round" stroke-width="1"/>
      <path id="Path_70580" data-name="Path 70580" d="M118.284,256.818a12.52,12.52,0,0,0-4.246,3.584,5.678,5.678,0,0,0-.663,5.609c1.1,2.173,3.94,3.32,4.379,5.714.43,2.338-1.731,4.543-1.4,6.9a6.606,6.606,0,0,0,1.165,2.566q.444.685.9,1.367" transform="translate(4.609 0.808)" fill="none" stroke="#1a1e23" stroke-linecap="round" stroke-linejoin="round" stroke-width="1"/>
      <path id="Path_70581" data-name="Path 70581" d="M94.247,294.229a3.743,3.743,0,0,0,3.851.377,7.058,7.058,0,0,0,2.924-2.708c1.778-2.71,2.51-5.935,3.909-8.849,1.279-2.663,3.15-5.168,3.462-8.092a4.2,4.2,0,0,0-.686-3.065,4.672,4.672,0,0,0-3.1-1.477c-2.3-.309-4.777.124-6.84-.906-2.186-1.09-3.455-3.631-5.81-4.307a5.166,5.166,0,0,0-5.771,2.97,8.478,8.478,0,0,0,.258,6.745,37.689,37.689,0,0,0,3.62,5.964c1.34,2.019,2.577,4.132,2.693,6.572C92.852,289.551,92.435,292.678,94.247,294.229Z" transform="translate(1.789 1.657)" fill="#fff" stroke="#1a1e23" stroke-linecap="round" stroke-linejoin="round" stroke-width="1"/>
      <g id="Group_15373" data-name="Group 15373">
        <g id="Group_15372" data-name="Group 15372" transform="translate(243.16 59.543)">
          <path id="Path_70586" data-name="Path 70586" d="M-147.858,254.528l-2.45-2.359-14.45-9.609,3.734,14.854,1.22,6.7h13.041Z" transform="translate(1.047 3.187)" fill="#ffc100"/>
          <path id="Path_70587" data-name="Path 70587" d="M-158.756,267.3l-.833-4.873a5.566,5.566,0,0,0-1.44-2.882l-8.877-9.394a18.192,18.192,0,0,1-4.943-13.87l.8-10.684.528-12.569a1.391,1.391,0,0,1,1.389-1.332h0a5.23,5.23,0,0,1,5.228,5.364l-.235,9.927" fill="#ffc100" stroke="#222831" stroke-linecap="round" stroke-linejoin="round" stroke-width="1.5"/>
          <path id="Path_70588" data-name="Path 70588" d="M-161.7,247.019l-5.325-8.3a5.57,5.57,0,0,1-.834-2.293l-1.2-9.3a1.39,1.39,0,0,1,1.379-1.568h0a5.771,5.771,0,0,1,5.648,4.588l1.044,4.988c.991,1.5,15.925,7.41,13.676,20.178a5.965,5.965,0,0,0-.072,1.743l1.066,8.815" transform="translate(0.602 1.431)" fill="#ffc100" stroke="#222831" stroke-linecap="round" stroke-linejoin="round" stroke-width="1.5"/>
        </g>
      </g>
      <g id="Group_15374" data-name="Group 15374" transform="translate(108.261 271.237)">
        <g id="Group_15372-2" data-name="Group 15372">
          <path id="Path_70586-2" data-name="Path 70586" d="M-163.662,254.528l2.45-2.359,14.45-9.609-3.734,14.854-1.22,6.7h-13.041Z" transform="translate(164.758 -208.507)" fill="#ffc100"/>
          <path id="Path_70587-2" data-name="Path 70587" d="M-174.9,267.3l.833-4.873a5.566,5.566,0,0,1,1.44-2.882l8.877-9.394a18.192,18.192,0,0,0,4.943-13.87l-.8-10.684-.528-12.569a1.391,1.391,0,0,0-1.389-1.332h0a5.23,5.23,0,0,0-5.228,5.364l.235,9.927" transform="translate(187.941 -211.694)" fill="#ffc100" stroke="#222831" stroke-linecap="round" stroke-linejoin="round" stroke-width="1.5"/>
          <path id="Path_70588-2" data-name="Path 70588" d="M-153.684,247.019l5.325-8.3a5.57,5.57,0,0,0,.834-2.293l1.2-9.3a1.39,1.39,0,0,0-1.379-1.568h0a5.771,5.771,0,0,0-5.648,4.588l-1.044,4.988c-.991,1.5-15.925,7.41-13.676,20.178a5.965,5.965,0,0,1,.072,1.743l-1.066,8.815" transform="translate(169.069 -210.263)" fill="#ffc100" stroke="#222831" stroke-linecap="round" stroke-linejoin="round" stroke-width="1.5"/>
        </g>
      </g>
    </g>
    <g id="Group_15375" data-name="Group 15375" transform="translate(43.858 28.869)">
      <line id="Line_756" data-name="Line 756" x1="2.636" y1="2.636" transform="translate(2.67 2.547)" fill="#fff" stroke="#1a1e23" stroke-linecap="round" stroke-linejoin="round" stroke-width="1"/>
      <line id="Line_757" data-name="Line 757" y1="3.498" transform="translate(9.199 0)" fill="#fff" stroke="#1a1e23" stroke-linecap="round" stroke-linejoin="round" stroke-width="1"/>
      <line id="Line_758" data-name="Line 758" x1="3.498" transform="translate(0 8.962)" fill="#fff" stroke="#1a1e23" stroke-linecap="round" stroke-linejoin="round" stroke-width="1"/>
    </g>
  </g>
</svg>
