<svg xmlns="http://www.w3.org/2000/svg" width="39.546" height="32.572" viewBox="0 0 39.546 32.572">
  <g id="illustration_admin-love" transform="translate(0.75 0.75)">
    <g id="Group_17418" data-name="Group 17418">
      <path id="Path_78601" data-name="Path 78601" d="M29.395,12.4H28.3a12.521,12.521,0,0,0-.774-1.862l.776-.776a2.432,2.432,0,0,0,0-3.434L26.242,4.27a2.44,2.44,0,0,0-3.433,0l-.776.776a12.62,12.62,0,0,0-1.863-.775V3.178A2.431,2.431,0,0,0,17.743.75H14.83A2.431,2.431,0,0,0,12.4,3.178V4.272a12.611,12.611,0,0,0-1.862.775L9.763,4.27a2.439,2.439,0,0,0-3.432,0L4.27,6.33a2.432,2.432,0,0,0,0,3.434l.776.776A12.611,12.611,0,0,0,4.272,12.4H3.177A2.43,2.43,0,0,0,.75,14.83v2.913A2.431,2.431,0,0,0,3.177,20.17H4.272a12.611,12.611,0,0,0,.775,1.862l-.777.776a2.431,2.431,0,0,0,0,3.433L6.33,28.3a2.439,2.439,0,0,0,3.432,0l.777-.776A12.611,12.611,0,0,0,12.4,28.3v1.094a2.431,2.431,0,0,0,2.428,2.428h2.913a2.43,2.43,0,0,0,2.427-2.428V28.3a12.62,12.62,0,0,0,1.863-.775l.776.776a2.44,2.44,0,0,0,3.433,0l2.06-2.06a2.431,2.431,0,0,0,0-3.433l-.776-.776A12.521,12.521,0,0,0,28.3,20.17h1.095a2.431,2.431,0,0,0,2.428-2.428V14.827A2.431,2.431,0,0,0,29.395,12.4" transform="translate(-0.75 -0.75)" fill="#ffc101" stroke="#707070" stroke-width="1.5"/>
      <path id="Path_78602" data-name="Path 78602" d="M17.368,27.676A15.478,15.478,0,0,0,6.19,32.439l1.222,1.222a2.44,2.44,0,0,0,3.432,0l.777-.777a12.611,12.611,0,0,0,1.862.775v1.094a2.431,2.431,0,0,0,2.428,2.428h2.913a2.429,2.429,0,0,0,2.427-2.428V33.658a12.62,12.62,0,0,0,1.863-.775l.776.777a2.441,2.441,0,0,0,3.433,0l1.222-1.222a15.476,15.476,0,0,0-11.178-4.763" transform="translate(-1.833 -6.109)" fill="#fff" stroke="#707070" stroke-width="1.5"/>
      <path id="Path_78603" data-name="Path 78603" d="M18.9,10.6A5.006,5.006,0,1,1,13.9,15.605,5.006,5.006,0,0,1,18.9,10.6" transform="translate(-3.367 -2.71)" fill="#b4ffe8" stroke="#707070" stroke-width="1.5"/>
      <circle id="Ellipse_2503" data-name="Ellipse 2503" cx="5.006" cy="5.006" r="5.006" transform="translate(10.53 7.889)" fill="none" stroke="#1d1d1d" stroke-linecap="round" stroke-linejoin="round" stroke-width="1.5"/>
      <path id="Path_78604" data-name="Path 78604" d="M28.09,32.095a15.348,15.348,0,0,0-21.139,0" transform="translate(-1.984 -6.149)" fill="none" stroke="#1d1d1d" stroke-linecap="round" stroke-linejoin="round" stroke-width="1.5"/>
      <path id="Path_78605" data-name="Path 78605" d="M29.395,12.4H28.3a12.521,12.521,0,0,0-.774-1.862l.776-.776a2.432,2.432,0,0,0,0-3.434L26.242,4.27a2.44,2.44,0,0,0-3.433,0l-.776.776a12.62,12.62,0,0,0-1.863-.775V3.178A2.431,2.431,0,0,0,17.743.75H14.83A2.431,2.431,0,0,0,12.4,3.178V4.272a12.611,12.611,0,0,0-1.862.775L9.763,4.27a2.439,2.439,0,0,0-3.432,0L4.27,6.33a2.432,2.432,0,0,0,0,3.434l.776.776A12.611,12.611,0,0,0,4.272,12.4H3.177A2.43,2.43,0,0,0,.75,14.83v2.913A2.431,2.431,0,0,0,3.177,20.17H4.272a12.611,12.611,0,0,0,.775,1.862l-.777.776a2.431,2.431,0,0,0,0,3.433L6.33,28.3a2.439,2.439,0,0,0,3.432,0l.777-.776A12.611,12.611,0,0,0,12.4,28.3v1.094a2.431,2.431,0,0,0,2.428,2.428h2.913a2.43,2.43,0,0,0,2.427-2.428V28.3a12.62,12.62,0,0,0,1.863-.775l.776.776a2.44,2.44,0,0,0,3.433,0l2.06-2.06a2.431,2.431,0,0,0,0-3.433l-.776-.776A12.521,12.521,0,0,0,28.3,20.17h1.095a2.431,2.431,0,0,0,2.428-2.428V14.827A2.431,2.431,0,0,0,29.395,12.4Z" transform="translate(-0.75 -0.75)" fill="none" stroke="#1d1d1d" stroke-linecap="round" stroke-linejoin="round" stroke-width="1.5"/>
      <path id="Path_78606" data-name="Path 78606" d="M35.664,33.965c-.312,0-.888,0-4.075-2.969-1.512-1.406-2.909-2.831-2.924-2.853a4.632,4.632,0,0,1-.075-6.55l.075-.074a4.832,4.832,0,0,1,6.748,0l.252.246.26-.235a4.833,4.833,0,0,1,6.751,0,4.632,4.632,0,0,1,.082,6.55l-.082.081S41.27,29.586,39.758,31c-3.2,2.967-3.785,2.967-4.094,2.967" transform="translate(-6.028 -4.61)" fill="#ffb1b1" stroke="#707070" stroke-width="1.5"/>
      <path id="Path_78607" data-name="Path 78607" d="M35.664,33.965c-.312,0-.888,0-4.075-2.969-1.512-1.406-2.909-2.831-2.924-2.853a4.632,4.632,0,0,1-.075-6.55l.075-.074a4.832,4.832,0,0,1,6.748,0l.252.246.26-.235a4.833,4.833,0,0,1,6.751,0,4.632,4.632,0,0,1,.082,6.55l-.082.081S41.27,29.586,39.758,31C36.554,33.965,35.974,33.965,35.664,33.965Z" transform="translate(-6.028 -4.61)" fill="none" stroke="#1a1e23" stroke-linecap="round" stroke-linejoin="round" stroke-width="1.5"/>
    </g>
  </g>
</svg>
