<svg xmlns="http://www.w3.org/2000/svg" width="27.815" height="28.109" viewBox="0 0 27.815 28.109">
  <g id="icon_emergency-color" transform="translate(1 1)">
    <path id="Path_70562" data-name="Path 70562" d="M384.525,210.983v7.627h6.454v-7.627l6.454,3.814,3.227-5.574-6.454-3.667,6.454-3.814-3.227-5.574-6.6,3.814V192.5H387.38v8.348l-9.308-4.681-3.227,5.574,8.591,5.088-5.736,3.259,2.2,3.8Z" transform="translate(-374.845 -192.501)" fill="#ffb1b1" fill-rule="evenodd"/>
    <path id="Path_70563" data-name="Path 70563" d="M384.525,210.983v7.627h6.454v-7.627l6.454,3.814,3.227-5.574-6.454-3.667,6.454-3.814-3.227-5.574-6.6,3.814V192.5h-6.307v7.481l-6.454-3.814-3.227,5.574,6.454,3.814-6.454,3.667,3.227,5.574Z" transform="translate(-374.845 -192.501)" fill="none" stroke="#1d1d1d" stroke-linecap="round" stroke-linejoin="round" stroke-width="2" fill-rule="evenodd"/>
  </g>
</svg>
