<svg xmlns="http://www.w3.org/2000/svg" width="171.833" height="119.128" viewBox="0 0 171.833 119.128">
  <g id="logo_aid-humanity-vertical-icon-end" transform="translate(0.501 0)">
    <g id="logo_aid-humanity-aid-text-medium" transform="translate(0 40.198)">
      <path id="Union_3" data-name="Union 3" d="M39.994,31.082a12.454,12.454,0,0,1-3.49-8.926,12.424,12.424,0,0,1,3.49-8.947,11.264,11.264,0,0,1,8.423-3.637,9.721,9.721,0,0,1,8.37,4.018V.622h5.167v33.5H56.787V30.674a9.679,9.679,0,0,1-8.37,4.069A11.226,11.226,0,0,1,39.994,31.082Zm3.83-14.4a7.463,7.463,0,0,0-2.155,5.476,7.466,7.466,0,0,0,2.155,5.48,7.8,7.8,0,0,0,10.81,0,7.464,7.464,0,0,0,2.153-5.48,7.462,7.462,0,0,0-2.153-5.476,7.791,7.791,0,0,0-10.81,0ZM3.493,31.082A12.448,12.448,0,0,1,0,22.156a12.418,12.418,0,0,1,3.493-8.947,11.25,11.25,0,0,1,8.42-3.637,9.723,9.723,0,0,1,8.373,4.018v-3.4h5.167V34.121H20.286V30.674a9.681,9.681,0,0,1-8.373,4.069A11.212,11.212,0,0,1,3.493,31.082Zm3.828-14.4a7.469,7.469,0,0,0-2.153,5.476,7.472,7.472,0,0,0,2.153,5.48,7.274,7.274,0,0,0,5.4,2.176,7.283,7.283,0,0,0,5.408-2.176,7.472,7.472,0,0,0,2.153-5.48,7.469,7.469,0,0,0-2.153-5.476,7.285,7.285,0,0,0-5.408-2.18A7.276,7.276,0,0,0,7.321,16.68ZM29.09,34.121V10.194h5.165V34.121Zm.261-28.5a3.167,3.167,0,0,1-.983-2.32,3.207,3.207,0,0,1,.96-2.32,3.288,3.288,0,0,1,4.689,0,3.22,3.22,0,0,1,.956,2.32,3.167,3.167,0,0,1-.983,2.32,3.228,3.228,0,0,1-4.639,0Z" transform="translate(-0.001)" fill="#fff" stroke="rgba(0,0,0,0)" stroke-width="1"/>
    </g>
    <g id="logo_aid-humanity-humanity-text" transform="translate(1.242 81.872)">
      <path id="Union_2" data-name="Union 2" d="M151.55,36.738v-4.8a5.213,5.213,0,0,0,3.3-.879,6.127,6.127,0,0,0,1.937-2.96L148.6,8.756h5.633l5.21,13.434,4.422-13.434h5.514l-7.283,20.017A13.207,13.207,0,0,1,157.957,35a9.207,9.207,0,0,1-5.71,1.761Q151.9,36.756,151.55,36.738Zm-70.757-10.5a10.572,10.572,0,0,1-2.86-7.5,10.577,10.577,0,0,1,2.86-7.5,9.051,9.051,0,0,1,6.853-3.058,7.848,7.848,0,0,1,6.515,2.918V8.756h5.156V28.742H94.161V26.383A7.839,7.839,0,0,1,87.646,29.3,9.051,9.051,0,0,1,80.793,26.243Zm3.856-11.551a5.527,5.527,0,0,0-1.559,4.056,5.534,5.534,0,0,0,1.559,4.059A5.317,5.317,0,0,0,88.6,24.384a5.39,5.39,0,0,0,3.979-1.578,5.5,5.5,0,0,0,1.578-4.059,5.493,5.493,0,0,0-1.578-4.056A5.393,5.393,0,0,0,88.6,13.111,5.319,5.319,0,0,0,84.649,14.691ZM24.479,27.1a8.348,8.348,0,0,1-2.139-6.076V8.756H27.5v11.63a4.089,4.089,0,0,0,1.08,3.058A3.918,3.918,0,0,0,31.455,24.5a4.233,4.233,0,0,0,3.194-1.239,5.149,5.149,0,0,0,1.2-3.717V8.756h5.154V28.742H35.851V26.5Q33.97,29.3,29.9,29.3A7.24,7.24,0,0,1,24.479,27.1Zm115.184.641q-2.178-1.6-2.178-5.719V13.712h-3.479V8.756h3.479V4.715l5.153-1.556v5.6h4.519v4.956h-4.519v8.313a1.97,1.97,0,0,0,.521,1.52,2.376,2.376,0,0,0,1.52.54,22.1,22.1,0,0,0,2.478-.021v4.678a23.963,23.963,0,0,1-2.669.164A8.154,8.154,0,0,1,139.663,27.744Zm-13.411,1V8.756h5.157V28.742Zm-9.15,0V17.108a4.1,4.1,0,0,0-1.079-3.058,3.94,3.94,0,0,0-2.878-1.059,4.241,4.241,0,0,0-3.2,1.239,5.158,5.158,0,0,0-1.2,3.717V28.742h-5.153V8.756h5.153v2.237q1.881-2.8,5.956-2.8a7.222,7.222,0,0,1,5.413,2.2,8.336,8.336,0,0,1,2.142,6.076V28.742Zm-47.282,0V16.788a4.092,4.092,0,0,0-.878-2.8,3.12,3.12,0,0,0-2.478-1,3.378,3.378,0,0,0-2.737,1.16,5.075,5.075,0,0,0-.978,3.357V28.742H57.591V16.788a4.088,4.088,0,0,0-.879-2.8,3.122,3.122,0,0,0-2.477-1,3.448,3.448,0,0,0-2.737,1.16,4.926,4.926,0,0,0-1.02,3.357V28.742H45.322V8.756h5.156v2.118a6.218,6.218,0,0,1,5.554-2.679,5.919,5.919,0,0,1,5.434,2.878,6.784,6.784,0,0,1,5.959-2.878,7.11,7.11,0,0,1,5.5,2.24,8.52,8.52,0,0,1,2.056,5.994V28.742Zm-56.309,0V17.108a4.11,4.11,0,0,0-1.08-3.058,3.936,3.936,0,0,0-2.877-1.059,4.236,4.236,0,0,0-3.2,1.239,5.154,5.154,0,0,0-1.2,3.717V28.742H0V.76H5.155V10.993q1.878-2.8,5.957-2.8a7.233,7.233,0,0,1,5.416,2.2,8.35,8.35,0,0,1,2.135,6.076V28.742ZM126.595,5.417a3.037,3.037,0,0,1-.94-2.219,3.109,3.109,0,0,1,.94-2.24A3,3,0,0,1,128.813,0a3.057,3.057,0,0,1,2.258.958,3.109,3.109,0,0,1,.94,2.24,3.037,3.037,0,0,1-.94,2.219,3.083,3.083,0,0,1-2.258.937A3.027,3.027,0,0,1,126.595,5.417Z" fill="#fff" stroke="rgba(0,0,0,0)" stroke-width="1"/>
    </g>
    <g id="logo_aid-humanity-icon" transform="translate(71.898)">
      <path id="Path_70532" data-name="Path 70532" d="M76.291,21.16A10.576,10.576,0,0,1,66.959,5.639a10.577,10.577,0,1,1,18.7,9.888h0A10.588,10.588,0,0,1,76.291,21.16Zm.025-15.3a4.723,4.723,0,1,0,4.168,6.933h0a4.728,4.728,0,0,0-4.168-6.933Zm6.755,8.3h0Z" transform="translate(-47.596 0)" fill="#ffc100"/>
      <path id="Union_1" data-name="Union 1" d="M26.619,50.721,4.988,29.084A17.04,17.04,0,0,1,28.714,4.624a17.039,17.039,0,0,1,23.723,24.46A2.926,2.926,0,1,1,48.3,24.946,11.187,11.187,0,1,0,32.479,9.125l-1.7,1.7,0,0L20.317,21.29a2.928,2.928,0,0,1-4.141-4.141l8.38-8.377A11.178,11.178,0,0,0,9.132,24.946L30.758,46.58a2.928,2.928,0,1,1-4.139,4.141Zm7.637-6.955L24.122,33.631a2.928,2.928,0,0,1,4.141-4.141L38.4,39.628a2.926,2.926,0,1,1-4.139,4.138Zm7.23-7.617L31.738,26.4a2.927,2.927,0,0,1,4.141-4.138l9.745,9.751a2.926,2.926,0,1,1-4.138,4.138Z" transform="translate(0 23.324)" fill="#00ade9" stroke="rgba(0,0,0,0)" stroke-width="1"/>
    </g>
  </g>
</svg>
