<svg xmlns="http://www.w3.org/2000/svg" width="23.64" height="22.786" viewBox="0 0 23.64 22.786">
  <g id="icon_fundraising" transform="translate(0.75 0.75)">
    <g id="Group_4105" data-name="Group 4105">
      <line id="Line_1224" data-name="Line 1224" x2="22.14" transform="translate(0 0)" fill="none" stroke="#102558" stroke-linecap="round" stroke-linejoin="round" stroke-width="1.5"/>
      <path id="Path_23420" data-name="Path 23420" d="M19.085,15.782H4.918a2.636,2.636,0,0,1-2.642-2.629V.75H21.727v12.4A2.636,2.636,0,0,1,19.085,15.782Z" transform="translate(-0.932 -0.75)" fill="none" stroke="#102558" stroke-linecap="round" stroke-linejoin="round" stroke-width="1.5"/>
      <path id="Path_23421" data-name="Path 23421" d="M6.636,12.476,9.167,9.42l2.565,1.892,4.221-4.318,2.4,1.364" transform="translate(-1.452 -1.521)" fill="none" stroke="#102558" stroke-linecap="round" stroke-linejoin="round" stroke-width="1.5"/>
      <line id="Line_1225" data-name="Line 1225" y2="2.38" transform="translate(11.07 15.27)" fill="none" stroke="#102558" stroke-linecap="round" stroke-linejoin="round" stroke-width="1.5"/>
      <path id="Path_23422" data-name="Path 23422" d="M14.87,22.748a1.794,1.794,0,1,1-1.793-1.784A1.789,1.789,0,0,1,14.87,22.748Z" transform="translate(-2.007 -3.247)" fill="none" stroke="#102558" stroke-linecap="round" stroke-linejoin="round" stroke-width="1.5"/>
    </g>
  </g>
</svg>
