<svg xmlns="http://www.w3.org/2000/svg" width="50.953" height="55.772" viewBox="0 0 50.953 55.772">
  <g id="illustration_fundraiser-hand" transform="translate(1 1.013)">
    <g id="Group_17345" data-name="Group 17345" transform="translate(0 0)">
      <path id="Path_78574" data-name="Path 78574" d="M38.8,48.3H1.8a1.3,1.3,0,0,1-1.3-1.29V21.03H40.105V47.015A1.3,1.3,0,0,1,38.8,48.3Z" transform="translate(-0.5 5.454)" fill="#ffc100" stroke="#1d1d1d" stroke-linecap="round" stroke-linejoin="round" stroke-width="2"/>
      <path id="Path_78575" data-name="Path 78575" d="M12.942,14.093H9.51a2.614,2.614,0,0,0-1.97.893L.5,23.042H40.105l-7.04-8.056a2.615,2.615,0,0,0-1.972-.893H27.322" transform="translate(-0.5 3.442)" fill="#ffd34a" stroke="#1d1d1d" stroke-linecap="round" stroke-linejoin="round" stroke-width="2"/>
      <line id="Line_2298" data-name="Line 2298" x2="8.051" transform="translate(15.498 22.01)" fill="none" stroke="#1d1d1d" stroke-linecap="round" stroke-linejoin="round" stroke-width="2"/>
      <path id="Path_78576" data-name="Path 78576" d="M22.248,12.2a5.584,5.584,0,0,1-11.042-1.113,5.462,5.462,0,0,1,.6-2.5" transform="translate(2.746 1.845)" fill="none" stroke="#1d1d1d" stroke-linecap="round" stroke-linejoin="round" stroke-width="2"/>
      <path id="Path_78577" data-name="Path 78577" d="M18.56,11.176a2.529,2.529,0,0,1-5.013-.446,2.472,2.472,0,0,1,.169-.9" transform="translate(3.456 2.205)" fill="none" stroke="#1d1d1d" stroke-linecap="round" stroke-linejoin="round" stroke-width="2"/>
      <path id="Path_78578" data-name="Path 78578" d="M35.523,10.476C32.843,14.15,24.9,12.5,21.455,9.115H16.081a2.241,2.241,0,1,1,0-4.482h8.336" transform="translate(3.537 0.698)" fill="none" stroke="#1d1d1d" stroke-linecap="round" stroke-linejoin="round" stroke-width="2"/>
      <path id="Path_78579" data-name="Path 78579" d="M16.449,6.941,9.337,9.99A2.275,2.275,0,0,1,6.359,8.822,2.232,2.232,0,0,1,7.539,5.876l10.4-4.43a11.847,11.847,0,0,1,7.2-.664L37.841,3.6" transform="translate(1.22 -0.501)" fill="none" stroke="#1d1d1d" stroke-linecap="round" stroke-linejoin="round" stroke-width="2"/>
      <path id="Path_78580" data-name="Path 78580" d="M40.366,16.142H30.473V1.618h9.893" transform="translate(8.588 -0.176)" fill="#00c98b" stroke="#1d1d1d" stroke-linecap="round" stroke-linejoin="round" stroke-width="2"/>
      <g id="icon_heart" data-name="icon heart" transform="translate(13.73 35.31)">
        <g id="Group_3608" data-name="Group 3608" transform="translate(0)">
          <path id="Path_23441" data-name="Path 23441" d="M291.013,405.9c-.232,0-.661,0-3.033-2.187-1.125-1.036-2.165-2.085-2.176-2.1a3.388,3.388,0,0,1-.056-4.825l.056-.055a3.623,3.623,0,0,1,5.022,0l.188.181.193-.174a3.623,3.623,0,0,1,5.024,0,3.388,3.388,0,0,1,.06,4.825l-.06.06s-1.046,1.051-2.171,2.091C291.674,405.9,291.244,405.9,291.013,405.9Z" transform="translate(-284.767 -395.718)" fill="#ffb1b1" stroke="#1a1e23" stroke-linecap="round" stroke-linejoin="round" stroke-width="2"/>
        </g>
      </g>
    </g>
  </g>
</svg>
