<svg xmlns="http://www.w3.org/2000/svg" width="22.608" height="22.986" viewBox="0 0 22.608 22.986">
  <g id="illustration_gift" transform="translate(0.75 0.75)">
    <g id="Group_573" data-name="Group 573">
      <rect id="Rectangle_2768" data-name="Rectangle 2768" width="14.419" height="4.942" transform="translate(6.688 4.523)" fill="#ccf2ff"/>
      <path id="Rectangle_2769" data-name="Rectangle 2769" d="M0,0H14.947a0,0,0,0,1,0,0V8.927a3.067,3.067,0,0,1-3.067,3.067H0a0,0,0,0,1,0,0V0A0,0,0,0,1,0,0Z" transform="translate(4.996 9.492)" fill="#ccf2ff"/>
      <rect id="Rectangle_2770" data-name="Rectangle 2770" width="21.108" height="4.942" rx="1" transform="translate(0 4.523)" fill="none" stroke="#1d1d1d" stroke-linecap="round" stroke-linejoin="round" stroke-width="1.5"/>
      <path id="Rectangle_2771" data-name="Rectangle 2771" d="M0,0H18.779a0,0,0,0,1,0,0V8.556a3.437,3.437,0,0,1-3.437,3.437H3.437A3.437,3.437,0,0,1,0,8.556V0A0,0,0,0,1,0,0Z" transform="translate(1.164 9.492)" fill="none" stroke="#1d1d1d" stroke-linecap="round" stroke-linejoin="round" stroke-width="1.5"/>
      <path id="Rectangle_2772" data-name="Rectangle 2772" d="M2.208,0h.034A2.208,2.208,0,0,1,4.451,2.208V4.416a0,0,0,0,1,0,0H2.208A2.208,2.208,0,0,1,0,2.208v0A2.208,2.208,0,0,1,2.208,0Z" transform="translate(6.151)" fill="none" stroke="#1d1d1d" stroke-linecap="round" stroke-linejoin="round" stroke-width="1.5"/>
      <path id="Rectangle_2773" data-name="Rectangle 2773" d="M2.208,0H4.451a0,0,0,0,1,0,0V2.208A2.208,2.208,0,0,1,2.243,4.416H2.208A2.208,2.208,0,0,1,0,2.208v0A2.208,2.208,0,0,1,2.208,0Z" transform="translate(15.079 4.416) rotate(180)" fill="none" stroke="#1d1d1d" stroke-linecap="round" stroke-linejoin="round" stroke-width="1.5"/>
    </g>
  </g>
</svg>
