<svg xmlns="http://www.w3.org/2000/svg" width="175.927" height="187.09" viewBox="0 0 175.927 187.09">
  <g id="illustration_share-link" transform="translate(0 1.249)">
    <g id="Group_15502" data-name="Group 15502" transform="translate(-234.074 -686.996)">
      <path id="Path_71303" data-name="Path 71303" d="M297.19,719.387a.023.023,0,0,0,.024-.023.024.024,0,0,0-.048,0A.024.024,0,0,0,297.19,719.387Z" fill="#e5e5e5"/>
      <circle id="Ellipse_2263" data-name="Ellipse 2263" cx="0.071" cy="0.071" r="0.071" transform="translate(305.639 719.293)" fill="#e5e5e5"/>
      <path id="Path_71304" data-name="Path 71304" d="M314.229,719.458a.095.095,0,1,0-.094-.094A.094.094,0,0,0,314.229,719.458Z" fill="#e5e5e5"/>
      <circle id="Ellipse_2264" data-name="Ellipse 2264" cx="0.071" cy="0.071" r="0.071" transform="translate(322.678 719.293)" fill="#e5e5e5"/>
      <path id="Path_71305" data-name="Path 71305" d="M331.269,719.387a.023.023,0,0,0,.024-.023.024.024,0,0,0-.048,0A.024.024,0,0,0,331.269,719.387Z" fill="#e5e5e5"/>
      <circle id="Ellipse_2265" data-name="Ellipse 2265" cx="0.118" cy="0.118" r="0.118" transform="translate(280.032 727.765)" fill="#e5e5e5"/>
      <path id="Path_71306" data-name="Path 71306" d="M288.67,728.238a.354.354,0,1,0-.354-.355A.355.355,0,0,0,288.67,728.238Z" fill="#e5e5e5"/>
      <path id="Path_71307" data-name="Path 71307" d="M297.19,728.521a.638.638,0,1,0-.638-.638A.638.638,0,0,0,297.19,728.521Z" fill="#e5e5e5"/>
      <path id="Path_71308" data-name="Path 71308" d="M305.71,728.687a.8.8,0,1,0-.8-.8A.8.8,0,0,0,305.71,728.687Z" fill="#e5e5e5"/>
      <path id="Path_71309" data-name="Path 71309" d="M314.229,728.734a.85.85,0,1,0-.85-.851A.851.851,0,0,0,314.229,728.734Z" fill="#e5e5e5"/>
      <path id="Path_71310" data-name="Path 71310" d="M322.749,728.687a.8.8,0,1,0-.8-.8A.8.8,0,0,0,322.749,728.687Z" fill="#e5e5e5"/>
      <path id="Path_71311" data-name="Path 71311" d="M331.269,728.521a.638.638,0,1,0-.638-.638A.638.638,0,0,0,331.269,728.521Z" fill="#e5e5e5"/>
      <circle id="Ellipse_2266" data-name="Ellipse 2266" cx="0.378" cy="0.378" r="0.378" transform="translate(339.411 727.505)" fill="#e5e5e5"/>
      <circle id="Ellipse_2267" data-name="Ellipse 2267" cx="0.118" cy="0.118" r="0.118" transform="translate(348.19 727.765)" fill="#e5e5e5"/>
      <path id="Path_71312" data-name="Path 71312" d="M263.111,736.427a.024.024,0,0,0,.024-.024.024.024,0,0,0-.048,0A.024.024,0,0,0,263.111,736.427Z" fill="#e5e5e5"/>
      <path id="Path_71313" data-name="Path 71313" d="M271.631,736.71a.307.307,0,1,0-.307-.307A.307.307,0,0,0,271.631,736.71Z" fill="#e5e5e5"/>
      <path id="Path_71314" data-name="Path 71314" d="M280.15,737.183a.779.779,0,1,0-.779-.78A.78.78,0,0,0,280.15,737.183Z" fill="#e5e5e5"/>
      <circle id="Ellipse_2268" data-name="Ellipse 2268" cx="1.181" cy="1.181" r="1.181" transform="translate(287.489 735.222)" fill="#e5e5e5"/>
      <path id="Path_71315" data-name="Path 71315" d="M297.19,737.892A1.489,1.489,0,1,0,295.7,736.4,1.489,1.489,0,0,0,297.19,737.892Z" fill="#e5e5e5"/>
      <path id="Path_71316" data-name="Path 71316" d="M305.71,738.081a1.677,1.677,0,1,0-1.678-1.678A1.677,1.677,0,0,0,305.71,738.081Z" fill="#e5e5e5"/>
      <circle id="Ellipse_2269" data-name="Ellipse 2269" cx="1.748" cy="1.748" r="1.748" transform="translate(312.481 734.655)" fill="#e5e5e5"/>
      <path id="Path_71317" data-name="Path 71317" d="M322.749,738.1a1.7,1.7,0,1,0-1.7-1.7A1.7,1.7,0,0,0,322.749,738.1Z" fill="#e5e5e5"/>
      <path id="Path_71318" data-name="Path 71318" d="M331.269,737.915a1.512,1.512,0,1,0-1.512-1.512A1.512,1.512,0,0,0,331.269,737.915Z" fill="#e5e5e5"/>
      <path id="Path_71319" data-name="Path 71319" d="M339.789,737.632a1.229,1.229,0,1,0-1.229-1.229A1.229,1.229,0,0,0,339.789,737.632Z" fill="#e5e5e5"/>
      <path id="Path_71320" data-name="Path 71320" d="M348.308,737.23a.827.827,0,1,0-.826-.827A.827.827,0,0,0,348.308,737.23Z" fill="#e5e5e5"/>
      <path id="Path_71321" data-name="Path 71321" d="M356.828,736.758a.354.354,0,1,0-.354-.355A.355.355,0,0,0,356.828,736.758Z" fill="#e5e5e5"/>
      <path id="Path_71322" data-name="Path 71322" d="M365.348,736.427a.024.024,0,0,0,.024-.024.024.024,0,0,0-.048,0A.024.024,0,0,0,365.348,736.427Z" fill="#e5e5e5"/>
      <path id="Path_71323" data-name="Path 71323" d="M254.591,744.947a.024.024,0,0,0,0-.048.024.024,0,0,0,0,.048Z" fill="#e5e5e5"/>
      <path id="Path_71324" data-name="Path 71324" d="M263.111,745.325a.4.4,0,1,0-.4-.4A.4.4,0,0,0,263.111,745.325Z" fill="#e5e5e5"/>
      <path id="Path_71325" data-name="Path 71325" d="M271.631,745.939a1.016,1.016,0,1,0-1.016-1.016A1.016,1.016,0,0,0,271.631,745.939Z" fill="#e5e5e5"/>
      <circle id="Ellipse_2270" data-name="Ellipse 2270" cx="1.559" cy="1.559" r="1.559" transform="translate(278.591 743.364)" fill="#e5e5e5"/>
      <circle id="Ellipse_2271" data-name="Ellipse 2271" cx="2.008" cy="2.008" r="2.008" transform="translate(286.662 742.915)" fill="#e5e5e5"/>
      <path id="Path_71326" data-name="Path 71326" d="M297.19,747.286a2.363,2.363,0,1,0-2.362-2.363A2.362,2.362,0,0,0,297.19,747.286Z" fill="#e5e5e5"/>
      <path id="Path_71327" data-name="Path 71327" d="M305.71,747.5a2.575,2.575,0,1,0-2.575-2.575A2.575,2.575,0,0,0,305.71,747.5Z" fill="#e5e5e5"/>
      <path id="Path_71328" data-name="Path 71328" d="M314.229,747.569a2.646,2.646,0,1,0-2.646-2.646A2.646,2.646,0,0,0,314.229,747.569Z" fill="#e5e5e5"/>
      <path id="Path_71329" data-name="Path 71329" d="M322.749,747.522a2.6,2.6,0,1,0-2.6-2.6A2.6,2.6,0,0,0,322.749,747.522Z" fill="#e5e5e5"/>
      <path id="Path_71330" data-name="Path 71330" d="M331.269,747.309a2.386,2.386,0,1,0-2.386-2.386A2.386,2.386,0,0,0,331.269,747.309Z" fill="#e5e5e5"/>
      <path id="Path_71331" data-name="Path 71331" d="M339.789,746.955a2.032,2.032,0,1,0-2.032-2.032A2.031,2.031,0,0,0,339.789,746.955Z" fill="#e5e5e5"/>
      <path id="Path_71332" data-name="Path 71332" d="M348.308,746.506a1.583,1.583,0,1,0-1.582-1.583A1.583,1.583,0,0,0,348.308,746.506Z" fill="#e5e5e5"/>
      <path id="Path_71333" data-name="Path 71333" d="M356.828,745.986a1.063,1.063,0,1,0-1.063-1.063A1.063,1.063,0,0,0,356.828,745.986Z" fill="#e5e5e5"/>
      <path id="Path_71334" data-name="Path 71334" d="M365.348,745.372a.449.449,0,1,0-.449-.449A.449.449,0,0,0,365.348,745.372Z" fill="#e5e5e5"/>
      <path id="Path_71335" data-name="Path 71335" d="M373.868,744.97a.047.047,0,0,0,0-.094.047.047,0,1,0,0,.094Z" fill="#e5e5e5"/>
      <path id="Path_71336" data-name="Path 71336" d="M254.591,753.75a.307.307,0,1,0-.307-.307A.307.307,0,0,0,254.591,753.75Z" fill="#e5e5e5"/>
      <path id="Path_71337" data-name="Path 71337" d="M263.111,754.459a1.016,1.016,0,1,0-1.016-1.016A1.016,1.016,0,0,0,263.111,754.459Z" fill="#e5e5e5"/>
      <path id="Path_71338" data-name="Path 71338" d="M271.631,755.12a1.677,1.677,0,1,0-1.678-1.677A1.677,1.677,0,0,0,271.631,755.12Z" fill="#e5e5e5"/>
      <path id="Path_71339" data-name="Path 71339" d="M280.15,755.711a2.268,2.268,0,1,0-2.268-2.268A2.269,2.269,0,0,0,280.15,755.711Z" fill="#e5e5e5"/>
      <path id="Path_71340" data-name="Path 71340" d="M288.67,756.231a2.788,2.788,0,1,0-2.788-2.788A2.788,2.788,0,0,0,288.67,756.231Z" fill="#e5e5e5"/>
      <circle id="Ellipse_2272" data-name="Ellipse 2272" cx="3.189" cy="3.189" r="3.189" transform="translate(294.001 750.253)" fill="#e5e5e5"/>
      <path id="Path_71341" data-name="Path 71341" d="M305.71,756.845a3.4,3.4,0,1,0-3.4-3.4A3.4,3.4,0,0,0,305.71,756.845Z" fill="#e5e5e5"/>
      <path id="Path_71342" data-name="Path 71342" d="M314.229,756.892a3.449,3.449,0,1,0-3.449-3.449A3.45,3.45,0,0,0,314.229,756.892Z" fill="#e5e5e5"/>
      <path id="Path_71343" data-name="Path 71343" d="M322.749,756.845a3.4,3.4,0,1,0-3.4-3.4A3.4,3.4,0,0,0,322.749,756.845Z" fill="#e5e5e5"/>
      <path id="Path_71344" data-name="Path 71344" d="M331.269,756.656a3.213,3.213,0,1,0-3.213-3.213A3.214,3.214,0,0,0,331.269,756.656Z" fill="#e5e5e5"/>
      <path id="Path_71345" data-name="Path 71345" d="M339.789,756.278a2.835,2.835,0,1,0-2.835-2.835A2.835,2.835,0,0,0,339.789,756.278Z" fill="#e5e5e5"/>
      <circle id="Ellipse_2273" data-name="Ellipse 2273" cx="2.315" cy="2.315" r="2.315" transform="translate(345.993 751.128)" fill="#e5e5e5"/>
      <path id="Path_71346" data-name="Path 71346" d="M356.828,755.167a1.724,1.724,0,1,0-1.724-1.724A1.724,1.724,0,0,0,356.828,755.167Z" fill="#e5e5e5"/>
      <path id="Path_71347" data-name="Path 71347" d="M365.348,754.506a1.063,1.063,0,1,0-1.063-1.063A1.063,1.063,0,0,0,365.348,754.506Z" fill="#e5e5e5"/>
      <circle id="Ellipse_2274" data-name="Ellipse 2274" cx="0.378" cy="0.378" r="0.378" transform="translate(373.49 753.065)" fill="#e5e5e5"/>
      <circle id="Ellipse_2275" data-name="Ellipse 2275" cx="0.118" cy="0.118" r="0.118" transform="translate(245.953 761.844)" fill="#e5e5e5"/>
      <path id="Path_71348" data-name="Path 71348" d="M254.591,762.742a.78.78,0,1,0-.779-.78A.78.78,0,0,0,254.591,762.742Z" fill="#e5e5e5"/>
      <circle id="Ellipse_2276" data-name="Ellipse 2276" cx="1.559" cy="1.559" r="1.559" transform="translate(261.552 760.403)" fill="#e5e5e5"/>
      <path id="Path_71349" data-name="Path 71349" d="M271.631,764.231a2.268,2.268,0,1,0-2.268-2.269A2.269,2.269,0,0,0,271.631,764.231Z" fill="#e5e5e5"/>
      <path id="Path_71350" data-name="Path 71350" d="M280.15,764.916a2.954,2.954,0,1,0-2.953-2.954A2.955,2.955,0,0,0,280.15,764.916Z" fill="#e5e5e5"/>
      <path id="Path_71351" data-name="Path 71351" d="M288.67,765.412a3.449,3.449,0,1,0-3.449-3.45A3.45,3.45,0,0,0,288.67,765.412Z" fill="#e5e5e5"/>
      <circle id="Ellipse_2277" data-name="Ellipse 2277" cx="3.567" cy="3.567" r="3.567" transform="translate(293.095 759.015) rotate(-9.251)" fill="#e5e5e5"/>
      <circle id="Ellipse_2278" data-name="Ellipse 2278" cx="3.567" cy="3.567" r="3.567" transform="translate(301.615 759.015) rotate(-9.251)" fill="#e5e5e5"/>
      <circle id="Ellipse_2279" data-name="Ellipse 2279" cx="3.567" cy="3.567" r="3.567" transform="translate(310.135 759.015) rotate(-9.251)" fill="#e5e5e5"/>
      <circle id="Ellipse_2280" data-name="Ellipse 2280" cx="3.567" cy="3.567" r="3.567" transform="translate(318.655 759.015) rotate(-9.251)" fill="#e5e5e5"/>
      <circle id="Ellipse_2281" data-name="Ellipse 2281" cx="3.567" cy="3.567" r="3.567" transform="matrix(0.987, -0.161, 0.161, 0.987, 327.174, 759.015)" fill="#e5e5e5"/>
      <path id="Path_71352" data-name="Path 71352" d="M339.789,765.435a3.473,3.473,0,1,0-3.473-3.473A3.472,3.472,0,0,0,339.789,765.435Z" fill="#e5e5e5"/>
      <circle id="Ellipse_2282" data-name="Ellipse 2282" cx="3" cy="3" r="3" transform="translate(345.308 758.962)" fill="#e5e5e5"/>
      <path id="Path_71353" data-name="Path 71353" d="M356.828,764.3a2.339,2.339,0,1,0-2.339-2.339A2.339,2.339,0,0,0,356.828,764.3Z" fill="#e5e5e5"/>
      <path id="Path_71354" data-name="Path 71354" d="M365.348,763.569a1.606,1.606,0,1,0-1.607-1.607A1.606,1.606,0,0,0,365.348,763.569Z" fill="#e5e5e5"/>
      <path id="Path_71355" data-name="Path 71355" d="M373.868,762.813a.85.85,0,1,0-.851-.851A.851.851,0,0,0,373.868,762.813Z" fill="#e5e5e5"/>
      <path id="Path_71356" data-name="Path 71356" d="M382.387,762.1a.142.142,0,1,0-.141-.142A.141.141,0,0,0,382.387,762.1Z" fill="#e5e5e5"/>
      <path id="Path_71357" data-name="Path 71357" d="M246.071,770.837a.354.354,0,1,0-.354-.355A.355.355,0,0,0,246.071,770.837Z" fill="#e5e5e5"/>
      <circle id="Ellipse_2283" data-name="Ellipse 2283" cx="1.181" cy="1.181" r="1.181" transform="translate(253.41 769.301)" fill="#e5e5e5"/>
      <circle id="Ellipse_2284" data-name="Ellipse 2284" cx="2.008" cy="2.008" r="2.008" transform="translate(261.103 768.474)" fill="#e5e5e5"/>
      <path id="Path_71358" data-name="Path 71358" d="M271.631,773.27a2.788,2.788,0,1,0-2.788-2.788A2.788,2.788,0,0,0,271.631,773.27Z" fill="#e5e5e5"/>
      <path id="Path_71359" data-name="Path 71359" d="M280.15,773.932a3.449,3.449,0,1,0-3.449-3.45A3.45,3.45,0,0,0,280.15,773.932Z" fill="#e5e5e5"/>
      <circle id="Ellipse_2285" data-name="Ellipse 2285" cx="3.567" cy="3.567" r="3.567" transform="translate(284.576 767.535) rotate(-9.252)" fill="#e5e5e5"/>
      <circle id="Ellipse_2286" data-name="Ellipse 2286" cx="3.567" cy="3.567" r="3.567" transform="translate(293.095 767.535) rotate(-9.251)" fill="#e5e5e5"/>
      <circle id="Ellipse_2287" data-name="Ellipse 2287" cx="3.567" cy="3.567" r="3.567" transform="translate(301.615 767.535) rotate(-9.251)" fill="#e5e5e5"/>
      <circle id="Ellipse_2288" data-name="Ellipse 2288" cx="3.567" cy="3.567" r="3.567" transform="translate(310.135 767.535) rotate(-9.251)" fill="#e5e5e5"/>
      <circle id="Ellipse_2289" data-name="Ellipse 2289" cx="3.567" cy="3.567" r="3.567" transform="translate(318.655 767.535) rotate(-9.251)" fill="#e5e5e5"/>
      <circle id="Ellipse_2290" data-name="Ellipse 2290" cx="3.567" cy="3.567" r="3.567" transform="translate(327.174 767.535) rotate(-9.25)" fill="#e5e5e5"/>
      <circle id="Ellipse_2291" data-name="Ellipse 2291" cx="3.567" cy="3.567" r="3.567" transform="matrix(0.987, -0.161, 0.161, 0.987, 335.694, 767.535)" fill="#e5e5e5"/>
      <path id="Path_71360" data-name="Path 71360" d="M348.308,773.955a3.473,3.473,0,1,0-3.472-3.473A3.473,3.473,0,0,0,348.308,773.955Z" fill="#e5e5e5"/>
      <path id="Path_71361" data-name="Path 71361" d="M356.828,773.341a2.858,2.858,0,1,0-2.858-2.859A2.859,2.859,0,0,0,356.828,773.341Z" fill="#e5e5e5"/>
      <path id="Path_71362" data-name="Path 71362" d="M365.348,772.561a2.079,2.079,0,1,0-2.079-2.079A2.079,2.079,0,0,0,365.348,772.561Z" fill="#e5e5e5"/>
      <circle id="Ellipse_2292" data-name="Ellipse 2292" cx="1.252" cy="1.252" r="1.252" transform="translate(372.616 769.23)" fill="#e5e5e5"/>
      <path id="Path_71363" data-name="Path 71363" d="M382.387,770.908a.426.426,0,1,0-.425-.426A.426.426,0,0,0,382.387,770.908Z" fill="#e5e5e5"/>
      <path id="Path_71364" data-name="Path 71364" d="M237.552,779.026a.024.024,0,0,0,0-.048.024.024,0,1,0,0,.048Z" fill="#e5e5e5"/>
      <path id="Path_71365" data-name="Path 71365" d="M246.071,779.64a.638.638,0,1,0-.637-.638A.638.638,0,0,0,246.071,779.64Z" fill="#e5e5e5"/>
      <path id="Path_71366" data-name="Path 71366" d="M254.591,780.49A1.488,1.488,0,1,0,253.1,779,1.489,1.489,0,0,0,254.591,780.49Z" fill="#e5e5e5"/>
      <path id="Path_71367" data-name="Path 71367" d="M263.111,781.365A2.362,2.362,0,1,0,260.749,779,2.362,2.362,0,0,0,263.111,781.365Z" fill="#e5e5e5"/>
      <circle id="Ellipse_2293" data-name="Ellipse 2293" cx="3.189" cy="3.189" r="3.189" transform="translate(268.441 775.813)" fill="#e5e5e5"/>
      <circle id="Ellipse_2294" data-name="Ellipse 2294" cx="3.567" cy="3.567" r="3.567" transform="translate(276.056 776.055) rotate(-9.252)" fill="#e5e5e5"/>
      <circle id="Ellipse_2295" data-name="Ellipse 2295" cx="3.567" cy="3.567" r="3.567" transform="translate(284.576 776.055) rotate(-9.252)" fill="#e5e5e5"/>
      <circle id="Ellipse_2296" data-name="Ellipse 2296" cx="3.567" cy="3.567" r="3.567" transform="translate(293.095 776.055) rotate(-9.251)" fill="#e5e5e5"/>
      <circle id="Ellipse_2297" data-name="Ellipse 2297" cx="3.567" cy="3.567" r="3.567" transform="translate(301.615 776.055) rotate(-9.251)" fill="#e5e5e5"/>
      <circle id="Ellipse_2298" data-name="Ellipse 2298" cx="3.567" cy="3.567" r="3.567" transform="translate(310.135 776.055) rotate(-9.251)" fill="#e5e5e5"/>
      <circle id="Ellipse_2299" data-name="Ellipse 2299" cx="3.567" cy="3.567" r="3.567" transform="translate(318.655 776.055) rotate(-9.251)" fill="#e5e5e5"/>
      <circle id="Ellipse_2300" data-name="Ellipse 2300" cx="3.567" cy="3.567" r="3.567" transform="translate(327.174 776.055) rotate(-9.25)" fill="#e5e5e5"/>
      <circle id="Ellipse_2301" data-name="Ellipse 2301" cx="3.567" cy="3.567" r="3.567" transform="matrix(0.987, -0.161, 0.161, 0.987, 335.694, 776.054)" fill="#e5e5e5"/>
      <circle id="Ellipse_2302" data-name="Ellipse 2302" cx="3.567" cy="3.567" r="3.567" transform="translate(344.214 776.054) rotate(-9.25)" fill="#e5e5e5"/>
      <path id="Path_71368" data-name="Path 71368" d="M356.828,782.262a3.26,3.26,0,1,0-3.26-3.26A3.26,3.26,0,0,0,356.828,782.262Z" fill="#e5e5e5"/>
      <circle id="Ellipse_2303" data-name="Ellipse 2303" cx="2.433" cy="2.433" r="2.433" transform="translate(362.171 780.325) rotate(-67.609)" fill="#e5e5e5"/>
      <path id="Path_71369" data-name="Path 71369" d="M373.868,780.585A1.583,1.583,0,1,0,372.285,779,1.583,1.583,0,0,0,373.868,780.585Z" fill="#e5e5e5"/>
      <path id="Path_71370" data-name="Path 71370" d="M382.387,779.711a.709.709,0,1,0-.708-.709A.709.709,0,0,0,382.387,779.711Z" fill="#e5e5e5"/>
      <path id="Path_71371" data-name="Path 71371" d="M390.907,779.049a.047.047,0,1,0-.047-.047A.047.047,0,0,0,390.907,779.049Z" fill="#e5e5e5"/>
      <circle id="Ellipse_2304" data-name="Ellipse 2304" cx="0.071" cy="0.071" r="0.071" transform="translate(237.481 787.451)" fill="#e5e5e5"/>
      <path id="Path_71372" data-name="Path 71372" d="M246.071,788.325a.8.8,0,1,0-.8-.8A.8.8,0,0,0,246.071,788.325Z" fill="#e5e5e5"/>
      <path id="Path_71373" data-name="Path 71373" d="M254.591,789.2a1.677,1.677,0,1,0-1.677-1.677A1.677,1.677,0,0,0,254.591,789.2Z" fill="#e5e5e5"/>
      <path id="Path_71374" data-name="Path 71374" d="M263.111,790.1a2.575,2.575,0,1,0-2.575-2.575A2.575,2.575,0,0,0,263.111,790.1Z" fill="#e5e5e5"/>
      <path id="Path_71375" data-name="Path 71375" d="M271.631,790.924a3.4,3.4,0,1,0-3.4-3.4A3.4,3.4,0,0,0,271.631,790.924Z" fill="#e5e5e5"/>
      <circle id="Ellipse_2305" data-name="Ellipse 2305" cx="3.567" cy="3.567" r="3.567" transform="translate(276.056 784.574) rotate(-9.252)" fill="#e5e5e5"/>
      <circle id="Ellipse_2306" data-name="Ellipse 2306" cx="3.567" cy="3.567" r="3.567" transform="translate(284.576 784.574) rotate(-9.252)" fill="#e5e5e5"/>
      <circle id="Ellipse_2307" data-name="Ellipse 2307" cx="3.567" cy="3.567" r="3.567" transform="translate(293.095 784.574) rotate(-9.251)" fill="#e5e5e5"/>
      <circle id="Ellipse_2308" data-name="Ellipse 2308" cx="3.567" cy="3.567" r="3.567" transform="translate(301.615 784.574) rotate(-9.251)" fill="#e5e5e5"/>
      <circle id="Ellipse_2309" data-name="Ellipse 2309" cx="3.567" cy="3.567" r="3.567" transform="translate(310.135 784.574) rotate(-9.251)" fill="#e5e5e5"/>
      <circle id="Ellipse_2310" data-name="Ellipse 2310" cx="3.567" cy="3.567" r="3.567" transform="translate(318.655 784.574) rotate(-9.251)" fill="#e5e5e5"/>
      <circle id="Ellipse_2311" data-name="Ellipse 2311" cx="3.567" cy="3.567" r="3.567" transform="translate(327.174 784.574) rotate(-9.25)" fill="#e5e5e5"/>
      <circle id="Ellipse_2312" data-name="Ellipse 2312" cx="3.567" cy="3.567" r="3.567" transform="matrix(0.987, -0.161, 0.161, 0.987, 335.694, 784.574)" fill="#e5e5e5"/>
      <circle id="Ellipse_2313" data-name="Ellipse 2313" cx="3.567" cy="3.567" r="3.567" transform="translate(344.214 784.574) rotate(-9.25)" fill="#e5e5e5"/>
      <path id="Path_71376" data-name="Path 71376" d="M356.828,790.971a3.449,3.449,0,1,0-3.449-3.449A3.45,3.45,0,0,0,356.828,790.971Z" fill="#e5e5e5"/>
      <path id="Path_71377" data-name="Path 71377" d="M365.348,790.168a2.646,2.646,0,1,0-2.646-2.646A2.646,2.646,0,0,0,365.348,790.168Z" fill="#e5e5e5"/>
      <path id="Path_71378" data-name="Path 71378" d="M373.868,789.294a1.772,1.772,0,1,0-1.772-1.772A1.773,1.773,0,0,0,373.868,789.294Z" fill="#e5e5e5"/>
      <circle id="Ellipse_2314" data-name="Ellipse 2314" cx="0.874" cy="0.874" r="0.874" transform="translate(381.513 786.648)" fill="#e5e5e5"/>
      <path id="Path_71379" data-name="Path 71379" d="M390.907,787.616a.095.095,0,1,0-.094-.094A.095.095,0,0,0,390.907,787.616Z" fill="#e5e5e5"/>
      <path id="Path_71380" data-name="Path 71380" d="M237.552,796.136a.094.094,0,1,0-.1-.095A.094.094,0,0,0,237.552,796.136Z" fill="#e5e5e5"/>
      <path id="Path_71381" data-name="Path 71381" d="M246.071,796.892a.851.851,0,1,0-.85-.851A.851.851,0,0,0,246.071,796.892Z" fill="#e5e5e5"/>
      <circle id="Ellipse_2315" data-name="Ellipse 2315" cx="1.748" cy="1.748" r="1.748" transform="translate(252.843 794.293)" fill="#e5e5e5"/>
      <path id="Path_71382" data-name="Path 71382" d="M263.111,798.688a2.646,2.646,0,1,0-2.646-2.647A2.647,2.647,0,0,0,263.111,798.688Z" fill="#e5e5e5"/>
      <path id="Path_71383" data-name="Path 71383" d="M271.631,799.491a3.45,3.45,0,1,0-3.45-3.45A3.449,3.449,0,0,0,271.631,799.491Z" fill="#e5e5e5"/>
      <circle id="Ellipse_2316" data-name="Ellipse 2316" cx="3.567" cy="3.567" r="3.567" transform="translate(276.056 793.094) rotate(-9.252)" fill="#e5e5e5"/>
      <circle id="Ellipse_2317" data-name="Ellipse 2317" cx="3.567" cy="3.567" r="3.567" transform="translate(284.576 793.094) rotate(-9.252)" fill="#e5e5e5"/>
      <circle id="Ellipse_2318" data-name="Ellipse 2318" cx="3.567" cy="3.567" r="3.567" transform="translate(293.095 793.094) rotate(-9.251)" fill="#e5e5e5"/>
      <circle id="Ellipse_2319" data-name="Ellipse 2319" cx="3.567" cy="3.567" r="3.567" transform="translate(301.615 793.094) rotate(-9.251)" fill="#e5e5e5"/>
      <circle id="Ellipse_2320" data-name="Ellipse 2320" cx="3.567" cy="3.567" r="3.567" transform="translate(310.135 793.094) rotate(-9.251)" fill="#e5e5e5"/>
      <circle id="Ellipse_2321" data-name="Ellipse 2321" cx="3.567" cy="3.567" r="3.567" transform="translate(318.655 793.094) rotate(-9.251)" fill="#e5e5e5"/>
      <circle id="Ellipse_2322" data-name="Ellipse 2322" cx="3.567" cy="3.567" r="3.567" transform="translate(327.174 793.094) rotate(-9.25)" fill="#e5e5e5"/>
      <circle id="Ellipse_2323" data-name="Ellipse 2323" cx="3.567" cy="3.567" r="3.567" transform="matrix(0.987, -0.161, 0.161, 0.987, 335.694, 793.094)" fill="#e5e5e5"/>
      <circle id="Ellipse_2324" data-name="Ellipse 2324" cx="3.567" cy="3.567" r="3.567" transform="translate(344.214 793.094) rotate(-9.25)" fill="#e5e5e5"/>
      <path id="Path_71384" data-name="Path 71384" d="M356.828,799.514a3.473,3.473,0,1,0-3.473-3.473A3.472,3.472,0,0,0,356.828,799.514Z" fill="#e5e5e5"/>
      <path id="Path_71385" data-name="Path 71385" d="M365.348,798.782a2.74,2.74,0,1,0-2.74-2.741A2.741,2.741,0,0,0,365.348,798.782Z" fill="#e5e5e5"/>
      <path id="Path_71386" data-name="Path 71386" d="M373.868,797.884a1.842,1.842,0,1,0-1.843-1.843A1.843,1.843,0,0,0,373.868,797.884Z" fill="#e5e5e5"/>
      <path id="Path_71387" data-name="Path 71387" d="M382.387,796.963a.922.922,0,1,0-.921-.922A.922.922,0,0,0,382.387,796.963Z" fill="#e5e5e5"/>
      <circle id="Ellipse_2325" data-name="Ellipse 2325" cx="0.118" cy="0.118" r="0.118" transform="translate(390.789 795.923)" fill="#e5e5e5"/>
      <circle id="Ellipse_2326" data-name="Ellipse 2326" cx="0.071" cy="0.071" r="0.071" transform="translate(237.481 804.49)" fill="#e5e5e5"/>
      <path id="Path_71388" data-name="Path 71388" d="M246.071,805.365a.8.8,0,1,0-.8-.8A.8.8,0,0,0,246.071,805.365Z" fill="#e5e5e5"/>
      <path id="Path_71389" data-name="Path 71389" d="M254.591,806.262a1.7,1.7,0,1,0-1.7-1.7A1.7,1.7,0,0,0,254.591,806.262Z" fill="#e5e5e5"/>
      <path id="Path_71390" data-name="Path 71390" d="M263.111,807.16a2.6,2.6,0,1,0-2.6-2.6A2.6,2.6,0,0,0,263.111,807.16Z" fill="#e5e5e5"/>
      <path id="Path_71391" data-name="Path 71391" d="M271.631,807.963a3.4,3.4,0,1,0-3.4-3.4A3.4,3.4,0,0,0,271.631,807.963Z" fill="#e5e5e5"/>
      <circle id="Ellipse_2327" data-name="Ellipse 2327" cx="3.567" cy="3.567" r="3.567" transform="translate(276.056 801.614) rotate(-9.252)" fill="#e5e5e5"/>
      <circle id="Ellipse_2328" data-name="Ellipse 2328" cx="3.567" cy="3.567" r="3.567" transform="translate(284.576 801.614) rotate(-9.252)" fill="#e5e5e5"/>
      <circle id="Ellipse_2329" data-name="Ellipse 2329" cx="3.567" cy="3.567" r="3.567" transform="translate(293.095 801.614) rotate(-9.251)" fill="#e5e5e5"/>
      <circle id="Ellipse_2330" data-name="Ellipse 2330" cx="3.567" cy="3.567" r="3.567" transform="translate(301.615 801.614) rotate(-9.251)" fill="#e5e5e5"/>
      <circle id="Ellipse_2331" data-name="Ellipse 2331" cx="3.567" cy="3.567" r="3.567" transform="translate(310.135 801.614) rotate(-9.251)" fill="#e5e5e5"/>
      <circle id="Ellipse_2332" data-name="Ellipse 2332" cx="3.567" cy="3.567" r="3.567" transform="translate(318.655 801.614) rotate(-9.251)" fill="#e5e5e5"/>
      <circle id="Ellipse_2333" data-name="Ellipse 2333" cx="3.567" cy="3.567" r="3.567" transform="translate(327.174 801.614) rotate(-9.25)" fill="#e5e5e5"/>
      <circle id="Ellipse_2334" data-name="Ellipse 2334" cx="3.567" cy="3.567" r="3.567" transform="matrix(0.987, -0.161, 0.161, 0.987, 335.694, 801.614)" fill="#e5e5e5"/>
      <circle id="Ellipse_2335" data-name="Ellipse 2335" cx="3.567" cy="3.567" r="3.567" transform="translate(344.214 801.614) rotate(-9.25)" fill="#e5e5e5"/>
      <path id="Path_71392" data-name="Path 71392" d="M356.828,808.011a3.449,3.449,0,1,0-3.449-3.45A3.45,3.45,0,0,0,356.828,808.011Z" fill="#e5e5e5"/>
      <path id="Path_71393" data-name="Path 71393" d="M365.348,807.231a2.669,2.669,0,1,0-2.67-2.67A2.67,2.67,0,0,0,365.348,807.231Z" fill="#e5e5e5"/>
      <path id="Path_71394" data-name="Path 71394" d="M373.868,806.333a1.772,1.772,0,1,0-1.772-1.772A1.772,1.772,0,0,0,373.868,806.333Z" fill="#e5e5e5"/>
      <circle id="Ellipse_2336" data-name="Ellipse 2336" cx="0.874" cy="0.874" r="0.874" transform="translate(381.513 803.687)" fill="#e5e5e5"/>
      <path id="Path_71395" data-name="Path 71395" d="M390.907,804.656a.095.095,0,1,0,0-.189.095.095,0,0,0,0,.189Z" fill="#e5e5e5"/>
      <path id="Path_71396" data-name="Path 71396" d="M237.552,813.1a.024.024,0,0,0,0-.048.024.024,0,1,0,0,.048Z" fill="#e5e5e5"/>
      <path id="Path_71397" data-name="Path 71397" d="M246.071,813.719a.638.638,0,1,0-.637-.638A.638.638,0,0,0,246.071,813.719Z" fill="#e5e5e5"/>
      <path id="Path_71398" data-name="Path 71398" d="M254.591,814.593a1.512,1.512,0,1,0-1.512-1.512A1.512,1.512,0,0,0,254.591,814.593Z" fill="#e5e5e5"/>
      <path id="Path_71399" data-name="Path 71399" d="M263.111,815.467a2.386,2.386,0,1,0-2.386-2.386A2.386,2.386,0,0,0,263.111,815.467Z" fill="#e5e5e5"/>
      <path id="Path_71400" data-name="Path 71400" d="M271.631,816.294a3.213,3.213,0,1,0-3.213-3.213A3.213,3.213,0,0,0,271.631,816.294Z" fill="#e5e5e5"/>
      <circle id="Ellipse_2337" data-name="Ellipse 2337" cx="3.567" cy="3.567" r="3.567" transform="translate(276.056 810.134) rotate(-9.252)" fill="#e5e5e5"/>
      <circle id="Ellipse_2338" data-name="Ellipse 2338" cx="3.567" cy="3.567" r="3.567" transform="translate(284.576 810.134) rotate(-9.252)" fill="#e5e5e5"/>
      <circle id="Ellipse_2339" data-name="Ellipse 2339" cx="3.567" cy="3.567" r="3.567" transform="translate(293.095 810.134) rotate(-9.251)" fill="#e5e5e5"/>
      <circle id="Ellipse_2340" data-name="Ellipse 2340" cx="3.567" cy="3.567" r="3.567" transform="translate(301.615 810.133) rotate(-9.251)" fill="#e5e5e5"/>
      <circle id="Ellipse_2341" data-name="Ellipse 2341" cx="3.567" cy="3.567" r="3.567" transform="translate(310.135 810.133) rotate(-9.251)" fill="#e5e5e5"/>
      <circle id="Ellipse_2342" data-name="Ellipse 2342" cx="3.567" cy="3.567" r="3.567" transform="translate(318.655 810.133) rotate(-9.251)" fill="#e5e5e5"/>
      <circle id="Ellipse_2343" data-name="Ellipse 2343" cx="3.567" cy="3.567" r="3.567" transform="matrix(0.987, -0.161, 0.161, 0.987, 327.174, 810.133)" fill="#e5e5e5"/>
      <circle id="Ellipse_2344" data-name="Ellipse 2344" cx="3.567" cy="3.567" r="3.567" transform="translate(335.694 810.133) rotate(-9.25)" fill="#e5e5e5"/>
      <circle id="Ellipse_2345" data-name="Ellipse 2345" cx="3.567" cy="3.567" r="3.567" transform="translate(344.214 810.133) rotate(-9.25)" fill="#e5e5e5"/>
      <path id="Path_71401" data-name="Path 71401" d="M356.828,816.365a3.284,3.284,0,1,0-3.284-3.284A3.284,3.284,0,0,0,356.828,816.365Z" fill="#e5e5e5"/>
      <path id="Path_71402" data-name="Path 71402" d="M365.348,815.538a2.457,2.457,0,1,0-2.457-2.457A2.457,2.457,0,0,0,365.348,815.538Z" fill="#e5e5e5"/>
      <path id="Path_71403" data-name="Path 71403" d="M373.868,814.664a1.583,1.583,0,1,0-1.583-1.583A1.583,1.583,0,0,0,373.868,814.664Z" fill="#e5e5e5"/>
      <path id="Path_71404" data-name="Path 71404" d="M382.387,813.79a.709.709,0,1,0-.708-.709A.709.709,0,0,0,382.387,813.79Z" fill="#e5e5e5"/>
      <path id="Path_71405" data-name="Path 71405" d="M390.907,813.128a.047.047,0,1,0-.047-.047A.047.047,0,0,0,390.907,813.128Z" fill="#e5e5e5"/>
      <circle id="Ellipse_2346" data-name="Ellipse 2346" cx="0.378" cy="0.378" r="0.378" transform="translate(245.693 821.223)" fill="#e5e5e5"/>
      <path id="Path_71406" data-name="Path 71406" d="M254.591,822.829a1.228,1.228,0,1,0-1.228-1.228A1.228,1.228,0,0,0,254.591,822.829Z" fill="#e5e5e5"/>
      <path id="Path_71407" data-name="Path 71407" d="M263.111,823.633a2.032,2.032,0,1,0-2.032-2.032A2.032,2.032,0,0,0,263.111,823.633Z" fill="#e5e5e5"/>
      <path id="Path_71408" data-name="Path 71408" d="M271.631,824.436A2.835,2.835,0,1,0,268.8,821.6,2.835,2.835,0,0,0,271.631,824.436Z" fill="#e5e5e5"/>
      <path id="Path_71409" data-name="Path 71409" d="M280.15,825.074a3.473,3.473,0,1,0-3.472-3.473A3.473,3.473,0,0,0,280.15,825.074Z" fill="#e5e5e5"/>
      <circle id="Ellipse_2347" data-name="Ellipse 2347" cx="3.567" cy="3.567" r="3.567" transform="translate(284.576 818.653) rotate(-9.252)" fill="#e5e5e5"/>
      <circle id="Ellipse_2348" data-name="Ellipse 2348" cx="3.567" cy="3.567" r="3.567" transform="translate(293.095 818.653) rotate(-9.251)" fill="#e5e5e5"/>
      <circle id="Ellipse_2349" data-name="Ellipse 2349" cx="3.567" cy="3.567" r="3.567" transform="translate(301.615 818.653) rotate(-9.251)" fill="#e5e5e5"/>
      <circle id="Ellipse_2350" data-name="Ellipse 2350" cx="3.567" cy="3.567" r="3.567" transform="translate(310.135 818.653) rotate(-9.251)" fill="#e5e5e5"/>
      <circle id="Ellipse_2351" data-name="Ellipse 2351" cx="3.567" cy="3.567" r="3.567" transform="translate(318.655 818.653) rotate(-9.251)" fill="#e5e5e5"/>
      <circle id="Ellipse_2352" data-name="Ellipse 2352" cx="3.567" cy="3.567" r="3.567" transform="translate(327.174 818.653) rotate(-9.25)" fill="#e5e5e5"/>
      <circle id="Ellipse_2353" data-name="Ellipse 2353" cx="3.567" cy="3.567" r="3.567" transform="matrix(0.987, -0.161, 0.161, 0.987, 335.694, 818.653)" fill="#e5e5e5"/>
      <circle id="Ellipse_2354" data-name="Ellipse 2354" cx="3.497" cy="3.497" r="3.497" transform="translate(344.812 818.104)" fill="#e5e5e5"/>
      <circle id="Ellipse_2355" data-name="Ellipse 2355" cx="2.882" cy="2.882" r="2.882" transform="translate(353.946 818.719)" fill="#e5e5e5"/>
      <path id="Path_71410" data-name="Path 71410" d="M365.348,823.7a2.1,2.1,0,1,0-2.1-2.1A2.1,2.1,0,0,0,365.348,823.7Z" fill="#e5e5e5"/>
      <path id="Path_71411" data-name="Path 71411" d="M373.868,822.877a1.276,1.276,0,1,0-1.276-1.276A1.276,1.276,0,0,0,373.868,822.877Z" fill="#e5e5e5"/>
      <path id="Path_71412" data-name="Path 71412" d="M382.387,822.05a.449.449,0,1,0-.448-.449A.449.449,0,0,0,382.387,822.05Z" fill="#e5e5e5"/>
      <circle id="Ellipse_2356" data-name="Ellipse 2356" cx="0.118" cy="0.118" r="0.118" transform="translate(245.953 830.002)" fill="#e5e5e5"/>
      <path id="Path_71413" data-name="Path 71413" d="M254.591,830.947a.827.827,0,1,0-.827-.827A.827.827,0,0,0,254.591,830.947Z" fill="#e5e5e5"/>
      <path id="Path_71414" data-name="Path 71414" d="M263.111,831.7a1.582,1.582,0,1,0-1.583-1.583A1.583,1.583,0,0,0,263.111,831.7Z" fill="#e5e5e5"/>
      <circle id="Ellipse_2357" data-name="Ellipse 2357" cx="2.315" cy="2.315" r="2.315" transform="translate(269.315 827.805)" fill="#e5e5e5"/>
      <circle id="Ellipse_2358" data-name="Ellipse 2358" cx="3" cy="3" r="3" transform="translate(277.15 827.12)" fill="#e5e5e5"/>
      <path id="Path_71415" data-name="Path 71415" d="M288.67,833.593a3.473,3.473,0,1,0-3.473-3.473A3.472,3.472,0,0,0,288.67,833.593Z" fill="#e5e5e5"/>
      <circle id="Ellipse_2359" data-name="Ellipse 2359" cx="3.567" cy="3.567" r="3.567" transform="translate(293.095 827.173) rotate(-9.251)" fill="#e5e5e5"/>
      <circle id="Ellipse_2360" data-name="Ellipse 2360" cx="3.567" cy="3.567" r="3.567" transform="translate(301.615 827.173) rotate(-9.251)" fill="#e5e5e5"/>
      <circle id="Ellipse_2361" data-name="Ellipse 2361" cx="3.567" cy="3.567" r="3.567" transform="translate(310.135 827.173) rotate(-9.251)" fill="#e5e5e5"/>
      <circle id="Ellipse_2362" data-name="Ellipse 2362" cx="3.567" cy="3.567" r="3.567" transform="translate(318.655 827.173) rotate(-9.251)" fill="#e5e5e5"/>
      <circle id="Ellipse_2363" data-name="Ellipse 2363" cx="3.567" cy="3.567" r="3.567" transform="matrix(0.987, -0.161, 0.161, 0.987, 327.174, 827.173)" fill="#e5e5e5"/>
      <circle id="Ellipse_2364" data-name="Ellipse 2364" cx="3.497" cy="3.497" r="3.497" transform="translate(336.292 826.624)" fill="#e5e5e5"/>
      <path id="Path_71416" data-name="Path 71416" d="M348.308,833.168a3.048,3.048,0,1,0-3.047-3.048A3.047,3.047,0,0,0,348.308,833.168Z" fill="#e5e5e5"/>
      <path id="Path_71417" data-name="Path 71417" d="M356.828,832.507a2.387,2.387,0,1,0-2.386-2.387A2.387,2.387,0,0,0,356.828,832.507Z" fill="#e5e5e5"/>
      <path id="Path_71418" data-name="Path 71418" d="M365.348,831.774a1.654,1.654,0,1,0-1.654-1.654A1.654,1.654,0,0,0,365.348,831.774Z" fill="#e5e5e5"/>
      <path id="Path_71419" data-name="Path 71419" d="M373.868,831.018a.9.9,0,1,0-.9-.9A.9.9,0,0,0,373.868,831.018Z" fill="#e5e5e5"/>
      <path id="Path_71420" data-name="Path 71420" d="M382.387,830.286a.165.165,0,1,0-.165-.166A.166.166,0,0,0,382.387,830.286Z" fill="#e5e5e5"/>
      <path id="Path_71421" data-name="Path 71421" d="M254.591,838.995a.354.354,0,1,0-.354-.355A.355.355,0,0,0,254.591,838.995Z" fill="#e5e5e5"/>
      <path id="Path_71422" data-name="Path 71422" d="M263.111,839.7a1.063,1.063,0,1,0-1.063-1.063A1.063,1.063,0,0,0,263.111,839.7Z" fill="#e5e5e5"/>
      <path id="Path_71423" data-name="Path 71423" d="M271.631,840.365a1.724,1.724,0,1,0-1.725-1.725A1.724,1.724,0,0,0,271.631,840.365Z" fill="#e5e5e5"/>
      <path id="Path_71424" data-name="Path 71424" d="M280.15,840.979a2.339,2.339,0,1,0-2.338-2.339A2.339,2.339,0,0,0,280.15,840.979Z" fill="#e5e5e5"/>
      <path id="Path_71425" data-name="Path 71425" d="M288.67,841.5a2.859,2.859,0,1,0-2.858-2.859A2.859,2.859,0,0,0,288.67,841.5Z" fill="#e5e5e5"/>
      <path id="Path_71426" data-name="Path 71426" d="M297.19,841.9a3.26,3.26,0,1,0-3.26-3.261A3.26,3.26,0,0,0,297.19,841.9Z" fill="#e5e5e5"/>
      <path id="Path_71427" data-name="Path 71427" d="M305.71,842.09a3.45,3.45,0,1,0-3.45-3.45A3.45,3.45,0,0,0,305.71,842.09Z" fill="#e5e5e5"/>
      <path id="Path_71428" data-name="Path 71428" d="M314.229,842.113a3.473,3.473,0,1,0-3.472-3.473A3.473,3.473,0,0,0,314.229,842.113Z" fill="#e5e5e5"/>
      <path id="Path_71429" data-name="Path 71429" d="M322.749,842.09a3.45,3.45,0,1,0-3.449-3.45A3.451,3.451,0,0,0,322.749,842.09Z" fill="#e5e5e5"/>
      <path id="Path_71430" data-name="Path 71430" d="M331.269,841.924a3.284,3.284,0,1,0-3.284-3.284A3.284,3.284,0,0,0,331.269,841.924Z" fill="#e5e5e5"/>
      <circle id="Ellipse_2365" data-name="Ellipse 2365" cx="2.882" cy="2.882" r="2.882" transform="translate(336.906 835.758)" fill="#e5e5e5"/>
      <path id="Path_71431" data-name="Path 71431" d="M348.308,841.026a2.386,2.386,0,1,0-2.386-2.386A2.387,2.387,0,0,0,348.308,841.026Z" fill="#e5e5e5"/>
      <path id="Path_71432" data-name="Path 71432" d="M356.828,840.436a1.8,1.8,0,1,0-1.8-1.8A1.8,1.8,0,0,0,356.828,840.436Z" fill="#e5e5e5"/>
      <path id="Path_71433" data-name="Path 71433" d="M365.348,839.751a1.11,1.11,0,1,0-1.11-1.111A1.11,1.11,0,0,0,365.348,839.751Z" fill="#e5e5e5"/>
      <path id="Path_71434" data-name="Path 71434" d="M373.868,839.042a.4.4,0,1,0-.4-.4A.4.4,0,0,0,373.868,839.042Z" fill="#e5e5e5"/>
      <path id="Path_71435" data-name="Path 71435" d="M254.591,847.184a.024.024,0,0,0,0-.048.024.024,0,0,0,0,.048Z" fill="#e5e5e5"/>
      <path id="Path_71436" data-name="Path 71436" d="M263.111,847.609a.449.449,0,1,0-.449-.449A.449.449,0,0,0,263.111,847.609Z" fill="#e5e5e5"/>
      <path id="Path_71437" data-name="Path 71437" d="M271.631,848.223a1.063,1.063,0,1,0-1.063-1.063A1.063,1.063,0,0,0,271.631,848.223Z" fill="#e5e5e5"/>
      <path id="Path_71438" data-name="Path 71438" d="M280.15,848.767a1.607,1.607,0,1,0-1.606-1.607A1.607,1.607,0,0,0,280.15,848.767Z" fill="#e5e5e5"/>
      <path id="Path_71439" data-name="Path 71439" d="M288.67,849.239a2.079,2.079,0,1,0-2.079-2.079A2.079,2.079,0,0,0,288.67,849.239Z" fill="#e5e5e5"/>
      <circle id="Ellipse_2366" data-name="Ellipse 2366" cx="2.433" cy="2.433" r="2.433" transform="translate(294.013 848.483) rotate(-67.615)" fill="#e5e5e5"/>
      <path id="Path_71440" data-name="Path 71440" d="M305.71,849.806a2.646,2.646,0,1,0-2.646-2.646A2.646,2.646,0,0,0,305.71,849.806Z" fill="#e5e5e5"/>
      <path id="Path_71441" data-name="Path 71441" d="M314.229,849.9a2.741,2.741,0,1,0-2.74-2.741A2.741,2.741,0,0,0,314.229,849.9Z" fill="#e5e5e5"/>
      <path id="Path_71442" data-name="Path 71442" d="M322.749,849.83a2.67,2.67,0,1,0-2.669-2.67A2.67,2.67,0,0,0,322.749,849.83Z" fill="#e5e5e5"/>
      <path id="Path_71443" data-name="Path 71443" d="M331.269,849.617a2.457,2.457,0,1,0-2.457-2.457A2.457,2.457,0,0,0,331.269,849.617Z" fill="#e5e5e5"/>
      <path id="Path_71444" data-name="Path 71444" d="M339.789,849.263a2.1,2.1,0,1,0-2.1-2.1A2.1,2.1,0,0,0,339.789,849.263Z" fill="#e5e5e5"/>
      <path id="Path_71445" data-name="Path 71445" d="M348.308,848.814a1.654,1.654,0,1,0-1.653-1.654A1.654,1.654,0,0,0,348.308,848.814Z" fill="#e5e5e5"/>
      <path id="Path_71446" data-name="Path 71446" d="M356.828,848.27a1.11,1.11,0,1,0-1.11-1.11A1.111,1.111,0,0,0,356.828,848.27Z" fill="#e5e5e5"/>
      <path id="Path_71447" data-name="Path 71447" d="M365.348,847.68a.52.52,0,1,0-.52-.52A.52.52,0,0,0,365.348,847.68Z" fill="#e5e5e5"/>
      <path id="Path_71448" data-name="Path 71448" d="M373.868,847.207a.047.047,0,0,0,0-.094.047.047,0,1,0,0,.094Z" fill="#e5e5e5"/>
      <path id="Path_71449" data-name="Path 71449" d="M263.111,855.727a.047.047,0,1,0-.047-.047A.047.047,0,0,0,263.111,855.727Z" fill="#e5e5e5"/>
      <circle id="Ellipse_2367" data-name="Ellipse 2367" cx="0.378" cy="0.378" r="0.378" transform="translate(271.253 855.302)" fill="#e5e5e5"/>
      <path id="Path_71450" data-name="Path 71450" d="M280.15,856.53a.851.851,0,1,0-.85-.85A.851.851,0,0,0,280.15,856.53Z" fill="#e5e5e5"/>
      <circle id="Ellipse_2368" data-name="Ellipse 2368" cx="1.252" cy="1.252" r="1.252" transform="translate(287.418 854.428)" fill="#e5e5e5"/>
      <path id="Path_71451" data-name="Path 71451" d="M297.19,857.263a1.583,1.583,0,1,0-1.583-1.583A1.583,1.583,0,0,0,297.19,857.263Z" fill="#e5e5e5"/>
      <path id="Path_71452" data-name="Path 71452" d="M305.71,857.452a1.772,1.772,0,1,0-1.772-1.772A1.773,1.773,0,0,0,305.71,857.452Z" fill="#e5e5e5"/>
      <path id="Path_71453" data-name="Path 71453" d="M314.229,857.523a1.843,1.843,0,1,0-1.842-1.843A1.843,1.843,0,0,0,314.229,857.523Z" fill="#e5e5e5"/>
      <path id="Path_71454" data-name="Path 71454" d="M322.749,857.452a1.772,1.772,0,1,0-1.772-1.772A1.772,1.772,0,0,0,322.749,857.452Z" fill="#e5e5e5"/>
      <path id="Path_71455" data-name="Path 71455" d="M331.269,857.263a1.583,1.583,0,1,0-1.583-1.583A1.583,1.583,0,0,0,331.269,857.263Z" fill="#e5e5e5"/>
      <path id="Path_71456" data-name="Path 71456" d="M339.789,856.956a1.276,1.276,0,1,0-1.276-1.276A1.276,1.276,0,0,0,339.789,856.956Z" fill="#e5e5e5"/>
      <path id="Path_71457" data-name="Path 71457" d="M348.308,856.578a.9.9,0,1,0-.9-.9A.9.9,0,0,0,348.308,856.578Z" fill="#e5e5e5"/>
      <path id="Path_71458" data-name="Path 71458" d="M356.828,856.081a.4.4,0,1,0-.4-.4A.4.4,0,0,0,356.828,856.081Z" fill="#e5e5e5"/>
      <path id="Path_71459" data-name="Path 71459" d="M365.348,855.727a.047.047,0,1,0-.047-.047A.047.047,0,0,0,365.348,855.727Z" fill="#e5e5e5"/>
      <path id="Path_71460" data-name="Path 71460" d="M280.15,864.341a.142.142,0,1,0-.141-.142A.141.141,0,0,0,280.15,864.341Z" fill="#e5e5e5"/>
      <path id="Path_71461" data-name="Path 71461" d="M288.67,864.625a.426.426,0,1,0-.425-.426A.425.425,0,0,0,288.67,864.625Z" fill="#e5e5e5"/>
      <path id="Path_71462" data-name="Path 71462" d="M297.19,864.908a.708.708,0,1,0-.709-.709A.709.709,0,0,0,297.19,864.908Z" fill="#e5e5e5"/>
      <circle id="Ellipse_2369" data-name="Ellipse 2369" cx="0.874" cy="0.874" r="0.874" transform="translate(304.836 863.325)" fill="#e5e5e5"/>
      <path id="Path_71463" data-name="Path 71463" d="M314.229,865.121a.921.921,0,1,0-.921-.922A.922.922,0,0,0,314.229,865.121Z" fill="#e5e5e5"/>
      <circle id="Ellipse_2370" data-name="Ellipse 2370" cx="0.874" cy="0.874" r="0.874" transform="translate(321.875 863.325)" fill="#e5e5e5"/>
      <path id="Path_71464" data-name="Path 71464" d="M331.269,864.908a.708.708,0,1,0-.709-.709A.709.709,0,0,0,331.269,864.908Z" fill="#e5e5e5"/>
      <path id="Path_71465" data-name="Path 71465" d="M339.789,864.648a.449.449,0,1,0-.449-.449A.449.449,0,0,0,339.789,864.648Z" fill="#e5e5e5"/>
      <path id="Path_71466" data-name="Path 71466" d="M348.308,864.365a.165.165,0,1,0-.165-.166A.166.166,0,0,0,348.308,864.365Z" fill="#e5e5e5"/>
      <path id="Path_71467" data-name="Path 71467" d="M297.19,872.767a.048.048,0,0,0,.047-.048.047.047,0,1,0-.094,0A.048.048,0,0,0,297.19,872.767Z" fill="#e5e5e5"/>
      <path id="Path_71468" data-name="Path 71468" d="M305.71,872.814a.095.095,0,1,0-.1-.1A.094.094,0,0,0,305.71,872.814Z" fill="#e5e5e5"/>
      <circle id="Ellipse_2371" data-name="Ellipse 2371" cx="0.118" cy="0.118" r="0.118" transform="translate(314.111 872.601)" fill="#e5e5e5"/>
      <path id="Path_71469" data-name="Path 71469" d="M322.749,872.814a.095.095,0,1,0,0-.189.095.095,0,0,0,0,.189Z" fill="#e5e5e5"/>
      <path id="Path_71470" data-name="Path 71470" d="M331.269,872.767a.048.048,0,0,0,.047-.048.047.047,0,0,0-.094,0A.048.048,0,0,0,331.269,872.767Z" fill="#e5e5e5"/>
    </g>
    <path id="Path_71471" data-name="Path 71471" d="M249.171,726.522c10.023-5.386,21.877-5.8,33.252-6.088l40.594-1.035c14.547-.371,29.549-.667,43.1,4.645,20.971,8.224,35.114,29.089,40.128,51.049s2.1,44.969-2.845,66.945c-1.975,8.773-4.8,18.26-12.28,23.258-7.267,4.859-17.026,4.022-25.235,1.015-18.773-6.877-32.286-23.174-48.976-34.184-24.393-16.092-57.329-22.385-72.279-47.495C233.849,766.531,225.837,739.061,249.171,726.522Z" transform="translate(-234.074 -686.996)" fill="#f9f9f9"/>
    <circle id="Ellipse_341" data-name="Ellipse 341" cx="3.736" cy="3.736" r="3.736" transform="translate(46.933 158.877)" fill="none" stroke="#bdbdbd" stroke-linecap="round" stroke-width="2.497"/>
    <circle id="Ellipse_341-2" data-name="Ellipse 341-2" cx="8.736" cy="8.736" r="8.736" transform="translate(117.278)" fill="none" stroke="#bdbdbd" stroke-linecap="round" stroke-width="2.497"/>
    <line id="Line_1540" data-name="Line 1540" x2="82.553" y2="51.446" transform="translate(31.681 44.127)" fill="none" stroke="#1d1d1d" stroke-linecap="round" stroke-linejoin="round" stroke-width="1.5"/>
    <line id="Line_1541" data-name="Line 1541" x2="24.938" y2="78.055" transform="translate(89.296 17.52)" fill="none" stroke="#1d1d1d" stroke-linecap="round" stroke-linejoin="round" stroke-width="1.5"/>
    <line id="Line_1542" data-name="Line 1542" x1="28.823" y2="50.272" transform="translate(114.234 45.301)" fill="none" stroke="#1d1d1d" stroke-linecap="round" stroke-linejoin="round" stroke-width="1.5"/>
    <path id="Path_71472" data-name="Path 71472" d="M401.652,767.033l-53.344,15.536-67.165,5.939" transform="translate(-234.074 -686.996)" fill="none" stroke="#1d1d1d" stroke-linecap="round" stroke-linejoin="round" stroke-width="1.5"/>
    <g id="Group_15504" data-name="Group 15504" transform="translate(-234.074 -686.996)">
      <path id="Path_17149" data-name="Path 17149" d="M333.377,798.755l-.277.135a107.267,107.267,0,0,1-12.318,2.285c-4.978.739-8.593-.89-9.665-4.36-.887-2.869.378-6.239,2.731-7.04,4.132-1.418,14.562-3.515,15.005-3.605a.5.5,0,0,1,.568.321l4.207,11.645a.5.5,0,0,1-.254.62Z" fill="none" stroke="#1a1e23" stroke-linecap="round" stroke-linejoin="round" stroke-width="1.5"/>
      <path id="Path_17150" data-name="Path 17150" d="M340.328,815.068l-.276.134a106.591,106.591,0,0,1-12.319,2.286c-4.978.739-8.591-.891-9.664-4.359-.889-2.869.377-6.245,2.729-7.041,4.133-1.418,14.562-3.515,15.006-3.6a.5.5,0,0,1,.568.32l4.207,11.644a.5.5,0,0,1-.254.621Z" fill="none" stroke="#1a1e23" stroke-linecap="round" stroke-linejoin="round" stroke-width="1.5"/>
      <path id="Path_17151" data-name="Path 17151" d="M347.776,825.653l-.28.137a107.252,107.252,0,0,1-12.318,2.285c-4.979.738-8.592-.891-9.665-4.36-.888-2.869.372-6.239,2.73-7.04,4.133-1.419,14.563-3.516,15-3.6a.5.5,0,0,1,.568.32l4.212,11.643a.5.5,0,0,1-.254.622Z" fill="none" stroke="#1a1e23" stroke-linecap="round" stroke-linejoin="round" stroke-width="1.5"/>
      <path id="Path_17152" data-name="Path 17152" d="M409.021,830.311l-4.621-11.1a61.079,61.079,0,0,0-14.16-20.658l-19.211-18.393,16.052,33.009-40.707,19.8s4.728,10.488,18.54,18.794" fill="none" stroke="#1a1e23" stroke-linecap="round" stroke-linejoin="round" stroke-width="1.5"/>
      <rect id="Rectangle_5886" data-name="Rectangle 5886" width="59.515" height="108.328" rx="12.826" transform="matrix(0.899, -0.437, 0.437, 0.899, 293.342, 747.778)" fill="#ccf2ff" stroke="#1a1e23" stroke-linecap="round" stroke-linejoin="round" stroke-width="1.5"/>
      <path id="Path_17186" data-name="Path 17186" d="M306.543,757.412l39.873-19.39a2.685,2.685,0,0,1,3.589,1.241h0l34.275,70.483a2.684,2.684,0,0,1-1.24,3.588l-39.874,19.39a2.685,2.685,0,0,1-3.589-1.24L305.3,761A2.685,2.685,0,0,1,306.543,757.412Z" fill="#fff" stroke="#1a1e23" stroke-linecap="round" stroke-linejoin="round" stroke-width="1.5"/>
      <line id="Line_750" data-name="Line 750" y1="5.89" x2="12.112" transform="translate(318.165 740.673)" fill="none" stroke="#1a1e23" stroke-linecap="round" stroke-linejoin="round" stroke-width="1.5"/>
      <circle id="Ellipse_1645" data-name="Ellipse 1645" cx="1.634" cy="1.634" r="1.634" transform="translate(321.001 738.194)" fill="none" stroke="#1a1e23" stroke-linecap="round" stroke-linejoin="round" stroke-width="1.5"/>
      <line id="Line_751" data-name="Line 751" y1="3.623" x2="7.451" transform="translate(361.418 825.348)" fill="none" stroke="#1a1e23" stroke-linecap="round" stroke-linejoin="round" stroke-width="1.5"/>
      <path id="Path_17155" data-name="Path 17155" d="M395.965,811.417h0s-14.229-15.969-18.036-17.071-19.184.613-22.68.968c-5.331.545-6.487,10.139,1.544,11.778,7.13,1.455,13.856,3.622,13.856,3.622l7.286,12.551a30.709,30.709,0,0,0,8.55,28.7" fill="#f9f9f9" stroke="#1a1e23" stroke-linecap="round" stroke-linejoin="round" stroke-width="1.5"/>
      <g id="Group_15503" data-name="Group 15503">
        <path id="Path_71473" data-name="Path 71473" d="M352.307,778.409a5.945,5.945,0,0,0-3.522-7.635h0a5.946,5.946,0,0,0-7.636,3.523l-.349.948-.949-.349a5.946,5.946,0,0,0-4.113,11.158l12.093,4.457" fill="none" stroke="#1a1e23" stroke-linecap="round" stroke-linejoin="round" stroke-width="1.5"/>
        <circle id="Ellipse_2372" data-name="Ellipse 2372" cx="3.223" cy="3.223" r="3.223" transform="translate(333.784 763.801)" fill="none" stroke="#1a1e23" stroke-linecap="round" stroke-linejoin="round" stroke-width="1.5"/>
        <line id="Line_1543" data-name="Line 1543" x1="5.45" y1="2.009" transform="translate(345.497 780.304)" fill="none" stroke="#1a1e23" stroke-linecap="round" stroke-linejoin="round" stroke-width="1.5"/>
        <line id="Line_1544" data-name="Line 1544" x1="5.665" y1="2.088" transform="translate(343.86 784.415)" fill="none" stroke="#1a1e23" stroke-linecap="round" stroke-linejoin="round" stroke-width="1.5"/>
        <line id="Line_1545" data-name="Line 1545" x1="2.157" y2="5.852" transform="translate(338.643 775.245)" fill="none" stroke="#1a1e23" stroke-linecap="round" stroke-linejoin="round" stroke-width="1.5"/>
      </g>
    </g>
    <g id="Group_2374" data-name="Group 2374" transform="translate(-234.074 -686.996)">
      <circle id="Ellipse_123" data-name="Ellipse 123" cx="10.653" cy="10.653" r="10.653" transform="translate(366.48 719.296)" fill="#fff" stroke="#1d1d1d" stroke-linecap="round" stroke-linejoin="round" stroke-width="1.5"/>
      <circle id="Ellipse_122" data-name="Ellipse 122" cx="4.431" cy="4.431" r="4.431" transform="translate(372.701 723.435)" fill="none" stroke="#1d1d1d" stroke-linecap="round" stroke-linejoin="round" stroke-width="1.5"/>
      <path id="Path_5611" data-name="Path 5611" d="M383.94,738.025a9.89,9.89,0,0,0-13.621,0" fill="none" stroke="#1d1d1d" stroke-linecap="round" stroke-linejoin="round" stroke-width="1.5"/>
    </g>
    <g id="Group_2374-2" data-name="Group 2374" transform="translate(-234.074 -686.996)">
      <circle id="Ellipse_123-2" data-name="Ellipse 123" cx="10.653" cy="10.653" r="10.653" transform="translate(270.491 775.507)" fill="#fff" stroke="#1d1d1d" stroke-linecap="round" stroke-linejoin="round" stroke-width="1.5"/>
      <circle id="Ellipse_122-2" data-name="Ellipse 122" cx="4.431" cy="4.431" r="4.431" transform="translate(276.712 779.646)" fill="none" stroke="#1d1d1d" stroke-linecap="round" stroke-linejoin="round" stroke-width="1.5"/>
      <path id="Path_5611-2" data-name="Path 5611" d="M287.951,794.236a9.892,9.892,0,0,0-13.621,0" fill="none" stroke="#1d1d1d" stroke-linecap="round" stroke-linejoin="round" stroke-width="1.5"/>
    </g>
    <g id="Group_2374-3" data-name="Group 2374" transform="translate(-234.074 -686.996)">
      <circle id="Ellipse_123-3" data-name="Ellipse 123" cx="16.413" cy="16.413" r="16.413" transform="translate(249.344 711.092)" fill="#fff" stroke="#1d1d1d" stroke-linecap="round" stroke-linejoin="round" stroke-width="1.5"/>
      <circle id="Ellipse_122-3" data-name="Ellipse 122" cx="6.827" cy="6.827" r="6.827" transform="translate(258.929 717.469)" fill="none" stroke="#1d1d1d" stroke-linecap="round" stroke-linejoin="round" stroke-width="1.5"/>
      <path id="Path_5611-3" data-name="Path 5611" d="M276.244,739.948a15.238,15.238,0,0,0-20.985,0" fill="none" stroke="#1d1d1d" stroke-linecap="round" stroke-linejoin="round" stroke-width="1.5"/>
    </g>
    <g id="Group_3279" data-name="Group 3279" transform="translate(-234.074 -686.996)">
      <line id="Line_752" data-name="Line 752" x1="4.05" y2="1.4" transform="translate(403.342 800.862)" fill="none" stroke="#1a1e23" stroke-linecap="round" stroke-linejoin="round" stroke-width="1"/>
      <line id="Line_753" data-name="Line 753" x1="1.759" y2="3.617" transform="translate(400.165 794.947)" fill="none" stroke="#1a1e23" stroke-linecap="round" stroke-linejoin="round" stroke-width="1"/>
      <line id="Line_754" data-name="Line 754" x1="3.617" y1="1.759" transform="translate(403.311 807.078)" fill="none" stroke="#1a1e23" stroke-linecap="round" stroke-linejoin="round" stroke-width="1"/>
    </g>
    <circle id="Ellipse_2373" data-name="Ellipse 2373" cx="6.136" cy="6.136" r="6.136" transform="translate(83.16 11.383)" fill="#ffc101" stroke="#1d1d1d" stroke-linecap="round" stroke-width="1.5"/>
    <circle id="Ellipse_2374" data-name="Ellipse 2374" cx="6.136" cy="6.136" r="6.136" transform="translate(161.442 73.9)" fill="#ffc101" stroke="#1d1d1d" stroke-linecap="round" stroke-width="1.5"/>
    <g id="icon_check-circle" data-name="icon check-circle" transform="translate(-234.074 -686.996)">
      <circle id="Ellipse_2" data-name="Ellipse 2" cx="17.109" cy="17.109" r="17.109" transform="translate(302.583 771.216)" fill="#b4ffe8" stroke="#1d1d1d" stroke-linecap="round" stroke-width="1.5"/>
      <g id="Group_3280" data-name="Group 3280">
        <line id="Line_755" data-name="Line 755" x2="5.06" transform="translate(317.022 788.758)" fill="none" stroke="#1a1e23" stroke-linecap="round" stroke-linejoin="round" stroke-width="1.5"/>
        <path id="Path_17156" data-name="Path 17156" d="M317.982,785.121H314.2a3.795,3.795,0,1,0,0,7.589h3.785" fill="none" stroke="#1a1e23" stroke-linecap="round" stroke-linejoin="round" stroke-width="1.5"/>
        <path id="Path_17157" data-name="Path 17157" d="M321.4,785.121h3.785a3.795,3.795,0,0,1,0,7.589H321.4" fill="none" stroke="#1a1e23" stroke-linecap="round" stroke-linejoin="round" stroke-width="1.5"/>
      </g>
    </g>
  </g>
</svg>
