<svg xmlns="http://www.w3.org/2000/svg" width="22.802" height="20.704" viewBox="0 0 22.802 20.704">
  <g id="icon_monthly-donations" transform="translate(0.75 0.75)">
    <g id="Group_2511" data-name="Group 2511" transform="translate(0 0)">
      <g id="Group_15380" data-name="Group 15380">
        <line id="Line_297" data-name="Line 297" y2="3.321" transform="translate(4.652)" fill="none" stroke="#102558" stroke-linecap="round" stroke-linejoin="round" stroke-width="1.5"/>
        <line id="Line_298" data-name="Line 298" y2="3.321" transform="translate(12.703)" fill="none" stroke="#102558" stroke-linecap="round" stroke-linejoin="round" stroke-width="1.5"/>
        <line id="Line_299" data-name="Line 299" x2="16.892" transform="translate(0 6.642)" fill="none" stroke="#102558" stroke-linecap="round" stroke-linejoin="round" stroke-width="1.5"/>
      </g>
    </g>
    <rect id="Rectangle_3594" data-name="Rectangle 3594" width="2.443" height="2.497" transform="translate(2.892 9.43)" fill="none" stroke="#102558" stroke-linecap="round" stroke-linejoin="round" stroke-width="1.5"/>
    <rect id="Rectangle_3595" data-name="Rectangle 3595" width="2.443" height="2.497" transform="translate(7.556 9.43)" fill="none" stroke="#102558" stroke-linecap="round" stroke-linejoin="round" stroke-width="1.5"/>
    <g id="Group_2513" data-name="Group 2513" transform="translate(0 1.81)">
      <g id="Group_2527" data-name="Group 2527">
        <path id="Path_7197" data-name="Path 7197" d="M13.074,15.865a4.666,4.666,0,0,1,4.614-4.715,4.6,4.6,0,0,1,.6.044V5.468a2.257,2.257,0,0,0-2.232-2.281H3.232A2.257,2.257,0,0,0,1,5.468v11.29a2.256,2.256,0,0,0,2.232,2.281H14.283A4.75,4.75,0,0,1,13.074,15.865Z" transform="translate(-1 -3.187)" fill="none" stroke="#102558" stroke-linecap="round" stroke-linejoin="round" stroke-width="1.5"/>
        <path id="Path_7199" data-name="Path 7199" d="M20.522,12.809a4.716,4.716,0,1,1-4.614,4.715A4.665,4.665,0,0,1,20.522,12.809Z" transform="translate(-3.834 -4.846)" fill="none" stroke="#102558" stroke-linecap="round" stroke-linejoin="round" stroke-width="1.5"/>
      </g>
    </g>
  </g>
</svg>
