<svg xmlns="http://www.w3.org/2000/svg" width="25.747" height="36.865" viewBox="0 0 25.747 36.865">
  <g id="icon_needy" transform="translate(1.024 1)">
    <g id="Group_17435" data-name="Group 17435" transform="translate(-1 -1)">
      <path id="Path_78615" data-name="Path 78615" d="M21.438,14.35V9.064a1.761,1.761,0,1,0-3.522,0V14.35" fill="none" stroke="#1d1d1d" stroke-linecap="round" stroke-linejoin="round" stroke-width="2"/>
      <path id="Path_78616" data-name="Path 78616" d="M14.393,16.151V2.761a1.761,1.761,0,1,0-3.522,0v13.39" fill="none" stroke="#1d1d1d" stroke-linecap="round" stroke-linejoin="round" stroke-width="2"/>
      <path id="Path_78617" data-name="Path 78617" d="M10.872,15.956V5.715a1.761,1.761,0,0,0-3.523,0V20.458" fill="none" stroke="#1d1d1d" stroke-linecap="round" stroke-linejoin="round" stroke-width="2"/>
      <path id="Path_78618" data-name="Path 78618" d="M17.915,14.354V5.015a1.761,1.761,0,0,0-3.522,0V16.154" fill="none" stroke="#1d1d1d" stroke-linecap="round" stroke-linejoin="round" stroke-width="2"/>
      <path id="Path_78619" data-name="Path 78619" d="M9.747,35.711c.667-3.9-2.8-6.927-5.244-11.313-1.569-2.757-1.945-5.929-3.161-9.162-1.057-2.717.53-3.708,2.086-2.528,1.647,1.337,2.956,4,3.922,7.747.9,2.316,4.612,1.531,4.988,5.524" fill="none" stroke="#1d1d1d" stroke-linecap="round" stroke-linejoin="round" stroke-width="2"/>
      <path id="Path_78620" data-name="Path 78620" d="M19.626,30.785a14.951,14.951,0,0,0-.752,4.926" fill="none" stroke="#1d1d1d" stroke-linecap="round" stroke-linejoin="round" stroke-width="2"/>
      <path id="Path_78621" data-name="Path 78621" d="M21.438,19a3.285,3.285,0,1,1-3.285,3.285A3.285,3.285,0,0,1,21.438,19" fill="#fffaa5"/>
      <circle id="Ellipse_2507" data-name="Ellipse 2507" cx="3.285" cy="3.285" r="3.285" transform="translate(18.153 19.001)" fill="none" stroke="#1d1d1d" stroke-linecap="round" stroke-linejoin="round" stroke-width="2"/>
    </g>
  </g>
</svg>
