<svg xmlns="http://www.w3.org/2000/svg" width="20.804" height="19.167" viewBox="0 0 20.804 19.167">
  <g id="icon_cash-wallet" transform="translate(0.75 0.75)">
    <g id="Group_3955" data-name="Group 3955">
      <path id="Path_23432" data-name="Path 23432" d="M5.98,4.289a3.57,3.57,0,0,1,7.14,0" transform="translate(-0.471 -0.75)" fill="none" stroke="#102558" stroke-linecap="round" stroke-linejoin="round" stroke-width="1.5"/>
      <path id="Path_23433" data-name="Path 23433" d="M12.736,10.177a.987.987,0,1,1-1,.987.991.991,0,0,1,1-.987" transform="translate(-0.163 -0.332)" fill="#161819"/>
      <path id="Path_23434" data-name="Path 23434" d="M16.793,18.262H2.605A1.851,1.851,0,0,1,.75,16.422V6.083A1.85,1.85,0,0,1,2.605,4.242H16.793a1.85,1.85,0,0,1,1.856,1.84V8.495a1.953,1.953,0,0,0-.527-.072H12.338A1.924,1.924,0,0,0,10.4,10.336h0v2.075a1.923,1.923,0,0,0,1.934,1.912h5.794a1.953,1.953,0,0,0,.527-.072v2.169A1.851,1.851,0,0,1,16.8,18.262Z" transform="translate(-0.75 -0.595)" fill="none" stroke="#102558" stroke-linecap="round" stroke-linejoin="round" stroke-width="1.5"/>
      <path id="Path_23435" data-name="Path 23435" d="M11.844,8.245h5.794a1.921,1.921,0,0,1,1.927,1.913v2.076a1.921,1.921,0,0,1-1.929,1.912H11.842a1.922,1.922,0,0,1-1.928-1.913V10.158A1.921,1.921,0,0,1,11.844,8.245Z" transform="translate(-0.26 -0.418)" fill="none" stroke="#102558" stroke-linecap="round" stroke-linejoin="round" stroke-width="1.5"/>
    </g>
  </g>
</svg>
