<svg xmlns="http://www.w3.org/2000/svg" width="18.22" height="17.82" viewBox="0 0 18.22 17.82">
  <g id="icon_phone-volume" transform="translate(0.752 0.75)">
    <path id="Path_7191" data-name="Path 7191" d="M289.427,1677.983a14.445,14.445,0,0,0,7.3,4.2c1.223.084,2.062-.987,2.42-2.136.315-.988-1.109-2.1-2.262-2.747-1.706-1.019-2.065-.592-2.538.157" transform="translate(-285.198 -1665.871)" fill="none" stroke="#00ade9" stroke-linecap="round" stroke-linejoin="round" stroke-width="1.5"/>
    <path id="Path_7192" data-name="Path 7192" d="M244.183,1587.257a14.341,14.341,0,0,1-4.223-7.264c-.084-1.217.992-2.052,2.146-2.408.993-.314,2.111,1.1,2.761,2.25,1.024,1.7.6,2.055-.158,2.525" transform="translate(-239.956 -1575.147)" fill="none" stroke="#00ade9" stroke-linecap="round" stroke-linejoin="round" stroke-width="1.5"/>
    <path id="Path_7193" data-name="Path 7193" d="M344.439,1549.422a7.643,7.643,0,0,1,5.546,2.226,7.565,7.565,0,0,1,2.238,5.518" transform="translate(-335.506 -1549.421)" fill="none" stroke="#00ade9" stroke-linecap="round" stroke-linejoin="round" stroke-width="1.5"/>
    <path id="Path_7194" data-name="Path 7194" d="M343.617,1593.39a3.96,3.96,0,0,1,2.946,1.143,3.918,3.918,0,0,1,1.148,2.931" transform="translate(-334.755 -1589.646)" fill="none" stroke="#00ade9" stroke-linecap="round" stroke-linejoin="round" stroke-width="1.5"/>
  </g>
</svg>
