<svg xmlns="http://www.w3.org/2000/svg" width="21.925" height="21.874" viewBox="0 0 21.925 21.874">
  <g id="icon_help" transform="translate(0.75 0.75)">
    <path id="Path_5926" data-name="Path 5926" d="M326.628-423.85a10.093,10.093,0,0,1-5.913-1.888c-.156-.1-.526-.219-.646-.1l-2.336.646.646-2.336a.992.992,0,0,0-.1-.646,10.093,10.093,0,0,1-1.888-5.913,10.266,10.266,0,0,1,10.237-10.138,10.2,10.2,0,0,1,10.188,10.187A10.2,10.2,0,0,1,326.628-423.85Z" transform="translate(-316.391 444.224)" fill="none" stroke="#1d1d1d" stroke-linecap="round" stroke-linejoin="round" stroke-width="1.5"/>
    <path id="Path_5927" data-name="Path 5927" d="M334.286-430.618a3.217,3.217,0,0,1,3.217-3.217,3.211,3.211,0,0,1,3.217,3.217c-.017,3.312-3.262,2.37-3.262,4.8" transform="translate(-327.311 437.884)" fill="none" stroke="#1d1d1d" stroke-linecap="round" stroke-linejoin="round" stroke-width="1.5"/>
    <ellipse id="Ellipse_186" data-name="Ellipse 186" cx="1.183" cy="1.183" rx="1.183" ry="1.183" transform="translate(9.009 13.966)" fill="#1d1d1d"/>
  </g>
</svg>
