<svg xmlns="http://www.w3.org/2000/svg" width="34.959" height="32.717" viewBox="0 0 34.959 32.717">
  <g id="icon_ramadan-color" transform="translate(1.024 1.077)">
    <path id="Path_7630" data-name="Path 7630" d="M526.963,216.8a15.188,15.188,0,0,1-13.481-22.209,15.2,15.2,0,1,0,22.145,19.492A15.124,15.124,0,0,1,526.963,216.8Z" transform="translate(-505.153 -190.636)" fill="#e3e3e3"/>
    <path id="Path_5744" data-name="Path 5744" d="M532.446,195.611l5.042.657a.67.67,0,0,1,.362,1.169l-3.664,3.474.912,4.985a.653.653,0,0,1-.481.789h-.04a.647.647,0,0,1-.456-.065l-4.452-2.422-4.441,2.424a.7.7,0,0,1-.934-.322h0a.682.682,0,0,1-.065-.417l.938-4.985-3.684-3.479a.677.677,0,0,1,0-.958l0,0h0a.649.649,0,0,1,.407-.2l5.007-.657,2.17-4.594a.7.7,0,0,1,.94-.287h0a.725.725,0,0,1,.291.285Z" transform="translate(-505.153 -190.636)" fill="#fffaa5"/>
    <path id="Path_5744-2" data-name="Path 5744" d="M532.446,195.611l5.042.657a.67.67,0,0,1,.362,1.169l-3.664,3.474.912,4.985a.653.653,0,0,1-.481.789h-.04a.647.647,0,0,1-.456-.065l-4.452-2.422-4.441,2.424a.7.7,0,0,1-.934-.322h0a.682.682,0,0,1-.065-.417l.938-4.985-3.684-3.479a.677.677,0,0,1,0-.958l0,0h0a.649.649,0,0,1,.407-.2l5.007-.657,2.17-4.594a.7.7,0,0,1,.94-.287h0a.725.725,0,0,1,.291.285Z" transform="translate(-505.153 -190.636)" fill="none" stroke="#1d1d1d" stroke-linecap="round" stroke-linejoin="round" stroke-width="2"/>
    <path id="Path_7630-2" data-name="Path 7630" d="M525.177,215.237A15.188,15.188,0,0,1,511.7,193.028,15.2,15.2,0,1,0,533.84,212.52,15.118,15.118,0,0,1,525.177,215.237Z" transform="translate(-505.153 -190.636)" fill="none" stroke="#1d1d1d" stroke-linecap="round" stroke-linejoin="round" stroke-width="2"/>
  </g>
</svg>
