<svg xmlns="http://www.w3.org/2000/svg" width="120" height="36.427" viewBox="0 0 120 36.427">
  <g id="logo_fundraising-regulator" style="mix-blend-mode: luminosity;isolation: isolate">
    <g id="Group_15350" data-name="Group 15350">
      <path id="Path_70546" data-name="Path 70546" d="M18.371,0A18.214,18.214,0,1,0,36.742,18.213,18.292,18.292,0,0,0,18.371,0m0,2.994A15.22,15.22,0,1,1,3.02,18.213,15.3,15.3,0,0,1,18.371,2.994" fill="#6e6e6e" fill-rule="evenodd"/>
      <path id="Path_70547" data-name="Path 70547" d="M37.464,60.716H47.9v3.141H41.079v2.2h6.168v2.974H41.079v4.619H37.464Zm17.182,6.207c1.211,0,1.938-.591,1.938-1.534v-.036c0-1.035-.764-1.552-1.956-1.552H52.242v3.122Zm-6.019-6.207h6.168A5.806,5.806,0,0,1,59.044,62.1,4.02,4.02,0,0,1,60.2,65.113v.037a4.1,4.1,0,0,1-2.683,3.99l3.112,4.508H56.472l-2.627-3.917h-1.6v3.917H48.627Z" transform="translate(-29.939 -48.615)" fill="#6e6e6e" fill-rule="evenodd"/>
    </g>
    <path id="Path_70548" data-name="Path 70548" d="M218.621,43.513h5.659v.547h-5.062v3.266h4.546v.547h-4.546V51.48h-.6Zm6.831,4.655V43.513h.6v4.6c0,1.878,1.022,2.96,2.721,2.96,1.63,0,2.675-.979,2.675-2.9V43.513h.6V48.1c0,2.288-1.343,3.505-3.295,3.505a3.121,3.121,0,0,1-3.295-3.437m8.279-4.655h.562l5.545,6.931V43.513h.574V51.48h-.448l-5.66-7.078V51.48h-.574Zm11.171,7.42a3.4,3.4,0,0,0,3.65-3.414V47.5a3.419,3.419,0,0,0-3.65-3.436h-2.079v6.873Zm-2.675-7.42H244.9a3.99,3.99,0,0,1,4.27,3.961V47.5a4.007,4.007,0,0,1-4.27,3.983h-2.675Zm11.711,4.132c1.344,0,2.342-.672,2.342-1.821V45.8c0-1.07-.849-1.741-2.307-1.741H251.23v3.585Zm-3.305-4.131h3.375a3.181,3.181,0,0,1,2.261.785,2.094,2.094,0,0,1,.609,1.479V45.8c0,1.332-1,2.094-2.353,2.276l2.651,3.4h-.758l-2.56-3.3H251.23v3.3h-.6V43.514Zm13.168,5.2-2.112-4.609-2.124,4.609H263.8Zm-2.388-5.259h.575l3.741,8.023h-.654l-1.022-2.23h-4.741l-1.022,2.23h-.62l3.742-8.023Zm5.523,8.023h.6V43.513h-.6Zm1.975-1.161.39-.444a3.921,3.921,0,0,0,2.881,1.184c1.206,0,2.032-.671,2.032-1.582v-.023c0-.842-.448-1.331-2.273-1.7-1.928-.386-2.71-1.036-2.71-2.242v-.023a2.319,2.319,0,0,1,2.584-2.094,4.029,4.029,0,0,1,2.754.967l-.378.467a3.476,3.476,0,0,0-2.4-.9c-1.182,0-1.963.671-1.963,1.5v.023c0,.842.436,1.354,2.341,1.741,1.86.375,2.641,1.035,2.641,2.2v.023c0,1.286-1.114,2.173-2.663,2.173a4.594,4.594,0,0,1-3.238-1.275m7.371,1.161h.6V43.513h-.6Zm2.492-7.966h.562l5.545,6.931V43.513h.574V51.48h-.448l-5.66-7.078V51.48h-.574Zm8.141,4.006V47.5a3.993,3.993,0,0,1,3.972-4.119,4.234,4.234,0,0,1,2.938,1.047l-.39.444a3.637,3.637,0,0,0-2.582-.956,3.4,3.4,0,0,0-3.318,3.563V47.5a3.335,3.335,0,0,0,3.444,3.6,4.145,4.145,0,0,0,2.56-.911V47.895h-2.686v-.546h3.26v3.072a4.854,4.854,0,0,1-3.157,1.2,3.9,3.9,0,0,1-4.041-4.1" transform="translate(-174.708 -34.732)" fill="#717171" fill-rule="evenodd"/>
    <path id="Path_70549" data-name="Path 70549" d="M222.047,97.787c.965,0,1.518-.511,1.518-1.264V96.5c0-.842-.592-1.276-1.557-1.276H220.04v2.565Zm-3.989-4.337h4.118a3.607,3.607,0,0,1,2.625.905,2.788,2.788,0,0,1,.772,2.041v.026a2.774,2.774,0,0,1-1.93,2.768l2.2,3.189h-2.316l-1.93-2.858H220.04v2.858h-1.982V93.45Zm8.655,0h6.793V95.2h-4.825v1.811h4.247v1.747h-4.247v1.874h4.89v1.748h-6.858Zm7.574,4.49v-.026a4.6,4.6,0,0,1,4.722-4.617,4.968,4.968,0,0,1,3.539,1.224L241.3,96.013a3.336,3.336,0,0,0-2.355-.906,2.691,2.691,0,0,0-2.586,2.781v.026a2.685,2.685,0,0,0,2.727,2.832,3.182,3.182,0,0,0,1.866-.535V98.934h-1.994v-1.7h3.912v3.877a5.876,5.876,0,0,1-3.847,1.416,4.489,4.489,0,0,1-4.735-4.592m9.7.612v-5.1h1.982V98.5c0,1.454.734,2.207,1.943,2.207s1.943-.727,1.943-2.144V93.45h1.982v5.038c0,2.7-1.532,4.031-3.951,4.031s-3.9-1.339-3.9-3.967m9.221-5.1h1.982v7.143h4.491v1.786H253.2Zm12.49,5.192-1.2-2.9-1.2,2.9Zm-2.085-5.256h1.827l3.86,8.993h-2.071l-.824-2h-3.808l-.824,2h-2.021Zm7.368,1.875h-2.74V93.449H275.7V95.26h-2.741v7.118h-1.982Zm12.31,2.679v-.026a2.725,2.725,0,0,0-2.728-2.807,2.681,2.681,0,0,0-2.7,2.781v.026a2.724,2.724,0,0,0,2.727,2.807,2.682,2.682,0,0,0,2.7-2.781m-7.5,0v-.026a4.791,4.791,0,0,1,9.574-.026v.026a4.791,4.791,0,0,1-9.574.026m14.676-.153c.965,0,1.519-.511,1.519-1.264V96.5c0-.842-.592-1.276-1.557-1.276h-1.968v2.565Zm-3.988-4.337h4.117a3.608,3.608,0,0,1,2.625.905,2.79,2.79,0,0,1,.772,2.041v.026a2.774,2.774,0,0,1-1.93,2.768l2.2,3.189h-2.316l-1.931-2.858h-1.556v2.858h-1.981V93.45Z" transform="translate(-174.258 -74.703)" fill="#6e6e6e" fill-rule="evenodd"/>
  </g>
</svg>
