<svg xmlns="http://www.w3.org/2000/svg" width="54.499" height="46.583" viewBox="0 0 54.499 46.583">
  <g id="icon_difference-color" transform="translate(1 1)">
    <path id="Path_7170" data-name="Path 7170" d="M228.7,251.082a10.873,10.873,0,0,0,10.874-10.871v0H217.837A10.873,10.873,0,0,0,228.7,251.082Z" transform="translate(-217.837 -208.569)" fill="#fff"/>
    <path id="Path_7171" data-name="Path 7171" d="M259.462,253.152a10.873,10.873,0,0,0,10.874-10.87v0H252.6C252.594,248.281,253.458,253.149,259.462,253.152Z" transform="translate(-217.837 -208.569)" fill="#ccf2ff"/>
    <line id="Line_498" data-name="Line 498" x2="14.923" transform="translate(6.189 5.191)" fill="none" stroke="#102558" stroke-linecap="round" stroke-linejoin="round" stroke-width="2"/>
    <circle id="Ellipse_264" data-name="Ellipse 264" cx="5.133" cy="5.133" r="5.133" transform="translate(21.111)" fill="#ffc100" stroke="#102558" stroke-linecap="round" stroke-linejoin="round" stroke-width="2"/>
    <g id="Group_2676" data-name="Group 2676" transform="translate(-217.837 -208.569)">
      <line id="Line_499" data-name="Line 499" y1="17.819" x2="7.394" transform="translate(221.307 222.392)" fill="none" stroke="#102558" stroke-linecap="round" stroke-linejoin="round" stroke-width="2"/>
      <line id="Line_500" data-name="Line 500" x1="7.394" y1="17.819" transform="translate(228.701 222.392)" fill="none" stroke="#102558" stroke-linecap="round" stroke-linejoin="round" stroke-width="2"/>
    </g>
    <path id="Path_7171-2" data-name="Path 7171" d="M259.462,253.152a10.873,10.873,0,0,0,10.874-10.87v0H248.6A10.872,10.872,0,0,0,259.462,253.152Z" transform="translate(-217.837 -208.569)" fill="none" stroke="#102558" stroke-linecap="round" stroke-linejoin="round" stroke-width="2"/>
    <g id="Group_2678" data-name="Group 2678" transform="translate(-217.837 -208.569)">
      <line id="Line_501" data-name="Line 501" y1="17.819" x2="7.394" transform="translate(252.066 224.463)" fill="none" stroke="#102558" stroke-linecap="round" stroke-linejoin="round" stroke-width="2"/>
      <line id="Line_502" data-name="Line 502" x1="7.394" y1="17.819" transform="translate(259.46 224.463)" fill="none" stroke="#102558" stroke-linecap="round" stroke-linejoin="round" stroke-width="2"/>
    </g>
    <line id="Line_503" data-name="Line 503" x2="14.923" transform="translate(32.094 5.191)" fill="none" stroke="#102558" stroke-linecap="round" stroke-linejoin="round" stroke-width="2"/>
    <path id="Path_7170-2" data-name="Path 7170" d="M228.7,251.082a10.873,10.873,0,0,0,10.874-10.871v0H227.837C227.836,246.21,222.7,251.078,228.7,251.082Z" transform="translate(-217.837 -208.569)" fill="#ccf2ff"/>
    <path id="Path_7170-3" data-name="Path 7170" d="M228.7,251.082a10.873,10.873,0,0,0,10.874-10.871v0H217.837A10.873,10.873,0,0,0,228.7,251.082Z" transform="translate(-217.837 -208.569)" fill="none" stroke="#102558" stroke-linecap="round" stroke-linejoin="round" stroke-width="2"/>
  </g>
</svg>
