<svg xmlns="http://www.w3.org/2000/svg" width="55.879" height="73.721" viewBox="0 0 55.879 73.721">
  <path id="Union_7" data-name="Union 7" d="M-733.563,23292.867l-20.67-21a16.569,16.569,0,0,1-4.766-11.693,16.578,16.578,0,0,1,4.766-11.7,16.12,16.12,0,0,1,22.672-.35,16.116,16.116,0,0,1,22.669.35,16.564,16.564,0,0,1,4.772,11.7,16.555,16.555,0,0,1-4.772,11.693,2.757,2.757,0,0,1-3.953,0,2.868,2.868,0,0,1,0-4.016,10.889,10.889,0,0,0,3.129-7.678,10.882,10.882,0,0,0-3.129-7.678,10.588,10.588,0,0,0-15.118,0l-1.62,1.646,0,0-10,10.156a2.763,2.763,0,0,1-1.98.83,2.757,2.757,0,0,1-1.978-.83,2.882,2.882,0,0,1,0-4.021l8.007-8.129a10.569,10.569,0,0,0-14.738.344,10.869,10.869,0,0,0-3.132,7.678,10.876,10.876,0,0,0,3.132,7.678l20.665,21a2.871,2.871,0,0,1,0,4.02,2.762,2.762,0,0,1-1.976.832A2.772,2.772,0,0,1-733.563,23292.867Zm7.3-6.75-9.684-9.838a2.87,2.87,0,0,1,0-4.018,2.766,2.766,0,0,1,3.958,0l9.681,9.838a2.869,2.869,0,0,1,0,4.018,2.766,2.766,0,0,1-1.979.832A2.748,2.748,0,0,1-726.265,23286.117Zm6.908-7.393-9.315-9.465a2.866,2.866,0,0,1,0-4.016,2.769,2.769,0,0,1,3.958,0l9.312,9.463a2.872,2.872,0,0,1,0,4.018,2.753,2.753,0,0,1-1.978.83A2.751,2.751,0,0,1-719.356,23278.725Zm-16.931-38.375a10.167,10.167,0,0,1-4.933-6.051,10.347,10.347,0,0,1,.724-7.824,10.081,10.081,0,0,1,5.957-5.012,9.9,9.9,0,0,1,7.7.734,10.36,10.36,0,0,1,4.212,13.875,10.1,10.1,0,0,1-8.951,5.467A9.929,9.929,0,0,1-736.287,23240.35Zm3.4-13.455a4.5,4.5,0,0,0-2.66,2.236,4.63,4.63,0,0,0-.323,3.494,4.533,4.533,0,0,0,2.2,2.7,4.481,4.481,0,0,0,6.1-1.906,4.625,4.625,0,0,0-1.88-6.2,4.423,4.423,0,0,0-2.1-.535A4.428,4.428,0,0,0-732.891,23226.895Zm7.8,7.852h-.013Z" transform="translate(759.499 -23220.479)" fill="#fff" stroke="rgba(0,0,0,0)" stroke-width="1" style="mix-blend-mode: soft-light;isolation: isolate"/>
</svg>
