<svg xmlns="http://www.w3.org/2000/svg" width="12.05" height="12.043" viewBox="0 0 12.05 12.043">
  <g id="Group_4342" data-name="Group 4342" transform="translate(0 0)">
    <g id="Group_4341" data-name="Group 4341" transform="translate(0 0)">
      <path id="Path_37649" data-name="Path 37649" d="M11.748,5.5a1.012,1.012,0,0,0-.575-1.725L8.448,3.358a.449.449,0,0,1-.322-.242L6.936.582a1,1,0,0,0-1.816,0l-1.2,2.558a.448.448,0,0,1-.322.241L.878,3.8A1.012,1.012,0,0,0,.3,5.525L2.315,7.594a.443.443,0,0,1,.121.38l-.472,2.874a1.018,1.018,0,0,0,1,1.2,1.039,1.039,0,0,0,.477-.155l2.374-1.322a.437.437,0,0,1,.414,0l2.386,1.322a.988.988,0,0,0,1.058-.058,1.005,1.005,0,0,0,.42-.994L9.621,7.962a.426.426,0,0,1,.121-.373Z" transform="translate(0 0)" fill="#ffc100"/>
      <path id="Path_37650" data-name="Path 37650" d="M10.7,10.081l-1.64,1.705a.347.347,0,0,0-.1.305l.385,2.35a.821.821,0,0,1-.343.812.809.809,0,0,1-.864.047L6.191,14.22a.358.358,0,0,0-.338,0L3.913,15.3a.851.851,0,0,1-.39.127.832.832,0,0,1-.817-.977L3.09,12.1a.361.361,0,0,0-.1-.31L1.347,10.1C1.283,10.036.713,9.472.091,8.839A1,1,0,0,0,0,9.3a1.014,1.014,0,0,0,.3.671l2.012,2.069h0a.443.443,0,0,1,.12.379l-.471,2.874a1.017,1.017,0,0,0,1,1.2,1.032,1.032,0,0,0,.477-.155l2.374-1.322a.439.439,0,0,1,.414,0l2.386,1.322a.989.989,0,0,0,1.057-.057,1.005,1.005,0,0,0,.42-.994L9.62,12.406a.425.425,0,0,1,.12-.373l2.006-2.087a1,1,0,0,0,.192-1.176c-.533.587-1.154,1.23-1.237,1.311" transform="translate(0 -4.444)" fill="#ffc100"/>
    </g>
  </g>
</svg>
