<svg xmlns="http://www.w3.org/2000/svg" width="23.947" height="30.176" viewBox="0 0 23.947 30.176">
  <g id="icon_zacat" transform="translate(1 1)">
    <path id="Path_70557" data-name="Path 70557" d="M363.368,210.2a10.226,10.226,0,0,1-20.452,0c0-5.648,4.578-12.669,10.227-12.669S363.368,204.553,363.368,210.2Z" transform="translate(-340.421 -191.251)" fill="#ffe2b9"/>
    <path id="Path_70557-2" data-name="Path 70557" d="M360.873,208.644a10.226,10.226,0,1,1-20.452,0c0-5.648,4.578-12.669,10.227-12.669S360.873,203,360.873,208.644Z" transform="translate(-340.421 -191.251)" fill="none" stroke="#1d1d1d" stroke-linecap="round" stroke-linejoin="round" stroke-width="2"/>
    <path id="Path_70558" data-name="Path 70558" d="M350.648,195.574a4.322,4.322,0,0,0,4.322-4.322h-8.646a4.323,4.323,0,0,0,4.323,4.323Z" transform="translate(-340.421 -191.251)" fill="none" stroke="#1d1d1d" stroke-linecap="round" stroke-linejoin="round" stroke-width="2"/>
    <line id="Line_1491" data-name="Line 1491" x2="4.213" y2="1.815" transform="translate(3.876 2.563)" fill="none" stroke="#1d1d1d" stroke-linecap="round" stroke-linejoin="round" stroke-width="2"/>
    <line id="Line_1492" data-name="Line 1492" y1="1.088" x2="4.666" transform="translate(3.423 4.613)" fill="none" stroke="#1d1d1d" stroke-linecap="round" stroke-linejoin="round" stroke-width="2"/>
  </g>
</svg>
