<svg xmlns="http://www.w3.org/2000/svg" width="42.946" height="55.198" viewBox="0 0 42.946 55.198">
  <g id="logo_aid-humanity-icon" transform="translate(0.5)">
    <path id="Path_70532" data-name="Path 70532" d="M73.443,15.452A7.723,7.723,0,0,1,66.627,4.118a7.725,7.725,0,1,1,13.658,7.221h0A7.734,7.734,0,0,1,73.443,15.452Zm.018-11.174A3.449,3.449,0,1,0,76.5,9.341h0a3.453,3.453,0,0,0-3.044-5.063Zm4.934,6.062h0Z" transform="translate(-52.484)" fill="#ffc100"/>
    <path id="Union_1" data-name="Union 1" d="M-8860.558,37.039l-15.8-15.8a12.362,12.362,0,0,1-3.644-8.8,12.371,12.371,0,0,1,3.644-8.8,12.46,12.46,0,0,1,17.329-.263,12.457,12.457,0,0,1,17.327.263,12.362,12.362,0,0,1,3.646,8.8,12.353,12.353,0,0,1-3.646,8.8,2.13,2.13,0,0,1-3.021,0,2.134,2.134,0,0,1,0-3.022,8.126,8.126,0,0,0,2.392-5.776,8.126,8.126,0,0,0-2.392-5.776,8.183,8.183,0,0,0-11.556,0l-1.238,1.239,0,0-7.642,7.642a2.128,2.128,0,0,1-1.513.626,2.125,2.125,0,0,1-1.512-.626,2.142,2.142,0,0,1,0-3.024l6.12-6.117a8.17,8.17,0,0,0-11.266.259,8.112,8.112,0,0,0-2.394,5.776,8.112,8.112,0,0,0,2.394,5.776l15.8,15.8a2.137,2.137,0,0,1,0,3.024,2.132,2.132,0,0,1-1.511.626A2.138,2.138,0,0,1-8860.558,37.039Zm5.578-5.079-7.4-7.4a2.137,2.137,0,0,1,0-3.024,2.138,2.138,0,0,1,3.024,0l7.4,7.4a2.134,2.134,0,0,1,0,3.022,2.132,2.132,0,0,1-1.513.626A2.117,2.117,0,0,1-8854.979,31.96Zm5.281-5.563-7.12-7.12a2.134,2.134,0,0,1,0-3.022,2.138,2.138,0,0,1,3.024,0l7.118,7.12a2.136,2.136,0,0,1,0,3.022,2.121,2.121,0,0,1-1.512.626A2.121,2.121,0,0,1-8849.7,26.4Z" transform="translate(8880 17.032)" fill="#00ade9" stroke="rgba(0,0,0,0)" stroke-width="1"/>
  </g>
</svg>
