<svg id="illustration_choose-appeal" xmlns="http://www.w3.org/2000/svg" width="162.856" height="163.165" viewBox="0 0 162.856 163.165">
  <g id="Group_15485" data-name="Group 15485" transform="translate(-233.871 -121.666)">
    <path id="Path_70773" data-name="Path 70773" d="M302.892,121.784a.023.023,0,0,0,.023-.023.023.023,0,0,0-.023-.024.024.024,0,0,0-.024.024A.023.023,0,0,0,302.892,121.784Z" fill="#e5e5e5"/>
    <circle id="Ellipse_1936" data-name="Ellipse 1936" cx="0.071" cy="0.071" r="0.071" transform="translate(311.34 121.69)" fill="#e5e5e5"/>
    <path id="Path_70774" data-name="Path 70774" d="M319.931,121.855a.095.095,0,1,0-.094-.094A.095.095,0,0,0,319.931,121.855Z" fill="#e5e5e5"/>
    <circle id="Ellipse_1937" data-name="Ellipse 1937" cx="0.071" cy="0.071" r="0.071" transform="translate(328.38 121.69)" fill="#e5e5e5"/>
    <path id="Path_70775" data-name="Path 70775" d="M336.971,121.784a.023.023,0,0,0,.023-.023.023.023,0,0,0-.023-.024.024.024,0,0,0-.024.024A.023.023,0,0,0,336.971,121.784Z" fill="#e5e5e5"/>
    <circle id="Ellipse_1938" data-name="Ellipse 1938" cx="0.118" cy="0.118" r="0.118" transform="translate(285.734 130.162)" fill="#e5e5e5"/>
    <path id="Path_70776" data-name="Path 70776" d="M294.372,130.635a.355.355,0,1,0-.354-.355A.354.354,0,0,0,294.372,130.635Z" fill="#e5e5e5"/>
    <path id="Path_70777" data-name="Path 70777" d="M302.892,130.918a.638.638,0,1,0-.638-.638A.638.638,0,0,0,302.892,130.918Z" fill="#e5e5e5"/>
    <path id="Path_70778" data-name="Path 70778" d="M311.411,131.084a.8.8,0,1,0-.8-.8A.8.8,0,0,0,311.411,131.084Z" fill="#e5e5e5"/>
    <path id="Path_70779" data-name="Path 70779" d="M319.931,131.131a.851.851,0,1,0-.85-.851A.851.851,0,0,0,319.931,131.131Z" fill="#e5e5e5"/>
    <path id="Path_70780" data-name="Path 70780" d="M328.451,131.084a.8.8,0,1,0-.8-.8A.8.8,0,0,0,328.451,131.084Z" fill="#e5e5e5"/>
    <path id="Path_70781" data-name="Path 70781" d="M336.971,130.918a.638.638,0,1,0-.638-.638A.638.638,0,0,0,336.971,130.918Z" fill="#e5e5e5"/>
    <circle id="Ellipse_1939" data-name="Ellipse 1939" cx="0.378" cy="0.378" r="0.378" transform="translate(345.112 129.902)" fill="#e5e5e5"/>
    <circle id="Ellipse_1940" data-name="Ellipse 1940" cx="0.118" cy="0.118" r="0.118" transform="translate(353.892 130.162)" fill="#e5e5e5"/>
    <path id="Path_70782" data-name="Path 70782" d="M268.813,138.824a.023.023,0,0,0,.023-.024.023.023,0,0,0-.023-.023.023.023,0,0,0-.024.023A.024.024,0,0,0,268.813,138.824Z" fill="#e5e5e5"/>
    <path id="Path_70783" data-name="Path 70783" d="M277.332,139.107a.307.307,0,1,0-.307-.307A.307.307,0,0,0,277.332,139.107Z" fill="#e5e5e5"/>
    <path id="Path_70784" data-name="Path 70784" d="M285.852,139.58a.78.78,0,1,0-.779-.78A.78.78,0,0,0,285.852,139.58Z" fill="#e5e5e5"/>
    <circle id="Ellipse_1941" data-name="Ellipse 1941" cx="1.181" cy="1.181" r="1.181" transform="translate(293.191 137.619)" fill="#e5e5e5"/>
    <path id="Path_70785" data-name="Path 70785" d="M302.892,140.288A1.488,1.488,0,1,0,301.4,138.8,1.488,1.488,0,0,0,302.892,140.288Z" fill="#e5e5e5"/>
    <path id="Path_70786" data-name="Path 70786" d="M311.411,140.477a1.677,1.677,0,1,0-1.677-1.677A1.677,1.677,0,0,0,311.411,140.477Z" fill="#e5e5e5"/>
    <circle id="Ellipse_1942" data-name="Ellipse 1942" cx="1.748" cy="1.748" r="1.748" transform="translate(318.183 137.052)" fill="#e5e5e5"/>
    <path id="Path_70787" data-name="Path 70787" d="M328.451,140.5a1.7,1.7,0,1,0-1.7-1.7A1.7,1.7,0,0,0,328.451,140.5Z" fill="#e5e5e5"/>
    <path id="Path_70788" data-name="Path 70788" d="M336.971,140.312a1.512,1.512,0,1,0-1.512-1.512A1.512,1.512,0,0,0,336.971,140.312Z" fill="#e5e5e5"/>
    <path id="Path_70789" data-name="Path 70789" d="M345.49,140.029a1.229,1.229,0,1,0-1.228-1.229A1.229,1.229,0,0,0,345.49,140.029Z" fill="#e5e5e5"/>
    <path id="Path_70790" data-name="Path 70790" d="M354.01,139.627a.827.827,0,1,0-.827-.827A.827.827,0,0,0,354.01,139.627Z" fill="#e5e5e5"/>
    <path id="Path_70791" data-name="Path 70791" d="M362.53,139.155a.355.355,0,1,0-.354-.355A.354.354,0,0,0,362.53,139.155Z" fill="#e5e5e5"/>
    <path id="Path_70792" data-name="Path 70792" d="M371.05,138.824a.023.023,0,0,0,.023-.024.023.023,0,0,0-.023-.023.023.023,0,0,0-.024.023A.024.024,0,0,0,371.05,138.824Z" fill="#e5e5e5"/>
    <path id="Path_70793" data-name="Path 70793" d="M260.293,147.344a.024.024,0,1,0-.024-.024A.024.024,0,0,0,260.293,147.344Z" fill="#e5e5e5"/>
    <path id="Path_70794" data-name="Path 70794" d="M268.813,147.722a.4.4,0,1,0-.4-.4A.4.4,0,0,0,268.813,147.722Z" fill="#e5e5e5"/>
    <path id="Path_70795" data-name="Path 70795" d="M277.332,148.336a1.016,1.016,0,1,0-1.016-1.016A1.015,1.015,0,0,0,277.332,148.336Z" fill="#e5e5e5"/>
    <circle id="Ellipse_1943" data-name="Ellipse 1943" cx="1.559" cy="1.559" r="1.559" transform="translate(284.293 145.761)" fill="#e5e5e5"/>
    <circle id="Ellipse_1944" data-name="Ellipse 1944" cx="2.008" cy="2.008" r="2.008" transform="translate(292.364 145.312)" fill="#e5e5e5"/>
    <path id="Path_70796" data-name="Path 70796" d="M302.892,149.682a2.363,2.363,0,1,0-2.363-2.362A2.362,2.362,0,0,0,302.892,149.682Z" fill="#e5e5e5"/>
    <path id="Path_70797" data-name="Path 70797" d="M311.411,149.9a2.575,2.575,0,1,0-2.575-2.575A2.575,2.575,0,0,0,311.411,149.9Z" fill="#e5e5e5"/>
    <path id="Path_70798" data-name="Path 70798" d="M319.931,149.966a2.646,2.646,0,1,0-2.646-2.646A2.646,2.646,0,0,0,319.931,149.966Z" fill="#e5e5e5"/>
    <path id="Path_70799" data-name="Path 70799" d="M328.451,149.919a2.6,2.6,0,1,0-2.6-2.6A2.6,2.6,0,0,0,328.451,149.919Z" fill="#e5e5e5"/>
    <path id="Path_70800" data-name="Path 70800" d="M336.971,149.706a2.386,2.386,0,1,0-2.387-2.386A2.386,2.386,0,0,0,336.971,149.706Z" fill="#e5e5e5"/>
    <path id="Path_70801" data-name="Path 70801" d="M345.49,149.352a2.032,2.032,0,1,0-2.031-2.032A2.032,2.032,0,0,0,345.49,149.352Z" fill="#e5e5e5"/>
    <path id="Path_70802" data-name="Path 70802" d="M354.01,148.9a1.583,1.583,0,1,0-1.583-1.583A1.583,1.583,0,0,0,354.01,148.9Z" fill="#e5e5e5"/>
    <path id="Path_70803" data-name="Path 70803" d="M362.53,148.383a1.063,1.063,0,1,0-1.063-1.063A1.063,1.063,0,0,0,362.53,148.383Z" fill="#e5e5e5"/>
    <path id="Path_70804" data-name="Path 70804" d="M371.05,147.769a.449.449,0,1,0-.449-.449A.449.449,0,0,0,371.05,147.769Z" fill="#e5e5e5"/>
    <path id="Path_70805" data-name="Path 70805" d="M379.569,147.367a.047.047,0,1,0,0-.094.047.047,0,0,0,0,.094Z" fill="#e5e5e5"/>
    <path id="Path_70806" data-name="Path 70806" d="M260.293,156.147a.308.308,0,1,0-.307-.307A.307.307,0,0,0,260.293,156.147Z" fill="#e5e5e5"/>
    <path id="Path_70807" data-name="Path 70807" d="M268.813,156.856a1.016,1.016,0,1,0-1.016-1.016A1.016,1.016,0,0,0,268.813,156.856Z" fill="#e5e5e5"/>
    <path id="Path_70808" data-name="Path 70808" d="M277.332,157.517a1.677,1.677,0,1,0-1.677-1.677A1.677,1.677,0,0,0,277.332,157.517Z" fill="#e5e5e5"/>
    <path id="Path_70809" data-name="Path 70809" d="M285.852,158.108a2.268,2.268,0,1,0-2.268-2.268A2.268,2.268,0,0,0,285.852,158.108Z" fill="#e5e5e5"/>
    <path id="Path_70810" data-name="Path 70810" d="M294.372,158.627a2.787,2.787,0,1,0-2.788-2.787A2.788,2.788,0,0,0,294.372,158.627Z" fill="#e5e5e5"/>
    <circle id="Ellipse_1945" data-name="Ellipse 1945" cx="3.189" cy="3.189" r="3.189" transform="translate(299.702 152.65)" fill="#e5e5e5"/>
    <path id="Path_70811" data-name="Path 70811" d="M311.411,159.242a3.4,3.4,0,1,0-3.4-3.4A3.4,3.4,0,0,0,311.411,159.242Z" fill="#e5e5e5"/>
    <path id="Path_70812" data-name="Path 70812" d="M319.931,159.289a3.45,3.45,0,1,0-3.449-3.449A3.449,3.449,0,0,0,319.931,159.289Z" fill="#e5e5e5"/>
    <path id="Path_70813" data-name="Path 70813" d="M328.451,159.242a3.4,3.4,0,1,0-3.4-3.4A3.4,3.4,0,0,0,328.451,159.242Z" fill="#e5e5e5"/>
    <path id="Path_70814" data-name="Path 70814" d="M336.971,159.053a3.213,3.213,0,1,0-3.213-3.213A3.214,3.214,0,0,0,336.971,159.053Z" fill="#e5e5e5"/>
    <path id="Path_70815" data-name="Path 70815" d="M345.49,158.675a2.835,2.835,0,1,0-2.835-2.835A2.835,2.835,0,0,0,345.49,158.675Z" fill="#e5e5e5"/>
    <circle id="Ellipse_1946" data-name="Ellipse 1946" cx="2.315" cy="2.315" r="2.315" transform="translate(351.695 153.524)" fill="#e5e5e5"/>
    <path id="Path_70816" data-name="Path 70816" d="M362.53,157.564a1.724,1.724,0,1,0-1.725-1.724A1.725,1.725,0,0,0,362.53,157.564Z" fill="#e5e5e5"/>
    <path id="Path_70817" data-name="Path 70817" d="M371.05,156.9a1.063,1.063,0,1,0-1.064-1.063A1.063,1.063,0,0,0,371.05,156.9Z" fill="#e5e5e5"/>
    <circle id="Ellipse_1947" data-name="Ellipse 1947" cx="0.378" cy="0.378" r="0.378" transform="translate(379.191 155.462)" fill="#e5e5e5"/>
    <circle id="Ellipse_1948" data-name="Ellipse 1948" cx="0.118" cy="0.118" r="0.118" transform="translate(251.655 164.241)" fill="#e5e5e5"/>
    <path id="Path_70818" data-name="Path 70818" d="M260.293,165.139a.78.78,0,1,0-.78-.78A.78.78,0,0,0,260.293,165.139Z" fill="#e5e5e5"/>
    <circle id="Ellipse_1949" data-name="Ellipse 1949" cx="1.559" cy="1.559" r="1.559" transform="translate(267.253 162.8)" fill="#e5e5e5"/>
    <path id="Path_70819" data-name="Path 70819" d="M277.332,166.627a2.268,2.268,0,1,0-2.268-2.268A2.267,2.267,0,0,0,277.332,166.627Z" fill="#e5e5e5"/>
    <path id="Path_70820" data-name="Path 70820" d="M285.852,167.313a2.953,2.953,0,1,0-2.953-2.954A2.954,2.954,0,0,0,285.852,167.313Z" fill="#e5e5e5"/>
    <path id="Path_70821" data-name="Path 70821" d="M294.372,167.809a3.45,3.45,0,1,0-3.449-3.45A3.45,3.45,0,0,0,294.372,167.809Z" fill="#e5e5e5"/>
    <circle id="Ellipse_1950" data-name="Ellipse 1950" cx="3.567" cy="3.567" r="3.567" transform="translate(298.797 161.412) rotate(-9.251)" fill="#e5e5e5"/>
    <circle id="Ellipse_1951" data-name="Ellipse 1951" cx="3.567" cy="3.567" r="3.567" transform="translate(307.317 161.412) rotate(-9.251)" fill="#e5e5e5"/>
    <circle id="Ellipse_1952" data-name="Ellipse 1952" cx="3.567" cy="3.567" r="3.567" transform="translate(315.837 161.412) rotate(-9.251)" fill="#e5e5e5"/>
    <circle id="Ellipse_1953" data-name="Ellipse 1953" cx="3.567" cy="3.567" r="3.567" transform="translate(324.356 161.412) rotate(-9.251)" fill="#e5e5e5"/>
    <circle id="Ellipse_1954" data-name="Ellipse 1954" cx="3.567" cy="3.567" r="3.567" transform="matrix(0.987, -0.161, 0.161, 0.987, 332.876, 161.412)" fill="#e5e5e5"/>
    <path id="Path_70822" data-name="Path 70822" d="M345.49,167.832a3.473,3.473,0,1,0-3.472-3.473A3.473,3.473,0,0,0,345.49,167.832Z" fill="#e5e5e5"/>
    <circle id="Ellipse_1955" data-name="Ellipse 1955" cx="3" cy="3" r="3" transform="translate(351.01 161.359)" fill="#e5e5e5"/>
    <path id="Path_70823" data-name="Path 70823" d="M362.53,166.7a2.339,2.339,0,1,0-2.339-2.339A2.339,2.339,0,0,0,362.53,166.7Z" fill="#e5e5e5"/>
    <path id="Path_70824" data-name="Path 70824" d="M371.05,165.966a1.606,1.606,0,1,0-1.607-1.607A1.606,1.606,0,0,0,371.05,165.966Z" fill="#e5e5e5"/>
    <path id="Path_70825" data-name="Path 70825" d="M379.569,165.21a.851.851,0,1,0-.85-.851A.851.851,0,0,0,379.569,165.21Z" fill="#e5e5e5"/>
    <path id="Path_70826" data-name="Path 70826" d="M388.089,164.5a.142.142,0,1,0-.142-.142A.142.142,0,0,0,388.089,164.5Z" fill="#e5e5e5"/>
    <path id="Path_70827" data-name="Path 70827" d="M251.773,173.234a.355.355,0,1,0-.354-.355A.355.355,0,0,0,251.773,173.234Z" fill="#e5e5e5"/>
    <circle id="Ellipse_1956" data-name="Ellipse 1956" cx="1.181" cy="1.181" r="1.181" transform="translate(259.112 171.698)" fill="#e5e5e5"/>
    <circle id="Ellipse_1957" data-name="Ellipse 1957" cx="2.008" cy="2.008" r="2.008" transform="translate(266.804 170.871)" fill="#e5e5e5"/>
    <path id="Path_70828" data-name="Path 70828" d="M277.332,175.667a2.788,2.788,0,1,0-2.787-2.788A2.788,2.788,0,0,0,277.332,175.667Z" fill="#e5e5e5"/>
    <path id="Path_70829" data-name="Path 70829" d="M285.852,176.328a3.449,3.449,0,1,0-3.449-3.449A3.449,3.449,0,0,0,285.852,176.328Z" fill="#e5e5e5"/>
    <circle id="Ellipse_1958" data-name="Ellipse 1958" cx="3.567" cy="3.567" r="3.567" transform="translate(290.277 169.932) rotate(-9.252)" fill="#e5e5e5"/>
    <circle id="Ellipse_1959" data-name="Ellipse 1959" cx="3.567" cy="3.567" r="3.567" transform="translate(298.797 169.932) rotate(-9.251)" fill="#e5e5e5"/>
    <circle id="Ellipse_1960" data-name="Ellipse 1960" cx="3.567" cy="3.567" r="3.567" transform="translate(307.317 169.932) rotate(-9.251)" fill="#e5e5e5"/>
    <circle id="Ellipse_1961" data-name="Ellipse 1961" cx="3.567" cy="3.567" r="3.567" transform="translate(315.837 169.932) rotate(-9.251)" fill="#e5e5e5"/>
    <circle id="Ellipse_1962" data-name="Ellipse 1962" cx="3.567" cy="3.567" r="3.567" transform="translate(324.356 169.932) rotate(-9.251)" fill="#e5e5e5"/>
    <circle id="Ellipse_1963" data-name="Ellipse 1963" cx="3.567" cy="3.567" r="3.567" transform="translate(332.876 169.932) rotate(-9.25)" fill="#e5e5e5"/>
    <circle id="Ellipse_1964" data-name="Ellipse 1964" cx="3.567" cy="3.567" r="3.567" transform="matrix(0.987, -0.161, 0.161, 0.987, 341.396, 169.932)" fill="#e5e5e5"/>
    <path id="Path_70830" data-name="Path 70830" d="M354.01,176.352a3.473,3.473,0,1,0-3.473-3.473A3.473,3.473,0,0,0,354.01,176.352Z" fill="#e5e5e5"/>
    <path id="Path_70831" data-name="Path 70831" d="M362.53,175.738a2.859,2.859,0,1,0-2.859-2.859A2.858,2.858,0,0,0,362.53,175.738Z" fill="#e5e5e5"/>
    <path id="Path_70832" data-name="Path 70832" d="M371.05,174.958a2.079,2.079,0,1,0-2.079-2.079A2.079,2.079,0,0,0,371.05,174.958Z" fill="#e5e5e5"/>
    <circle id="Ellipse_1965" data-name="Ellipse 1965" cx="1.252" cy="1.252" r="1.252" transform="translate(378.317 171.627)" fill="#e5e5e5"/>
    <path id="Path_70833" data-name="Path 70833" d="M388.089,173.3a.425.425,0,1,0-.425-.425A.425.425,0,0,0,388.089,173.3Z" fill="#e5e5e5"/>
    <path id="Path_70834" data-name="Path 70834" d="M243.253,181.423a.024.024,0,0,0,0-.048.024.024,0,0,0,0,.048Z" fill="#e5e5e5"/>
    <path id="Path_70835" data-name="Path 70835" d="M251.773,182.037a.638.638,0,1,0-.638-.638A.638.638,0,0,0,251.773,182.037Z" fill="#e5e5e5"/>
    <path id="Path_70836" data-name="Path 70836" d="M260.293,182.887A1.488,1.488,0,1,0,258.8,181.4,1.488,1.488,0,0,0,260.293,182.887Z" fill="#e5e5e5"/>
    <path id="Path_70837" data-name="Path 70837" d="M268.813,183.761a2.363,2.363,0,1,0-2.363-2.362A2.362,2.362,0,0,0,268.813,183.761Z" fill="#e5e5e5"/>
    <circle id="Ellipse_1966" data-name="Ellipse 1966" cx="3.189" cy="3.189" r="3.189" transform="translate(274.143 178.209)" fill="#e5e5e5"/>
    <circle id="Ellipse_1967" data-name="Ellipse 1967" cx="3.567" cy="3.567" r="3.567" transform="translate(281.758 178.451) rotate(-9.252)" fill="#e5e5e5"/>
    <circle id="Ellipse_1968" data-name="Ellipse 1968" cx="3.567" cy="3.567" r="3.567" transform="translate(290.277 178.451) rotate(-9.252)" fill="#e5e5e5"/>
    <circle id="Ellipse_1969" data-name="Ellipse 1969" cx="3.567" cy="3.567" r="3.567" transform="translate(298.797 178.451) rotate(-9.251)" fill="#e5e5e5"/>
    <circle id="Ellipse_1970" data-name="Ellipse 1970" cx="3.567" cy="3.567" r="3.567" transform="translate(307.317 178.451) rotate(-9.251)" fill="#e5e5e5"/>
    <circle id="Ellipse_1971" data-name="Ellipse 1971" cx="3.567" cy="3.567" r="3.567" transform="translate(315.837 178.451) rotate(-9.251)" fill="#e5e5e5"/>
    <circle id="Ellipse_1972" data-name="Ellipse 1972" cx="3.567" cy="3.567" r="3.567" transform="translate(324.356 178.451) rotate(-9.251)" fill="#e5e5e5"/>
    <circle id="Ellipse_1973" data-name="Ellipse 1973" cx="3.567" cy="3.567" r="3.567" transform="translate(332.876 178.451) rotate(-9.25)" fill="#e5e5e5"/>
    <circle id="Ellipse_1974" data-name="Ellipse 1974" cx="3.567" cy="3.567" r="3.567" transform="translate(341.396 178.451) rotate(-9.25)" fill="#e5e5e5"/>
    <circle id="Ellipse_1975" data-name="Ellipse 1975" cx="3.567" cy="3.567" r="3.567" transform="translate(349.916 178.451) rotate(-9.25)" fill="#e5e5e5"/>
    <path id="Path_70838" data-name="Path 70838" d="M362.53,184.659a3.26,3.26,0,1,0-3.26-3.26A3.261,3.261,0,0,0,362.53,184.659Z" fill="#e5e5e5"/>
    <circle id="Ellipse_1976" data-name="Ellipse 1976" cx="2.433" cy="2.433" r="2.433" transform="translate(367.873 182.722) rotate(-67.609)" fill="#e5e5e5"/>
    <path id="Path_70839" data-name="Path 70839" d="M379.569,182.982a1.583,1.583,0,1,0-1.582-1.583A1.583,1.583,0,0,0,379.569,182.982Z" fill="#e5e5e5"/>
    <path id="Path_70840" data-name="Path 70840" d="M388.089,182.108a.709.709,0,1,0-.709-.709A.709.709,0,0,0,388.089,182.108Z" fill="#e5e5e5"/>
    <path id="Path_70841" data-name="Path 70841" d="M396.609,181.446a.047.047,0,1,0-.047-.047A.047.047,0,0,0,396.609,181.446Z" fill="#e5e5e5"/>
    <circle id="Ellipse_1977" data-name="Ellipse 1977" cx="0.071" cy="0.071" r="0.071" transform="translate(243.182 189.848)" fill="#e5e5e5"/>
    <path id="Path_70842" data-name="Path 70842" d="M251.773,190.722a.8.8,0,1,0-.8-.8A.8.8,0,0,0,251.773,190.722Z" fill="#e5e5e5"/>
    <path id="Path_70843" data-name="Path 70843" d="M260.293,191.6a1.677,1.677,0,1,0-1.677-1.677A1.677,1.677,0,0,0,260.293,191.6Z" fill="#e5e5e5"/>
    <path id="Path_70844" data-name="Path 70844" d="M268.813,192.494a2.576,2.576,0,1,0-2.576-2.575A2.575,2.575,0,0,0,268.813,192.494Z" fill="#e5e5e5"/>
    <path id="Path_70845" data-name="Path 70845" d="M277.332,193.321a3.4,3.4,0,1,0-3.4-3.4A3.4,3.4,0,0,0,277.332,193.321Z" fill="#e5e5e5"/>
    <circle id="Ellipse_1978" data-name="Ellipse 1978" cx="3.567" cy="3.567" r="3.567" transform="translate(281.758 186.971) rotate(-9.252)" fill="#e5e5e5"/>
    <circle id="Ellipse_1979" data-name="Ellipse 1979" cx="3.567" cy="3.567" r="3.567" transform="translate(290.277 186.971) rotate(-9.252)" fill="#e5e5e5"/>
    <circle id="Ellipse_1980" data-name="Ellipse 1980" cx="3.567" cy="3.567" r="3.567" transform="translate(298.797 186.971) rotate(-9.251)" fill="#e5e5e5"/>
    <circle id="Ellipse_1981" data-name="Ellipse 1981" cx="3.567" cy="3.567" r="3.567" transform="translate(307.317 186.971) rotate(-9.251)" fill="#e5e5e5"/>
    <circle id="Ellipse_1982" data-name="Ellipse 1982" cx="3.567" cy="3.567" r="3.567" transform="translate(315.837 186.971) rotate(-9.251)" fill="#e5e5e5"/>
    <circle id="Ellipse_1983" data-name="Ellipse 1983" cx="3.567" cy="3.567" r="3.567" transform="translate(324.356 186.971) rotate(-9.251)" fill="#e5e5e5"/>
    <circle id="Ellipse_1984" data-name="Ellipse 1984" cx="3.567" cy="3.567" r="3.567" transform="translate(332.876 186.971) rotate(-9.25)" fill="#e5e5e5"/>
    <circle id="Ellipse_1985" data-name="Ellipse 1985" cx="3.567" cy="3.567" r="3.567" transform="matrix(0.987, -0.161, 0.161, 0.987, 341.396, 186.971)" fill="#e5e5e5"/>
    <circle id="Ellipse_1986" data-name="Ellipse 1986" cx="3.567" cy="3.567" r="3.567" transform="translate(349.916 186.971) rotate(-9.25)" fill="#e5e5e5"/>
    <path id="Path_70846" data-name="Path 70846" d="M362.53,193.368a3.45,3.45,0,1,0-3.449-3.449A3.449,3.449,0,0,0,362.53,193.368Z" fill="#e5e5e5"/>
    <path id="Path_70847" data-name="Path 70847" d="M371.05,192.565a2.646,2.646,0,1,0-2.646-2.646A2.646,2.646,0,0,0,371.05,192.565Z" fill="#e5e5e5"/>
    <path id="Path_70848" data-name="Path 70848" d="M379.569,191.691a1.772,1.772,0,1,0-1.771-1.772A1.772,1.772,0,0,0,379.569,191.691Z" fill="#e5e5e5"/>
    <circle id="Ellipse_1987" data-name="Ellipse 1987" cx="0.874" cy="0.874" r="0.874" transform="translate(387.215 189.044)" fill="#e5e5e5"/>
    <path id="Path_70849" data-name="Path 70849" d="M396.609,190.013a.094.094,0,0,0,0-.189.094.094,0,1,0,0,.189Z" fill="#e5e5e5"/>
    <path id="Path_70850" data-name="Path 70850" d="M243.253,198.533a.095.095,0,1,0-.094-.1A.094.094,0,0,0,243.253,198.533Z" fill="#e5e5e5"/>
    <path id="Path_70851" data-name="Path 70851" d="M251.773,199.289a.851.851,0,1,0-.85-.851A.851.851,0,0,0,251.773,199.289Z" fill="#e5e5e5"/>
    <circle id="Ellipse_1988" data-name="Ellipse 1988" cx="1.748" cy="1.748" r="1.748" transform="translate(258.545 196.69)" fill="#e5e5e5"/>
    <path id="Path_70852" data-name="Path 70852" d="M268.813,201.084a2.646,2.646,0,1,0-2.646-2.646A2.646,2.646,0,0,0,268.813,201.084Z" fill="#e5e5e5"/>
    <path id="Path_70853" data-name="Path 70853" d="M277.332,201.888a3.45,3.45,0,1,0-3.449-3.45A3.45,3.45,0,0,0,277.332,201.888Z" fill="#e5e5e5"/>
    <circle id="Ellipse_1989" data-name="Ellipse 1989" cx="3.567" cy="3.567" r="3.567" transform="translate(281.758 195.491) rotate(-9.252)" fill="#e5e5e5"/>
    <circle id="Ellipse_1990" data-name="Ellipse 1990" cx="3.567" cy="3.567" r="3.567" transform="translate(290.277 195.491) rotate(-9.252)" fill="#e5e5e5"/>
    <circle id="Ellipse_1991" data-name="Ellipse 1991" cx="3.567" cy="3.567" r="3.567" transform="translate(298.797 195.491) rotate(-9.251)" fill="#e5e5e5"/>
    <circle id="Ellipse_1992" data-name="Ellipse 1992" cx="3.567" cy="3.567" r="3.567" transform="translate(307.317 195.491) rotate(-9.251)" fill="#e5e5e5"/>
    <circle id="Ellipse_1993" data-name="Ellipse 1993" cx="3.567" cy="3.567" r="3.567" transform="translate(315.837 195.491) rotate(-9.251)" fill="#e5e5e5"/>
    <circle id="Ellipse_1994" data-name="Ellipse 1994" cx="3.567" cy="3.567" r="3.567" transform="translate(324.356 195.491) rotate(-9.251)" fill="#e5e5e5"/>
    <circle id="Ellipse_1995" data-name="Ellipse 1995" cx="3.567" cy="3.567" r="3.567" transform="translate(332.876 195.491) rotate(-9.25)" fill="#e5e5e5"/>
    <circle id="Ellipse_1996" data-name="Ellipse 1996" cx="3.567" cy="3.567" r="3.567" transform="matrix(0.987, -0.161, 0.161, 0.987, 341.396, 195.491)" fill="#e5e5e5"/>
    <circle id="Ellipse_1997" data-name="Ellipse 1997" cx="3.567" cy="3.567" r="3.567" transform="translate(349.916 195.491) rotate(-9.25)" fill="#e5e5e5"/>
    <path id="Path_70854" data-name="Path 70854" d="M362.53,201.911a3.472,3.472,0,1,0-3.473-3.473A3.473,3.473,0,0,0,362.53,201.911Z" fill="#e5e5e5"/>
    <path id="Path_70855" data-name="Path 70855" d="M371.05,201.179a2.741,2.741,0,1,0-2.741-2.741A2.741,2.741,0,0,0,371.05,201.179Z" fill="#e5e5e5"/>
    <path id="Path_70856" data-name="Path 70856" d="M379.569,200.281a1.843,1.843,0,1,0-1.842-1.843A1.843,1.843,0,0,0,379.569,200.281Z" fill="#e5e5e5"/>
    <path id="Path_70857" data-name="Path 70857" d="M388.089,199.36a.922.922,0,1,0-.921-.922A.921.921,0,0,0,388.089,199.36Z" fill="#e5e5e5"/>
    <circle id="Ellipse_1998" data-name="Ellipse 1998" cx="0.118" cy="0.118" r="0.118" transform="translate(396.491 198.32)" fill="#e5e5e5"/>
    <circle id="Ellipse_1999" data-name="Ellipse 1999" cx="0.071" cy="0.071" r="0.071" transform="translate(243.182 206.887)" fill="#e5e5e5"/>
    <path id="Path_70858" data-name="Path 70858" d="M251.773,207.761a.8.8,0,1,0-.8-.8A.8.8,0,0,0,251.773,207.761Z" fill="#e5e5e5"/>
    <path id="Path_70859" data-name="Path 70859" d="M260.293,208.659a1.7,1.7,0,1,0-1.7-1.7A1.7,1.7,0,0,0,260.293,208.659Z" fill="#e5e5e5"/>
    <path id="Path_70860" data-name="Path 70860" d="M268.813,209.557a2.6,2.6,0,1,0-2.6-2.6A2.6,2.6,0,0,0,268.813,209.557Z" fill="#e5e5e5"/>
    <path id="Path_70861" data-name="Path 70861" d="M277.332,210.36a3.4,3.4,0,1,0-3.4-3.4A3.4,3.4,0,0,0,277.332,210.36Z" fill="#e5e5e5"/>
    <circle id="Ellipse_2000" data-name="Ellipse 2000" cx="3.567" cy="3.567" r="3.567" transform="translate(281.758 204.011) rotate(-9.252)" fill="#e5e5e5"/>
    <circle id="Ellipse_2001" data-name="Ellipse 2001" cx="3.567" cy="3.567" r="3.567" transform="translate(290.277 204.011) rotate(-9.252)" fill="#e5e5e5"/>
    <circle id="Ellipse_2002" data-name="Ellipse 2002" cx="3.567" cy="3.567" r="3.567" transform="translate(298.797 204.011) rotate(-9.251)" fill="#e5e5e5"/>
    <circle id="Ellipse_2003" data-name="Ellipse 2003" cx="3.567" cy="3.567" r="3.567" transform="translate(307.317 204.011) rotate(-9.251)" fill="#e5e5e5"/>
    <circle id="Ellipse_2004" data-name="Ellipse 2004" cx="3.567" cy="3.567" r="3.567" transform="translate(315.837 204.011) rotate(-9.251)" fill="#e5e5e5"/>
    <circle id="Ellipse_2005" data-name="Ellipse 2005" cx="3.567" cy="3.567" r="3.567" transform="translate(324.356 204.011) rotate(-9.251)" fill="#e5e5e5"/>
    <circle id="Ellipse_2006" data-name="Ellipse 2006" cx="3.567" cy="3.567" r="3.567" transform="translate(332.876 204.011) rotate(-9.25)" fill="#e5e5e5"/>
    <circle id="Ellipse_2007" data-name="Ellipse 2007" cx="3.567" cy="3.567" r="3.567" transform="matrix(0.987, -0.161, 0.161, 0.987, 341.396, 204.011)" fill="#e5e5e5"/>
    <circle id="Ellipse_2008" data-name="Ellipse 2008" cx="3.567" cy="3.567" r="3.567" transform="translate(349.916 204.011) rotate(-9.25)" fill="#e5e5e5"/>
    <path id="Path_70862" data-name="Path 70862" d="M362.53,210.407a3.449,3.449,0,1,0-3.449-3.449A3.449,3.449,0,0,0,362.53,210.407Z" fill="#e5e5e5"/>
    <path id="Path_70863" data-name="Path 70863" d="M371.05,209.628a2.67,2.67,0,1,0-2.67-2.67A2.669,2.669,0,0,0,371.05,209.628Z" fill="#e5e5e5"/>
    <path id="Path_70864" data-name="Path 70864" d="M379.569,208.73a1.772,1.772,0,1,0-1.771-1.772A1.772,1.772,0,0,0,379.569,208.73Z" fill="#e5e5e5"/>
    <circle id="Ellipse_2009" data-name="Ellipse 2009" cx="0.874" cy="0.874" r="0.874" transform="translate(387.215 206.084)" fill="#e5e5e5"/>
    <path id="Path_70865" data-name="Path 70865" d="M396.609,207.053a.094.094,0,1,0-.1-.1A.095.095,0,0,0,396.609,207.053Z" fill="#e5e5e5"/>
    <path id="Path_70866" data-name="Path 70866" d="M243.253,215.5a.024.024,0,0,0,0-.048.024.024,0,0,0,0,.048Z" fill="#e5e5e5"/>
    <path id="Path_70867" data-name="Path 70867" d="M251.773,216.116a.638.638,0,1,0-.638-.638A.638.638,0,0,0,251.773,216.116Z" fill="#e5e5e5"/>
    <path id="Path_70868" data-name="Path 70868" d="M260.293,216.99a1.512,1.512,0,1,0-1.512-1.512A1.512,1.512,0,0,0,260.293,216.99Z" fill="#e5e5e5"/>
    <path id="Path_70869" data-name="Path 70869" d="M268.813,217.864a2.386,2.386,0,1,0-2.387-2.386A2.386,2.386,0,0,0,268.813,217.864Z" fill="#e5e5e5"/>
    <path id="Path_70870" data-name="Path 70870" d="M277.332,218.691a3.213,3.213,0,1,0-3.213-3.213A3.213,3.213,0,0,0,277.332,218.691Z" fill="#e5e5e5"/>
    <circle id="Ellipse_2010" data-name="Ellipse 2010" cx="3.567" cy="3.567" r="3.567" transform="translate(281.758 212.53) rotate(-9.252)" fill="#e5e5e5"/>
    <circle id="Ellipse_2011" data-name="Ellipse 2011" cx="3.567" cy="3.567" r="3.567" transform="translate(290.277 212.53) rotate(-9.252)" fill="#e5e5e5"/>
    <circle id="Ellipse_2012" data-name="Ellipse 2012" cx="3.567" cy="3.567" r="3.567" transform="translate(298.797 212.53) rotate(-9.251)" fill="#e5e5e5"/>
    <circle id="Ellipse_2013" data-name="Ellipse 2013" cx="3.567" cy="3.567" r="3.567" transform="translate(307.317 212.53) rotate(-9.251)" fill="#e5e5e5"/>
    <circle id="Ellipse_2014" data-name="Ellipse 2014" cx="3.567" cy="3.567" r="3.567" transform="translate(315.837 212.53) rotate(-9.251)" fill="#e5e5e5"/>
    <circle id="Ellipse_2015" data-name="Ellipse 2015" cx="3.567" cy="3.567" r="3.567" transform="translate(324.356 212.53) rotate(-9.251)" fill="#e5e5e5"/>
    <circle id="Ellipse_2016" data-name="Ellipse 2016" cx="3.567" cy="3.567" r="3.567" transform="translate(332.876 212.53) rotate(-9.25)" fill="#e5e5e5"/>
    <circle id="Ellipse_2017" data-name="Ellipse 2017" cx="3.567" cy="3.567" r="3.567" transform="matrix(0.987, -0.161, 0.161, 0.987, 341.396, 212.53)" fill="#e5e5e5"/>
    <circle id="Ellipse_2018" data-name="Ellipse 2018" cx="3.567" cy="3.567" r="3.567" transform="translate(349.916 212.53) rotate(-9.25)" fill="#e5e5e5"/>
    <path id="Path_70871" data-name="Path 70871" d="M362.53,218.762a3.284,3.284,0,1,0-3.284-3.284A3.284,3.284,0,0,0,362.53,218.762Z" fill="#e5e5e5"/>
    <path id="Path_70872" data-name="Path 70872" d="M371.05,217.935a2.457,2.457,0,1,0-2.457-2.457A2.457,2.457,0,0,0,371.05,217.935Z" fill="#e5e5e5"/>
    <path id="Path_70873" data-name="Path 70873" d="M379.569,217.061a1.583,1.583,0,1,0-1.582-1.583A1.583,1.583,0,0,0,379.569,217.061Z" fill="#e5e5e5"/>
    <path id="Path_70874" data-name="Path 70874" d="M388.089,216.187a.709.709,0,1,0-.709-.709A.709.709,0,0,0,388.089,216.187Z" fill="#e5e5e5"/>
    <path id="Path_70875" data-name="Path 70875" d="M396.609,215.525a.047.047,0,1,0-.047-.047A.047.047,0,0,0,396.609,215.525Z" fill="#e5e5e5"/>
    <circle id="Ellipse_2019" data-name="Ellipse 2019" cx="0.378" cy="0.378" r="0.378" transform="translate(251.395 223.62)" fill="#e5e5e5"/>
    <path id="Path_70876" data-name="Path 70876" d="M260.293,225.226A1.229,1.229,0,1,0,259.064,224,1.228,1.228,0,0,0,260.293,225.226Z" fill="#e5e5e5"/>
    <path id="Path_70877" data-name="Path 70877" d="M268.813,226.029A2.032,2.032,0,1,0,266.781,224,2.031,2.031,0,0,0,268.813,226.029Z" fill="#e5e5e5"/>
    <path id="Path_70878" data-name="Path 70878" d="M277.332,226.833A2.835,2.835,0,1,0,274.5,224,2.835,2.835,0,0,0,277.332,226.833Z" fill="#e5e5e5"/>
    <path id="Path_70879" data-name="Path 70879" d="M285.852,227.471A3.473,3.473,0,1,0,282.379,224,3.473,3.473,0,0,0,285.852,227.471Z" fill="#e5e5e5"/>
    <circle id="Ellipse_2020" data-name="Ellipse 2020" cx="3.567" cy="3.567" r="3.567" transform="translate(290.277 221.05) rotate(-9.252)" fill="#e5e5e5"/>
    <circle id="Ellipse_2021" data-name="Ellipse 2021" cx="3.567" cy="3.567" r="3.567" transform="translate(298.797 221.05) rotate(-9.251)" fill="#e5e5e5"/>
    <circle id="Ellipse_2022" data-name="Ellipse 2022" cx="3.567" cy="3.567" r="3.567" transform="translate(307.317 221.05) rotate(-9.251)" fill="#e5e5e5"/>
    <circle id="Ellipse_2023" data-name="Ellipse 2023" cx="3.567" cy="3.567" r="3.567" transform="translate(315.837 221.05) rotate(-9.251)" fill="#e5e5e5"/>
    <circle id="Ellipse_2024" data-name="Ellipse 2024" cx="3.567" cy="3.567" r="3.567" transform="translate(324.356 221.05) rotate(-9.251)" fill="#e5e5e5"/>
    <circle id="Ellipse_2025" data-name="Ellipse 2025" cx="3.567" cy="3.567" r="3.567" transform="translate(332.876 221.05) rotate(-9.25)" fill="#e5e5e5"/>
    <circle id="Ellipse_2026" data-name="Ellipse 2026" cx="3.567" cy="3.567" r="3.567" transform="matrix(0.987, -0.161, 0.161, 0.987, 341.396, 221.05)" fill="#e5e5e5"/>
    <circle id="Ellipse_2027" data-name="Ellipse 2027" cx="3.497" cy="3.497" r="3.497" transform="translate(350.514 220.501)" fill="#e5e5e5"/>
    <circle id="Ellipse_2028" data-name="Ellipse 2028" cx="2.882" cy="2.882" r="2.882" transform="translate(359.648 221.115)" fill="#e5e5e5"/>
    <path id="Path_70880" data-name="Path 70880" d="M371.05,226.1a2.1,2.1,0,1,0-2.1-2.1A2.1,2.1,0,0,0,371.05,226.1Z" fill="#e5e5e5"/>
    <path id="Path_70881" data-name="Path 70881" d="M379.569,225.273A1.275,1.275,0,1,0,378.294,224,1.275,1.275,0,0,0,379.569,225.273Z" fill="#e5e5e5"/>
    <path id="Path_70882" data-name="Path 70882" d="M388.089,224.447a.449.449,0,1,0-.449-.449A.449.449,0,0,0,388.089,224.447Z" fill="#e5e5e5"/>
    <circle id="Ellipse_2029" data-name="Ellipse 2029" cx="0.118" cy="0.118" r="0.118" transform="translate(251.655 232.399)" fill="#e5e5e5"/>
    <path id="Path_70883" data-name="Path 70883" d="M260.293,233.344a.827.827,0,1,0-.827-.827A.827.827,0,0,0,260.293,233.344Z" fill="#e5e5e5"/>
    <path id="Path_70884" data-name="Path 70884" d="M268.813,234.1a1.583,1.583,0,1,0-1.583-1.583A1.583,1.583,0,0,0,268.813,234.1Z" fill="#e5e5e5"/>
    <circle id="Ellipse_2030" data-name="Ellipse 2030" cx="2.315" cy="2.315" r="2.315" transform="translate(275.017 230.202)" fill="#e5e5e5"/>
    <circle id="Ellipse_2031" data-name="Ellipse 2031" cx="3" cy="3" r="3" transform="translate(282.852 229.517)" fill="#e5e5e5"/>
    <path id="Path_70885" data-name="Path 70885" d="M294.372,235.99a3.473,3.473,0,1,0-3.473-3.473A3.473,3.473,0,0,0,294.372,235.99Z" fill="#e5e5e5"/>
    <circle id="Ellipse_2032" data-name="Ellipse 2032" cx="3.567" cy="3.567" r="3.567" transform="translate(298.797 229.57) rotate(-9.251)" fill="#e5e5e5"/>
    <circle id="Ellipse_2033" data-name="Ellipse 2033" cx="3.567" cy="3.567" r="3.567" transform="translate(307.317 229.57) rotate(-9.251)" fill="#e5e5e5"/>
    <circle id="Ellipse_2034" data-name="Ellipse 2034" cx="3.567" cy="3.567" r="3.567" transform="translate(315.837 229.57) rotate(-9.251)" fill="#e5e5e5"/>
    <circle id="Ellipse_2035" data-name="Ellipse 2035" cx="3.567" cy="3.567" r="3.567" transform="translate(324.356 229.57) rotate(-9.251)" fill="#e5e5e5"/>
    <circle id="Ellipse_2036" data-name="Ellipse 2036" cx="3.567" cy="3.567" r="3.567" transform="translate(332.876 229.57) rotate(-9.25)" fill="#e5e5e5"/>
    <circle id="Ellipse_2037" data-name="Ellipse 2037" cx="3.497" cy="3.497" r="3.497" transform="translate(341.994 229.021)" fill="#e5e5e5"/>
    <path id="Path_70886" data-name="Path 70886" d="M354.01,235.565a3.048,3.048,0,1,0-3.047-3.048A3.048,3.048,0,0,0,354.01,235.565Z" fill="#e5e5e5"/>
    <path id="Path_70887" data-name="Path 70887" d="M362.53,234.9a2.387,2.387,0,1,0-2.386-2.387A2.387,2.387,0,0,0,362.53,234.9Z" fill="#e5e5e5"/>
    <path id="Path_70888" data-name="Path 70888" d="M371.05,234.171a1.654,1.654,0,1,0-1.654-1.654A1.653,1.653,0,0,0,371.05,234.171Z" fill="#e5e5e5"/>
    <path id="Path_70889" data-name="Path 70889" d="M379.569,233.415a.9.9,0,1,0-.9-.9A.9.9,0,0,0,379.569,233.415Z" fill="#e5e5e5"/>
    <path id="Path_70890" data-name="Path 70890" d="M388.089,232.683a.165.165,0,1,0-.165-.166A.166.166,0,0,0,388.089,232.683Z" fill="#e5e5e5"/>
    <path id="Path_70891" data-name="Path 70891" d="M260.293,241.392a.355.355,0,1,0-.354-.355A.354.354,0,0,0,260.293,241.392Z" fill="#e5e5e5"/>
    <path id="Path_70892" data-name="Path 70892" d="M268.813,242.1a1.063,1.063,0,1,0-1.064-1.063A1.063,1.063,0,0,0,268.813,242.1Z" fill="#e5e5e5"/>
    <path id="Path_70893" data-name="Path 70893" d="M277.332,242.762a1.724,1.724,0,1,0-1.724-1.725A1.725,1.725,0,0,0,277.332,242.762Z" fill="#e5e5e5"/>
    <path id="Path_70894" data-name="Path 70894" d="M285.852,243.376a2.339,2.339,0,1,0-2.339-2.339A2.339,2.339,0,0,0,285.852,243.376Z" fill="#e5e5e5"/>
    <path id="Path_70895" data-name="Path 70895" d="M294.372,243.9a2.858,2.858,0,1,0-2.859-2.859A2.858,2.858,0,0,0,294.372,243.9Z" fill="#e5e5e5"/>
    <path id="Path_70896" data-name="Path 70896" d="M302.892,244.3a3.26,3.26,0,1,0-3.261-3.26A3.26,3.26,0,0,0,302.892,244.3Z" fill="#e5e5e5"/>
    <path id="Path_70897" data-name="Path 70897" d="M311.411,244.486a3.449,3.449,0,1,0-3.449-3.449A3.45,3.45,0,0,0,311.411,244.486Z" fill="#e5e5e5"/>
    <path id="Path_70898" data-name="Path 70898" d="M319.931,244.51a3.473,3.473,0,1,0-3.473-3.473A3.473,3.473,0,0,0,319.931,244.51Z" fill="#e5e5e5"/>
    <path id="Path_70899" data-name="Path 70899" d="M328.451,244.486A3.449,3.449,0,1,0,325,241.037,3.449,3.449,0,0,0,328.451,244.486Z" fill="#e5e5e5"/>
    <path id="Path_70900" data-name="Path 70900" d="M336.971,244.321a3.284,3.284,0,1,0-3.284-3.284A3.284,3.284,0,0,0,336.971,244.321Z" fill="#e5e5e5"/>
    <circle id="Ellipse_2038" data-name="Ellipse 2038" cx="2.882" cy="2.882" r="2.882" transform="translate(342.608 238.155)" fill="#e5e5e5"/>
    <path id="Path_70901" data-name="Path 70901" d="M354.01,243.423a2.386,2.386,0,1,0-2.386-2.386A2.386,2.386,0,0,0,354.01,243.423Z" fill="#e5e5e5"/>
    <path id="Path_70902" data-name="Path 70902" d="M362.53,242.833a1.8,1.8,0,1,0-1.8-1.8A1.8,1.8,0,0,0,362.53,242.833Z" fill="#e5e5e5"/>
    <path id="Path_70903" data-name="Path 70903" d="M371.05,242.147a1.11,1.11,0,1,0-1.111-1.11A1.11,1.11,0,0,0,371.05,242.147Z" fill="#e5e5e5"/>
    <path id="Path_70904" data-name="Path 70904" d="M379.569,241.439a.4.4,0,1,0-.4-.4A.4.4,0,0,0,379.569,241.439Z" fill="#e5e5e5"/>
    <path id="Path_70905" data-name="Path 70905" d="M260.293,249.581a.024.024,0,1,0-.024-.024A.024.024,0,0,0,260.293,249.581Z" fill="#e5e5e5"/>
    <path id="Path_70906" data-name="Path 70906" d="M268.813,250.006a.449.449,0,1,0-.449-.449A.449.449,0,0,0,268.813,250.006Z" fill="#e5e5e5"/>
    <path id="Path_70907" data-name="Path 70907" d="M277.332,250.62a1.063,1.063,0,1,0-1.063-1.063A1.063,1.063,0,0,0,277.332,250.62Z" fill="#e5e5e5"/>
    <path id="Path_70908" data-name="Path 70908" d="M285.852,251.163a1.606,1.606,0,1,0-1.606-1.606A1.607,1.607,0,0,0,285.852,251.163Z" fill="#e5e5e5"/>
    <path id="Path_70909" data-name="Path 70909" d="M294.372,251.636a2.079,2.079,0,1,0-2.079-2.079A2.079,2.079,0,0,0,294.372,251.636Z" fill="#e5e5e5"/>
    <circle id="Ellipse_2039" data-name="Ellipse 2039" cx="2.433" cy="2.433" r="2.433" transform="translate(299.715 250.88) rotate(-67.615)" fill="#e5e5e5"/>
    <path id="Path_70910" data-name="Path 70910" d="M311.411,252.2a2.646,2.646,0,1,0-2.646-2.646A2.646,2.646,0,0,0,311.411,252.2Z" fill="#e5e5e5"/>
    <path id="Path_70911" data-name="Path 70911" d="M319.931,252.3a2.741,2.741,0,1,0-2.74-2.74A2.741,2.741,0,0,0,319.931,252.3Z" fill="#e5e5e5"/>
    <path id="Path_70912" data-name="Path 70912" d="M328.451,252.227a2.67,2.67,0,1,0-2.67-2.67A2.67,2.67,0,0,0,328.451,252.227Z" fill="#e5e5e5"/>
    <path id="Path_70913" data-name="Path 70913" d="M336.971,252.014a2.457,2.457,0,1,0-2.457-2.457A2.457,2.457,0,0,0,336.971,252.014Z" fill="#e5e5e5"/>
    <path id="Path_70914" data-name="Path 70914" d="M345.49,251.66a2.1,2.1,0,1,0-2.1-2.1A2.1,2.1,0,0,0,345.49,251.66Z" fill="#e5e5e5"/>
    <path id="Path_70915" data-name="Path 70915" d="M354.01,251.211a1.654,1.654,0,1,0-1.654-1.654A1.654,1.654,0,0,0,354.01,251.211Z" fill="#e5e5e5"/>
    <path id="Path_70916" data-name="Path 70916" d="M362.53,250.667a1.11,1.11,0,1,0-1.11-1.11A1.11,1.11,0,0,0,362.53,250.667Z" fill="#e5e5e5"/>
    <path id="Path_70917" data-name="Path 70917" d="M371.05,250.077a.52.52,0,1,0-.52-.52A.519.519,0,0,0,371.05,250.077Z" fill="#e5e5e5"/>
    <path id="Path_70918" data-name="Path 70918" d="M379.569,249.6a.047.047,0,1,0,0-.094.047.047,0,0,0,0,.094Z" fill="#e5e5e5"/>
    <path id="Path_70919" data-name="Path 70919" d="M268.813,258.124a.047.047,0,0,0,.047-.047.048.048,0,0,0-.047-.048.049.049,0,0,0-.048.048A.048.048,0,0,0,268.813,258.124Z" fill="#e5e5e5"/>
    <circle id="Ellipse_2040" data-name="Ellipse 2040" cx="0.378" cy="0.378" r="0.378" transform="translate(276.954 257.699)" fill="#e5e5e5"/>
    <path id="Path_70920" data-name="Path 70920" d="M285.852,258.927a.85.85,0,1,0-.85-.85A.851.851,0,0,0,285.852,258.927Z" fill="#e5e5e5"/>
    <circle id="Ellipse_2041" data-name="Ellipse 2041" cx="1.252" cy="1.252" r="1.252" transform="translate(293.12 256.824)" fill="#e5e5e5"/>
    <path id="Path_70921" data-name="Path 70921" d="M302.892,259.66a1.583,1.583,0,1,0-1.583-1.583A1.583,1.583,0,0,0,302.892,259.66Z" fill="#e5e5e5"/>
    <path id="Path_70922" data-name="Path 70922" d="M311.411,259.849a1.772,1.772,0,1,0-1.771-1.772A1.772,1.772,0,0,0,311.411,259.849Z" fill="#e5e5e5"/>
    <path id="Path_70923" data-name="Path 70923" d="M319.931,259.919a1.842,1.842,0,1,0-1.843-1.842A1.843,1.843,0,0,0,319.931,259.919Z" fill="#e5e5e5"/>
    <path id="Path_70924" data-name="Path 70924" d="M328.451,259.849a1.772,1.772,0,1,0-1.772-1.772A1.773,1.773,0,0,0,328.451,259.849Z" fill="#e5e5e5"/>
    <path id="Path_70925" data-name="Path 70925" d="M336.971,259.66a1.583,1.583,0,1,0-1.583-1.583A1.583,1.583,0,0,0,336.971,259.66Z" fill="#e5e5e5"/>
    <path id="Path_70926" data-name="Path 70926" d="M345.49,259.352a1.275,1.275,0,1,0-1.275-1.275A1.275,1.275,0,0,0,345.49,259.352Z" fill="#e5e5e5"/>
    <path id="Path_70927" data-name="Path 70927" d="M354.01,258.974a.9.9,0,1,0-.9-.9A.9.9,0,0,0,354.01,258.974Z" fill="#e5e5e5"/>
    <path id="Path_70928" data-name="Path 70928" d="M362.53,258.478a.4.4,0,1,0-.4-.4A.4.4,0,0,0,362.53,258.478Z" fill="#e5e5e5"/>
    <path id="Path_70929" data-name="Path 70929" d="M371.05,258.124a.047.047,0,0,0,.047-.047.048.048,0,0,0-.047-.048.049.049,0,0,0-.048.048A.048.048,0,0,0,371.05,258.124Z" fill="#e5e5e5"/>
    <path id="Path_70930" data-name="Path 70930" d="M285.852,266.738a.142.142,0,1,0-.142-.142A.142.142,0,0,0,285.852,266.738Z" fill="#e5e5e5"/>
    <path id="Path_70931" data-name="Path 70931" d="M294.372,267.022a.426.426,0,1,0-.425-.426A.426.426,0,0,0,294.372,267.022Z" fill="#e5e5e5"/>
    <path id="Path_70932" data-name="Path 70932" d="M302.892,267.3a.708.708,0,1,0-.709-.709A.708.708,0,0,0,302.892,267.3Z" fill="#e5e5e5"/>
    <circle id="Ellipse_2042" data-name="Ellipse 2042" cx="0.874" cy="0.874" r="0.874" transform="translate(310.537 265.722)" fill="#e5e5e5"/>
    <path id="Path_70933" data-name="Path 70933" d="M319.931,267.518a.922.922,0,1,0-.921-.922A.921.921,0,0,0,319.931,267.518Z" fill="#e5e5e5"/>
    <circle id="Ellipse_2043" data-name="Ellipse 2043" cx="0.874" cy="0.874" r="0.874" transform="translate(327.577 265.722)" fill="#e5e5e5"/>
    <path id="Path_70934" data-name="Path 70934" d="M336.971,267.3a.708.708,0,1,0-.709-.709A.708.708,0,0,0,336.971,267.3Z" fill="#e5e5e5"/>
    <path id="Path_70935" data-name="Path 70935" d="M345.49,267.045a.449.449,0,1,0-.449-.449A.449.449,0,0,0,345.49,267.045Z" fill="#e5e5e5"/>
    <path id="Path_70936" data-name="Path 70936" d="M354.01,266.762a.165.165,0,1,0-.165-.166A.166.166,0,0,0,354.01,266.762Z" fill="#e5e5e5"/>
    <path id="Path_70937" data-name="Path 70937" d="M302.892,275.163a.047.047,0,0,0,0-.094.047.047,0,1,0,0,.094Z" fill="#e5e5e5"/>
    <path id="Path_70938" data-name="Path 70938" d="M311.411,275.211a.094.094,0,1,0,0-.189.094.094,0,0,0,0,.189Z" fill="#e5e5e5"/>
    <circle id="Ellipse_2044" data-name="Ellipse 2044" cx="0.118" cy="0.118" r="0.118" transform="translate(319.813 274.998)" fill="#e5e5e5"/>
    <path id="Path_70939" data-name="Path 70939" d="M328.451,275.211a.094.094,0,1,0-.1-.1A.095.095,0,0,0,328.451,275.211Z" fill="#e5e5e5"/>
    <path id="Path_70940" data-name="Path 70940" d="M336.971,275.163a.047.047,0,1,0,0-.094.047.047,0,1,0,0,.094Z" fill="#e5e5e5"/>
  </g>
  <path id="Path_70941" data-name="Path 70941" d="M389.106,189.08a74.608,74.608,0,0,0-3.554-7.148c-7.837-13.96-22.039-23.36-36.972-29.13s-30.855-8.394-46.427-12.107c-6.623-1.579-13.29-3.372-20.1-3.321-14.246.106-27.623,8.589-35.827,20.237s-11.7,26.091-12.277,40.326c-.518,12.774,1.376,26.136,8.546,36.721,3.836,5.662,9,10.273,14.107,14.821l23.878,21.261c4.3,3.825,8.653,7.693,13.783,10.291,16.839,8.529,42.425,1.642,55.7-10.185,3.184-2.835,6.537-5.439,9.962-7.973,6.576-4.867,13.331-9.67,18.587-16.015a60.228,60.228,0,0,0,10.28-18.176C394.172,213.644,394.765,202.306,389.106,189.08Z" transform="translate(-233.871 -121.666)" fill="#f9f9f9"/>
  <circle id="Ellipse_341" data-name="Ellipse 341" cx="3.736" cy="3.736" r="3.736" transform="translate(134.275 105.072)" fill="none" stroke="#bdbdbd" stroke-linecap="round" stroke-width="2.497"/>
  <circle id="Ellipse_341-2" data-name="Ellipse 341-2" cx="8.736" cy="8.736" r="8.736" transform="translate(26.159 8.705)" fill="none" stroke="#bdbdbd" stroke-linecap="round" stroke-width="2.497"/>
  <g id="Group_15487" data-name="Group 15487" transform="translate(-233.871 -121.666)">
    <path id="Path_70942" data-name="Path 70942" d="M327.434,173.88v-.828a12.154,12.154,0,0,1,9.386-11.828H264.84a12.407,12.407,0,0,0,0,24.813h74.634c.02,0,.039,0,.058,0A12.154,12.154,0,0,1,327.434,173.88Z" fill="#fff"/>
    <path id="Path_70943" data-name="Path 70943" d="M339.612,186.037H265.005a12.571,12.571,0,0,1-12.571-12.571h0A12.571,12.571,0,0,1,265.005,160.9h74.3a12.571,12.571,0,0,1,12.571,12.571" fill="none" stroke="#1a1e23" stroke-linecap="round" stroke-linejoin="round" stroke-width="1.5"/>
    <g id="Group_15486" data-name="Group 15486">
      <path id="Path_70944" data-name="Path 70944" d="M309.1,265.294l-11.7,2.441,2.442-11.7,58.473-58.474a6.189,6.189,0,0,1,8.753,0l.506.506a6.189,6.189,0,0,1,0,8.753Z" fill="#ffc101" stroke="#1d1d1d" stroke-linecap="round" stroke-width="1.5"/>
      <rect id="Rectangle_6167" data-name="Rectangle 6167" width="18.599" height="8.898" transform="translate(352.326 199.656) rotate(45)" fill="#b4ffe8" stroke="#1d1d1d" stroke-linecap="round" stroke-width="1.5"/>
      <line id="Line_1523" data-name="Line 1523" x2="9.259" y2="9.259" transform="translate(309.487 246.387)" fill="#ffc101" stroke="#1d1d1d" stroke-linecap="round" stroke-width="1.5"/>
      <line id="Line_1524" data-name="Line 1524" x2="9.259" y2="9.259" transform="translate(303.83 252.044)" fill="#ffc101" stroke="#1d1d1d" stroke-linecap="round" stroke-width="1.5"/>
    </g>
    <line id="Line_1525" data-name="Line 1525" x2="98.588" transform="translate(261.534 267.736)" fill="none" stroke="#1a1e23" stroke-linecap="round" stroke-linejoin="round" stroke-width="1.5"/>
    <line id="Line_1526" data-name="Line 1526" y2="81.698" transform="translate(270.521 186.037)" fill="none" stroke="#1a1e23" stroke-linecap="round" stroke-linejoin="round" stroke-width="1.5"/>
    <line id="Line_1527" data-name="Line 1527" y2="33.961" transform="translate(351.88 233.775)" fill="none" stroke="#1a1e23" stroke-linecap="round" stroke-linejoin="round" stroke-width="1.5"/>
    <line id="Line_1528" data-name="Line 1528" y1="17.232" transform="translate(351.88 173.88)" fill="none" stroke="#1a1e23" stroke-linecap="round" stroke-linejoin="round" stroke-width="1.5"/>
    <line id="Line_1529" data-name="Line 1529" x2="41.497" transform="translate(283.208 217.465)" fill="none" stroke="#1a1e23" stroke-linecap="round" stroke-linejoin="round" stroke-width="1.5"/>
    <line id="Line_1530" data-name="Line 1530" x2="29.339" transform="translate(283.208 227.606)" fill="none" stroke="#1a1e23" stroke-linecap="round" stroke-linejoin="round" stroke-width="1.5"/>
    <line id="Line_1531" data-name="Line 1531" x2="18.949" transform="translate(283.208 237.746)" fill="none" stroke="#1a1e23" stroke-linecap="round" stroke-linejoin="round" stroke-width="1.5"/>
    <line id="Line_1532" data-name="Line 1532" x2="47.576" transform="translate(283.208 207.325)" fill="none" stroke="#1a1e23" stroke-linecap="round" stroke-linejoin="round" stroke-width="1.5"/>
    <path id="Path_70945" data-name="Path 70945" d="M339.723,186.037h-.132a12.157,12.157,0,0,1-12.157-12.157v-.828A12.157,12.157,0,0,1,339.591,160.9h.132a12.157,12.157,0,0,1,12.157,12.157v.828" fill="none" stroke="#1a1e23" stroke-linecap="round" stroke-linejoin="round" stroke-width="1.5"/>
    <g id="Group_3279" data-name="Group 3279">
      <line id="Line_752" data-name="Line 752" x1="3.229" y2="2.817" transform="translate(371.882 190.324)" fill="none" stroke="#1a1e23" stroke-linecap="round" stroke-linejoin="round" stroke-width="1"/>
      <line id="Line_753" data-name="Line 753" x1="0.274" y2="4.013" transform="translate(367.549 186.892)" fill="none" stroke="#1a1e23" stroke-linecap="round" stroke-linejoin="round" stroke-width="1"/>
      <line id="Line_754" data-name="Line 754" x1="4.013" y1="0.274" transform="translate(373.66 197.618)" fill="none" stroke="#1a1e23" stroke-linecap="round" stroke-linejoin="round" stroke-width="1"/>
    </g>
  </g>
  <g id="Group_15488" data-name="Group 15488" transform="translate(-233.871 -121.666)">
    <g id="icon_heart" data-name="icon heart">
      <g id="Group_3608" data-name="Group 3608">
        <path id="Path_23441" data-name="Path 23441" d="M278.343,233.044c-.924,0-2.634,0-12.081-8.8-4.483-4.169-8.626-8.393-8.669-8.457a13.73,13.73,0,0,1-.222-19.416c.073-.075.148-.148.222-.221a14.328,14.328,0,0,1,20.007,0l.748.73.768-.7a14.328,14.328,0,0,1,20.012,0,13.73,13.73,0,0,1,.241,19.416c-.08.082-.16.161-.241.24,0,0-4.167,4.228-8.65,8.415C280.977,233.044,279.261,233.044,278.343,233.044Z" fill="#ffb1b1" stroke="#1a1e23" stroke-linecap="round" stroke-linejoin="round" stroke-width="1.5"/>
      </g>
    </g>
    <g id="Group_15397" data-name="Group 15397">
      <path id="Path_70601" data-name="Path 70601" d="M281.536,208.365v-.133a3.112,3.112,0,0,0-3.112-3.112h0a2.7,2.7,0,0,0-2.7,2.7v.025h0c-.084,4.353-.461,7.279-1.361,9.136h7.171" fill="none" stroke="#1a1e23" stroke-linecap="round" stroke-linejoin="round" stroke-width="1.5"/>
      <line id="Line_1513" data-name="Line 1513" x2="5.208" transform="translate(273.73 211.359)" fill="none" stroke="#1a1e23" stroke-linecap="round" stroke-linejoin="round" stroke-width="1.5"/>
    </g>
  </g>
</svg>
