<svg xmlns="http://www.w3.org/2000/svg" width="25.23" height="19.893" viewBox="0 0 25.23 19.893">
  <g id="icon_cloud-upload" transform="translate(0.75 0.75)">
    <g id="Group_1910" data-name="Group 1910" transform="translate(7.359 7.928)">
      <g id="arrow_right" data-name="arrow right" transform="translate(0 0.001)">
        <path id="Path_5619" data-name="Path 5619" d="M772.129,408.738l3.7-3.519,3.7,3.519" transform="translate(-772.129 -405.219)" fill="none" stroke="#00ade9" stroke-linecap="round" stroke-linejoin="round" stroke-width="1.5"/>
      </g>
      <line id="Line_52" data-name="Line 52" y2="10.465" transform="translate(3.7)" fill="none" stroke="#00ade9" stroke-linecap="round" stroke-linejoin="round" stroke-width="1.5"/>
    </g>
    <path id="Path_6838" data-name="Path 6838" d="M781,416.8h4.689a4.277,4.277,0,0,0,0-8.538h-.445a7.653,7.653,0,0,0-7.41-7.715,7.479,7.479,0,0,0-7.046,5.436,5.274,5.274,0,0,0-4.819,5.4h0a5.258,5.258,0,0,0,5.086,5.415h2.181" transform="translate(-765.967 -400.55)" fill="none" stroke="#00ade9" stroke-linecap="round" stroke-linejoin="round" stroke-width="1.5"/>
  </g>
</svg>
