<svg xmlns="http://www.w3.org/2000/svg" width="52.63" height="43.02" viewBox="0 0 52.63 43.02">
  <g id="illustration_cookie" transform="translate(2 2)">
    <g id="Group_17410" data-name="Group 17410" transform="translate(-0.088 -0.088)">
      <g id="Path_78591" data-name="Path 78591" transform="translate(-0.392 -0.393)" fill="#f7c243" stroke-linecap="round">
        <path d="M 19.98981094360352 40.50063323974609 C 17.22143173217773 40.50063323974609 14.5353307723999 39.95822525024414 12.00614070892334 38.88846588134766 C 9.563720703125 37.85541534423828 7.370420932769775 36.37672424316406 5.487160682678223 34.49346542358398 C 3.603900909423828 32.61020278930664 2.125210762023926 30.41690444946289 1.092160820960999 27.97449493408203 C 0.02241085842251778 25.44529342651367 -0.5199991464614868 22.75919342041016 -0.5199991464614868 19.99081420898438 C -0.5199991464614868 17.22247505187988 0.02241085842251778 14.53640460968018 1.092160820960999 12.00721454620361 C 2.125210762023926 9.564804077148438 3.603900909423828 7.371504306793213 5.487160682678223 5.488234043121338 C 7.370420932769775 3.604964256286621 9.563720703125 2.126254320144653 12.00613117218018 1.093194246292114 C 14.53534126281738 0.02342420816421509 17.22143173217773 -0.5189957618713379 19.98981094360352 -0.5189957618713379 C 21.84348106384277 -0.5189957618713379 23.68400001525879 -0.2702857851982117 25.46023178100586 0.2202242016792297 L 26.5152702331543 0.5115742087364197 L 26.13006019592285 1.536084175109863 C 25.88871002197266 2.178004264831543 25.76633071899414 2.852804183959961 25.76633071899414 3.541754245758057 C 25.76633071899414 6.577704429626465 28.13893127441406 9.078743934631348 31.16777992248535 9.235604286193848 L 32.94625091552734 9.327704429626465 L 31.94183158874512 10.79827404022217 C 31.29409027099609 11.7466344833374 30.95171165466309 12.85692405700684 30.95171165466309 14.00913429260254 C 30.95171165466309 16.85611343383789 33.07712936401367 19.28498458862305 35.89561080932617 19.65890502929688 L 37.24285125732422 19.83762359619141 L 36.67140197753906 21.07069396972656 C 36.32196044921875 21.82471466064453 36.14477920532227 22.62984466552734 36.14477920532227 23.46371459960938 C 36.14477920532227 25.13995361328125 36.87948989868164 26.72475433349609 38.16054153442383 27.81175422668457 L 38.75437164306641 28.31563377380371 L 38.41127014160156 29.01479339599609 C 36.74617004394531 32.40785598754883 34.17755126953125 35.27555465698242 30.98309135437012 37.3078727722168 C 27.69999122619629 39.3965950012207 23.89858055114746 40.50063323974609 19.98981094360352 40.50063323974609 Z" stroke="none"/>
        <path d="M 19.98981094360352 39.50063323974609 C 27.68452072143555 39.50063323974609 34.33786010742188 35.04548263549805 37.51354217529297 28.57424354553223 C 36.06497955322266 27.3451042175293 35.14477920532227 25.51239395141602 35.14477920532227 23.46371459960938 C 35.14477920532227 22.45859336853027 35.36750030517578 21.50599479675293 35.76409912109375 20.65021514892578 C 32.48355102539062 20.21500396728516 29.95171165466309 17.40865325927734 29.95171165466309 14.00913429260254 C 29.95171165466309 12.60888385772705 30.38180160522461 11.30929374694824 31.11606025695801 10.2342643737793 C 27.57855033874512 10.05106449127197 24.76633071899414 7.125014305114746 24.76633071899414 3.541754245758057 C 24.76633071899414 2.711954116821289 24.91824150085449 1.91767418384552 25.19404029846191 1.184144258499146 C 23.53720092773438 0.7266042232513428 21.79233169555664 0.4810042083263397 19.98981094360352 0.4810042083263397 C 9.214780807495117 0.4810042083263397 0.4800008535385132 9.215964317321777 0.4800008535385132 19.99081420898438 C 0.4800008535385132 30.76584434509277 9.214780807495117 39.50063323974609 19.98981094360352 39.50063323974609 M 19.98981094360352 41.50063323974609 C 17.08687019348145 41.50063323974609 14.26971054077148 40.93164443969727 11.61659049987793 39.80947494506836 C 9.054970741271973 38.72600555419922 6.754830837249756 37.17534255981445 4.780050754547119 35.2005729675293 C 2.805280923843384 33.22579574584961 1.254620909690857 30.9256534576416 0.1711608618497849 28.36404418945312 C -0.9510091543197632 25.71091461181641 -1.519999146461487 22.89375495910645 -1.519999146461487 19.99081420898438 C -1.519999146461487 17.08791351318359 -0.9510091543197632 14.27078437805176 0.1711608618497849 11.6176643371582 C 1.25463080406189 9.05605411529541 2.805280923843384 6.755914211273193 4.780050754547119 4.781134128570557 C 6.754830837249756 2.806344270706177 9.054970741271973 1.255674242973328 11.61658096313477 0.1721942126750946 C 14.26971054077148 -0.9499958157539368 17.08687019348145 -1.518995761871338 19.98981094360352 -1.518995761871338 C 21.93342018127441 -1.518995761871338 23.86349105834961 -1.258145809173584 25.72642135620117 -0.7436957955360413 L 27.83650016784668 -0.1609957963228226 L 27.06609153747559 1.888014197349548 C 26.8671817779541 2.417034149169922 26.76633071899414 2.973434209823608 26.76633071899414 3.541754245758057 C 26.76633071899414 6.045254230499268 28.72239112854004 8.107624053955078 31.21950149536133 8.236944198608398 L 34.77643203735352 8.421144485473633 L 32.76760101318359 11.36228466033936 C 32.23384094238281 12.14375400543213 31.95171165466309 13.0590238571167 31.95171165466309 14.00913429260254 C 31.95171165466309 16.35666465759277 33.70376205444336 18.35935401916504 36.02712249755859 18.66758346557617 L 38.72159957885742 19.02504348754883 L 37.57871246337891 21.49117469787598 C 37.290771484375 22.11246490478516 37.14477920532227 22.77612495422363 37.14477920532227 23.46371459960938 C 37.14477920532227 24.84573364257812 37.75083160400391 26.15261459350586 38.80752944946289 27.04925346374512 L 39.99520111083984 28.0570240020752 L 39.30900192260742 29.45534515380859 C 37.56288909912109 33.01346588134766 34.86946105957031 36.02058410644531 31.51987075805664 38.15160369873047 C 28.07607078552246 40.34255599975586 24.08904075622559 41.50063323974609 19.98981094360352 41.50063323974609 Z" stroke="none" fill="#1d1d1d"/>
      </g>
      <g id="Ellipse_2500" data-name="Ellipse 2500" transform="translate(17.406 25.898)" fill="#fff" stroke="#1d1d1d" stroke-linecap="round" stroke-width="2">
        <circle cx="3.959" cy="3.959" r="3.959" stroke="none"/>
        <circle cx="3.959" cy="3.959" r="4.959" fill="none"/>
      </g>
      <g id="Ellipse_2501" data-name="Ellipse 2501" transform="translate(15.276 8.53)" fill="#fff" stroke="#1d1d1d" stroke-linecap="round" stroke-width="2">
        <circle cx="2.863" cy="2.863" r="2.863" stroke="none"/>
        <circle cx="2.863" cy="2.863" r="3.863" fill="none"/>
      </g>
      <g id="Path_78592" data-name="Path 78592" transform="translate(-27.768 -94.943)" fill="#fff" stroke-linecap="round">
        <path d="M 36.33251190185547 121.8990249633789 C 34.4888916015625 121.8990249633789 32.9890022277832 120.3991317749023 32.9890022277832 118.5555114746094 C 32.9890022277832 116.7118911743164 34.4888916015625 115.2119979858398 36.33251190185547 115.2119979858398 C 38.17623519897461 115.2119979858398 39.67621231079102 116.7118911743164 39.67621231079102 118.5555114746094 C 39.67621231079102 120.3991317749023 38.17623519897461 121.8990249633789 36.33251190185547 121.8990249633789 Z" stroke="none"/>
        <path d="M 36.33251190185547 116.2119979858398 C 35.03822326660156 116.2119979858398 33.98899459838867 117.26123046875 33.98899459838867 118.5555114746094 C 33.98899459838867 119.8498001098633 35.03822326660156 120.8990249633789 36.33251190185547 120.8990249633789 C 37.62698364257812 120.8990249633789 38.67620468139648 119.8498001098633 38.67620468139648 118.5555114746094 C 38.67620468139648 117.26123046875 37.62698364257812 116.2119979858398 36.33251190185547 116.2119979858398 M 36.33251190185547 114.2119979858398 C 38.72763442993164 114.2119979858398 40.67620086669922 116.1604919433594 40.67620086669922 118.5555114746094 C 40.67620086669922 120.9505310058594 38.72763442993164 122.8990249633789 36.33251190185547 122.8990249633789 C 33.93748474121094 122.8990249633789 31.98899459838867 120.9505310058594 31.98899459838867 118.5555114746094 C 31.98899459838867 116.1604919433594 33.93748474121094 114.2119979858398 36.33251190185547 114.2119979858398 Z" stroke="none" fill="#1d1d1d"/>
      </g>
      <g id="Path_78593" data-name="Path 78593" transform="translate(11.232 -104.369)" fill="#ffb1b1" stroke-linecap="round">
        <path d="M 35.73759460449219 120.7091903686523 C 34.22201156616211 120.7091903686523 32.9890022277832 119.4761734008789 32.9890022277832 117.9605941772461 C 32.9890022277832 116.4450149536133 34.22201156616211 115.2119979858398 35.73759460449219 115.2119979858398 C 37.25324249267578 115.2119979858398 38.48632431030273 116.4450149536133 38.48632431030273 117.9605941772461 C 38.48632431030273 119.4761734008789 37.25324249267578 120.7091903686523 35.73759460449219 120.7091903686523 Z" stroke="none"/>
        <path d="M 35.73759460449219 116.2119979858398 C 34.77187347412109 116.2119979858398 33.9890022277832 116.9948806762695 33.9890022277832 117.9605941772461 C 33.9890022277832 118.9263229370117 34.77187347412109 119.7091903686523 35.73759460449219 119.7091903686523 C 36.70345306396484 119.7091903686523 37.48632431030273 118.9263229370117 37.48632431030273 117.9605941772461 C 37.48632431030273 116.9948806762695 36.70345306396484 116.2119979858398 35.73759460449219 116.2119979858398 M 35.73759460449219 114.2119979858398 C 37.80465316772461 114.2119979858398 39.48632049560547 115.8936004638672 39.48632049560547 117.9605941772461 C 39.48632049560547 120.027587890625 37.80465316772461 121.7091903686523 35.73759460449219 121.7091903686523 C 33.67061233520508 121.7091903686523 31.9890022277832 120.027587890625 31.9890022277832 117.9605941772461 C 31.9890022277832 115.8936004638672 33.67061233520508 114.2119979858398 35.73759460449219 114.2119979858398 Z" stroke="none" fill="#1d1d1d"/>
      </g>
    </g>
  </g>
</svg>
