<svg xmlns="http://www.w3.org/2000/svg" width="169.605" height="40.5" viewBox="0 0 169.605 40.5">
  <g id="logo_aid-humanity-horizontal-icon-middle" transform="translate(0.5 0)">
    <g id="logo_aid-humanity-humanity-text" transform="translate(76.109 15.166)">
      <path id="Union_2" data-name="Union 2" d="M82.566,19.619V17.057a2.883,2.883,0,0,0,1.8-.469,3.267,3.267,0,0,0,1.055-1.581L80.956,4.676h3.069l2.839,7.174,2.409-7.174h3L88.309,15.365a7.051,7.051,0,0,1-2.253,3.323,5.088,5.088,0,0,1-3.111.94Q82.758,19.629,82.566,19.619Zm-38.55-5.6a5.585,5.585,0,0,1-1.558-4,5.588,5.588,0,0,1,1.558-4,4.976,4.976,0,0,1,3.733-1.633A4.312,4.312,0,0,1,51.3,5.934V4.676h2.809V15.349H51.3v-1.26a4.307,4.307,0,0,1-3.55,1.558A4.976,4.976,0,0,1,44.016,14.014Zm2.1-6.169a2.919,2.919,0,0,0-.849,2.166,2.9,2.9,0,0,0,3,3.01,2.969,2.969,0,0,0,2.168-.843,2.906,2.906,0,0,0,.859-2.168,2.9,2.9,0,0,0-.859-2.166A2.97,2.97,0,0,0,48.272,7,2.929,2.929,0,0,0,46.117,7.846Zm-32.78,6.628a4.405,4.405,0,0,1-1.166-3.245V4.676H14.98v6.211a2,2,0,0,0,2.157,2.2,2.331,2.331,0,0,0,1.74-.662,2.714,2.714,0,0,0,.655-1.985V4.676H22.34V15.349H19.532v-1.2a3.651,3.651,0,0,1-3.244,1.494A3.984,3.984,0,0,1,13.337,14.474Zm62.752.342A3.521,3.521,0,0,1,74.9,11.762V7.322h-1.9V4.676h1.9V2.518l2.807-.831V4.676h2.462V7.322H77.71v4.439a1.041,1.041,0,0,0,.284.812,1.311,1.311,0,0,0,.828.288,12.285,12.285,0,0,0,1.35-.011v2.5a13.33,13.33,0,0,1-1.454.087A4.512,4.512,0,0,1,76.089,14.816Zm-7.306.533V4.676h2.809V15.349Zm-4.986,0V9.136A2.164,2.164,0,0,0,63.21,7.5a2.169,2.169,0,0,0-1.567-.566A2.336,2.336,0,0,0,59.9,7.6a2.719,2.719,0,0,0-.653,1.985v5.764H56.439V4.676h2.807V5.87a3.655,3.655,0,0,1,3.245-1.494A3.975,3.975,0,0,1,65.44,5.551,4.4,4.4,0,0,1,66.607,8.8v6.553Zm-25.759,0V8.965a2.155,2.155,0,0,0-.478-1.493,1.716,1.716,0,0,0-1.35-.535,1.858,1.858,0,0,0-1.491.619,2.674,2.674,0,0,0-.533,1.793v6H31.376V8.965A2.155,2.155,0,0,0,30.9,7.472a1.718,1.718,0,0,0-1.35-.535,1.9,1.9,0,0,0-1.491.619A2.6,2.6,0,0,0,27.5,9.35v6H24.692V4.676H27.5V5.807a3.411,3.411,0,0,1,3.026-1.431,3.24,3.24,0,0,1,2.96,1.537,3.722,3.722,0,0,1,3.247-1.537,3.914,3.914,0,0,1,2.994,1.2,4.494,4.494,0,0,1,1.12,3.2v6.576Zm-30.678,0V9.136A2.171,2.171,0,0,0,6.772,7.5,2.169,2.169,0,0,0,5.2,6.938,2.334,2.334,0,0,0,3.462,7.6a2.719,2.719,0,0,0-.654,1.985v5.764H0V.406H2.809V5.87A3.655,3.655,0,0,1,6.054,4.376,3.981,3.981,0,0,1,9,5.551,4.407,4.407,0,0,1,10.168,8.8v6.553ZM68.97,2.893a1.606,1.606,0,0,1-.512-1.185,1.644,1.644,0,0,1,.512-1.2A1.653,1.653,0,0,1,70.178,0a1.683,1.683,0,0,1,1.23.512,1.644,1.644,0,0,1,.512,1.2,1.606,1.606,0,0,1-.512,1.185,1.7,1.7,0,0,1-1.23.5A1.667,1.667,0,0,1,68.97,2.893Z" fill="#102558" stroke="rgba(0,0,0,0)" stroke-width="1"/>
    </g>
    <g id="logo_aid-humanity-aid-text-medium" transform="translate(0 12.046)">
      <path id="Union_3" data-name="Union 3" d="M21.789,16.6a6.581,6.581,0,0,1-1.9-4.767,6.565,6.565,0,0,1,1.9-4.778,6.2,6.2,0,0,1,4.589-1.943,5.333,5.333,0,0,1,4.56,2.146V.332h2.815V18.222H30.938V16.381a5.309,5.309,0,0,1-4.56,2.173A6.176,6.176,0,0,1,21.789,16.6Zm2.087-7.691A3.944,3.944,0,0,0,22.7,11.832a3.945,3.945,0,0,0,1.174,2.926,4.311,4.311,0,0,0,5.889,0,3.944,3.944,0,0,0,1.173-2.926,3.942,3.942,0,0,0-1.173-2.924,4.307,4.307,0,0,0-5.889,0ZM1.9,16.6A6.576,6.576,0,0,1,0,11.832,6.56,6.56,0,0,1,1.9,7.054,6.189,6.189,0,0,1,6.491,5.112a5.334,5.334,0,0,1,4.561,2.146V5.444h2.816V18.222H11.052V16.381a5.31,5.31,0,0,1-4.561,2.173A6.168,6.168,0,0,1,1.9,16.6ZM3.988,8.907a3.947,3.947,0,0,0-1.173,2.924,3.948,3.948,0,0,0,1.173,2.926A4,4,0,0,0,6.933,15.92a4.01,4.01,0,0,0,2.946-1.162,3.948,3.948,0,0,0,1.173-2.926A3.947,3.947,0,0,0,9.879,8.907,4.011,4.011,0,0,0,6.933,7.743,4.006,4.006,0,0,0,3.988,8.907Zm11.86,9.314V5.444h2.814V18.222ZM15.99,3a1.675,1.675,0,0,1-.535-1.239A1.7,1.7,0,0,1,15.978.525a1.817,1.817,0,0,1,2.555,0,1.7,1.7,0,0,1,.521,1.239A1.673,1.673,0,0,1,18.518,3,1.784,1.784,0,0,1,15.99,3Z" transform="translate(0 0)" fill="#102558" stroke="rgba(0,0,0,0)" stroke-width="1"/>
    </g>
    <g id="logo_aid-humanity-icon" transform="translate(39.149)">
      <path id="Path_70532" data-name="Path 70532" d="M71.483,11.3a5.822,5.822,0,0,1-2.684-.655,5.641,5.641,0,0,1-2.813-3.329A5.516,5.516,0,0,1,66.4,3.011a5.7,5.7,0,0,1,3.4-2.758,5.83,5.83,0,0,1,4.39.4,5.6,5.6,0,0,1,2.4,7.635h0A5.786,5.786,0,0,1,71.483,11.3ZM71.5,3.128a2.618,2.618,0,0,0-.762.113,2.544,2.544,0,0,0-1.516,1.231,2.463,2.463,0,0,0-.184,1.921A2.52,2.52,0,0,0,70.29,7.881a2.6,2.6,0,0,0,3.477-1.05h0a2.5,2.5,0,0,0-1.072-3.409A2.6,2.6,0,0,0,71.5,3.128Zm3.68,4.433h0Z" transform="translate(-55.849 0)" fill="#ffc100"/>
      <path id="Union_1" data-name="Union 1" d="M14.5,27.086,2.717,15.532a8.978,8.978,0,0,1,0-12.87,9.428,9.428,0,0,1,12.926-.192,9.426,9.426,0,0,1,12.924.192,8.971,8.971,0,0,1,0,12.87,1.611,1.611,0,0,1-2.254,0,1.54,1.54,0,0,1,0-2.21,5.893,5.893,0,0,0,0-8.449,6.19,6.19,0,0,0-8.619,0l-.924.906,0,0-5.7,5.588a1.618,1.618,0,0,1-2.256,0,1.545,1.545,0,0,1,0-2.212l4.565-4.474a6.182,6.182,0,0,0-8.4.189,5.889,5.889,0,0,0,0,8.449L16.757,24.875a1.541,1.541,0,0,1,0,2.212,1.617,1.617,0,0,1-2.255,0Zm4.161-3.714L13.142,17.96a1.541,1.541,0,0,1,0-2.212,1.617,1.617,0,0,1,2.256,0l5.52,5.414a1.539,1.539,0,0,1,0,2.21,1.617,1.617,0,0,1-2.255,0ZM22.6,19.3,17.291,14.1a1.539,1.539,0,0,1,0-2.21,1.617,1.617,0,0,1,2.256,0l5.31,5.207a1.541,1.541,0,0,1,0,2.21,1.617,1.617,0,0,1-2.255,0Z" transform="translate(0 12.456)" fill="#00ade9" stroke="rgba(0,0,0,0)" stroke-width="1"/>
    </g>
  </g>
</svg>
