<svg xmlns="http://www.w3.org/2000/svg" width="465.582" height="606.5" viewBox="0 0 465.582 606.5">
  <g id="logo_aid-humanity-icon" transform="translate(0.5)" opacity="0.03">
    <path id="Path_70532" data-name="Path 70532" d="M151.182,171.194A85.568,85.568,0,0,1,75.69,45.624a85.562,85.562,0,1,1,151.271,80h0A85.651,85.651,0,0,1,151.182,171.194Zm.2-123.8A38.214,38.214,0,1,0,185.1,103.49h0A38.247,38.247,0,0,0,151.381,47.4Zm54.647,67.161h0Z" transform="translate(80.943 0)" fill="#1d1d1d"/>
    <path id="Union_1" data-name="Union 1" d="M215.338,410.359,40.351,235.3a137.947,137.947,0,0,1,0-194.982C93.1-12.443,178.337-13.43,232.288,37.408c53.957-50.838,139.166-49.85,191.905,2.913a137.857,137.857,0,0,1,0,194.982,23.669,23.669,0,1,1-33.465-33.48,90.5,90.5,0,1,0-127.984-128L249.026,87.554l-.031.025-84.637,84.664a23.688,23.688,0,0,1-33.5-33.505l67.787-67.776A90.432,90.432,0,0,0,73.872,201.822L248.821,376.854a23.684,23.684,0,1,1-33.483,33.505Zm61.783-56.27-81.977-82a23.688,23.688,0,1,1,33.5-33.505L310.6,320.609a23.675,23.675,0,1,1-33.483,33.48Zm58.488-61.628-78.857-78.886a23.68,23.68,0,0,1,33.5-33.48l78.838,78.887a23.673,23.673,0,1,1-33.477,33.48Z" transform="translate(0 188.703)" fill="#1d1d1d" stroke="rgba(0,0,0,0)" stroke-width="1"/>
  </g>
</svg>
