<svg xmlns="http://www.w3.org/2000/svg" width="22.744" height="28.639" viewBox="0 0 22.744 28.639">
  <g id="icon_package-_box" data-name="icon_package- box" transform="translate(0.75)">
    <line id="Line_1509" data-name="Line 1509" x2="8" transform="translate(6.5 15.5)" fill="none" stroke="#fff" stroke-linecap="round" stroke-width="1.5"/>
    <g id="Ellipse_1823" data-name="Ellipse 1823" transform="translate(7.244)" fill="none" stroke="#fff" stroke-width="1.5">
      <circle cx="4" cy="4" r="4" stroke="none"/>
      <circle cx="4" cy="4" r="3.25" fill="none"/>
    </g>
    <g id="icon_heart" transform="translate(0 10.111)">
      <g id="Group_3608" data-name="Group 3608" transform="translate(-0.702 -0.702)">
        <path id="Path_23441" data-name="Path 23441" d="M11.371,18.527c-.393,0-1.124,0-5.164-3.821-1.913-1.81-3.681-3.644-3.7-3.662a6.036,6.036,0,0,1,8.544-8.527l.318.317.318-.317a6.036,6.036,0,0,1,8.537,8.536c-.009.01-1.778,1.843-3.691,3.653C12.495,18.527,11.765,18.527,11.371,18.527Z" transform="translate(-0.048 -0.048)" fill="none" stroke="#fff" stroke-linecap="round" stroke-linejoin="round" stroke-width="1.5"/>
      </g>
    </g>
  </g>
</svg>
