<svg xmlns="http://www.w3.org/2000/svg" width="24.43" height="31.403" viewBox="0 0 24.43 31.403">
  <g id="logo_aid-humanity-icon" transform="translate(0.5)">
    <path id="Path_70532" data-name="Path 70532" d="M70.037,8.73a4.252,4.252,0,0,1-2.01-.506,4.326,4.326,0,0,1-2.106-2.572,4.382,4.382,0,0,1,.309-3.326A4.3,4.3,0,0,1,68.773.2a4.245,4.245,0,0,1,3.288.312,4.394,4.394,0,0,1,1.8,5.9h0A4.313,4.313,0,0,1,70.037,8.73Zm.01-6.313a1.926,1.926,0,0,0-1.706,1.039A1.957,1.957,0,0,0,68.2,4.94a1.92,1.92,0,0,0,3.544.337h0a1.962,1.962,0,0,0-.8-2.633A1.9,1.9,0,0,0,70.047,2.417ZM72.8,5.842h0Z" transform="translate(-58.33 0)" fill="#ffc100"/>
    <path id="Union_1" data-name="Union 1" d="M10.86,20.926,2.035,12a7.09,7.09,0,0,1,0-9.943,6.9,6.9,0,0,1,9.68-.149,6.9,6.9,0,0,1,9.678.149,7.086,7.086,0,0,1,0,9.943,1.18,1.18,0,0,1-1.688,0,1.215,1.215,0,0,1,0-1.707,4.655,4.655,0,0,0,0-6.527,4.534,4.534,0,0,0-6.455,0l-.692.7h0L8.289,8.784a1.185,1.185,0,0,1-1.689,0,1.221,1.221,0,0,1,0-1.709l3.419-3.456a4.526,4.526,0,0,0-6.293.146,4.651,4.651,0,0,0,0,6.527l8.823,8.926a1.218,1.218,0,0,1,0,1.709,1.184,1.184,0,0,1-1.689,0Zm3.116-2.869L9.841,13.875a1.218,1.218,0,0,1,0-1.709,1.185,1.185,0,0,1,1.689,0l4.134,4.183a1.215,1.215,0,0,1,0,1.707,1.184,1.184,0,0,1-1.689,0Zm2.95-3.143-3.977-4.023a1.216,1.216,0,0,1,0-1.707,1.185,1.185,0,0,1,1.689,0l3.976,4.023a1.216,1.216,0,0,1,0,1.707,1.184,1.184,0,0,1-1.688,0Z" transform="translate(0 9.623)" fill="#00ade9" stroke="rgba(0,0,0,0)" stroke-width="1"/>
  </g>
</svg>
