<svg xmlns="http://www.w3.org/2000/svg" width="231.961" height="56.198" viewBox="0 0 231.961 56.198">
  <g id="logo_aid-humanity-horizontal-icon-middle" transform="translate(0.5 0)">
    <g id="logo_aid-humanity-humanity-text" transform="translate(104.295 21.117)">
      <path id="Union_2" data-name="Union 2" d="M113.143,27.318V23.751a3.9,3.9,0,0,0,2.462-.654,4.552,4.552,0,0,0,1.446-2.2L110.938,6.511h4.206l3.89,9.99,3.3-9.99h4.117L121.014,21.4a9.822,9.822,0,0,1-3.088,4.627,6.9,6.9,0,0,1-4.264,1.309Q113.407,27.332,113.143,27.318Zm-52.826-7.8a7.846,7.846,0,0,1-2.135-5.573,7.849,7.849,0,0,1,2.135-5.573,6.77,6.77,0,0,1,5.116-2.274A5.869,5.869,0,0,1,70.3,8.263V6.511h3.849V21.373H70.3V19.618a5.863,5.863,0,0,1-4.864,2.169A6.77,6.77,0,0,1,60.317,19.514ZM63.2,10.925a4.1,4.1,0,0,0-1.164,3.016A4.106,4.106,0,0,0,63.2,16.959a3.978,3.978,0,0,0,2.953,1.173,4.034,4.034,0,0,0,2.971-1.173A4.081,4.081,0,0,0,70.3,13.94a4.026,4.026,0,0,0-4.148-4.191A3.98,3.98,0,0,0,63.2,10.925Zm-44.92,9.229a6.192,6.192,0,0,1-1.6-4.518V6.511h3.85v8.648a3.032,3.032,0,0,0,.807,2.274,2.93,2.93,0,0,0,2.148.787,3.166,3.166,0,0,0,2.384-.921,3.817,3.817,0,0,0,.9-2.764V6.511h3.848V21.373H26.765V19.707a4.973,4.973,0,0,1-4.446,2.081A5.414,5.414,0,0,1,18.276,20.154Zm85.992.477q-1.626-1.191-1.626-4.253V10.2h-2.6V6.511h2.6v-3l3.847-1.157V6.511h3.374V10.2h-3.374v6.182a1.463,1.463,0,0,0,.389,1.13,1.779,1.779,0,0,0,1.135.4,16.567,16.567,0,0,0,1.85-.016v3.479a17.981,17.981,0,0,1-1.993.122A6.106,6.106,0,0,1,104.268,20.63Zm-10.012.742V6.511h3.85V21.373Zm-6.832,0V12.722a3.041,3.041,0,0,0-.806-2.274,2.945,2.945,0,0,0-2.147-.787,3.173,3.173,0,0,0-2.388.921,3.824,3.824,0,0,0-.895,2.764v8.027H77.341V6.511h3.847V8.174a4.979,4.979,0,0,1,4.446-2.081,5.4,5.4,0,0,1,4.041,1.636,6.186,6.186,0,0,1,1.6,4.518v9.125Zm-35.3,0V12.484A3.032,3.032,0,0,0,51.47,10.4a2.332,2.332,0,0,0-1.849-.744,2.527,2.527,0,0,0-2.044.862,3.765,3.765,0,0,0-.731,2.5v8.353H43V12.484A3.032,3.032,0,0,0,42.34,10.4a2.335,2.335,0,0,0-1.849-.744,2.58,2.58,0,0,0-2.044.862,3.658,3.658,0,0,0-.761,2.5v8.353H33.837V6.511h3.849V8.086a4.649,4.649,0,0,1,4.147-1.992,4.422,4.422,0,0,1,4.057,2.14,5.072,5.072,0,0,1,4.449-2.14,5.32,5.32,0,0,1,4.1,1.666,6.319,6.319,0,0,1,1.535,4.457v9.157Zm-42.039,0V12.722a3.051,3.051,0,0,0-.806-2.274,2.945,2.945,0,0,0-2.148-.787,3.17,3.17,0,0,0-2.388.921,3.824,3.824,0,0,0-.9,2.764v8.027H0V.565H3.849V8.174A4.98,4.98,0,0,1,8.3,6.093,5.41,5.41,0,0,1,12.34,7.729a6.194,6.194,0,0,1,1.594,4.518v9.125ZM94.512,4.028a2.254,2.254,0,0,1-.7-1.65,2.308,2.308,0,0,1,.7-1.666A2.247,2.247,0,0,1,96.168,0a2.288,2.288,0,0,1,1.686.713,2.308,2.308,0,0,1,.7,1.666,2.254,2.254,0,0,1-.7,1.65,2.308,2.308,0,0,1-1.686.7A2.266,2.266,0,0,1,94.512,4.028Z" fill="#fff" stroke="rgba(0,0,0,0)" stroke-width="1"/>
    </g>
    <g id="logo_aid-humanity-aid-text-medium" transform="translate(0 16.773)">
      <path id="Union_3" data-name="Union 3" d="M29.858,23.113a9.243,9.243,0,0,1-2.605-6.638,9.22,9.22,0,0,1,2.605-6.653,8.427,8.427,0,0,1,6.289-2.7A7.266,7.266,0,0,1,42.4,10.106V.462h3.858v24.91H42.4V22.809a7.235,7.235,0,0,1-6.249,3.025A8.4,8.4,0,0,1,29.858,23.113Zm2.86-10.71a5.538,5.538,0,0,0-1.609,4.072,5.54,5.54,0,0,0,1.609,4.075,5.84,5.84,0,0,0,8.07,0A5.538,5.538,0,0,0,42.4,16.475,5.536,5.536,0,0,0,40.789,12.4a5.833,5.833,0,0,0-8.07,0ZM2.607,23.113A9.235,9.235,0,0,1,0,16.475,9.213,9.213,0,0,1,2.607,9.822a8.416,8.416,0,0,1,6.287-2.7,7.267,7.267,0,0,1,6.25,2.988V7.58H19V25.373H15.144V22.809a7.235,7.235,0,0,1-6.25,3.025A8.388,8.388,0,0,1,2.607,23.113ZM5.465,12.4a5.542,5.542,0,0,0-1.607,4.072A5.544,5.544,0,0,0,5.465,20.55,5.442,5.442,0,0,0,9.5,22.168a5.448,5.448,0,0,0,4.037-1.618,5.544,5.544,0,0,0,1.607-4.075A5.542,5.542,0,0,0,13.537,12.4,5.45,5.45,0,0,0,9.5,10.782,5.443,5.443,0,0,0,5.465,12.4Zm16.253,12.97V7.58h3.856V25.373Zm.194-21.191a2.35,2.35,0,0,1-.733-1.725A2.38,2.38,0,0,1,21.9.731a2.461,2.461,0,0,1,3.5,0,2.388,2.388,0,0,1,.714,1.725,2.347,2.347,0,0,1-.734,1.725,2.417,2.417,0,0,1-3.464,0Z" transform="translate(0 0)" fill="#fff" stroke="rgba(0,0,0,0)" stroke-width="1"/>
    </g>
    <g id="logo_aid-humanity-icon" transform="translate(53.647)">
      <path id="Path_70532" data-name="Path 70532" d="M73.614,15.734a7.893,7.893,0,0,1-7.532-5.547A7.862,7.862,0,0,1,71.3.352a7.881,7.881,0,0,1,9.307,11.194h0A7.909,7.909,0,0,1,73.614,15.734Zm.018-11.378a3.535,3.535,0,0,0-1.044.158,3.506,3.506,0,0,0-.609,6.46,3.536,3.536,0,0,0,4.764-1.462h0a3.52,3.52,0,0,0-3.111-5.156Zm5.043,6.173h0Z" transform="translate(-52.191 0)" fill="#ffc100"/>
      <path id="Union_1" data-name="Union 1" d="M19.873,37.716,3.724,21.627a12.642,12.642,0,0,1,0-17.921,12.771,12.771,0,0,1,17.713-.268,12.768,12.768,0,0,1,17.711.268,12.633,12.633,0,0,1,0,17.921,2.18,2.18,0,0,1-3.088-3.077,8.3,8.3,0,0,0,0-11.764,8.386,8.386,0,0,0-11.811,0L22.982,8.047l0,0-7.811,7.782a2.182,2.182,0,0,1-3.092-3.079l6.256-6.229a8.374,8.374,0,0,0-11.515.263,8.293,8.293,0,0,0,0,11.764L22.963,34.637a2.182,2.182,0,0,1-3.091,3.079Zm5.7-5.172L18.01,25.008A2.182,2.182,0,1,1,21.1,21.929l7.564,7.539a2.18,2.18,0,0,1-3.09,3.077Zm5.4-5.664L23.695,19.63a2.167,2.167,0,0,1,0-3.077,2.191,2.191,0,0,1,3.092,0L34.063,23.8a2.18,2.18,0,0,1-3.09,3.077Z" transform="translate(0 17.344)" fill="#00ade9" stroke="rgba(0,0,0,0)" stroke-width="1"/>
    </g>
  </g>
</svg>
