<svg xmlns="http://www.w3.org/2000/svg" width="174.963" height="42.198" viewBox="0 0 174.963 42.198">
  <g id="logo_aid-humanity-horizontal-icon-middle" transform="translate(0.5 0)">
    <g id="logo_aid-humanity-humanity-text" transform="translate(78.532 15.809)">
      <path id="Union_2" data-name="Union 2" d="M85.194,20.452V17.781a2.952,2.952,0,0,0,1.854-.489,3.407,3.407,0,0,0,1.089-1.648l-4.6-10.769H86.7l2.929,7.479,2.486-7.479h3.1L91.121,16.017A7.352,7.352,0,0,1,88.8,19.482a5.212,5.212,0,0,1-3.21.98Q85.393,20.462,85.194,20.452ZM45.417,14.609a5.855,5.855,0,0,1-1.607-4.173,5.858,5.858,0,0,1,1.607-4.173,5.111,5.111,0,0,1,3.852-1.7,4.43,4.43,0,0,1,3.663,1.624V4.874h2.9V16h-2.9V14.687a4.425,4.425,0,0,1-3.663,1.624A5.111,5.111,0,0,1,45.417,14.609Zm2.168-6.43a3.06,3.06,0,0,0-.876,2.258,3.064,3.064,0,0,0,.876,2.26,3,3,0,0,0,2.224.878,3.02,3.02,0,0,0,3.124-3.138A3.023,3.023,0,0,0,49.809,7.3,3.006,3.006,0,0,0,47.585,8.179Zm-33.824,6.91a4.62,4.62,0,0,1-1.2-3.383V4.874h2.9v6.475a2.262,2.262,0,0,0,.608,1.7,2.214,2.214,0,0,0,1.618.59,2.392,2.392,0,0,0,1.8-.69,2.847,2.847,0,0,0,.676-2.069V4.874h2.9V16h-2.9V14.753a3.753,3.753,0,0,1-3.347,1.558A4.089,4.089,0,0,1,13.762,15.088Zm64.75.357a3.689,3.689,0,0,1-1.225-3.184V7.633H75.331V4.874h1.955V2.625l2.9-.866V4.874h2.541V7.633H80.184v4.628a1.092,1.092,0,0,0,.293.846,1.344,1.344,0,0,0,.855.3,12.547,12.547,0,0,0,1.393-.012V16a13.617,13.617,0,0,1-1.5.091A4.619,4.619,0,0,1,78.511,15.445ZM70.973,16V4.874h2.9V16Zm-5.145,0V9.524a2.269,2.269,0,0,0-.607-1.7,2.225,2.225,0,0,0-1.617-.59,2.4,2.4,0,0,0-1.8.69,2.852,2.852,0,0,0-.674,2.069V16h-2.9V4.874h2.9V6.12a3.757,3.757,0,0,1,3.348-1.558,4.08,4.08,0,0,1,3.043,1.225,4.615,4.615,0,0,1,1.2,3.383V16ZM39.249,16V9.346a2.261,2.261,0,0,0-.494-1.556,1.761,1.761,0,0,0-1.393-.557,1.908,1.908,0,0,0-1.539.646,2.807,2.807,0,0,0-.55,1.869V16h-2.9V9.346a2.261,2.261,0,0,0-.494-1.556,1.763,1.763,0,0,0-1.393-.557,1.948,1.948,0,0,0-1.539.646,2.728,2.728,0,0,0-.573,1.869V16h-2.9V4.874h2.9V6.053A3.508,3.508,0,0,1,31.5,4.562a3.335,3.335,0,0,1,3.054,1.6,3.827,3.827,0,0,1,3.35-1.6,4.017,4.017,0,0,1,3.089,1.247,4.714,4.714,0,0,1,1.156,3.337V16ZM7.595,16V9.524a2.277,2.277,0,0,0-.607-1.7,2.225,2.225,0,0,0-1.618-.59,2.394,2.394,0,0,0-1.8.69A2.853,2.853,0,0,0,2.9,9.991V16H0V.423H2.9v5.7A3.757,3.757,0,0,1,6.247,4.562,4.086,4.086,0,0,1,9.291,5.787a4.621,4.621,0,0,1,1.2,3.383V16ZM71.165,3.016a1.683,1.683,0,0,1-.528-1.235A1.723,1.723,0,0,1,71.165.533,1.7,1.7,0,0,1,72.412,0a1.728,1.728,0,0,1,1.269.533A1.723,1.723,0,0,1,74.21,1.78a1.683,1.683,0,0,1-.528,1.235,1.743,1.743,0,0,1-1.269.522A1.711,1.711,0,0,1,71.165,3.016Z" fill="#fff" stroke="rgba(0,0,0,0)" stroke-width="1"/>
    </g>
    <g id="logo_aid-humanity-aid-text-medium" transform="translate(0 12.557)">
      <path id="Union_3" data-name="Union 3" d="M22.482,17.3a6.9,6.9,0,0,1-1.962-4.969,6.881,6.881,0,0,1,1.962-4.98,6.363,6.363,0,0,1,4.735-2.025,5.483,5.483,0,0,1,4.705,2.237V.346h2.9V18.995h-2.9V17.076a5.459,5.459,0,0,1-4.705,2.265A6.341,6.341,0,0,1,22.482,17.3Zm2.154-8.018a4.133,4.133,0,0,0-1.212,3.049,4.25,4.25,0,1,0,8.5,0,4.295,4.295,0,0,0-7.287-3.049ZM1.963,17.3A6.892,6.892,0,0,1,0,12.334a6.876,6.876,0,0,1,1.963-4.98A6.355,6.355,0,0,1,6.7,5.329,5.483,5.483,0,0,1,11.4,7.566V5.675h2.905v13.32H11.4V17.076A5.459,5.459,0,0,1,6.7,19.341,6.333,6.333,0,0,1,1.963,17.3ZM4.115,9.285a4.136,4.136,0,0,0-1.21,3.049A4.14,4.14,0,0,0,7.153,16.6a4.14,4.14,0,0,0,4.25-4.262,4.143,4.143,0,0,0-4.25-4.262A4.111,4.111,0,0,0,4.115,9.285Zm12.238,9.71V5.675h2.9v13.32ZM16.5,3.13a1.754,1.754,0,0,1-.552-1.292A1.777,1.777,0,0,1,16.487.547a1.861,1.861,0,0,1,2.636,0,1.782,1.782,0,0,1,.537,1.292,1.752,1.752,0,0,1-.553,1.292,1.827,1.827,0,0,1-2.608,0Z" transform="translate(0 0)" fill="#fff" stroke="rgba(0,0,0,0)" stroke-width="1"/>
    </g>
    <g id="logo_aid-humanity-icon" transform="translate(40.395)">
      <path id="Path_70532" data-name="Path 70532" d="M71.666,11.78A5.958,5.958,0,0,1,68.9,11.1a5.866,5.866,0,0,1-2.9-3.47,5.8,5.8,0,0,1,.426-4.488,5.893,5.893,0,0,1,3.5-2.876,5.96,5.96,0,0,1,4.53.422,5.868,5.868,0,0,1,2.478,7.959h0A5.961,5.961,0,0,1,71.666,11.78Zm.014-8.518a2.676,2.676,0,0,0-.786.118,2.631,2.631,0,0,0-1.565,1.284,2.591,2.591,0,0,0-.19,2,2.621,2.621,0,0,0,1.3,1.55,2.671,2.671,0,0,0,3.587-1.095h0a2.619,2.619,0,0,0-1.106-3.553A2.658,2.658,0,0,0,71.68,3.261Zm3.8,4.621h0Z" transform="translate(-55.535 0)" fill="#ffc100"/>
      <path id="Union_1" data-name="Union 1" d="M14.964,28.236,2.8,16.191a9.426,9.426,0,0,1,0-13.416,9.656,9.656,0,0,1,13.338-.2,9.654,9.654,0,0,1,13.336.2,9.419,9.419,0,0,1,0,13.416,1.65,1.65,0,0,1-2.325,0,1.617,1.617,0,0,1,0-2.3,6.188,6.188,0,0,0,0-8.807,6.34,6.34,0,0,0-8.894,0l-.953.945,0,0-5.882,5.826a1.658,1.658,0,0,1-2.328,0,1.622,1.622,0,0,1,0-2.305L13.8,4.883a6.332,6.332,0,0,0-8.67.2,6.183,6.183,0,0,0,0,8.807L17.291,25.931a1.618,1.618,0,0,1,0,2.305,1.657,1.657,0,0,1-2.327,0Zm4.294-3.872-5.7-5.642a1.618,1.618,0,0,1,0-2.305,1.657,1.657,0,0,1,2.328,0l5.7,5.644a1.616,1.616,0,0,1,0,2.3,1.656,1.656,0,0,1-2.327,0Zm4.064-4.241L17.842,14.7a1.616,1.616,0,0,1,0-2.3,1.657,1.657,0,0,1,2.328,0l5.479,5.428a1.618,1.618,0,0,1,0,2.3,1.656,1.656,0,0,1-2.327,0Z" transform="translate(0 12.984)" fill="#00ade9" stroke="rgba(0,0,0,0)" stroke-width="1"/>
    </g>
  </g>
</svg>
