<svg xmlns="http://www.w3.org/2000/svg" width="27.974" height="34.051" viewBox="0 0 27.974 34.051">
  <g id="icon_mosque" transform="translate(1 1)">
    <path id="Path_70559" data-name="Path 70559" d="M194.4,218.135c0-6.53-7.178-5.478-12.314-11.728-5.137,6.312-12.315,5.974-12.315,11.728V223.3H194.4Z" transform="translate(-167.422 -190.25)" fill="#e6e6e6"/>
    <path id="Path_70559-2" data-name="Path 70559" d="M192.051,215.487c0-6.53-7.179-5.478-12.314-11.728-5.137,6.312-12.315,5.974-12.315,11.728v5.166h24.629Z" transform="translate(-167.422 -190.25)" fill="none" stroke="#1d1d1d" stroke-linecap="round" stroke-linejoin="round" stroke-width="2"/>
    <line id="Line_1493" data-name="Line 1493" y1="4.517" transform="translate(12.313 8.992)" fill="none" stroke="#1d1d1d" stroke-linecap="round" stroke-linejoin="round" stroke-width="2"/>
    <path id="Path_70560" data-name="Path 70560" d="M182.783,198.128a4.414,4.414,0,1,1-2.737-7.878" transform="translate(-167.422 -190.25)" fill="none" stroke="#1d1d1d" stroke-linecap="round" stroke-linejoin="round" stroke-width="2"/>
    <line id="Line_1494" data-name="Line 1494" x2="13.771" transform="translate(3.694 25.995)" fill="none" stroke="#1d1d1d" stroke-linecap="round" stroke-linejoin="round" stroke-width="2"/>
    <path id="Path_70559-3" data-name="Path 70559" d="M192.051,215.487c0-6.53-7.179-5.478-12.314-11.728-5.137,6.312-12.315,5.974-12.315,11.728v5.166h24.629Z" transform="translate(-167.422 -190.25)" fill="none" stroke="#1d1d1d" stroke-linecap="round" stroke-linejoin="round" stroke-width="2"/>
  </g>
</svg>
