<svg xmlns="http://www.w3.org/2000/svg" width="51.36" height="63.081" viewBox="0 0 51.36 63.081">
  <g id="illustration_mother-child-charity" transform="translate(1.355 1.414)">
    <path id="Path_74666" data-name="Path 74666" d="M365.835,364.675l-7.252,16.886,6.682,6.888V392h27.019V359.964H373A7.8,7.8,0,0,0,365.835,364.675Z" transform="translate(-357.014 -331.33)" fill="#fd4949" stroke="#102558" stroke-linecap="round" stroke-linejoin="round" stroke-width="2"/>
    <path id="Rectangle_6234" data-name="Rectangle 6234" d="M9,0h2.518a8,8,0,0,1,8,8V20.524a6,6,0,0,1-6,6H6a6,6,0,0,1-6-6V9A9,9,0,0,1,9,0Z" transform="translate(26.304 34.142)" fill="#ccf2ff" stroke="#102558" stroke-linecap="round" stroke-linejoin="round" stroke-width="2"/>
    <path id="Path_74667" data-name="Path 74667" d="M367.394,387.063a10.2,10.2,0,0,0,10.221-10.184H357.174A10.2,10.2,0,0,0,367.394,387.063Z" transform="translate(-357.174 -329.474)" fill="#00ade9" stroke="#102558" stroke-linecap="round" stroke-linejoin="round" stroke-width="2"/>
    <line id="Line_1578" data-name="Line 1578" x1="6.245" transform="translate(13.273 51.627)" fill="none" stroke="#102558" stroke-linecap="round" stroke-linejoin="round" stroke-width="2"/>
    <path id="Path_74668" data-name="Path 74668" d="M402.666,379.138,366.507,361.41a1.114,1.114,0,0,0-1.507.54l-1.87,4.147a1.106,1.106,0,0,0,.092,1.076l16.741,24.677h16.021a6.67,6.67,0,0,0,6.682-6.659Z" transform="translate(-356.508 -331.184)" fill="#ffc100" stroke="#102558" stroke-linecap="round" stroke-linejoin="round" stroke-width="2"/>
    <path id="Path_74669" data-name="Path 74669" d="M376.566,364.537l-2.852-4.573h7.6l-2.852,4.573A1.116,1.116,0,0,1,376.566,364.537Z" transform="translate(-355.295 -331.33)" fill="#edcea9" stroke="#102558" stroke-linecap="round" stroke-linejoin="round" stroke-width="2"/>
    <path id="Path_74670" data-name="Path 74670" d="M389.346,370.147l-2.852-4.573h7.6l-2.852,4.573A1.116,1.116,0,0,1,389.346,370.147Z" transform="translate(-353.843 -330.714)" fill="#edcea9" stroke="#102558" stroke-linecap="round" stroke-linejoin="round" stroke-width="2"/>
    <path id="Rectangle_6235" data-name="Rectangle 6235" d="M9,0h6.16a9,9,0,0,1,9,9v9.1a0,0,0,0,1,0,0H0a0,0,0,0,1,0,0V9A9,9,0,0,1,9,0Z" transform="translate(10.18 0.009)" fill="#883f2e" stroke="#102558" stroke-linecap="round" stroke-linejoin="round" stroke-width="2"/>
    <line id="Line_1579" data-name="Line 1579" y1="2.706" x2="2.715" transform="translate(31.163)" fill="none" stroke="#102558" stroke-linecap="round" stroke-linejoin="round" stroke-width="2"/>
    <line id="Line_1580" data-name="Line 1580" x1="1.798" y1="1.792" transform="translate(8.99 4.781)" fill="none" stroke="#102558" stroke-linecap="round" stroke-linejoin="round" stroke-width="2"/>
    <line id="Line_1581" data-name="Line 1581" x2="3.403" transform="translate(34.34 9.996)" fill="none" stroke="#102558" stroke-linecap="round" stroke-linejoin="round" stroke-width="2"/>
    <path id="Path_74671" data-name="Path 74671" d="M376.75,342.639l2.737-1.169h5.507a2.223,2.223,0,0,1,2.227,2.219v9.836a9.2,9.2,0,0,1-9.22,9.188h0a8.893,8.893,0,0,1-8.909-8.878v-7.926l3.523-1.5" transform="translate(-355.82 -333.36)" fill="#ffe6c3" stroke="#102558" stroke-linecap="round" stroke-linejoin="round" stroke-width="2"/>
    <path id="Rectangle_6236" data-name="Rectangle 6236" d="M3,0H4.969a0,0,0,0,1,0,0V8.24a0,0,0,0,1,0,0H3a3,3,0,0,1-3-3V3A3,3,0,0,1,3,0Z" transform="translate(8.303 14.173)" fill="#ffdcb3" stroke="#102558" stroke-linecap="round" stroke-linejoin="round" stroke-width="2"/>
    <path id="Rectangle_6237" data-name="Rectangle 6237" d="M3,0H4.969a0,0,0,0,1,0,0V8.24a0,0,0,0,1,0,0H3a3,3,0,0,1-3-3V3A3,3,0,0,1,3,0Z" transform="translate(36.371 22.412) rotate(-180)" fill="#ffdcb3" stroke="#102558" stroke-linecap="round" stroke-linejoin="round" stroke-width="2"/>
    <line id="Line_1582" data-name="Line 1582" y2="3.065" transform="translate(17.814 15.04)" fill="none" stroke="#102558" stroke-linecap="round" stroke-linejoin="round" stroke-width="2"/>
    <line id="Line_1583" data-name="Line 1583" y2="3.065" transform="translate(26.723 15.04)" fill="none" stroke="#102558" stroke-linecap="round" stroke-linejoin="round" stroke-width="2"/>
    <line id="Line_1584" data-name="Line 1584" x2="3.662" transform="translate(20.398 24.089)" fill="none" stroke="#102558" stroke-linecap="round" stroke-linejoin="round" stroke-width="2"/>
    <path id="Path_74672" data-name="Path 74672" d="M377.277,353.037l-.617-1.551.617-1.74" transform="translate(-355.016 -332.452)" fill="none" stroke="#102558" stroke-linecap="round" stroke-linejoin="round" stroke-width="2"/>
    <path id="Rectangle_6238" data-name="Rectangle 6238" d="M7,0H9.675A6.744,6.744,0,0,1,16.42,6.744V8.363a8,8,0,0,1-8,8H5a5,5,0,0,1-5-5V7A7,7,0,0,1,7,0Z" transform="translate(27.89 19.666)" fill="#edcea9" stroke="#102558" stroke-linecap="round" stroke-linejoin="round" stroke-width="2"/>
    <path id="Path_74673" data-name="Path 74673" d="M384.942,358.716a2.3,2.3,0,0,0,4.068,0" transform="translate(-354.019 -331.467)" fill="none" stroke="#102558" stroke-linecap="round" stroke-linejoin="round" stroke-width="2"/>
    <path id="Path_74674" data-name="Path 74674" d="M391.067,362.735a1.955,1.955,0,1,0,0-3.05" transform="translate(-353.323 -331.408)" fill="none" stroke="#102558" stroke-linecap="round" stroke-linejoin="round" stroke-width="2"/>
    <line id="Line_1585" data-name="Line 1585" x1="5.729" y1="2.485" transform="translate(29.956 17.182)" fill="none" stroke="#102558" stroke-linecap="round" stroke-linejoin="round" stroke-width="2"/>
    <line id="Line_1586" data-name="Line 1586" x1="5.061" y2="0.54" transform="translate(28.439 19.334)" fill="none" stroke="#102558" stroke-linecap="round" stroke-linejoin="round" stroke-width="2"/>
    <rect id="Rectangle_6239" data-name="Rectangle 6239" width="5.696" height="6.605" rx="2" transform="translate(43.309 44.65)" fill="#ffe6c3" stroke="#102558" stroke-linecap="round" stroke-linejoin="round" stroke-width="2"/>
    <rect id="Rectangle_6240" data-name="Rectangle 6240" width="5.686" height="6.617" rx="2" transform="translate(0.06 54.909) rotate(-45)" fill="#ffe6c3" stroke="#102558" stroke-linecap="round" stroke-linejoin="round" stroke-width="2"/>
    <path id="Path_74675" data-name="Path 74675" d="M382.7,390.646l-16.479-23.1L368,363.331l-2.089-.983-1.9,4.12,16.528,24.178Z" transform="translate(-356.397 -331.069)" fill="#e2a700" stroke="rgba(0,0,0,0)" stroke-width="1"/>
    <g id="Group_15655" data-name="Group 15655" transform="translate(25.74 52.27)">
      <rect id="Rectangle_6241" data-name="Rectangle 6241" width="9.134" height="7.117" transform="translate(1.529 1.281)" fill="none" stroke="#102558" stroke-linecap="round" stroke-linejoin="round" stroke-width="2"/>
      <line id="Line_1587" data-name="Line 1587" x2="2.57" transform="translate(0 4.839)" fill="none" stroke="#102558" stroke-linecap="round" stroke-linejoin="round" stroke-width="2"/>
      <line id="Line_1588" data-name="Line 1588" x2="2.57" transform="translate(9.845 4.839)" fill="none" stroke="#102558" stroke-linecap="round" stroke-linejoin="round" stroke-width="2"/>
      <line id="Line_1589" data-name="Line 1589" y1="2.561" transform="translate(4.173 0.117)" fill="none" stroke="#102558" stroke-linecap="round" stroke-linejoin="round" stroke-width="2"/>
      <line id="Line_1590" data-name="Line 1590" y1="2.561" transform="translate(7.629 0)" fill="none" stroke="#102558" stroke-linecap="round" stroke-linejoin="round" stroke-width="2"/>
    </g>
    <g id="Group_15656" data-name="Group 15656" transform="translate(12.47 32.903)">
      <rect id="Rectangle_6242" data-name="Rectangle 6242" width="9.128" height="7.121" transform="translate(3.15) rotate(26.174)" fill="#fff" stroke="#102558" stroke-linecap="round" stroke-linejoin="round" stroke-width="2"/>
      <line id="Line_1591" data-name="Line 1591" x2="2.306" y2="1.13" transform="translate(0.203 2.521)" fill="none" stroke="#102558" stroke-linecap="round" stroke-linejoin="round" stroke-width="2"/>
      <line id="Line_1592" data-name="Line 1592" x2="2.306" y2="1.13" transform="translate(9.038 6.849)" fill="none" stroke="#102558" stroke-linecap="round" stroke-linejoin="round" stroke-width="2"/>
      <line id="Line_1593" data-name="Line 1593" x1="1.134" y2="2.298" transform="translate(1.858 6.295)" fill="none" stroke="#102558" stroke-linecap="round" stroke-linejoin="round" stroke-width="2"/>
      <line id="Line_1594" data-name="Line 1594" x1="1.134" y2="2.298" transform="translate(4.907 7.919)" fill="none" stroke="#102558" stroke-linecap="round" stroke-linejoin="round" stroke-width="2"/>
    </g>
  </g>
</svg>
