<svg id="Group_17297" data-name="Group 17297" xmlns="http://www.w3.org/2000/svg" width="150" height="150" viewBox="0 0 150 150">
  <rect id="Rectangle_6261" data-name="Rectangle 6261" width="4.988" height="4.988" transform="translate(0 41.268)" fill="#1d1d1d"/>
  <rect id="Rectangle_6262" data-name="Rectangle 6262" width="4.988" height="4.988" transform="translate(0 62.216)" fill="#1d1d1d"/>
  <rect id="Rectangle_6263" data-name="Rectangle 6263" width="4.988" height="4.988" transform="translate(0 72.191)" fill="#1d1d1d"/>
  <rect id="Rectangle_6264" data-name="Rectangle 6264" width="4.988" height="5.985" transform="translate(0 77.179)" fill="#1d1d1d"/>
  <rect id="Rectangle_6265" data-name="Rectangle 6265" width="4.988" height="4.988" transform="translate(0 83.164)" fill="#1d1d1d"/>
  <rect id="Rectangle_6266" data-name="Rectangle 6266" width="4.988" height="4.988" transform="translate(0 98.128)" fill="#1d1d1d"/>
  <rect id="Rectangle_6267" data-name="Rectangle 6267" width="4.988" height="4.988" transform="translate(4.988 41.268)" fill="#1d1d1d"/>
  <rect id="Rectangle_6268" data-name="Rectangle 6268" width="4.988" height="5.985" transform="translate(4.988 51.243)" fill="#1d1d1d"/>
  <rect id="Rectangle_6269" data-name="Rectangle 6269" width="4.988" height="4.988" transform="translate(4.988 57.228)" fill="#1d1d1d"/>
  <rect id="Rectangle_6270" data-name="Rectangle 6270" width="4.988" height="4.988" transform="translate(4.988 67.204)" fill="#1d1d1d"/>
  <rect id="Rectangle_6271" data-name="Rectangle 6271" width="4.988" height="4.988" transform="translate(4.988 72.191)" fill="#1d1d1d"/>
  <rect id="Rectangle_6272" data-name="Rectangle 6272" width="4.988" height="4.988" transform="translate(4.988 83.164)" fill="#1d1d1d"/>
  <rect id="Rectangle_6273" data-name="Rectangle 6273" width="4.988" height="4.988" transform="translate(4.988 93.14)" fill="#1d1d1d"/>
  <rect id="Rectangle_6274" data-name="Rectangle 6274" width="4.988" height="4.988" transform="translate(4.988 98.128)" fill="#1d1d1d"/>
  <rect id="Rectangle_6275" data-name="Rectangle 6275" width="5.985" height="4.988" transform="translate(9.975 41.268)" fill="#1d1d1d"/>
  <rect id="Rectangle_6276" data-name="Rectangle 6276" width="5.985" height="4.988" transform="translate(9.975 46.255)" fill="#1d1d1d"/>
  <rect id="Rectangle_6277" data-name="Rectangle 6277" width="5.985" height="4.988" transform="translate(9.975 62.216)" fill="#1d1d1d"/>
  <rect id="Rectangle_6278" data-name="Rectangle 6278" width="5.985" height="4.988" transform="translate(9.975 72.191)" fill="#1d1d1d"/>
  <rect id="Rectangle_6279" data-name="Rectangle 6279" width="5.985" height="5.985" transform="translate(9.975 77.179)" fill="#1d1d1d"/>
  <rect id="Rectangle_6280" data-name="Rectangle 6280" width="5.985" height="4.988" transform="translate(9.975 83.164)" fill="#1d1d1d"/>
  <rect id="Rectangle_6281" data-name="Rectangle 6281" width="5.985" height="4.988" transform="translate(9.975 98.128)" fill="#1d1d1d"/>
  <rect id="Rectangle_6282" data-name="Rectangle 6282" width="4.988" height="4.988" transform="translate(15.961 41.268)" fill="#1d1d1d"/>
  <rect id="Rectangle_6283" data-name="Rectangle 6283" width="4.988" height="4.988" transform="translate(15.961 46.255)" fill="#1d1d1d"/>
  <rect id="Rectangle_6284" data-name="Rectangle 6284" width="4.988" height="5.985" transform="translate(15.961 51.243)" fill="#1d1d1d"/>
  <rect id="Rectangle_6285" data-name="Rectangle 6285" width="4.988" height="4.988" transform="translate(15.961 62.216)" fill="#1d1d1d"/>
  <rect id="Rectangle_6286" data-name="Rectangle 6286" width="4.988" height="4.988" transform="translate(15.961 72.191)" fill="#1d1d1d"/>
  <rect id="Rectangle_6287" data-name="Rectangle 6287" width="4.988" height="4.988" transform="translate(15.961 83.164)" fill="#1d1d1d"/>
  <rect id="Rectangle_6288" data-name="Rectangle 6288" width="4.988" height="5.985" transform="translate(15.961 103.115)" fill="#1d1d1d"/>
  <rect id="Rectangle_6289" data-name="Rectangle 6289" width="4.988" height="4.988" transform="translate(20.948 41.268)" fill="#1d1d1d"/>
  <rect id="Rectangle_6290" data-name="Rectangle 6290" width="4.988" height="4.988" transform="translate(20.948 83.164)" fill="#1d1d1d"/>
  <rect id="Rectangle_6291" data-name="Rectangle 6291" width="4.988" height="4.988" transform="translate(20.948 93.14)" fill="#1d1d1d"/>
  <rect id="Rectangle_6292" data-name="Rectangle 6292" width="4.988" height="4.988" transform="translate(20.948 98.128)" fill="#1d1d1d"/>
  <rect id="Rectangle_6293" data-name="Rectangle 6293" width="4.988" height="5.985" transform="translate(25.936 51.243)" fill="#1d1d1d"/>
  <rect id="Rectangle_6294" data-name="Rectangle 6294" width="4.988" height="4.988" transform="translate(25.936 67.204)" fill="#1d1d1d"/>
  <rect id="Rectangle_6295" data-name="Rectangle 6295" width="4.988" height="4.988" transform="translate(25.936 88.152)" fill="#1d1d1d"/>
  <rect id="Rectangle_6296" data-name="Rectangle 6296" width="4.988" height="4.988" transform="translate(25.936 93.14)" fill="#1d1d1d"/>
  <rect id="Rectangle_6297" data-name="Rectangle 6297" width="4.988" height="4.988" transform="translate(25.936 98.128)" fill="#1d1d1d"/>
  <rect id="Rectangle_6298" data-name="Rectangle 6298" width="4.988" height="5.985" transform="translate(25.936 103.115)" fill="#1d1d1d"/>
  <rect id="Rectangle_6299" data-name="Rectangle 6299" width="4.988" height="4.988" transform="translate(30.924 41.268)" fill="#1d1d1d"/>
  <rect id="Rectangle_6300" data-name="Rectangle 6300" width="4.988" height="5.985" transform="translate(30.924 51.243)" fill="#1d1d1d"/>
  <rect id="Rectangle_6301" data-name="Rectangle 6301" width="4.988" height="4.988" transform="translate(30.924 62.216)" fill="#1d1d1d"/>
  <rect id="Rectangle_6302" data-name="Rectangle 6302" width="4.988" height="4.988" transform="translate(30.924 72.191)" fill="#1d1d1d"/>
  <rect id="Rectangle_6303" data-name="Rectangle 6303" width="4.988" height="4.988" transform="translate(30.924 83.164)" fill="#1d1d1d"/>
  <rect id="Rectangle_6304" data-name="Rectangle 6304" width="4.988" height="4.988" transform="translate(30.924 93.14)" fill="#1d1d1d"/>
  <rect id="Rectangle_6305" data-name="Rectangle 6305" width="4.988" height="5.985" transform="translate(30.924 103.115)" fill="#1d1d1d"/>
  <rect id="Rectangle_6306" data-name="Rectangle 6306" width="4.988" height="4.988" transform="translate(35.912 41.268)" fill="#1d1d1d"/>
  <rect id="Rectangle_6307" data-name="Rectangle 6307" width="4.988" height="4.988" transform="translate(35.912 46.255)" fill="#1d1d1d"/>
  <rect id="Rectangle_6308" data-name="Rectangle 6308" width="4.988" height="5.985" transform="translate(35.912 51.243)" fill="#1d1d1d"/>
  <rect id="Rectangle_6309" data-name="Rectangle 6309" width="4.988" height="4.988" transform="translate(35.912 57.228)" fill="#1d1d1d"/>
  <rect id="Rectangle_6310" data-name="Rectangle 6310" width="4.988" height="4.988" transform="translate(35.912 62.216)" fill="#1d1d1d"/>
  <rect id="Rectangle_6311" data-name="Rectangle 6311" width="4.988" height="5.985" transform="translate(35.912 77.179)" fill="#1d1d1d"/>
  <rect id="Rectangle_6312" data-name="Rectangle 6312" width="4.988" height="4.988" transform="translate(35.912 88.152)" fill="#1d1d1d"/>
  <rect id="Rectangle_6313" data-name="Rectangle 6313" width="4.988" height="4.988" transform="translate(35.912 93.14)" fill="#1d1d1d"/>
  <rect id="Rectangle_6314" data-name="Rectangle 6314" width="4.988" height="5.985" transform="translate(35.912 103.115)" fill="#1d1d1d"/>
  <rect id="Rectangle_6315" data-name="Rectangle 6315" width="5.985" height="4.988" transform="translate(40.899 5.356)" fill="#1d1d1d"/>
  <rect id="Rectangle_6316" data-name="Rectangle 6316" width="5.985" height="4.988" transform="translate(40.899 10.344)" fill="#1d1d1d"/>
  <rect id="Rectangle_6317" data-name="Rectangle 6317" width="5.985" height="5.985" transform="translate(40.899 20.319)" fill="#1d1d1d"/>
  <rect id="Rectangle_6318" data-name="Rectangle 6318" width="5.985" height="4.988" transform="translate(40.899 31.292)" fill="#1d1d1d"/>
  <rect id="Rectangle_6319" data-name="Rectangle 6319" width="5.985" height="4.988" transform="translate(40.899 36.28)" fill="#1d1d1d"/>
  <rect id="Rectangle_6320" data-name="Rectangle 6320" width="5.985" height="5.985" transform="translate(40.899 51.243)" fill="#1d1d1d"/>
  <rect id="Rectangle_6321" data-name="Rectangle 6321" width="5.985" height="5.985" transform="translate(40.899 77.179)" fill="#1d1d1d"/>
  <rect id="Rectangle_6322" data-name="Rectangle 6322" width="5.985" height="4.988" transform="translate(40.899 83.164)" fill="#1d1d1d"/>
  <rect id="Rectangle_6323" data-name="Rectangle 6323" width="5.985" height="4.988" transform="translate(40.899 88.152)" fill="#1d1d1d"/>
  <rect id="Rectangle_6324" data-name="Rectangle 6324" width="5.985" height="5.985" transform="translate(40.899 103.115)" fill="#1d1d1d"/>
  <rect id="Rectangle_6325" data-name="Rectangle 6325" width="5.985" height="4.988" transform="translate(40.899 114.088)" fill="#1d1d1d"/>
  <rect id="Rectangle_6326" data-name="Rectangle 6326" width="5.985" height="4.988" transform="translate(40.899 124.064)" fill="#1d1d1d"/>
  <rect id="Rectangle_6327" data-name="Rectangle 6327" width="5.985" height="4.988" transform="translate(40.899 129.052)" fill="#1d1d1d"/>
  <rect id="Rectangle_6328" data-name="Rectangle 6328" width="5.985" height="5.985" transform="translate(40.899 134.039)" fill="#1d1d1d"/>
  <rect id="Rectangle_6329" data-name="Rectangle 6329" width="5.985" height="4.988" transform="translate(40.899 140.025)" fill="#1d1d1d"/>
  <rect id="Rectangle_6330" data-name="Rectangle 6330" width="5.985" height="4.988" transform="translate(40.899 145.012)" fill="#1d1d1d"/>
  <rect id="Rectangle_6331" data-name="Rectangle 6331" width="4.988" height="4.988" transform="translate(46.885 0.368)" fill="#1d1d1d"/>
  <rect id="Rectangle_6332" data-name="Rectangle 6332" width="4.988" height="4.988" transform="translate(46.885 5.356)" fill="#1d1d1d"/>
  <rect id="Rectangle_6333" data-name="Rectangle 6333" width="4.988" height="4.988" transform="translate(46.885 15.331)" fill="#1d1d1d"/>
  <rect id="Rectangle_6334" data-name="Rectangle 6334" width="4.988" height="4.988" transform="translate(46.885 26.304)" fill="#1d1d1d"/>
  <rect id="Rectangle_6335" data-name="Rectangle 6335" width="4.988" height="5.985" transform="translate(46.885 51.243)" fill="#1d1d1d"/>
  <rect id="Rectangle_6336" data-name="Rectangle 6336" width="4.988" height="4.988" transform="translate(46.885 57.228)" fill="#1d1d1d"/>
  <rect id="Rectangle_6337" data-name="Rectangle 6337" width="4.988" height="4.988" transform="translate(46.885 72.191)" fill="#1d1d1d"/>
  <rect id="Rectangle_6338" data-name="Rectangle 6338" width="4.988" height="4.988" transform="translate(46.885 114.088)" fill="#1d1d1d"/>
  <rect id="Rectangle_6339" data-name="Rectangle 6339" width="4.988" height="5.985" transform="translate(46.885 134.039)" fill="#1d1d1d"/>
  <rect id="Rectangle_6340" data-name="Rectangle 6340" width="4.988" height="4.988" transform="translate(46.885 145.012)" fill="#1d1d1d"/>
  <rect id="Rectangle_6341" data-name="Rectangle 6341" width="4.988" height="4.988" transform="translate(51.872 5.356)" fill="#1d1d1d"/>
  <rect id="Rectangle_6342" data-name="Rectangle 6342" width="4.988" height="4.988" transform="translate(51.872 15.331)" fill="#1d1d1d"/>
  <rect id="Rectangle_6343" data-name="Rectangle 6343" width="4.988" height="4.988" transform="translate(51.872 26.304)" fill="#1d1d1d"/>
  <rect id="Rectangle_6344" data-name="Rectangle 6344" width="4.988" height="4.988" transform="translate(51.872 31.292)" fill="#1d1d1d"/>
  <rect id="Rectangle_6345" data-name="Rectangle 6345" width="4.988" height="5.985" transform="translate(51.872 51.243)" fill="#1d1d1d"/>
  <rect id="Rectangle_6346" data-name="Rectangle 6346" width="4.988" height="4.988" transform="translate(51.872 67.204)" fill="#1d1d1d"/>
  <rect id="Rectangle_6347" data-name="Rectangle 6347" width="4.988" height="4.988" transform="translate(51.872 72.191)" fill="#1d1d1d"/>
  <rect id="Rectangle_6348" data-name="Rectangle 6348" width="4.988" height="4.988" transform="translate(51.872 88.152)" fill="#1d1d1d"/>
  <rect id="Rectangle_6349" data-name="Rectangle 6349" width="4.988" height="4.988" transform="translate(51.872 124.064)" fill="#1d1d1d"/>
  <rect id="Rectangle_6350" data-name="Rectangle 6350" width="4.988" height="4.988" transform="translate(51.872 129.052)" fill="#1d1d1d"/>
  <rect id="Rectangle_6351" data-name="Rectangle 6351" width="4.988" height="5.985" transform="translate(51.872 134.039)" fill="#1d1d1d"/>
  <rect id="Rectangle_6352" data-name="Rectangle 6352" width="4.988" height="4.988" transform="translate(51.872 140.025)" fill="#1d1d1d"/>
  <rect id="Rectangle_6353" data-name="Rectangle 6353" width="4.988" height="4.988" transform="translate(51.872 145.012)" fill="#1d1d1d"/>
  <rect id="Rectangle_6354" data-name="Rectangle 6354" width="4.988" height="4.988" transform="translate(56.86 0.368)" fill="#1d1d1d"/>
  <rect id="Rectangle_6355" data-name="Rectangle 6355" width="4.988" height="4.988" transform="translate(56.86 5.356)" fill="#1d1d1d"/>
  <rect id="Rectangle_6356" data-name="Rectangle 6356" width="4.988" height="4.988" transform="translate(56.86 15.331)" fill="#1d1d1d"/>
  <rect id="Rectangle_6357" data-name="Rectangle 6357" width="4.988" height="5.985" transform="translate(56.86 20.319)" fill="#1d1d1d"/>
  <rect id="Rectangle_6358" data-name="Rectangle 6358" width="4.988" height="4.988" transform="translate(56.86 26.304)" fill="#1d1d1d"/>
  <rect id="Rectangle_6359" data-name="Rectangle 6359" width="4.988" height="4.988" transform="translate(56.86 41.268)" fill="#1d1d1d"/>
  <rect id="Rectangle_6360" data-name="Rectangle 6360" width="4.988" height="4.988" transform="translate(56.86 46.255)" fill="#1d1d1d"/>
  <rect id="Rectangle_6361" data-name="Rectangle 6361" width="4.988" height="5.985" transform="translate(56.86 51.243)" fill="#1d1d1d"/>
  <rect id="Rectangle_6362" data-name="Rectangle 6362" width="4.988" height="4.988" transform="translate(56.86 62.216)" fill="#1d1d1d"/>
  <rect id="Rectangle_6363" data-name="Rectangle 6363" width="4.988" height="5.985" transform="translate(56.86 77.179)" fill="#1d1d1d"/>
  <rect id="Rectangle_6364" data-name="Rectangle 6364" width="4.988" height="4.988" transform="translate(56.86 88.152)" fill="#1d1d1d"/>
  <rect id="Rectangle_6365" data-name="Rectangle 6365" width="4.988" height="5.985" transform="translate(56.86 103.115)" fill="#1d1d1d"/>
  <rect id="Rectangle_6366" data-name="Rectangle 6366" width="4.988" height="4.988" transform="translate(56.86 109.101)" fill="#1d1d1d"/>
  <rect id="Rectangle_6367" data-name="Rectangle 6367" width="4.988" height="4.988" transform="translate(56.86 114.088)" fill="#1d1d1d"/>
  <rect id="Rectangle_6368" data-name="Rectangle 6368" width="4.988" height="4.988" transform="translate(56.86 140.025)" fill="#1d1d1d"/>
  <rect id="Rectangle_6369" data-name="Rectangle 6369" width="4.988" height="4.988" transform="translate(61.848 0.368)" fill="#1d1d1d"/>
  <rect id="Rectangle_6370" data-name="Rectangle 6370" width="4.988" height="4.988" transform="translate(61.848 5.356)" fill="#1d1d1d"/>
  <rect id="Rectangle_6371" data-name="Rectangle 6371" width="4.988" height="4.988" transform="translate(61.848 15.331)" fill="#1d1d1d"/>
  <rect id="Rectangle_6372" data-name="Rectangle 6372" width="4.988" height="4.988" transform="translate(61.848 26.304)" fill="#1d1d1d"/>
  <rect id="Rectangle_6373" data-name="Rectangle 6373" width="4.988" height="4.988" transform="translate(61.848 31.292)" fill="#1d1d1d"/>
  <rect id="Rectangle_6374" data-name="Rectangle 6374" width="4.988" height="5.985" transform="translate(61.848 51.243)" fill="#1d1d1d"/>
  <rect id="Rectangle_6375" data-name="Rectangle 6375" width="4.988" height="4.988" transform="translate(61.848 57.228)" fill="#1d1d1d"/>
  <rect id="Rectangle_6376" data-name="Rectangle 6376" width="4.988" height="4.988" transform="translate(61.848 62.216)" fill="#1d1d1d"/>
  <rect id="Rectangle_6377" data-name="Rectangle 6377" width="4.988" height="4.988" transform="translate(61.848 67.204)" fill="#1d1d1d"/>
  <rect id="Rectangle_6378" data-name="Rectangle 6378" width="4.988" height="5.985" transform="translate(61.848 77.179)" fill="#1d1d1d"/>
  <rect id="Rectangle_6379" data-name="Rectangle 6379" width="4.988" height="4.988" transform="translate(61.848 83.164)" fill="#1d1d1d"/>
  <rect id="Rectangle_6380" data-name="Rectangle 6380" width="4.988" height="4.988" transform="translate(61.848 88.152)" fill="#1d1d1d"/>
  <rect id="Rectangle_6381" data-name="Rectangle 6381" width="4.988" height="4.988" transform="translate(61.848 98.128)" fill="#1d1d1d"/>
  <rect id="Rectangle_6382" data-name="Rectangle 6382" width="4.988" height="4.988" transform="translate(61.848 114.088)" fill="#1d1d1d"/>
  <rect id="Rectangle_6383" data-name="Rectangle 6383" width="4.988" height="4.988" transform="translate(61.848 119.076)" fill="#1d1d1d"/>
  <rect id="Rectangle_6384" data-name="Rectangle 6384" width="5.985" height="4.988" transform="translate(66.836 5.356)" fill="#1d1d1d"/>
  <rect id="Rectangle_6385" data-name="Rectangle 6385" width="5.985" height="4.988" transform="translate(66.836 15.331)" fill="#1d1d1d"/>
  <rect id="Rectangle_6386" data-name="Rectangle 6386" width="5.985" height="5.985" transform="translate(66.836 20.319)" fill="#1d1d1d"/>
  <rect id="Rectangle_6387" data-name="Rectangle 6387" width="5.985" height="4.988" transform="translate(66.836 41.268)" fill="#1d1d1d"/>
  <rect id="Rectangle_6388" data-name="Rectangle 6388" width="5.985" height="4.988" transform="translate(66.836 57.228)" fill="#1d1d1d"/>
  <rect id="Rectangle_6389" data-name="Rectangle 6389" width="5.985" height="4.988" transform="translate(66.836 62.216)" fill="#1d1d1d"/>
  <rect id="Rectangle_6390" data-name="Rectangle 6390" width="5.985" height="4.988" transform="translate(66.836 72.191)" fill="#1d1d1d"/>
  <rect id="Rectangle_6391" data-name="Rectangle 6391" width="5.985" height="5.985" transform="translate(66.836 77.179)" fill="#1d1d1d"/>
  <rect id="Rectangle_6392" data-name="Rectangle 6392" width="5.985" height="5.985" transform="translate(66.836 103.115)" fill="#1d1d1d"/>
  <rect id="Rectangle_6393" data-name="Rectangle 6393" width="5.985" height="4.988" transform="translate(66.836 109.101)" fill="#1d1d1d"/>
  <rect id="Rectangle_6394" data-name="Rectangle 6394" width="5.985" height="4.988" transform="translate(66.836 114.088)" fill="#1d1d1d"/>
  <rect id="Rectangle_6395" data-name="Rectangle 6395" width="5.985" height="4.988" transform="translate(66.836 119.076)" fill="#1d1d1d"/>
  <rect id="Rectangle_6396" data-name="Rectangle 6396" width="5.985" height="4.988" transform="translate(66.836 140.025)" fill="#1d1d1d"/>
  <rect id="Rectangle_6397" data-name="Rectangle 6397" width="5.985" height="4.988" transform="translate(66.836 145.012)" fill="#1d1d1d"/>
  <rect id="Rectangle_6398" data-name="Rectangle 6398" width="4.988" height="4.988" transform="translate(72.821 5.356)" fill="#1d1d1d"/>
  <rect id="Rectangle_6399" data-name="Rectangle 6399" width="4.988" height="4.988" transform="translate(72.821 10.344)" fill="#1d1d1d"/>
  <rect id="Rectangle_6400" data-name="Rectangle 6400" width="4.988" height="4.988" transform="translate(72.821 15.331)" fill="#1d1d1d"/>
  <rect id="Rectangle_6401" data-name="Rectangle 6401" width="4.988" height="5.985" transform="translate(72.821 20.319)" fill="#1d1d1d"/>
  <rect id="Rectangle_6402" data-name="Rectangle 6402" width="4.988" height="4.988" transform="translate(72.821 31.292)" fill="#1d1d1d"/>
  <rect id="Rectangle_6403" data-name="Rectangle 6403" width="4.988" height="4.988" transform="translate(72.821 36.28)" fill="#1d1d1d"/>
  <rect id="Rectangle_6404" data-name="Rectangle 6404" width="4.988" height="4.988" transform="translate(72.821 41.268)" fill="#1d1d1d"/>
  <rect id="Rectangle_6405" data-name="Rectangle 6405" width="4.988" height="4.988" transform="translate(72.821 72.191)" fill="#1d1d1d"/>
  <rect id="Rectangle_6406" data-name="Rectangle 6406" width="4.988" height="4.988" transform="translate(72.821 88.152)" fill="#1d1d1d"/>
  <rect id="Rectangle_6407" data-name="Rectangle 6407" width="4.988" height="4.988" transform="translate(72.821 93.14)" fill="#1d1d1d"/>
  <rect id="Rectangle_6408" data-name="Rectangle 6408" width="4.988" height="4.988" transform="translate(72.821 119.076)" fill="#1d1d1d"/>
  <rect id="Rectangle_6409" data-name="Rectangle 6409" width="4.988" height="5.985" transform="translate(72.821 134.039)" fill="#1d1d1d"/>
  <rect id="Rectangle_6410" data-name="Rectangle 6410" width="4.988" height="4.988" transform="translate(72.821 140.025)" fill="#1d1d1d"/>
  <rect id="Rectangle_6411" data-name="Rectangle 6411" width="4.988" height="4.988" transform="translate(72.821 145.012)" fill="#1d1d1d"/>
  <rect id="Rectangle_6412" data-name="Rectangle 6412" width="4.988" height="4.988" transform="translate(77.809 10.344)" fill="#1d1d1d"/>
  <rect id="Rectangle_6413" data-name="Rectangle 6413" width="4.988" height="4.988" transform="translate(77.809 15.331)" fill="#1d1d1d"/>
  <rect id="Rectangle_6414" data-name="Rectangle 6414" width="4.988" height="4.988" transform="translate(77.809 41.268)" fill="#1d1d1d"/>
  <rect id="Rectangle_6415" data-name="Rectangle 6415" width="4.988" height="4.988" transform="translate(77.809 46.255)" fill="#1d1d1d"/>
  <rect id="Rectangle_6416" data-name="Rectangle 6416" width="4.988" height="5.985" transform="translate(77.809 51.243)" fill="#1d1d1d"/>
  <rect id="Rectangle_6417" data-name="Rectangle 6417" width="4.988" height="4.988" transform="translate(77.809 57.228)" fill="#1d1d1d"/>
  <rect id="Rectangle_6418" data-name="Rectangle 6418" width="4.988" height="4.988" transform="translate(77.809 62.216)" fill="#1d1d1d"/>
  <rect id="Rectangle_6419" data-name="Rectangle 6419" width="4.988" height="4.988" transform="translate(77.809 88.152)" fill="#1d1d1d"/>
  <rect id="Rectangle_6420" data-name="Rectangle 6420" width="4.988" height="4.988" transform="translate(77.809 93.14)" fill="#1d1d1d"/>
  <rect id="Rectangle_6421" data-name="Rectangle 6421" width="4.988" height="5.985" transform="translate(77.809 103.115)" fill="#1d1d1d"/>
  <rect id="Rectangle_6422" data-name="Rectangle 6422" width="4.988" height="4.988" transform="translate(77.809 119.076)" fill="#1d1d1d"/>
  <rect id="Rectangle_6423" data-name="Rectangle 6423" width="4.988" height="4.988" transform="translate(82.796 10.344)" fill="#1d1d1d"/>
  <rect id="Rectangle_6424" data-name="Rectangle 6424" width="4.988" height="4.988" transform="translate(82.796 31.292)" fill="#1d1d1d"/>
  <rect id="Rectangle_6425" data-name="Rectangle 6425" width="4.988" height="4.988" transform="translate(82.796 36.28)" fill="#1d1d1d"/>
  <rect id="Rectangle_6426" data-name="Rectangle 6426" width="4.988" height="4.988" transform="translate(82.796 57.228)" fill="#1d1d1d"/>
  <rect id="Rectangle_6427" data-name="Rectangle 6427" width="4.988" height="4.988" transform="translate(82.796 62.216)" fill="#1d1d1d"/>
  <rect id="Rectangle_6428" data-name="Rectangle 6428" width="4.988" height="5.985" transform="translate(82.796 77.179)" fill="#1d1d1d"/>
  <rect id="Rectangle_6429" data-name="Rectangle 6429" width="4.988" height="4.988" transform="translate(82.796 88.152)" fill="#1d1d1d"/>
  <rect id="Rectangle_6430" data-name="Rectangle 6430" width="4.988" height="4.988" transform="translate(82.796 93.14)" fill="#1d1d1d"/>
  <rect id="Rectangle_6431" data-name="Rectangle 6431" width="4.988" height="5.985" transform="translate(82.796 103.115)" fill="#1d1d1d"/>
  <rect id="Rectangle_6432" data-name="Rectangle 6432" width="4.988" height="4.988" transform="translate(82.796 114.088)" fill="#1d1d1d"/>
  <rect id="Rectangle_6433" data-name="Rectangle 6433" width="4.988" height="4.988" transform="translate(82.796 119.076)" fill="#1d1d1d"/>
  <rect id="Rectangle_6434" data-name="Rectangle 6434" width="4.988" height="4.988" transform="translate(82.796 129.052)" fill="#1d1d1d"/>
  <rect id="Rectangle_6435" data-name="Rectangle 6435" width="4.988" height="4.988" transform="translate(82.796 140.025)" fill="#1d1d1d"/>
  <rect id="Rectangle_6436" data-name="Rectangle 6436" width="4.988" height="4.988" transform="translate(82.796 145.012)" fill="#1d1d1d"/>
  <rect id="Rectangle_6437" data-name="Rectangle 6437" width="4.988" height="4.988" transform="translate(87.784 5.356)" fill="#1d1d1d"/>
  <rect id="Rectangle_6438" data-name="Rectangle 6438" width="4.988" height="4.988" transform="translate(87.784 10.344)" fill="#1d1d1d"/>
  <rect id="Rectangle_6439" data-name="Rectangle 6439" width="4.988" height="4.988" transform="translate(87.784 26.304)" fill="#1d1d1d"/>
  <rect id="Rectangle_6440" data-name="Rectangle 6440" width="4.988" height="4.988" transform="translate(87.784 46.255)" fill="#1d1d1d"/>
  <rect id="Rectangle_6441" data-name="Rectangle 6441" width="4.988" height="5.985" transform="translate(87.784 51.243)" fill="#1d1d1d"/>
  <rect id="Rectangle_6442" data-name="Rectangle 6442" width="4.988" height="4.988" transform="translate(87.784 57.228)" fill="#1d1d1d"/>
  <rect id="Rectangle_6443" data-name="Rectangle 6443" width="4.988" height="4.988" transform="translate(87.784 62.216)" fill="#1d1d1d"/>
  <rect id="Rectangle_6444" data-name="Rectangle 6444" width="4.988" height="4.988" transform="translate(87.784 72.191)" fill="#1d1d1d"/>
  <rect id="Rectangle_6445" data-name="Rectangle 6445" width="4.988" height="5.985" transform="translate(87.784 77.179)" fill="#1d1d1d"/>
  <rect id="Rectangle_6446" data-name="Rectangle 6446" width="4.988" height="4.988" transform="translate(87.784 88.152)" fill="#1d1d1d"/>
  <rect id="Rectangle_6447" data-name="Rectangle 6447" width="4.988" height="5.985" transform="translate(87.784 103.115)" fill="#1d1d1d"/>
  <rect id="Rectangle_6448" data-name="Rectangle 6448" width="4.988" height="4.988" transform="translate(87.784 109.101)" fill="#1d1d1d"/>
  <rect id="Rectangle_6449" data-name="Rectangle 6449" width="4.988" height="4.988" transform="translate(87.784 114.088)" fill="#1d1d1d"/>
  <rect id="Rectangle_6450" data-name="Rectangle 6450" width="4.988" height="4.988" transform="translate(87.784 129.052)" fill="#1d1d1d"/>
  <rect id="Rectangle_6451" data-name="Rectangle 6451" width="4.988" height="4.988" transform="translate(87.784 140.025)" fill="#1d1d1d"/>
  <rect id="Rectangle_6452" data-name="Rectangle 6452" width="4.988" height="4.988" transform="translate(87.784 145.012)" fill="#1d1d1d"/>
  <rect id="Rectangle_6453" data-name="Rectangle 6453" width="5.985" height="4.988" transform="translate(92.772 0.368)" fill="#1d1d1d"/>
  <rect id="Rectangle_6454" data-name="Rectangle 6454" width="5.985" height="4.988" transform="translate(92.772 15.331)" fill="#1d1d1d"/>
  <rect id="Rectangle_6455" data-name="Rectangle 6455" width="5.985" height="5.985" transform="translate(92.772 20.319)" fill="#1d1d1d"/>
  <rect id="Rectangle_6456" data-name="Rectangle 6456" width="5.985" height="4.988" transform="translate(92.772 26.304)" fill="#1d1d1d"/>
  <rect id="Rectangle_6457" data-name="Rectangle 6457" width="5.985" height="4.988" transform="translate(92.772 31.292)" fill="#1d1d1d"/>
  <rect id="Rectangle_6458" data-name="Rectangle 6458" width="5.985" height="4.988" transform="translate(92.772 41.268)" fill="#1d1d1d"/>
  <rect id="Rectangle_6459" data-name="Rectangle 6459" width="5.985" height="4.988" transform="translate(92.772 46.255)" fill="#1d1d1d"/>
  <rect id="Rectangle_6460" data-name="Rectangle 6460" width="5.985" height="5.985" transform="translate(92.772 51.243)" fill="#1d1d1d"/>
  <rect id="Rectangle_6461" data-name="Rectangle 6461" width="5.985" height="4.988" transform="translate(92.772 67.204)" fill="#1d1d1d"/>
  <rect id="Rectangle_6462" data-name="Rectangle 6462" width="5.985" height="4.988" transform="translate(92.772 72.191)" fill="#1d1d1d"/>
  <rect id="Rectangle_6463" data-name="Rectangle 6463" width="5.985" height="4.988" transform="translate(92.772 93.14)" fill="#1d1d1d"/>
  <rect id="Rectangle_6464" data-name="Rectangle 6464" width="5.985" height="4.988" transform="translate(92.772 109.101)" fill="#1d1d1d"/>
  <rect id="Rectangle_6465" data-name="Rectangle 6465" width="5.985" height="4.988" transform="translate(92.772 119.076)" fill="#1d1d1d"/>
  <rect id="Rectangle_6466" data-name="Rectangle 6466" width="5.985" height="4.988" transform="translate(92.772 124.064)" fill="#1d1d1d"/>
  <rect id="Rectangle_6467" data-name="Rectangle 6467" width="5.985" height="4.988" transform="translate(92.772 129.052)" fill="#1d1d1d"/>
  <rect id="Rectangle_6468" data-name="Rectangle 6468" width="5.985" height="5.985" transform="translate(92.772 134.039)" fill="#1d1d1d"/>
  <rect id="Rectangle_6469" data-name="Rectangle 6469" width="5.985" height="4.988" transform="translate(92.772 140.025)" fill="#1d1d1d"/>
  <rect id="Rectangle_6470" data-name="Rectangle 6470" width="5.985" height="4.988" transform="translate(92.772 145.012)" fill="#1d1d1d"/>
  <rect id="Rectangle_6471" data-name="Rectangle 6471" width="4.988" height="4.988" transform="translate(98.757 5.356)" fill="#1d1d1d"/>
  <rect id="Rectangle_6472" data-name="Rectangle 6472" width="4.988" height="4.988" transform="translate(98.757 10.344)" fill="#1d1d1d"/>
  <rect id="Rectangle_6473" data-name="Rectangle 6473" width="4.988" height="5.985" transform="translate(98.757 51.243)" fill="#1d1d1d"/>
  <rect id="Rectangle_6474" data-name="Rectangle 6474" width="4.988" height="4.988" transform="translate(98.757 72.191)" fill="#1d1d1d"/>
  <rect id="Rectangle_6475" data-name="Rectangle 6475" width="4.988" height="5.985" transform="translate(98.757 77.179)" fill="#1d1d1d"/>
  <rect id="Rectangle_6476" data-name="Rectangle 6476" width="4.988" height="4.988" transform="translate(98.757 88.152)" fill="#1d1d1d"/>
  <rect id="Rectangle_6477" data-name="Rectangle 6477" width="4.988" height="4.988" transform="translate(98.757 93.14)" fill="#1d1d1d"/>
  <rect id="Rectangle_6478" data-name="Rectangle 6478" width="4.988" height="4.988" transform="translate(98.757 114.088)" fill="#1d1d1d"/>
  <rect id="Rectangle_6479" data-name="Rectangle 6479" width="4.988" height="4.988" transform="translate(98.757 119.076)" fill="#1d1d1d"/>
  <rect id="Rectangle_6480" data-name="Rectangle 6480" width="4.988" height="4.988" transform="translate(98.757 124.064)" fill="#1d1d1d"/>
  <rect id="Rectangle_6481" data-name="Rectangle 6481" width="4.988" height="4.988" transform="translate(98.757 140.025)" fill="#1d1d1d"/>
  <rect id="Rectangle_6482" data-name="Rectangle 6482" width="4.988" height="4.988" transform="translate(98.757 145.012)" fill="#1d1d1d"/>
  <rect id="Rectangle_6483" data-name="Rectangle 6483" width="4.988" height="4.988" transform="translate(103.745 0.368)" fill="#1d1d1d"/>
  <rect id="Rectangle_6484" data-name="Rectangle 6484" width="4.988" height="4.988" transform="translate(103.745 31.292)" fill="#1d1d1d"/>
  <rect id="Rectangle_6485" data-name="Rectangle 6485" width="4.988" height="4.988" transform="translate(103.745 83.164)" fill="#1d1d1d"/>
  <rect id="Rectangle_6486" data-name="Rectangle 6486" width="4.988" height="4.988" transform="translate(103.745 88.152)" fill="#1d1d1d"/>
  <rect id="Rectangle_6487" data-name="Rectangle 6487" width="4.988" height="5.985" transform="translate(103.745 103.115)" fill="#1d1d1d"/>
  <rect id="Rectangle_6488" data-name="Rectangle 6488" width="4.988" height="4.988" transform="translate(103.745 109.101)" fill="#1d1d1d"/>
  <rect id="Rectangle_6489" data-name="Rectangle 6489" width="4.988" height="4.988" transform="translate(103.745 114.088)" fill="#1d1d1d"/>
  <rect id="Rectangle_6490" data-name="Rectangle 6490" width="4.988" height="4.988" transform="translate(103.745 119.076)" fill="#1d1d1d"/>
  <rect id="Rectangle_6491" data-name="Rectangle 6491" width="4.988" height="4.988" transform="translate(103.745 124.064)" fill="#1d1d1d"/>
  <rect id="Rectangle_6492" data-name="Rectangle 6492" width="4.988" height="4.988" transform="translate(103.745 140.025)" fill="#1d1d1d"/>
  <rect id="Rectangle_6493" data-name="Rectangle 6493" width="4.988" height="4.988" transform="translate(108.732 41.268)" fill="#1d1d1d"/>
  <rect id="Rectangle_6494" data-name="Rectangle 6494" width="4.988" height="4.988" transform="translate(108.732 46.255)" fill="#1d1d1d"/>
  <rect id="Rectangle_6495" data-name="Rectangle 6495" width="4.988" height="4.988" transform="translate(108.732 67.204)" fill="#1d1d1d"/>
  <rect id="Rectangle_6496" data-name="Rectangle 6496" width="4.988" height="4.988" transform="translate(108.732 72.191)" fill="#1d1d1d"/>
  <rect id="Rectangle_6497" data-name="Rectangle 6497" width="4.988" height="4.988" transform="translate(108.732 83.164)" fill="#1d1d1d"/>
  <rect id="Rectangle_6498" data-name="Rectangle 6498" width="4.988" height="5.985" transform="translate(108.732 103.115)" fill="#1d1d1d"/>
  <rect id="Rectangle_6499" data-name="Rectangle 6499" width="4.988" height="4.988" transform="translate(108.732 124.064)" fill="#1d1d1d"/>
  <rect id="Rectangle_6500" data-name="Rectangle 6500" width="4.988" height="4.988" transform="translate(108.732 145.012)" fill="#1d1d1d"/>
  <rect id="Rectangle_6501" data-name="Rectangle 6501" width="4.988" height="4.988" transform="translate(113.72 41.268)" fill="#1d1d1d"/>
  <rect id="Rectangle_6502" data-name="Rectangle 6502" width="4.988" height="4.988" transform="translate(113.72 46.255)" fill="#1d1d1d"/>
  <rect id="Rectangle_6503" data-name="Rectangle 6503" width="4.988" height="4.988" transform="translate(113.72 62.216)" fill="#1d1d1d"/>
  <rect id="Rectangle_6504" data-name="Rectangle 6504" width="4.988" height="4.988" transform="translate(113.72 72.191)" fill="#1d1d1d"/>
  <rect id="Rectangle_6505" data-name="Rectangle 6505" width="4.988" height="4.988" transform="translate(113.72 83.164)" fill="#1d1d1d"/>
  <rect id="Rectangle_6506" data-name="Rectangle 6506" width="4.988" height="4.988" transform="translate(113.72 88.152)" fill="#1d1d1d"/>
  <rect id="Rectangle_6507" data-name="Rectangle 6507" width="4.988" height="4.988" transform="translate(113.72 98.128)" fill="#1d1d1d"/>
  <rect id="Rectangle_6508" data-name="Rectangle 6508" width="4.988" height="5.985" transform="translate(113.72 103.115)" fill="#1d1d1d"/>
  <rect id="Rectangle_6509" data-name="Rectangle 6509" width="4.988" height="4.988" transform="translate(113.72 114.088)" fill="#1d1d1d"/>
  <rect id="Rectangle_6510" data-name="Rectangle 6510" width="4.988" height="4.988" transform="translate(113.72 124.064)" fill="#1d1d1d"/>
  <rect id="Rectangle_6511" data-name="Rectangle 6511" width="4.988" height="5.985" transform="translate(113.72 134.039)" fill="#1d1d1d"/>
  <rect id="Rectangle_6512" data-name="Rectangle 6512" width="4.988" height="4.988" transform="translate(113.72 140.025)" fill="#1d1d1d"/>
  <rect id="Rectangle_6513" data-name="Rectangle 6513" width="4.988" height="4.988" transform="translate(113.72 145.012)" fill="#1d1d1d"/>
  <rect id="Rectangle_6514" data-name="Rectangle 6514" width="4.988" height="4.988" transform="translate(118.708 57.228)" fill="#1d1d1d"/>
  <rect id="Rectangle_6515" data-name="Rectangle 6515" width="4.988" height="5.985" transform="translate(118.708 77.179)" fill="#1d1d1d"/>
  <rect id="Rectangle_6516" data-name="Rectangle 6516" width="4.988" height="4.988" transform="translate(118.708 83.164)" fill="#1d1d1d"/>
  <rect id="Rectangle_6517" data-name="Rectangle 6517" width="4.988" height="4.988" transform="translate(118.708 88.152)" fill="#1d1d1d"/>
  <rect id="Rectangle_6518" data-name="Rectangle 6518" width="4.988" height="4.988" transform="translate(118.708 93.14)" fill="#1d1d1d"/>
  <rect id="Rectangle_6519" data-name="Rectangle 6519" width="4.988" height="5.985" transform="translate(118.708 103.115)" fill="#1d1d1d"/>
  <rect id="Rectangle_6520" data-name="Rectangle 6520" width="4.988" height="4.988" transform="translate(118.708 124.064)" fill="#1d1d1d"/>
  <rect id="Rectangle_6521" data-name="Rectangle 6521" width="4.988" height="4.988" transform="translate(118.708 140.025)" fill="#1d1d1d"/>
  <rect id="Rectangle_6522" data-name="Rectangle 6522" width="5.985" height="4.988" transform="translate(123.696 41.268)" fill="#1d1d1d"/>
  <rect id="Rectangle_6523" data-name="Rectangle 6523" width="5.985" height="4.988" transform="translate(123.696 46.255)" fill="#1d1d1d"/>
  <rect id="Rectangle_6524" data-name="Rectangle 6524" width="5.985" height="5.985" transform="translate(123.696 51.243)" fill="#1d1d1d"/>
  <rect id="Rectangle_6525" data-name="Rectangle 6525" width="5.985" height="4.988" transform="translate(123.696 57.228)" fill="#1d1d1d"/>
  <rect id="Rectangle_6526" data-name="Rectangle 6526" width="5.985" height="4.988" transform="translate(123.696 62.216)" fill="#1d1d1d"/>
  <rect id="Rectangle_6527" data-name="Rectangle 6527" width="5.985" height="4.988" transform="translate(123.696 67.204)" fill="#1d1d1d"/>
  <rect id="Rectangle_6528" data-name="Rectangle 6528" width="5.985" height="4.988" transform="translate(123.696 83.164)" fill="#1d1d1d"/>
  <rect id="Rectangle_6529" data-name="Rectangle 6529" width="5.985" height="4.988" transform="translate(123.696 93.14)" fill="#1d1d1d"/>
  <rect id="Rectangle_6530" data-name="Rectangle 6530" width="5.985" height="5.985" transform="translate(123.696 103.115)" fill="#1d1d1d"/>
  <rect id="Rectangle_6531" data-name="Rectangle 6531" width="5.985" height="4.988" transform="translate(123.696 109.101)" fill="#1d1d1d"/>
  <rect id="Rectangle_6532" data-name="Rectangle 6532" width="5.985" height="4.988" transform="translate(123.696 114.088)" fill="#1d1d1d"/>
  <rect id="Rectangle_6533" data-name="Rectangle 6533" width="5.985" height="4.988" transform="translate(123.696 119.076)" fill="#1d1d1d"/>
  <rect id="Rectangle_6534" data-name="Rectangle 6534" width="5.985" height="4.988" transform="translate(123.696 124.064)" fill="#1d1d1d"/>
  <rect id="Rectangle_6535" data-name="Rectangle 6535" width="5.985" height="4.988" transform="translate(123.696 129.052)" fill="#1d1d1d"/>
  <rect id="Rectangle_6536" data-name="Rectangle 6536" width="4.988" height="4.988" transform="translate(129.681 46.255)" fill="#1d1d1d"/>
  <rect id="Rectangle_6537" data-name="Rectangle 6537" width="4.988" height="5.985" transform="translate(129.681 51.243)" fill="#1d1d1d"/>
  <rect id="Rectangle_6538" data-name="Rectangle 6538" width="4.988" height="4.988" transform="translate(129.681 67.204)" fill="#1d1d1d"/>
  <rect id="Rectangle_6539" data-name="Rectangle 6539" width="4.988" height="4.988" transform="translate(129.681 72.191)" fill="#1d1d1d"/>
  <rect id="Rectangle_6540" data-name="Rectangle 6540" width="4.988" height="5.985" transform="translate(129.681 77.179)" fill="#1d1d1d"/>
  <rect id="Rectangle_6541" data-name="Rectangle 6541" width="4.988" height="4.988" transform="translate(129.681 83.164)" fill="#1d1d1d"/>
  <rect id="Rectangle_6542" data-name="Rectangle 6542" width="4.988" height="5.985" transform="translate(129.681 103.115)" fill="#1d1d1d"/>
  <rect id="Rectangle_6543" data-name="Rectangle 6543" width="4.988" height="4.988" transform="translate(129.681 109.101)" fill="#1d1d1d"/>
  <rect id="Rectangle_6544" data-name="Rectangle 6544" width="4.988" height="4.988" transform="translate(129.681 124.064)" fill="#1d1d1d"/>
  <rect id="Rectangle_6545" data-name="Rectangle 6545" width="4.988" height="5.985" transform="translate(129.681 134.039)" fill="#1d1d1d"/>
  <rect id="Rectangle_6546" data-name="Rectangle 6546" width="4.988" height="4.988" transform="translate(134.669 41.268)" fill="#1d1d1d"/>
  <rect id="Rectangle_6547" data-name="Rectangle 6547" width="4.988" height="4.988" transform="translate(134.669 46.255)" fill="#1d1d1d"/>
  <rect id="Rectangle_6548" data-name="Rectangle 6548" width="4.988" height="5.985" transform="translate(134.669 51.243)" fill="#1d1d1d"/>
  <rect id="Rectangle_6549" data-name="Rectangle 6549" width="4.988" height="4.988" transform="translate(134.669 62.216)" fill="#1d1d1d"/>
  <rect id="Rectangle_6550" data-name="Rectangle 6550" width="4.988" height="4.988" transform="translate(134.669 67.204)" fill="#1d1d1d"/>
  <rect id="Rectangle_6551" data-name="Rectangle 6551" width="4.988" height="5.985" transform="translate(134.669 77.179)" fill="#1d1d1d"/>
  <rect id="Rectangle_6552" data-name="Rectangle 6552" width="4.988" height="4.988" transform="translate(134.669 83.164)" fill="#1d1d1d"/>
  <rect id="Rectangle_6553" data-name="Rectangle 6553" width="4.988" height="4.988" transform="translate(134.669 93.14)" fill="#1d1d1d"/>
  <rect id="Rectangle_6554" data-name="Rectangle 6554" width="4.988" height="4.988" transform="translate(134.669 98.128)" fill="#1d1d1d"/>
  <rect id="Rectangle_6555" data-name="Rectangle 6555" width="4.988" height="4.988" transform="translate(134.669 119.076)" fill="#1d1d1d"/>
  <rect id="Rectangle_6556" data-name="Rectangle 6556" width="4.988" height="4.988" transform="translate(134.669 124.064)" fill="#1d1d1d"/>
  <rect id="Rectangle_6557" data-name="Rectangle 6557" width="4.988" height="4.988" transform="translate(134.669 145.012)" fill="#1d1d1d"/>
  <rect id="Rectangle_6558" data-name="Rectangle 6558" width="4.988" height="4.988" transform="translate(139.656 41.268)" fill="#1d1d1d"/>
  <rect id="Rectangle_6559" data-name="Rectangle 6559" width="4.988" height="4.988" transform="translate(139.656 46.255)" fill="#1d1d1d"/>
  <rect id="Rectangle_6560" data-name="Rectangle 6560" width="4.988" height="5.985" transform="translate(139.656 51.243)" fill="#1d1d1d"/>
  <rect id="Rectangle_6561" data-name="Rectangle 6561" width="4.988" height="4.988" transform="translate(139.656 62.216)" fill="#1d1d1d"/>
  <rect id="Rectangle_6562" data-name="Rectangle 6562" width="4.988" height="4.988" transform="translate(139.656 72.191)" fill="#1d1d1d"/>
  <rect id="Rectangle_6563" data-name="Rectangle 6563" width="4.988" height="4.988" transform="translate(139.656 83.164)" fill="#1d1d1d"/>
  <rect id="Rectangle_6564" data-name="Rectangle 6564" width="4.988" height="4.988" transform="translate(139.656 88.152)" fill="#1d1d1d"/>
  <rect id="Rectangle_6565" data-name="Rectangle 6565" width="4.988" height="4.988" transform="translate(139.656 93.14)" fill="#1d1d1d"/>
  <rect id="Rectangle_6566" data-name="Rectangle 6566" width="4.988" height="4.988" transform="translate(139.656 98.128)" fill="#1d1d1d"/>
  <rect id="Rectangle_6567" data-name="Rectangle 6567" width="4.988" height="5.985" transform="translate(139.656 103.115)" fill="#1d1d1d"/>
  <rect id="Rectangle_6568" data-name="Rectangle 6568" width="4.988" height="4.988" transform="translate(139.656 114.088)" fill="#1d1d1d"/>
  <rect id="Rectangle_6569" data-name="Rectangle 6569" width="4.988" height="4.988" transform="translate(139.656 119.076)" fill="#1d1d1d"/>
  <rect id="Rectangle_6570" data-name="Rectangle 6570" width="4.988" height="4.988" transform="translate(139.656 140.025)" fill="#1d1d1d"/>
  <rect id="Rectangle_6571" data-name="Rectangle 6571" width="4.988" height="4.988" transform="translate(144.644 62.216)" fill="#1d1d1d"/>
  <rect id="Rectangle_6572" data-name="Rectangle 6572" width="4.988" height="5.985" transform="translate(144.644 77.179)" fill="#1d1d1d"/>
  <rect id="Rectangle_6573" data-name="Rectangle 6573" width="4.988" height="4.988" transform="translate(144.644 83.164)" fill="#1d1d1d"/>
  <rect id="Rectangle_6574" data-name="Rectangle 6574" width="4.988" height="4.988" transform="translate(144.644 88.152)" fill="#1d1d1d"/>
  <rect id="Rectangle_6575" data-name="Rectangle 6575" width="4.988" height="4.988" transform="translate(144.644 98.128)" fill="#1d1d1d"/>
  <rect id="Rectangle_6576" data-name="Rectangle 6576" width="4.988" height="5.985" transform="translate(144.644 103.115)" fill="#1d1d1d"/>
  <rect id="Rectangle_6577" data-name="Rectangle 6577" width="4.988" height="4.988" transform="translate(144.644 124.064)" fill="#1d1d1d"/>
  <rect id="Rectangle_6578" data-name="Rectangle 6578" width="4.988" height="4.988" transform="translate(144.644 140.025)" fill="#1d1d1d"/>
  <rect id="Rectangle_6579" data-name="Rectangle 6579" width="4.988" height="4.988" transform="translate(144.644 145.012)" fill="#1d1d1d"/>
  <path id="Path_78540" data-name="Path 78540" d="M5.172,5.172H31.034V31.034H5.172ZM0,36.207H36.207V0H0Z" fill="#1d1d1d"/>
  <rect id="Rectangle_6580" data-name="Rectangle 6580" width="5.985" height="4.988" transform="translate(9.975 10.344)" fill="#1d1d1d"/>
  <rect id="Rectangle_6581" data-name="Rectangle 6581" width="5.985" height="4.988" transform="translate(9.975 15.331)" fill="#1d1d1d"/>
  <rect id="Rectangle_6582" data-name="Rectangle 6582" width="5.985" height="5.985" transform="translate(9.975 20.319)" fill="#1d1d1d"/>
  <rect id="Rectangle_6583" data-name="Rectangle 6583" width="4.988" height="4.988" transform="translate(15.961 10.344)" fill="#1d1d1d"/>
  <rect id="Rectangle_6584" data-name="Rectangle 6584" width="4.988" height="4.988" transform="translate(15.961 15.331)" fill="#1d1d1d"/>
  <rect id="Rectangle_6585" data-name="Rectangle 6585" width="4.988" height="5.985" transform="translate(15.961 20.319)" fill="#1d1d1d"/>
  <rect id="Rectangle_6586" data-name="Rectangle 6586" width="4.988" height="4.988" transform="translate(20.948 10.344)" fill="#1d1d1d"/>
  <rect id="Rectangle_6587" data-name="Rectangle 6587" width="4.988" height="4.988" transform="translate(20.948 15.331)" fill="#1d1d1d"/>
  <rect id="Rectangle_6588" data-name="Rectangle 6588" width="4.988" height="5.985" transform="translate(20.948 20.319)" fill="#1d1d1d"/>
  <path id="Path_78541" data-name="Path 78541" d="M225.172,5.172h25.862V31.034H225.172ZM220,36.207h36.207V0H220Z" transform="translate(-106.207)" fill="#1d1d1d"/>
  <rect id="Rectangle_6589" data-name="Rectangle 6589" width="5.985" height="4.988" transform="translate(123.696 10.344)" fill="#1d1d1d"/>
  <rect id="Rectangle_6590" data-name="Rectangle 6590" width="5.985" height="4.988" transform="translate(123.696 15.331)" fill="#1d1d1d"/>
  <rect id="Rectangle_6591" data-name="Rectangle 6591" width="5.985" height="5.985" transform="translate(123.696 20.319)" fill="#1d1d1d"/>
  <rect id="Rectangle_6592" data-name="Rectangle 6592" width="4.988" height="4.988" transform="translate(129.681 10.344)" fill="#1d1d1d"/>
  <rect id="Rectangle_6593" data-name="Rectangle 6593" width="4.988" height="4.988" transform="translate(129.681 15.331)" fill="#1d1d1d"/>
  <rect id="Rectangle_6594" data-name="Rectangle 6594" width="4.988" height="5.985" transform="translate(129.681 20.319)" fill="#1d1d1d"/>
  <rect id="Rectangle_6595" data-name="Rectangle 6595" width="4.988" height="4.988" transform="translate(134.669 10.344)" fill="#1d1d1d"/>
  <rect id="Rectangle_6596" data-name="Rectangle 6596" width="4.988" height="4.988" transform="translate(134.669 15.331)" fill="#1d1d1d"/>
  <rect id="Rectangle_6597" data-name="Rectangle 6597" width="4.988" height="5.985" transform="translate(134.669 20.319)" fill="#1d1d1d"/>
  <path id="Path_78542" data-name="Path 78542" d="M5.172,225.172H31.034v25.862H5.172ZM0,256.207H36.207V220H0Z" transform="translate(0 -106.207)" fill="#1d1d1d"/>
  <rect id="Rectangle_6598" data-name="Rectangle 6598" width="5.985" height="4.988" transform="translate(9.975 124.064)" fill="#1d1d1d"/>
  <rect id="Rectangle_6599" data-name="Rectangle 6599" width="5.985" height="4.988" transform="translate(9.975 129.052)" fill="#1d1d1d"/>
  <rect id="Rectangle_6600" data-name="Rectangle 6600" width="5.985" height="5.985" transform="translate(9.975 134.039)" fill="#1d1d1d"/>
  <rect id="Rectangle_6601" data-name="Rectangle 6601" width="4.988" height="4.988" transform="translate(15.961 124.064)" fill="#1d1d1d"/>
  <rect id="Rectangle_6602" data-name="Rectangle 6602" width="4.988" height="4.988" transform="translate(15.961 129.052)" fill="#1d1d1d"/>
  <rect id="Rectangle_6603" data-name="Rectangle 6603" width="4.988" height="5.985" transform="translate(15.961 134.039)" fill="#1d1d1d"/>
  <rect id="Rectangle_6604" data-name="Rectangle 6604" width="4.988" height="4.988" transform="translate(20.948 124.064)" fill="#1d1d1d"/>
  <rect id="Rectangle_6605" data-name="Rectangle 6605" width="4.988" height="4.988" transform="translate(20.948 129.052)" fill="#1d1d1d"/>
  <rect id="Rectangle_6606" data-name="Rectangle 6606" width="4.988" height="5.985" transform="translate(20.948 134.039)" fill="#1d1d1d"/>
</svg>
