<svg id="illustration_refine-message" xmlns="http://www.w3.org/2000/svg" width="156.282" height="153.568" viewBox="0 0 156.282 153.568">
  <g id="Group_15490" data-name="Group 15490" transform="translate(-221.546 -329.349)">
    <path id="Path_70946" data-name="Path 70946" d="M281.279,329.467a.024.024,0,0,0,.024-.024.024.024,0,0,0-.048,0A.024.024,0,0,0,281.279,329.467Z" fill="#e5e5e5"/>
    <circle id="Ellipse_2045" data-name="Ellipse 2045" cx="0.071" cy="0.071" r="0.071" transform="translate(289.728 329.372)" fill="#e5e5e5"/>
    <path id="Path_70947" data-name="Path 70947" d="M298.318,329.538a.094.094,0,1,0-.094-.1A.094.094,0,0,0,298.318,329.538Z" fill="#e5e5e5"/>
    <circle id="Ellipse_2046" data-name="Ellipse 2046" cx="0.071" cy="0.071" r="0.071" transform="translate(306.767 329.372)" fill="#e5e5e5"/>
    <path id="Path_70948" data-name="Path 70948" d="M315.358,329.467a.024.024,0,0,0,.024-.024.024.024,0,0,0-.048,0A.024.024,0,0,0,315.358,329.467Z" fill="#e5e5e5"/>
    <circle id="Ellipse_2047" data-name="Ellipse 2047" cx="0.118" cy="0.118" r="0.118" transform="translate(264.121 337.845)" fill="#e5e5e5"/>
    <path id="Path_70949" data-name="Path 70949" d="M272.759,338.317a.354.354,0,1,0-.354-.354A.354.354,0,0,0,272.759,338.317Z" fill="#e5e5e5"/>
    <path id="Path_70950" data-name="Path 70950" d="M281.279,338.6a.638.638,0,1,0-.638-.638A.638.638,0,0,0,281.279,338.6Z" fill="#e5e5e5"/>
    <path id="Path_70951" data-name="Path 70951" d="M289.8,338.766a.8.8,0,1,0-.8-.8A.8.8,0,0,0,289.8,338.766Z" fill="#e5e5e5"/>
    <path id="Path_70952" data-name="Path 70952" d="M298.318,338.814a.85.85,0,1,0-.85-.851A.851.851,0,0,0,298.318,338.814Z" fill="#e5e5e5"/>
    <path id="Path_70953" data-name="Path 70953" d="M306.838,338.766a.8.8,0,1,0-.8-.8A.8.8,0,0,0,306.838,338.766Z" fill="#e5e5e5"/>
    <path id="Path_70954" data-name="Path 70954" d="M315.358,338.6a.638.638,0,1,0-.638-.638A.638.638,0,0,0,315.358,338.6Z" fill="#e5e5e5"/>
    <circle id="Ellipse_2048" data-name="Ellipse 2048" cx="0.378" cy="0.378" r="0.378" transform="translate(323.5 337.585)" fill="#e5e5e5"/>
    <circle id="Ellipse_2049" data-name="Ellipse 2049" cx="0.118" cy="0.118" r="0.118" transform="translate(332.279 337.845)" fill="#e5e5e5"/>
    <path id="Path_70955" data-name="Path 70955" d="M247.2,346.507a.024.024,0,1,0-.024-.024A.024.024,0,0,0,247.2,346.507Z" fill="#e5e5e5"/>
    <path id="Path_70956" data-name="Path 70956" d="M255.72,346.79a.307.307,0,1,0-.307-.307A.308.308,0,0,0,255.72,346.79Z" fill="#e5e5e5"/>
    <path id="Path_70957" data-name="Path 70957" d="M264.239,347.263a.78.78,0,1,0-.779-.78A.78.78,0,0,0,264.239,347.263Z" fill="#e5e5e5"/>
    <circle id="Ellipse_2050" data-name="Ellipse 2050" cx="1.181" cy="1.181" r="1.181" transform="translate(271.578 345.302)" fill="#e5e5e5"/>
    <path id="Path_70958" data-name="Path 70958" d="M281.279,347.971a1.488,1.488,0,1,0-1.488-1.488A1.488,1.488,0,0,0,281.279,347.971Z" fill="#e5e5e5"/>
    <path id="Path_70959" data-name="Path 70959" d="M289.8,348.16a1.678,1.678,0,1,0-1.678-1.677A1.677,1.677,0,0,0,289.8,348.16Z" fill="#e5e5e5"/>
    <circle id="Ellipse_2051" data-name="Ellipse 2051" cx="1.748" cy="1.748" r="1.748" transform="translate(296.57 344.735)" fill="#e5e5e5"/>
    <path id="Path_70960" data-name="Path 70960" d="M306.838,348.184a1.7,1.7,0,1,0-1.7-1.7A1.7,1.7,0,0,0,306.838,348.184Z" fill="#e5e5e5"/>
    <path id="Path_70961" data-name="Path 70961" d="M315.358,347.995a1.512,1.512,0,1,0-1.512-1.512A1.512,1.512,0,0,0,315.358,347.995Z" fill="#e5e5e5"/>
    <path id="Path_70962" data-name="Path 70962" d="M323.878,347.711a1.229,1.229,0,1,0-1.229-1.228A1.228,1.228,0,0,0,323.878,347.711Z" fill="#e5e5e5"/>
    <path id="Path_70963" data-name="Path 70963" d="M332.4,347.31a.827.827,0,1,0-.826-.827A.827.827,0,0,0,332.4,347.31Z" fill="#e5e5e5"/>
    <path id="Path_70964" data-name="Path 70964" d="M340.917,346.837a.354.354,0,1,0-.354-.354A.354.354,0,0,0,340.917,346.837Z" fill="#e5e5e5"/>
    <path id="Path_70965" data-name="Path 70965" d="M349.437,346.507a.024.024,0,1,0-.024-.024A.024.024,0,0,0,349.437,346.507Z" fill="#e5e5e5"/>
    <path id="Path_70966" data-name="Path 70966" d="M238.68,355.026a.024.024,0,1,0,0-.047.023.023,0,0,0-.023.024A.023.023,0,0,0,238.68,355.026Z" fill="#e5e5e5"/>
    <path id="Path_70967" data-name="Path 70967" d="M247.2,355.4a.4.4,0,1,0-.4-.4A.4.4,0,0,0,247.2,355.4Z" fill="#e5e5e5"/>
    <path id="Path_70968" data-name="Path 70968" d="M255.72,356.019A1.016,1.016,0,1,0,254.7,355,1.016,1.016,0,0,0,255.72,356.019Z" fill="#e5e5e5"/>
    <circle id="Ellipse_2052" data-name="Ellipse 2052" cx="1.559" cy="1.559" r="1.559" transform="translate(262.68 353.443)" fill="#e5e5e5"/>
    <circle id="Ellipse_2053" data-name="Ellipse 2053" cx="2.008" cy="2.008" r="2.008" transform="translate(270.751 352.994)" fill="#e5e5e5"/>
    <path id="Path_70969" data-name="Path 70969" d="M281.279,357.365A2.362,2.362,0,1,0,278.917,355,2.362,2.362,0,0,0,281.279,357.365Z" fill="#e5e5e5"/>
    <path id="Path_70970" data-name="Path 70970" d="M289.8,357.578A2.576,2.576,0,1,0,287.224,355,2.575,2.575,0,0,0,289.8,357.578Z" fill="#e5e5e5"/>
    <path id="Path_70971" data-name="Path 70971" d="M298.318,357.649A2.646,2.646,0,1,0,295.672,355,2.646,2.646,0,0,0,298.318,357.649Z" fill="#e5e5e5"/>
    <path id="Path_70972" data-name="Path 70972" d="M306.838,357.6a2.6,2.6,0,1,0-2.6-2.6A2.6,2.6,0,0,0,306.838,357.6Z" fill="#e5e5e5"/>
    <path id="Path_70973" data-name="Path 70973" d="M315.358,357.389A2.387,2.387,0,1,0,312.972,355,2.386,2.386,0,0,0,315.358,357.389Z" fill="#e5e5e5"/>
    <path id="Path_70974" data-name="Path 70974" d="M323.878,357.034A2.031,2.031,0,1,0,321.846,355,2.031,2.031,0,0,0,323.878,357.034Z" fill="#e5e5e5"/>
    <path id="Path_70975" data-name="Path 70975" d="M332.4,356.586A1.583,1.583,0,1,0,330.815,355,1.583,1.583,0,0,0,332.4,356.586Z" fill="#e5e5e5"/>
    <path id="Path_70976" data-name="Path 70976" d="M340.917,356.066A1.064,1.064,0,1,0,339.854,355,1.063,1.063,0,0,0,340.917,356.066Z" fill="#e5e5e5"/>
    <path id="Path_70977" data-name="Path 70977" d="M349.437,355.452a.449.449,0,1,0-.449-.449A.45.45,0,0,0,349.437,355.452Z" fill="#e5e5e5"/>
    <path id="Path_70978" data-name="Path 70978" d="M357.957,355.05A.047.047,0,0,0,358,355a.048.048,0,0,0-.047-.048.049.049,0,0,0-.048.048A.048.048,0,0,0,357.957,355.05Z" fill="#e5e5e5"/>
    <path id="Path_70979" data-name="Path 70979" d="M238.68,363.829a.307.307,0,1,0-.307-.307A.306.306,0,0,0,238.68,363.829Z" fill="#e5e5e5"/>
    <path id="Path_70980" data-name="Path 70980" d="M247.2,364.538a1.016,1.016,0,1,0-1.016-1.016A1.016,1.016,0,0,0,247.2,364.538Z" fill="#e5e5e5"/>
    <path id="Path_70981" data-name="Path 70981" d="M255.72,365.2a1.678,1.678,0,1,0-1.678-1.678A1.677,1.677,0,0,0,255.72,365.2Z" fill="#e5e5e5"/>
    <path id="Path_70982" data-name="Path 70982" d="M264.239,365.79a2.268,2.268,0,1,0-2.268-2.268A2.268,2.268,0,0,0,264.239,365.79Z" fill="#e5e5e5"/>
    <path id="Path_70983" data-name="Path 70983" d="M272.759,366.31a2.788,2.788,0,1,0-2.788-2.788A2.788,2.788,0,0,0,272.759,366.31Z" fill="#e5e5e5"/>
    <circle id="Ellipse_2054" data-name="Ellipse 2054" cx="3.189" cy="3.189" r="3.189" transform="translate(278.09 360.333)" fill="#e5e5e5"/>
    <path id="Path_70984" data-name="Path 70984" d="M289.8,366.924a3.4,3.4,0,1,0-3.4-3.4A3.4,3.4,0,0,0,289.8,366.924Z" fill="#e5e5e5"/>
    <path id="Path_70985" data-name="Path 70985" d="M298.318,366.972a3.449,3.449,0,1,0-3.449-3.45A3.45,3.45,0,0,0,298.318,366.972Z" fill="#e5e5e5"/>
    <path id="Path_70986" data-name="Path 70986" d="M306.838,366.924a3.4,3.4,0,1,0-3.4-3.4A3.4,3.4,0,0,0,306.838,366.924Z" fill="#e5e5e5"/>
    <path id="Path_70987" data-name="Path 70987" d="M315.358,366.735a3.213,3.213,0,1,0-3.213-3.213A3.213,3.213,0,0,0,315.358,366.735Z" fill="#e5e5e5"/>
    <path id="Path_70988" data-name="Path 70988" d="M323.878,366.357a2.835,2.835,0,1,0-2.835-2.835A2.835,2.835,0,0,0,323.878,366.357Z" fill="#e5e5e5"/>
    <circle id="Ellipse_2055" data-name="Ellipse 2055" cx="2.315" cy="2.315" r="2.315" transform="translate(330.082 361.207)" fill="#e5e5e5"/>
    <path id="Path_70989" data-name="Path 70989" d="M340.917,365.247a1.725,1.725,0,1,0-1.724-1.725A1.725,1.725,0,0,0,340.917,365.247Z" fill="#e5e5e5"/>
    <path id="Path_70990" data-name="Path 70990" d="M349.437,364.585a1.063,1.063,0,1,0-1.063-1.063A1.063,1.063,0,0,0,349.437,364.585Z" fill="#e5e5e5"/>
    <circle id="Ellipse_2056" data-name="Ellipse 2056" cx="0.378" cy="0.378" r="0.378" transform="translate(357.579 363.144)" fill="#e5e5e5"/>
    <circle id="Ellipse_2057" data-name="Ellipse 2057" cx="0.118" cy="0.118" r="0.118" transform="translate(230.042 371.924)" fill="#e5e5e5"/>
    <path id="Path_70991" data-name="Path 70991" d="M238.68,372.822a.779.779,0,1,0-.779-.78A.78.78,0,0,0,238.68,372.822Z" fill="#e5e5e5"/>
    <circle id="Ellipse_2058" data-name="Ellipse 2058" cx="1.559" cy="1.559" r="1.559" transform="translate(245.641 370.483)" fill="#e5e5e5"/>
    <path id="Path_70992" data-name="Path 70992" d="M255.72,374.31a2.268,2.268,0,1,0-2.268-2.268A2.268,2.268,0,0,0,255.72,374.31Z" fill="#e5e5e5"/>
    <path id="Path_70993" data-name="Path 70993" d="M264.239,374.995a2.953,2.953,0,1,0-2.953-2.953A2.954,2.954,0,0,0,264.239,374.995Z" fill="#e5e5e5"/>
    <path id="Path_70994" data-name="Path 70994" d="M272.759,375.491a3.449,3.449,0,1,0-3.449-3.449A3.45,3.45,0,0,0,272.759,375.491Z" fill="#e5e5e5"/>
    <circle id="Ellipse_2059" data-name="Ellipse 2059" cx="3.567" cy="3.567" r="3.567" transform="translate(277.184 369.095) rotate(-9.251)" fill="#e5e5e5"/>
    <circle id="Ellipse_2060" data-name="Ellipse 2060" cx="3.567" cy="3.567" r="3.567" transform="translate(285.704 369.095) rotate(-9.251)" fill="#e5e5e5"/>
    <circle id="Ellipse_2061" data-name="Ellipse 2061" cx="3.567" cy="3.567" r="3.567" transform="translate(294.224 369.095) rotate(-9.251)" fill="#e5e5e5"/>
    <circle id="Ellipse_2062" data-name="Ellipse 2062" cx="3.567" cy="3.567" r="3.567" transform="translate(302.744 369.095) rotate(-9.251)" fill="#e5e5e5"/>
    <circle id="Ellipse_2063" data-name="Ellipse 2063" cx="3.567" cy="3.567" r="3.567" transform="matrix(0.987, -0.161, 0.161, 0.987, 311.263, 369.095)" fill="#e5e5e5"/>
    <path id="Path_70995" data-name="Path 70995" d="M323.878,375.515a3.473,3.473,0,1,0-3.473-3.473A3.473,3.473,0,0,0,323.878,375.515Z" fill="#e5e5e5"/>
    <circle id="Ellipse_2064" data-name="Ellipse 2064" cx="3" cy="3" r="3" transform="translate(329.397 369.042)" fill="#e5e5e5"/>
    <path id="Path_70996" data-name="Path 70996" d="M340.917,374.381a2.339,2.339,0,1,0-2.339-2.339A2.339,2.339,0,0,0,340.917,374.381Z" fill="#e5e5e5"/>
    <path id="Path_70997" data-name="Path 70997" d="M349.437,373.649a1.606,1.606,0,1,0-1.607-1.607A1.607,1.607,0,0,0,349.437,373.649Z" fill="#e5e5e5"/>
    <path id="Path_70998" data-name="Path 70998" d="M357.957,372.893a.851.851,0,1,0-.851-.851A.851.851,0,0,0,357.957,372.893Z" fill="#e5e5e5"/>
    <path id="Path_70999" data-name="Path 70999" d="M366.476,372.184a.142.142,0,1,0-.141-.142A.142.142,0,0,0,366.476,372.184Z" fill="#e5e5e5"/>
    <path id="Path_71000" data-name="Path 71000" d="M230.16,380.916a.354.354,0,1,0-.354-.354A.354.354,0,0,0,230.16,380.916Z" fill="#e5e5e5"/>
    <circle id="Ellipse_2065" data-name="Ellipse 2065" cx="1.181" cy="1.181" r="1.181" transform="translate(237.499 379.381)" fill="#e5e5e5"/>
    <circle id="Ellipse_2066" data-name="Ellipse 2066" cx="2.008" cy="2.008" r="2.008" transform="translate(245.192 378.554)" fill="#e5e5e5"/>
    <path id="Path_71001" data-name="Path 71001" d="M255.72,383.35a2.788,2.788,0,1,0-2.788-2.788A2.788,2.788,0,0,0,255.72,383.35Z" fill="#e5e5e5"/>
    <path id="Path_71002" data-name="Path 71002" d="M264.239,384.011a3.449,3.449,0,1,0-3.449-3.449A3.45,3.45,0,0,0,264.239,384.011Z" fill="#e5e5e5"/>
    <circle id="Ellipse_2067" data-name="Ellipse 2067" cx="3.567" cy="3.567" r="3.567" transform="translate(268.665 377.614) rotate(-9.252)" fill="#e5e5e5"/>
    <circle id="Ellipse_2068" data-name="Ellipse 2068" cx="3.567" cy="3.567" r="3.567" transform="translate(277.184 377.614) rotate(-9.251)" fill="#e5e5e5"/>
    <circle id="Ellipse_2069" data-name="Ellipse 2069" cx="3.567" cy="3.567" r="3.567" transform="translate(285.704 377.614) rotate(-9.251)" fill="#e5e5e5"/>
    <circle id="Ellipse_2070" data-name="Ellipse 2070" cx="3.567" cy="3.567" r="3.567" transform="translate(294.224 377.614) rotate(-9.251)" fill="#e5e5e5"/>
    <circle id="Ellipse_2071" data-name="Ellipse 2071" cx="3.567" cy="3.567" r="3.567" transform="translate(302.744 377.614) rotate(-9.251)" fill="#e5e5e5"/>
    <circle id="Ellipse_2072" data-name="Ellipse 2072" cx="3.567" cy="3.567" r="3.567" transform="translate(311.263 377.614) rotate(-9.25)" fill="#e5e5e5"/>
    <circle id="Ellipse_2073" data-name="Ellipse 2073" cx="3.567" cy="3.567" r="3.567" transform="matrix(0.987, -0.161, 0.161, 0.987, 319.783, 377.614)" fill="#e5e5e5"/>
    <path id="Path_71003" data-name="Path 71003" d="M332.4,384.035a3.473,3.473,0,1,0-3.472-3.473A3.473,3.473,0,0,0,332.4,384.035Z" fill="#e5e5e5"/>
    <path id="Path_71004" data-name="Path 71004" d="M340.917,383.42a2.859,2.859,0,1,0-2.858-2.858A2.858,2.858,0,0,0,340.917,383.42Z" fill="#e5e5e5"/>
    <path id="Path_71005" data-name="Path 71005" d="M349.437,382.641a2.079,2.079,0,1,0-2.079-2.079A2.079,2.079,0,0,0,349.437,382.641Z" fill="#e5e5e5"/>
    <circle id="Ellipse_2074" data-name="Ellipse 2074" cx="1.252" cy="1.252" r="1.252" transform="translate(356.705 379.31)" fill="#e5e5e5"/>
    <path id="Path_71006" data-name="Path 71006" d="M366.476,380.987a.425.425,0,1,0-.425-.425A.426.426,0,0,0,366.476,380.987Z" fill="#e5e5e5"/>
    <path id="Path_71007" data-name="Path 71007" d="M221.641,389.105a.024.024,0,0,0,0-.047.024.024,0,1,0,0,.047Z" fill="#e5e5e5"/>
    <path id="Path_71008" data-name="Path 71008" d="M230.16,389.72a.638.638,0,1,0-.637-.638A.638.638,0,0,0,230.16,389.72Z" fill="#e5e5e5"/>
    <path id="Path_71009" data-name="Path 71009" d="M238.68,390.57a1.489,1.489,0,1,0-1.488-1.488A1.489,1.489,0,0,0,238.68,390.57Z" fill="#e5e5e5"/>
    <path id="Path_71010" data-name="Path 71010" d="M247.2,391.444a2.363,2.363,0,1,0-2.362-2.362A2.362,2.362,0,0,0,247.2,391.444Z" fill="#e5e5e5"/>
    <circle id="Ellipse_2075" data-name="Ellipse 2075" cx="3.189" cy="3.189" r="3.189" transform="translate(252.53 385.892)" fill="#e5e5e5"/>
    <circle id="Ellipse_2076" data-name="Ellipse 2076" cx="3.567" cy="3.567" r="3.567" transform="translate(260.145 386.134) rotate(-9.252)" fill="#e5e5e5"/>
    <circle id="Ellipse_2077" data-name="Ellipse 2077" cx="3.567" cy="3.567" r="3.567" transform="translate(268.665 386.134) rotate(-9.252)" fill="#e5e5e5"/>
    <circle id="Ellipse_2078" data-name="Ellipse 2078" cx="3.567" cy="3.567" r="3.567" transform="translate(277.184 386.134) rotate(-9.251)" fill="#e5e5e5"/>
    <circle id="Ellipse_2079" data-name="Ellipse 2079" cx="3.567" cy="3.567" r="3.567" transform="translate(285.704 386.134) rotate(-9.251)" fill="#e5e5e5"/>
    <circle id="Ellipse_2080" data-name="Ellipse 2080" cx="3.567" cy="3.567" r="3.567" transform="translate(294.224 386.134) rotate(-9.251)" fill="#e5e5e5"/>
    <circle id="Ellipse_2081" data-name="Ellipse 2081" cx="3.567" cy="3.567" r="3.567" transform="translate(302.744 386.134) rotate(-9.251)" fill="#e5e5e5"/>
    <circle id="Ellipse_2082" data-name="Ellipse 2082" cx="3.567" cy="3.567" r="3.567" transform="translate(311.263 386.134) rotate(-9.25)" fill="#e5e5e5"/>
    <circle id="Ellipse_2083" data-name="Ellipse 2083" cx="3.567" cy="3.567" r="3.567" transform="matrix(0.987, -0.161, 0.161, 0.987, 319.783, 386.134)" fill="#e5e5e5"/>
    <circle id="Ellipse_2084" data-name="Ellipse 2084" cx="3.567" cy="3.567" r="3.567" transform="translate(328.303 386.134) rotate(-9.25)" fill="#e5e5e5"/>
    <path id="Path_71011" data-name="Path 71011" d="M340.917,392.342a3.26,3.26,0,1,0-3.26-3.26A3.261,3.261,0,0,0,340.917,392.342Z" fill="#e5e5e5"/>
    <circle id="Ellipse_2085" data-name="Ellipse 2085" cx="2.433" cy="2.433" r="2.433" transform="translate(346.26 390.405) rotate(-67.609)" fill="#e5e5e5"/>
    <path id="Path_71012" data-name="Path 71012" d="M357.957,390.665a1.583,1.583,0,1,0-1.583-1.583A1.583,1.583,0,0,0,357.957,390.665Z" fill="#e5e5e5"/>
    <path id="Path_71013" data-name="Path 71013" d="M366.476,389.79a.709.709,0,1,0-.708-.708A.708.708,0,0,0,366.476,389.79Z" fill="#e5e5e5"/>
    <path id="Path_71014" data-name="Path 71014" d="M375,389.129a.047.047,0,0,0,.047-.047.047.047,0,1,0-.094,0A.047.047,0,0,0,375,389.129Z" fill="#e5e5e5"/>
    <circle id="Ellipse_2086" data-name="Ellipse 2086" cx="0.071" cy="0.071" r="0.071" transform="translate(221.57 397.53)" fill="#e5e5e5"/>
    <path id="Path_71015" data-name="Path 71015" d="M230.16,398.4a.8.8,0,1,0-.8-.8A.8.8,0,0,0,230.16,398.4Z" fill="#e5e5e5"/>
    <path id="Path_71016" data-name="Path 71016" d="M238.68,399.279A1.677,1.677,0,1,0,237,397.6,1.678,1.678,0,0,0,238.68,399.279Z" fill="#e5e5e5"/>
    <path id="Path_71017" data-name="Path 71017" d="M247.2,400.177a2.576,2.576,0,1,0-2.575-2.576A2.575,2.575,0,0,0,247.2,400.177Z" fill="#e5e5e5"/>
    <path id="Path_71018" data-name="Path 71018" d="M255.72,401a3.4,3.4,0,1,0-3.4-3.4A3.4,3.4,0,0,0,255.72,401Z" fill="#e5e5e5"/>
    <circle id="Ellipse_2087" data-name="Ellipse 2087" cx="3.567" cy="3.567" r="3.567" transform="translate(260.145 394.654) rotate(-9.252)" fill="#e5e5e5"/>
    <circle id="Ellipse_2088" data-name="Ellipse 2088" cx="3.567" cy="3.567" r="3.567" transform="translate(268.665 394.654) rotate(-9.252)" fill="#e5e5e5"/>
    <circle id="Ellipse_2089" data-name="Ellipse 2089" cx="3.567" cy="3.567" r="3.567" transform="translate(277.184 394.654) rotate(-9.251)" fill="#e5e5e5"/>
    <circle id="Ellipse_2090" data-name="Ellipse 2090" cx="3.567" cy="3.567" r="3.567" transform="translate(285.704 394.654) rotate(-9.251)" fill="#e5e5e5"/>
    <circle id="Ellipse_2091" data-name="Ellipse 2091" cx="3.567" cy="3.567" r="3.567" transform="translate(294.224 394.654) rotate(-9.251)" fill="#e5e5e5"/>
    <circle id="Ellipse_2092" data-name="Ellipse 2092" cx="3.567" cy="3.567" r="3.567" transform="translate(302.744 394.654) rotate(-9.251)" fill="#e5e5e5"/>
    <circle id="Ellipse_2093" data-name="Ellipse 2093" cx="3.567" cy="3.567" r="3.567" transform="translate(311.263 394.654) rotate(-9.25)" fill="#e5e5e5"/>
    <circle id="Ellipse_2094" data-name="Ellipse 2094" cx="3.567" cy="3.567" r="3.567" transform="matrix(0.987, -0.161, 0.161, 0.987, 319.783, 394.654)" fill="#e5e5e5"/>
    <circle id="Ellipse_2095" data-name="Ellipse 2095" cx="3.567" cy="3.567" r="3.567" transform="translate(328.303 394.654) rotate(-9.25)" fill="#e5e5e5"/>
    <path id="Path_71019" data-name="Path 71019" d="M340.917,401.051a3.449,3.449,0,1,0-3.449-3.45A3.45,3.45,0,0,0,340.917,401.051Z" fill="#e5e5e5"/>
    <path id="Path_71020" data-name="Path 71020" d="M349.437,400.247a2.646,2.646,0,1,0-2.646-2.646A2.646,2.646,0,0,0,349.437,400.247Z" fill="#e5e5e5"/>
    <path id="Path_71021" data-name="Path 71021" d="M357.957,399.373a1.772,1.772,0,1,0-1.772-1.772A1.772,1.772,0,0,0,357.957,399.373Z" fill="#e5e5e5"/>
    <circle id="Ellipse_2096" data-name="Ellipse 2096" cx="0.874" cy="0.874" r="0.874" transform="translate(365.602 396.727)" fill="#e5e5e5"/>
    <path id="Path_71022" data-name="Path 71022" d="M375,397.7a.095.095,0,1,0,0-.189.095.095,0,0,0,0,.189Z" fill="#e5e5e5"/>
    <path id="Path_71023" data-name="Path 71023" d="M221.641,406.216a.094.094,0,1,0-.1-.1A.095.095,0,0,0,221.641,406.216Z" fill="#e5e5e5"/>
    <path id="Path_71024" data-name="Path 71024" d="M230.16,406.972a.85.85,0,1,0-.85-.851A.851.851,0,0,0,230.16,406.972Z" fill="#e5e5e5"/>
    <circle id="Ellipse_2097" data-name="Ellipse 2097" cx="1.748" cy="1.748" r="1.748" transform="translate(236.932 404.373)" fill="#e5e5e5"/>
    <path id="Path_71025" data-name="Path 71025" d="M247.2,408.767a2.646,2.646,0,1,0-2.646-2.646A2.646,2.646,0,0,0,247.2,408.767Z" fill="#e5e5e5"/>
    <path id="Path_71026" data-name="Path 71026" d="M255.72,409.57a3.449,3.449,0,1,0-3.45-3.449A3.449,3.449,0,0,0,255.72,409.57Z" fill="#e5e5e5"/>
    <circle id="Ellipse_2098" data-name="Ellipse 2098" cx="3.567" cy="3.567" r="3.567" transform="translate(260.145 403.174) rotate(-9.252)" fill="#e5e5e5"/>
    <circle id="Ellipse_2099" data-name="Ellipse 2099" cx="3.567" cy="3.567" r="3.567" transform="translate(268.665 403.174) rotate(-9.252)" fill="#e5e5e5"/>
    <circle id="Ellipse_2100" data-name="Ellipse 2100" cx="3.567" cy="3.567" r="3.567" transform="translate(277.184 403.174) rotate(-9.251)" fill="#e5e5e5"/>
    <circle id="Ellipse_2101" data-name="Ellipse 2101" cx="3.567" cy="3.567" r="3.567" transform="translate(285.704 403.174) rotate(-9.251)" fill="#e5e5e5"/>
    <circle id="Ellipse_2102" data-name="Ellipse 2102" cx="3.567" cy="3.567" r="3.567" transform="translate(294.224 403.174) rotate(-9.251)" fill="#e5e5e5"/>
    <circle id="Ellipse_2103" data-name="Ellipse 2103" cx="3.567" cy="3.567" r="3.567" transform="translate(302.744 403.174) rotate(-9.251)" fill="#e5e5e5"/>
    <circle id="Ellipse_2104" data-name="Ellipse 2104" cx="3.567" cy="3.567" r="3.567" transform="translate(311.263 403.174) rotate(-9.25)" fill="#e5e5e5"/>
    <circle id="Ellipse_2105" data-name="Ellipse 2105" cx="3.567" cy="3.567" r="3.567" transform="matrix(0.987, -0.161, 0.161, 0.987, 319.783, 403.173)" fill="#e5e5e5"/>
    <circle id="Ellipse_2106" data-name="Ellipse 2106" cx="3.567" cy="3.567" r="3.567" transform="translate(328.303 403.173) rotate(-9.25)" fill="#e5e5e5"/>
    <path id="Path_71027" data-name="Path 71027" d="M340.917,409.594a3.473,3.473,0,1,0-3.473-3.473A3.473,3.473,0,0,0,340.917,409.594Z" fill="#e5e5e5"/>
    <path id="Path_71028" data-name="Path 71028" d="M349.437,408.862a2.74,2.74,0,1,0-2.74-2.741A2.741,2.741,0,0,0,349.437,408.862Z" fill="#e5e5e5"/>
    <path id="Path_71029" data-name="Path 71029" d="M357.957,407.964a1.843,1.843,0,1,0-1.843-1.843A1.843,1.843,0,0,0,357.957,407.964Z" fill="#e5e5e5"/>
    <path id="Path_71030" data-name="Path 71030" d="M366.476,407.042a.921.921,0,1,0-.921-.921A.921.921,0,0,0,366.476,407.042Z" fill="#e5e5e5"/>
    <circle id="Ellipse_2107" data-name="Ellipse 2107" cx="0.118" cy="0.118" r="0.118" transform="translate(374.878 406.003)" fill="#e5e5e5"/>
    <circle id="Ellipse_2108" data-name="Ellipse 2108" cx="0.071" cy="0.071" r="0.071" transform="translate(221.57 414.57)" fill="#e5e5e5"/>
    <path id="Path_71031" data-name="Path 71031" d="M230.16,415.444a.8.8,0,1,0-.8-.8A.8.8,0,0,0,230.16,415.444Z" fill="#e5e5e5"/>
    <path id="Path_71032" data-name="Path 71032" d="M238.68,416.342a1.7,1.7,0,1,0-1.7-1.7A1.7,1.7,0,0,0,238.68,416.342Z" fill="#e5e5e5"/>
    <path id="Path_71033" data-name="Path 71033" d="M247.2,417.24a2.6,2.6,0,1,0-2.6-2.6A2.6,2.6,0,0,0,247.2,417.24Z" fill="#e5e5e5"/>
    <path id="Path_71034" data-name="Path 71034" d="M255.72,418.043a3.4,3.4,0,1,0-3.4-3.4A3.4,3.4,0,0,0,255.72,418.043Z" fill="#e5e5e5"/>
    <circle id="Ellipse_2109" data-name="Ellipse 2109" cx="3.567" cy="3.567" r="3.567" transform="translate(260.145 411.693) rotate(-9.252)" fill="#e5e5e5"/>
    <circle id="Ellipse_2110" data-name="Ellipse 2110" cx="3.567" cy="3.567" r="3.567" transform="translate(268.665 411.693) rotate(-9.252)" fill="#e5e5e5"/>
    <circle id="Ellipse_2111" data-name="Ellipse 2111" cx="3.567" cy="3.567" r="3.567" transform="translate(277.184 411.693) rotate(-9.251)" fill="#e5e5e5"/>
    <circle id="Ellipse_2112" data-name="Ellipse 2112" cx="3.567" cy="3.567" r="3.567" transform="translate(285.704 411.693) rotate(-9.251)" fill="#e5e5e5"/>
    <circle id="Ellipse_2113" data-name="Ellipse 2113" cx="3.567" cy="3.567" r="3.567" transform="translate(294.224 411.693) rotate(-9.251)" fill="#e5e5e5"/>
    <circle id="Ellipse_2114" data-name="Ellipse 2114" cx="3.567" cy="3.567" r="3.567" transform="translate(302.744 411.693) rotate(-9.251)" fill="#e5e5e5"/>
    <circle id="Ellipse_2115" data-name="Ellipse 2115" cx="3.567" cy="3.567" r="3.567" transform="translate(311.263 411.693) rotate(-9.25)" fill="#e5e5e5"/>
    <circle id="Ellipse_2116" data-name="Ellipse 2116" cx="3.567" cy="3.567" r="3.567" transform="matrix(0.987, -0.161, 0.161, 0.987, 319.783, 411.693)" fill="#e5e5e5"/>
    <circle id="Ellipse_2117" data-name="Ellipse 2117" cx="3.567" cy="3.567" r="3.567" transform="translate(328.303 411.693) rotate(-9.25)" fill="#e5e5e5"/>
    <path id="Path_71035" data-name="Path 71035" d="M340.917,418.09a3.449,3.449,0,1,0-3.449-3.449A3.449,3.449,0,0,0,340.917,418.09Z" fill="#e5e5e5"/>
    <path id="Path_71036" data-name="Path 71036" d="M349.437,417.31a2.669,2.669,0,1,0-2.67-2.669A2.67,2.67,0,0,0,349.437,417.31Z" fill="#e5e5e5"/>
    <path id="Path_71037" data-name="Path 71037" d="M357.957,416.413a1.772,1.772,0,1,0-1.772-1.772A1.773,1.773,0,0,0,357.957,416.413Z" fill="#e5e5e5"/>
    <circle id="Ellipse_2118" data-name="Ellipse 2118" cx="0.874" cy="0.874" r="0.874" transform="translate(365.602 413.767)" fill="#e5e5e5"/>
    <path id="Path_71038" data-name="Path 71038" d="M375,414.735a.094.094,0,1,0-.094-.094A.095.095,0,0,0,375,414.735Z" fill="#e5e5e5"/>
    <path id="Path_71039" data-name="Path 71039" d="M221.641,423.184a.023.023,0,0,0,.023-.023.023.023,0,0,0-.023-.024.024.024,0,1,0,0,.047Z" fill="#e5e5e5"/>
    <path id="Path_71040" data-name="Path 71040" d="M230.16,423.8a.638.638,0,1,0-.637-.638A.638.638,0,0,0,230.16,423.8Z" fill="#e5e5e5"/>
    <path id="Path_71041" data-name="Path 71041" d="M238.68,424.673a1.512,1.512,0,1,0-1.512-1.512A1.512,1.512,0,0,0,238.68,424.673Z" fill="#e5e5e5"/>
    <path id="Path_71042" data-name="Path 71042" d="M247.2,425.547a2.387,2.387,0,1,0-2.386-2.386A2.386,2.386,0,0,0,247.2,425.547Z" fill="#e5e5e5"/>
    <path id="Path_71043" data-name="Path 71043" d="M255.72,426.374a3.213,3.213,0,1,0-3.213-3.213A3.214,3.214,0,0,0,255.72,426.374Z" fill="#e5e5e5"/>
    <circle id="Ellipse_2119" data-name="Ellipse 2119" cx="3.567" cy="3.567" r="3.567" transform="translate(260.145 420.213) rotate(-9.252)" fill="#e5e5e5"/>
    <circle id="Ellipse_2120" data-name="Ellipse 2120" cx="3.567" cy="3.567" r="3.567" transform="translate(268.665 420.213) rotate(-9.252)" fill="#e5e5e5"/>
    <circle id="Ellipse_2121" data-name="Ellipse 2121" cx="3.567" cy="3.567" r="3.567" transform="translate(277.184 420.213) rotate(-9.251)" fill="#e5e5e5"/>
    <circle id="Ellipse_2122" data-name="Ellipse 2122" cx="3.567" cy="3.567" r="3.567" transform="translate(285.704 420.213) rotate(-9.251)" fill="#e5e5e5"/>
    <circle id="Ellipse_2123" data-name="Ellipse 2123" cx="3.567" cy="3.567" r="3.567" transform="translate(294.224 420.213) rotate(-9.251)" fill="#e5e5e5"/>
    <circle id="Ellipse_2124" data-name="Ellipse 2124" cx="3.567" cy="3.567" r="3.567" transform="translate(302.744 420.213) rotate(-9.251)" fill="#e5e5e5"/>
    <circle id="Ellipse_2125" data-name="Ellipse 2125" cx="3.567" cy="3.567" r="3.567" transform="matrix(0.987, -0.161, 0.161, 0.987, 311.263, 420.213)" fill="#e5e5e5"/>
    <circle id="Ellipse_2126" data-name="Ellipse 2126" cx="3.567" cy="3.567" r="3.567" transform="translate(319.783 420.213) rotate(-9.25)" fill="#e5e5e5"/>
    <circle id="Ellipse_2127" data-name="Ellipse 2127" cx="3.567" cy="3.567" r="3.567" transform="translate(328.303 420.213) rotate(-9.25)" fill="#e5e5e5"/>
    <path id="Path_71044" data-name="Path 71044" d="M340.917,426.444a3.283,3.283,0,1,0-3.284-3.283A3.283,3.283,0,0,0,340.917,426.444Z" fill="#e5e5e5"/>
    <path id="Path_71045" data-name="Path 71045" d="M349.437,425.618a2.457,2.457,0,1,0-2.457-2.457A2.457,2.457,0,0,0,349.437,425.618Z" fill="#e5e5e5"/>
    <path id="Path_71046" data-name="Path 71046" d="M357.957,424.744a1.583,1.583,0,1,0-1.583-1.583A1.583,1.583,0,0,0,357.957,424.744Z" fill="#e5e5e5"/>
    <path id="Path_71047" data-name="Path 71047" d="M366.476,423.869a.708.708,0,1,0-.708-.708A.708.708,0,0,0,366.476,423.869Z" fill="#e5e5e5"/>
    <path id="Path_71048" data-name="Path 71048" d="M375,423.208a.047.047,0,0,0,.047-.047.047.047,0,1,0-.094,0A.047.047,0,0,0,375,423.208Z" fill="#e5e5e5"/>
    <circle id="Ellipse_2128" data-name="Ellipse 2128" cx="0.378" cy="0.378" r="0.378" transform="translate(229.782 431.302)" fill="#e5e5e5"/>
    <path id="Path_71049" data-name="Path 71049" d="M238.68,432.909a1.229,1.229,0,1,0-1.228-1.229A1.229,1.229,0,0,0,238.68,432.909Z" fill="#e5e5e5"/>
    <path id="Path_71050" data-name="Path 71050" d="M247.2,433.712a2.032,2.032,0,1,0-2.032-2.032A2.032,2.032,0,0,0,247.2,433.712Z" fill="#e5e5e5"/>
    <path id="Path_71051" data-name="Path 71051" d="M255.72,434.515a2.835,2.835,0,1,0-2.835-2.835A2.835,2.835,0,0,0,255.72,434.515Z" fill="#e5e5e5"/>
    <path id="Path_71052" data-name="Path 71052" d="M264.239,435.153a3.473,3.473,0,1,0-3.472-3.473A3.473,3.473,0,0,0,264.239,435.153Z" fill="#e5e5e5"/>
    <circle id="Ellipse_2129" data-name="Ellipse 2129" cx="3.567" cy="3.567" r="3.567" transform="translate(268.665 428.733) rotate(-9.252)" fill="#e5e5e5"/>
    <circle id="Ellipse_2130" data-name="Ellipse 2130" cx="3.567" cy="3.567" r="3.567" transform="translate(277.184 428.733) rotate(-9.251)" fill="#e5e5e5"/>
    <circle id="Ellipse_2131" data-name="Ellipse 2131" cx="3.567" cy="3.567" r="3.567" transform="translate(285.704 428.733) rotate(-9.251)" fill="#e5e5e5"/>
    <circle id="Ellipse_2132" data-name="Ellipse 2132" cx="3.567" cy="3.567" r="3.567" transform="translate(294.224 428.733) rotate(-9.251)" fill="#e5e5e5"/>
    <circle id="Ellipse_2133" data-name="Ellipse 2133" cx="3.567" cy="3.567" r="3.567" transform="translate(302.744 428.733) rotate(-9.251)" fill="#e5e5e5"/>
    <circle id="Ellipse_2134" data-name="Ellipse 2134" cx="3.567" cy="3.567" r="3.567" transform="translate(311.263 428.733) rotate(-9.25)" fill="#e5e5e5"/>
    <circle id="Ellipse_2135" data-name="Ellipse 2135" cx="3.567" cy="3.567" r="3.567" transform="matrix(0.987, -0.161, 0.161, 0.987, 319.783, 428.733)" fill="#e5e5e5"/>
    <circle id="Ellipse_2136" data-name="Ellipse 2136" cx="3.497" cy="3.497" r="3.497" transform="translate(328.901 428.184)" fill="#e5e5e5"/>
    <circle id="Ellipse_2137" data-name="Ellipse 2137" cx="2.882" cy="2.882" r="2.882" transform="translate(338.035 428.798)" fill="#e5e5e5"/>
    <path id="Path_71053" data-name="Path 71053" d="M349.437,433.783a2.1,2.1,0,1,0-2.1-2.1A2.1,2.1,0,0,0,349.437,433.783Z" fill="#e5e5e5"/>
    <path id="Path_71054" data-name="Path 71054" d="M357.957,432.956a1.275,1.275,0,1,0-1.276-1.276A1.275,1.275,0,0,0,357.957,432.956Z" fill="#e5e5e5"/>
    <path id="Path_71055" data-name="Path 71055" d="M366.476,432.129a.449.449,0,1,0-.448-.449A.449.449,0,0,0,366.476,432.129Z" fill="#e5e5e5"/>
    <circle id="Ellipse_2138" data-name="Ellipse 2138" cx="0.118" cy="0.118" r="0.118" transform="translate(230.042 440.082)" fill="#e5e5e5"/>
    <path id="Path_71056" data-name="Path 71056" d="M238.68,441.027a.827.827,0,1,0-.827-.827A.827.827,0,0,0,238.68,441.027Z" fill="#e5e5e5"/>
    <path id="Path_71057" data-name="Path 71057" d="M247.2,441.783a1.583,1.583,0,1,0-1.583-1.583A1.583,1.583,0,0,0,247.2,441.783Z" fill="#e5e5e5"/>
    <circle id="Ellipse_2139" data-name="Ellipse 2139" cx="2.315" cy="2.315" r="2.315" transform="translate(253.404 437.885)" fill="#e5e5e5"/>
    <circle id="Ellipse_2140" data-name="Ellipse 2140" cx="3" cy="3" r="3" transform="translate(261.239 437.2)" fill="#e5e5e5"/>
    <path id="Path_71058" data-name="Path 71058" d="M272.759,443.673a3.473,3.473,0,1,0-3.473-3.473A3.473,3.473,0,0,0,272.759,443.673Z" fill="#e5e5e5"/>
    <circle id="Ellipse_2141" data-name="Ellipse 2141" cx="3.567" cy="3.567" r="3.567" transform="translate(277.184 437.253) rotate(-9.251)" fill="#e5e5e5"/>
    <circle id="Ellipse_2142" data-name="Ellipse 2142" cx="3.567" cy="3.567" r="3.567" transform="translate(285.704 437.253) rotate(-9.251)" fill="#e5e5e5"/>
    <circle id="Ellipse_2143" data-name="Ellipse 2143" cx="3.567" cy="3.567" r="3.567" transform="translate(294.224 437.253) rotate(-9.251)" fill="#e5e5e5"/>
    <circle id="Ellipse_2144" data-name="Ellipse 2144" cx="3.567" cy="3.567" r="3.567" transform="translate(302.744 437.253) rotate(-9.251)" fill="#e5e5e5"/>
    <circle id="Ellipse_2145" data-name="Ellipse 2145" cx="3.567" cy="3.567" r="3.567" transform="matrix(0.987, -0.161, 0.161, 0.987, 311.263, 437.253)" fill="#e5e5e5"/>
    <circle id="Ellipse_2146" data-name="Ellipse 2146" cx="3.497" cy="3.497" r="3.497" transform="translate(320.381 436.704)" fill="#e5e5e5"/>
    <path id="Path_71059" data-name="Path 71059" d="M332.4,443.248a3.047,3.047,0,1,0-3.047-3.048A3.048,3.048,0,0,0,332.4,443.248Z" fill="#e5e5e5"/>
    <path id="Path_71060" data-name="Path 71060" d="M340.917,442.586a2.386,2.386,0,1,0-2.386-2.386A2.386,2.386,0,0,0,340.917,442.586Z" fill="#e5e5e5"/>
    <path id="Path_71061" data-name="Path 71061" d="M349.437,441.854a1.654,1.654,0,1,0-1.654-1.654A1.655,1.655,0,0,0,349.437,441.854Z" fill="#e5e5e5"/>
    <path id="Path_71062" data-name="Path 71062" d="M357.957,441.1a.9.9,0,1,0-.9-.9A.9.9,0,0,0,357.957,441.1Z" fill="#e5e5e5"/>
    <path id="Path_71063" data-name="Path 71063" d="M366.476,440.365a.165.165,0,1,0-.165-.165A.165.165,0,0,0,366.476,440.365Z" fill="#e5e5e5"/>
    <path id="Path_71064" data-name="Path 71064" d="M238.68,449.074a.354.354,0,1,0-.354-.354A.354.354,0,0,0,238.68,449.074Z" fill="#e5e5e5"/>
    <path id="Path_71065" data-name="Path 71065" d="M247.2,449.783a1.063,1.063,0,1,0-1.063-1.063A1.063,1.063,0,0,0,247.2,449.783Z" fill="#e5e5e5"/>
    <path id="Path_71066" data-name="Path 71066" d="M255.72,450.444a1.725,1.725,0,1,0-1.725-1.724A1.724,1.724,0,0,0,255.72,450.444Z" fill="#e5e5e5"/>
    <path id="Path_71067" data-name="Path 71067" d="M264.239,451.059a2.339,2.339,0,1,0-2.338-2.339A2.339,2.339,0,0,0,264.239,451.059Z" fill="#e5e5e5"/>
    <path id="Path_71068" data-name="Path 71068" d="M272.759,451.578a2.859,2.859,0,1,0-2.858-2.858A2.858,2.858,0,0,0,272.759,451.578Z" fill="#e5e5e5"/>
    <path id="Path_71069" data-name="Path 71069" d="M281.279,451.98a3.26,3.26,0,1,0-3.26-3.26A3.26,3.26,0,0,0,281.279,451.98Z" fill="#e5e5e5"/>
    <path id="Path_71070" data-name="Path 71070" d="M289.8,452.169a3.449,3.449,0,1,0-3.45-3.449A3.449,3.449,0,0,0,289.8,452.169Z" fill="#e5e5e5"/>
    <path id="Path_71071" data-name="Path 71071" d="M298.318,452.193a3.473,3.473,0,1,0-3.472-3.473A3.473,3.473,0,0,0,298.318,452.193Z" fill="#e5e5e5"/>
    <path id="Path_71072" data-name="Path 71072" d="M306.838,452.169a3.449,3.449,0,1,0-3.449-3.449A3.449,3.449,0,0,0,306.838,452.169Z" fill="#e5e5e5"/>
    <path id="Path_71073" data-name="Path 71073" d="M315.358,452a3.284,3.284,0,1,0-3.284-3.284A3.284,3.284,0,0,0,315.358,452Z" fill="#e5e5e5"/>
    <circle id="Ellipse_2147" data-name="Ellipse 2147" cx="2.882" cy="2.882" r="2.882" transform="translate(320.995 445.838)" fill="#e5e5e5"/>
    <path id="Path_71074" data-name="Path 71074" d="M332.4,451.106a2.386,2.386,0,1,0-2.386-2.386A2.387,2.387,0,0,0,332.4,451.106Z" fill="#e5e5e5"/>
    <path id="Path_71075" data-name="Path 71075" d="M340.917,450.515a1.8,1.8,0,1,0-1.795-1.8A1.8,1.8,0,0,0,340.917,450.515Z" fill="#e5e5e5"/>
    <path id="Path_71076" data-name="Path 71076" d="M349.437,449.83a1.11,1.11,0,1,0-1.11-1.11A1.11,1.11,0,0,0,349.437,449.83Z" fill="#e5e5e5"/>
    <path id="Path_71077" data-name="Path 71077" d="M357.957,449.122a.4.4,0,1,0-.4-.4A.4.4,0,0,0,357.957,449.122Z" fill="#e5e5e5"/>
    <path id="Path_71078" data-name="Path 71078" d="M238.68,457.263a.024.024,0,1,0,0-.047.023.023,0,0,0-.023.024A.023.023,0,0,0,238.68,457.263Z" fill="#e5e5e5"/>
    <path id="Path_71079" data-name="Path 71079" d="M247.2,457.689a.449.449,0,1,0-.449-.449A.45.45,0,0,0,247.2,457.689Z" fill="#e5e5e5"/>
    <path id="Path_71080" data-name="Path 71080" d="M255.72,458.3a1.064,1.064,0,1,0-1.063-1.063A1.063,1.063,0,0,0,255.72,458.3Z" fill="#e5e5e5"/>
    <path id="Path_71081" data-name="Path 71081" d="M264.239,458.846a1.607,1.607,0,1,0-1.606-1.606A1.606,1.606,0,0,0,264.239,458.846Z" fill="#e5e5e5"/>
    <path id="Path_71082" data-name="Path 71082" d="M272.759,459.319a2.079,2.079,0,1,0-2.079-2.079A2.079,2.079,0,0,0,272.759,459.319Z" fill="#e5e5e5"/>
    <circle id="Ellipse_2148" data-name="Ellipse 2148" cx="2.433" cy="2.433" r="2.433" transform="translate(278.102 458.563) rotate(-67.615)" fill="#e5e5e5"/>
    <path id="Path_71083" data-name="Path 71083" d="M289.8,459.886a2.646,2.646,0,1,0-2.646-2.646A2.646,2.646,0,0,0,289.8,459.886Z" fill="#e5e5e5"/>
    <path id="Path_71084" data-name="Path 71084" d="M298.318,459.98a2.741,2.741,0,1,0-2.74-2.74A2.741,2.741,0,0,0,298.318,459.98Z" fill="#e5e5e5"/>
    <path id="Path_71085" data-name="Path 71085" d="M306.838,459.909a2.669,2.669,0,1,0-2.669-2.669A2.669,2.669,0,0,0,306.838,459.909Z" fill="#e5e5e5"/>
    <path id="Path_71086" data-name="Path 71086" d="M315.358,459.7a2.457,2.457,0,1,0-2.457-2.457A2.457,2.457,0,0,0,315.358,459.7Z" fill="#e5e5e5"/>
    <path id="Path_71087" data-name="Path 71087" d="M323.878,459.342a2.1,2.1,0,1,0-2.1-2.1A2.1,2.1,0,0,0,323.878,459.342Z" fill="#e5e5e5"/>
    <path id="Path_71088" data-name="Path 71088" d="M332.4,458.893a1.654,1.654,0,1,0-1.653-1.653A1.653,1.653,0,0,0,332.4,458.893Z" fill="#e5e5e5"/>
    <path id="Path_71089" data-name="Path 71089" d="M340.917,458.35a1.111,1.111,0,1,0-1.11-1.11A1.111,1.111,0,0,0,340.917,458.35Z" fill="#e5e5e5"/>
    <path id="Path_71090" data-name="Path 71090" d="M349.437,457.759a.52.52,0,1,0-.52-.519A.519.519,0,0,0,349.437,457.759Z" fill="#e5e5e5"/>
    <path id="Path_71091" data-name="Path 71091" d="M357.957,457.287a.047.047,0,0,0,.047-.047.048.048,0,0,0-.047-.048.049.049,0,0,0-.048.048A.048.048,0,0,0,357.957,457.287Z" fill="#e5e5e5"/>
    <path id="Path_71092" data-name="Path 71092" d="M247.2,465.807a.048.048,0,0,0,.047-.048.047.047,0,0,0-.094,0A.048.048,0,0,0,247.2,465.807Z" fill="#e5e5e5"/>
    <circle id="Ellipse_2149" data-name="Ellipse 2149" cx="0.378" cy="0.378" r="0.378" transform="translate(255.342 465.381)" fill="#e5e5e5"/>
    <path id="Path_71093" data-name="Path 71093" d="M264.239,466.61a.85.85,0,1,0-.85-.851A.851.851,0,0,0,264.239,466.61Z" fill="#e5e5e5"/>
    <circle id="Ellipse_2150" data-name="Ellipse 2150" cx="1.252" cy="1.252" r="1.252" transform="translate(271.507 464.507)" fill="#e5e5e5"/>
    <path id="Path_71094" data-name="Path 71094" d="M281.279,467.342a1.583,1.583,0,1,0-1.583-1.583A1.583,1.583,0,0,0,281.279,467.342Z" fill="#e5e5e5"/>
    <path id="Path_71095" data-name="Path 71095" d="M289.8,467.531a1.772,1.772,0,1,0-1.772-1.772A1.772,1.772,0,0,0,289.8,467.531Z" fill="#e5e5e5"/>
    <path id="Path_71096" data-name="Path 71096" d="M298.318,467.6a1.842,1.842,0,1,0-1.842-1.843A1.843,1.843,0,0,0,298.318,467.6Z" fill="#e5e5e5"/>
    <path id="Path_71097" data-name="Path 71097" d="M306.838,467.531a1.772,1.772,0,1,0-1.772-1.772A1.772,1.772,0,0,0,306.838,467.531Z" fill="#e5e5e5"/>
    <path id="Path_71098" data-name="Path 71098" d="M315.358,467.342a1.583,1.583,0,1,0-1.583-1.583A1.583,1.583,0,0,0,315.358,467.342Z" fill="#e5e5e5"/>
    <path id="Path_71099" data-name="Path 71099" d="M323.878,467.035a1.275,1.275,0,1,0-1.276-1.276A1.275,1.275,0,0,0,323.878,467.035Z" fill="#e5e5e5"/>
    <path id="Path_71100" data-name="Path 71100" d="M332.4,466.657a.9.9,0,1,0-.9-.9A.9.9,0,0,0,332.4,466.657Z" fill="#e5e5e5"/>
    <path id="Path_71101" data-name="Path 71101" d="M340.917,466.161a.4.4,0,1,0-.4-.4A.4.4,0,0,0,340.917,466.161Z" fill="#e5e5e5"/>
    <path id="Path_71102" data-name="Path 71102" d="M349.437,465.807a.048.048,0,0,0,.047-.048.047.047,0,0,0-.094,0A.048.048,0,0,0,349.437,465.807Z" fill="#e5e5e5"/>
    <path id="Path_71103" data-name="Path 71103" d="M264.239,474.421a.142.142,0,1,0-.141-.142A.142.142,0,0,0,264.239,474.421Z" fill="#e5e5e5"/>
    <path id="Path_71104" data-name="Path 71104" d="M272.759,474.7a.425.425,0,1,0-.425-.425A.425.425,0,0,0,272.759,474.7Z" fill="#e5e5e5"/>
    <path id="Path_71105" data-name="Path 71105" d="M281.279,474.988a.709.709,0,1,0-.709-.709A.709.709,0,0,0,281.279,474.988Z" fill="#e5e5e5"/>
    <circle id="Ellipse_2151" data-name="Ellipse 2151" cx="0.874" cy="0.874" r="0.874" transform="translate(288.924 473.405)" fill="#e5e5e5"/>
    <path id="Path_71106" data-name="Path 71106" d="M298.318,475.2a.921.921,0,1,0-.921-.921A.921.921,0,0,0,298.318,475.2Z" fill="#e5e5e5"/>
    <circle id="Ellipse_2152" data-name="Ellipse 2152" cx="0.874" cy="0.874" r="0.874" transform="translate(305.964 473.405)" fill="#e5e5e5"/>
    <path id="Path_71107" data-name="Path 71107" d="M315.358,474.988a.709.709,0,1,0-.709-.709A.709.709,0,0,0,315.358,474.988Z" fill="#e5e5e5"/>
    <path id="Path_71108" data-name="Path 71108" d="M323.878,474.728a.449.449,0,1,0-.449-.449A.449.449,0,0,0,323.878,474.728Z" fill="#e5e5e5"/>
    <path id="Path_71109" data-name="Path 71109" d="M332.4,474.444a.165.165,0,1,0-.165-.165A.165.165,0,0,0,332.4,474.444Z" fill="#e5e5e5"/>
    <path id="Path_71110" data-name="Path 71110" d="M281.279,482.846a.047.047,0,1,0-.047-.047A.047.047,0,0,0,281.279,482.846Z" fill="#e5e5e5"/>
    <path id="Path_71111" data-name="Path 71111" d="M289.8,482.893a.094.094,0,0,0,0-.189.094.094,0,1,0,0,.189Z" fill="#e5e5e5"/>
    <circle id="Ellipse_2153" data-name="Ellipse 2153" cx="0.118" cy="0.118" r="0.118" transform="translate(298.2 482.681)" fill="#e5e5e5"/>
    <path id="Path_71112" data-name="Path 71112" d="M306.838,482.893a.094.094,0,1,0-.094-.094A.095.095,0,0,0,306.838,482.893Z" fill="#e5e5e5"/>
    <path id="Path_71113" data-name="Path 71113" d="M315.358,482.846a.047.047,0,1,0-.047-.047A.047.047,0,0,0,315.358,482.846Z" fill="#e5e5e5"/>
  </g>
  <path id="Path_71114" data-name="Path 71114" d="M237.916,398.146a43.349,43.349,0,0,1,.949-7.559c10.243-47.628,76.336-54.889,112.583-36.119,7.01,3.63,13.57,8.361,18.417,14.593,13.246,17.032,6.579,37.439,3.88,56.9-.844,6.088-1.734,12.32-4.623,17.745-4.452,8.357-13.2,13.749-22.333,16.263s-18.735,2.513-28.2,2.493c-9.121-.018-18.415-.064-27.1-2.864C265.874,451.332,236.857,427.275,237.916,398.146Z" transform="translate(-221.546 -329.349)" fill="#f9f9f9"/>
  <circle id="Ellipse_341" data-name="Ellipse 341" cx="3.736" cy="3.736" r="3.736" transform="translate(124.108 10.661)" fill="none" stroke="#bdbdbd" stroke-linecap="round" stroke-width="2.497"/>
  <circle id="Ellipse_341-2" data-name="Ellipse 341-2" cx="8.736" cy="8.736" r="8.736" transform="translate(113.741 126.399)" fill="none" stroke="#bdbdbd" stroke-linecap="round" stroke-width="2.497"/>
  <g id="icon_heart" data-name="icon heart" transform="translate(-221.546 -329.349)">
    <g id="Group_3608" data-name="Group 3608">
      <path id="Path_23441" data-name="Path 23441" d="M309.65,436.684c-.925,0-2.634,0-12.082-8.8-4.482-4.168-8.625-8.392-8.668-8.456a13.731,13.731,0,0,1-.222-19.417c.073-.074.147-.147.222-.221a14.328,14.328,0,0,1,20.007,0l.748.73.768-.7a14.328,14.328,0,0,1,20.012,0,13.73,13.73,0,0,1,.241,19.416c-.08.081-.16.161-.241.24,0,0-4.168,4.228-8.65,8.415C312.284,436.684,310.568,436.684,309.65,436.684Z" fill="#ffb1b1" stroke="#1a1e23" stroke-linecap="round" stroke-linejoin="round" stroke-width="1.5"/>
    </g>
  </g>
  <g id="Group_15491" data-name="Group 15491" transform="translate(-221.546 -329.349)">
    <path id="Path_71115" data-name="Path 71115" d="M324.466,392.033V380.292a3.911,3.911,0,0,1,3.911-3.911h0a3.911,3.911,0,0,1,3.911,3.911v11.741" fill="none" stroke="#1a1e23" stroke-linecap="round" stroke-linejoin="round" stroke-width="1.5"/>
    <path id="Path_71116" data-name="Path 71116" d="M340.112,396.033V366.292a3.911,3.911,0,0,1,3.911-3.911h0a3.911,3.911,0,0,1,3.911,3.911v29.741" fill="none" stroke="#1a1e23" stroke-linecap="round" stroke-linejoin="round" stroke-width="1.5"/>
    <path id="Path_71117" data-name="Path 71117" d="M347.934,395.6V372.853a3.911,3.911,0,0,1,3.911-3.911h0a3.911,3.911,0,0,1,3.911,3.911V405.6" fill="none" stroke="#1a1e23" stroke-linecap="round" stroke-linejoin="round" stroke-width="1.5"/>
    <path id="Path_71118" data-name="Path 71118" d="M332.29,392.043V371.3a3.911,3.911,0,0,1,3.911-3.911h0a3.911,3.911,0,0,1,3.911,3.911v24.742" fill="none" stroke="#1a1e23" stroke-linecap="round" stroke-linejoin="round" stroke-width="1.5"/>
    <path id="Path_71119" data-name="Path 71119" d="M350.431,439.48c-1.481-8.653,6.227-15.387,11.648-25.128,3.485-6.123,4.32-13.17,7.021-20.351,2.348-6.034-1.177-8.235-4.632-5.614-3.66,2.969-6.566,8.876-8.712,17.208-1.993,5.144-10.243,3.4-11.08,12.269" fill="none" stroke="#1a1e23" stroke-linecap="round" stroke-linejoin="round" stroke-width="1.5"/>
    <path id="Path_71120" data-name="Path 71120" d="M328.488,428.539a33.208,33.208,0,0,1,1.671,10.941" fill="none" stroke="#1a1e23" stroke-linecap="round" stroke-linejoin="round" stroke-width="1.5"/>
  </g>
  <g id="Group_15492" data-name="Group 15492" transform="translate(-221.546 -329.349)">
    <path id="Path_71121" data-name="Path 71121" d="M293.861,392.033V380.292a3.911,3.911,0,0,0-3.911-3.911h0a3.911,3.911,0,0,0-3.911,3.911v11.741" fill="none" stroke="#1a1e23" stroke-linecap="round" stroke-linejoin="round" stroke-width="1.5"/>
    <path id="Path_71122" data-name="Path 71122" d="M278.214,396.033V366.292a3.911,3.911,0,0,0-3.911-3.911h0a3.911,3.911,0,0,0-3.911,3.911v29.741" fill="none" stroke="#1a1e23" stroke-linecap="round" stroke-linejoin="round" stroke-width="1.5"/>
    <path id="Path_71123" data-name="Path 71123" d="M270.392,395.6V372.853a3.911,3.911,0,0,0-3.911-3.911h0a3.911,3.911,0,0,0-3.911,3.911V405.6" fill="none" stroke="#1a1e23" stroke-linecap="round" stroke-linejoin="round" stroke-width="1.5"/>
    <path id="Path_71124" data-name="Path 71124" d="M286.036,392.043V371.3a3.911,3.911,0,0,0-3.911-3.911h0a3.911,3.911,0,0,0-3.911,3.911v24.742" fill="none" stroke="#1a1e23" stroke-linecap="round" stroke-linejoin="round" stroke-width="1.5"/>
    <path id="Path_71125" data-name="Path 71125" d="M267.895,439.48c1.481-8.653-6.227-15.387-11.647-25.128-3.486-6.123-4.32-13.17-7.021-20.351-2.349-6.034,1.176-8.235,4.632-5.614,3.659,2.969,6.566,8.876,8.711,17.208,1.993,5.144,10.244,3.4,11.08,12.269" fill="none" stroke="#1a1e23" stroke-linecap="round" stroke-linejoin="round" stroke-width="1.5"/>
    <path id="Path_71126" data-name="Path 71126" d="M289.838,428.539a33.234,33.234,0,0,0-1.671,10.941" fill="none" stroke="#1a1e23" stroke-linecap="round" stroke-linejoin="round" stroke-width="1.5"/>
  </g>
  <g id="Group_15493" data-name="Group 15493" transform="translate(-221.546 -329.349)">
    <rect id="Rectangle_6168" data-name="Rectangle 6168" width="29.624" height="21.343" rx="2.956" transform="translate(293.758 341.07)" fill="#ffc101" stroke="#1d1d1d" stroke-linecap="round" stroke-width="1.5"/>
    <path id="Path_71127" data-name="Path 71127" d="M297.636,344.611l10.934,10.4,10.984-10.4" fill="none" stroke="#1d1d1d" stroke-linecap="round" stroke-width="1.5"/>
    <line id="Line_1533" data-name="Line 1533" x1="7.305" y2="7.305" transform="translate(297.826 351.741)" fill="none" stroke="#1d1d1d" stroke-linecap="round" stroke-width="1.5"/>
    <line id="Line_1534" data-name="Line 1534" x2="7.305" y2="7.305" transform="translate(312.042 351.741)" fill="none" stroke="#1d1d1d" stroke-linecap="round" stroke-width="1.5"/>
  </g>
  <g id="Group_3279" data-name="Group 3279" transform="translate(-221.546 -329.349)">
    <line id="Line_752" data-name="Line 752" y1="4.285" transform="translate(309.724 386.175)" fill="none" stroke="#1a1e23" stroke-linecap="round" stroke-linejoin="round" stroke-width="1"/>
    <line id="Line_753" data-name="Line 753" y1="2.844" x2="2.844" transform="translate(314.258 389.411)" fill="none" stroke="#1a1e23" stroke-linecap="round" stroke-linejoin="round" stroke-width="1"/>
    <line id="Line_754" data-name="Line 754" x1="2.844" y1="2.844" transform="translate(302.339 389.219)" fill="none" stroke="#1a1e23" stroke-linecap="round" stroke-linejoin="round" stroke-width="1"/>
  </g>
  <g id="icon_check-circle" data-name="icon check-circle" transform="translate(-221.546 -329.349)">
    <circle id="Ellipse_2" data-name="Ellipse 2" cx="12.672" cy="12.672" r="12.672" transform="translate(310.119 409.78)" fill="#b4ffe8" stroke="#1d1d1d" stroke-linecap="round" stroke-width="1.5"/>
    <g id="icon-check">
      <path id="Path_263" data-name="Path 263" d="M326.592,420.644l-4.706,5.448-2.9-2.336" fill="#b4ffe8" stroke="#1d1d1d" stroke-linecap="round" stroke-linejoin="round" stroke-width="1.5"/>
    </g>
  </g>
</svg>
