<svg id="illustration_create-appeals" xmlns="http://www.w3.org/2000/svg" width="145.511" height="145.511" viewBox="0 0 145.511 145.511">
  <g id="Group_17396" data-name="Group 17396" transform="translate(-285.819 -630.344)">
    <circle id="Ellipse_1642" data-name="Ellipse 1642" cx="72.755" cy="72.755" r="72.755" transform="translate(285.819 630.344)" fill="#f9f9f9"/>
    <circle id="Ellipse_341" data-name="Ellipse 341" cx="3.736" cy="3.736" r="3.736" transform="translate(384.308 744.529)" fill="none" stroke="#bdbdbd" stroke-linecap="round" stroke-width="2.497"/>
    <circle id="Ellipse_341-2" data-name="Ellipse 341" cx="8.736" cy="8.736" r="8.736" transform="translate(297.308 743.265)" fill="none" stroke="#bdbdbd" stroke-linecap="round" stroke-width="2.497"/>
  </g>
  <g id="Group_17400" data-name="Group 17400" transform="translate(-283.38 -829.934)">
    <g id="icon_heart" data-name="icon heart" transform="translate(327.652 883.811)">
      <g id="Group_3608" data-name="Group 3608" transform="translate(0 0)">
        <path id="Path_23441" data-name="Path 23441" d="M315.661,446.581c-1.148,0-3.27,0-15-10.929-5.565-5.175-10.709-10.42-10.762-10.5a17.048,17.048,0,0,1-.276-24.108c.091-.092.183-.183.276-.274a17.789,17.789,0,0,1,24.84,0l.929.906.954-.869a17.79,17.79,0,0,1,24.847,0,17.048,17.048,0,0,1,.3,24.107c-.1.1-.2.2-.3.3,0,0-5.175,5.249-10.74,10.448C318.932,446.581,316.8,446.581,315.661,446.581Z" transform="translate(-284.767 -395.718)" fill="#ffb1b1" stroke="#1a1e23" stroke-linecap="round" stroke-linejoin="round" stroke-width="1.5"/>
      </g>
    </g>
    <g id="Group_3279" data-name="Group 3279" transform="translate(348.032 869.361)">
      <line id="Line_752" data-name="Line 752" y1="6.12" transform="translate(10.548 0)" fill="none" stroke="#1a1e23" stroke-linecap="round" stroke-linejoin="round" stroke-width="1"/>
      <line id="Line_753" data-name="Line 753" y1="4.062" x2="4.062" transform="translate(17.022 4.622)" fill="none" stroke="#1a1e23" stroke-linecap="round" stroke-linejoin="round" stroke-width="1"/>
      <line id="Line_754" data-name="Line 754" x1="4.062" y1="4.062" transform="translate(0 4.347)" fill="none" stroke="#1a1e23" stroke-linecap="round" stroke-linejoin="round" stroke-width="1"/>
    </g>
    <g id="Group_17398" data-name="Group 17398" transform="translate(-7 45.777)">
      <path id="Path_78587" data-name="Path 78587" d="M63.028.957A12.672,12.672,0,1,1,50.356,13.629,12.671,12.671,0,0,1,63.028.957" transform="translate(322.779 860.693)" fill="#b4ffe8" stroke="#1d1d1d" stroke-width="1.5"/>
      <line id="Line_2315" data-name="Line 2315" x2="8" transform="translate(381.807 874.322)" fill="none" stroke="#1d1d1d" stroke-linecap="round" stroke-width="1.5"/>
      <line id="Line_2316" data-name="Line 2316" y2="8" transform="translate(385.807 870.322)" fill="none" stroke="#1d1d1d" stroke-linecap="round" stroke-width="1.5"/>
    </g>
    <g id="Group_17399" data-name="Group 17399" transform="translate(-146.93 792.002)">
      <path id="Path_70601" data-name="Path 70601" d="M279.489,139.111v-.133a3.112,3.112,0,0,0-3.112-3.112h0a2.7,2.7,0,0,0-2.7,2.725h0c-.084,4.353-.461,7.279-1.361,9.136h7.171" transform="translate(229.918 -26.372)" fill="none" stroke="#1a1e23" stroke-linecap="round" stroke-linejoin="round" stroke-width="1.5"/>
      <line id="Line_1513" data-name="Line 1513" x2="5.208" transform="translate(501.601 115.733)" fill="#fff" stroke="#1a1e23" stroke-linecap="round" stroke-linejoin="round" stroke-width="1.5"/>
    </g>
  </g>
</svg>
