<svg id="illustration_rocket" xmlns="http://www.w3.org/2000/svg" xmlns:xlink="http://www.w3.org/1999/xlink" width="66.525" height="75.7" viewBox="0 0 66.525 75.7">
  <defs>
    <clipPath id="clip-path">
      <rect id="Rectangle_6245" data-name="Rectangle 6245" width="19.926" height="48.341" fill="#e8e8e8"/>
    </clipPath>
  </defs>
  <g id="Group_15665" data-name="Group 15665" transform="translate(0 0.028)">
    <path id="Path_74676" data-name="Path 74676" d="M66.525,38.494A33.262,33.262,0,1,1,33.261,5.231,33.264,33.264,0,0,1,66.525,38.494" transform="translate(0 3.914)" fill="#102558"/>
    <path id="Path_74677" data-name="Path 74677" d="M28.056,1.571a3.521,3.521,0,0,0-5.074,0A44.875,44.875,0,0,0,10.347,32.7a44.256,44.256,0,0,0,2.392,14.382H38.3A44.3,44.3,0,0,0,40.692,32.7,44.875,44.875,0,0,0,28.056,1.571" transform="translate(7.744 0.367)" fill="#fff"/>
    <path id="Path_74678" data-name="Path 74678" d="M28.056,1.571a3.521,3.521,0,0,0-5.074,0A44.875,44.875,0,0,0,10.347,32.7a44.256,44.256,0,0,0,2.392,14.382H38.3A44.3,44.3,0,0,0,40.692,32.7,44.875,44.875,0,0,0,28.056,1.571Z" transform="translate(7.744 0.367)" fill="#efefef"/>
    <path id="Path_74679" data-name="Path 74679" d="M9.929,33.282h5.99c-1.469-7.057-1.846-13.54-.544-19.138C7.191,16.823,4.555,23.659,4.684,28.037a5.245,5.245,0,0,0,5.245,5.245" transform="translate(3.502 10.585)" fill="#fff"/>
    <path id="Path_74680" data-name="Path 74680" d="M9.929,33.282h5.99c-1.469-7.057-1.846-13.54-.544-19.138C7.191,16.823,4.555,23.659,4.684,28.037A5.245,5.245,0,0,0,9.929,33.282Z" transform="translate(3.502 10.585)" fill="#cbcbcb"/>
    <path id="Path_74681" data-name="Path 74681" d="M32.932,33.282h-5.99c1.469-7.057,1.846-13.54.544-19.138,8.184,2.679,10.821,9.515,10.691,13.893a5.245,5.245,0,0,1-5.245,5.245" transform="translate(20.163 10.585)" fill="#fff"/>
    <path id="Path_74682" data-name="Path 74682" d="M32.932,33.282h-5.99c1.469-7.057,1.846-13.54.544-19.138,8.184,2.679,10.821,9.515,10.691,13.893A5.245,5.245,0,0,1,32.932,33.282Z" transform="translate(20.163 10.585)" fill="#cbcbcb"/>
    <path id="Path_74683" data-name="Path 74683" d="M32.7,11.232a46.4,46.4,0,0,0-7.1-9.667,3.509,3.509,0,0,0-5.053,0,46.573,46.573,0,0,0-6.929,9.361l9.454,4.719Z" transform="translate(10.192 0.366)" fill="#fff"/>
    <path id="Path_74685" data-name="Path 74685" d="M27.322,19.6a5.775,5.775,0,1,1-5.775-5.775A5.775,5.775,0,0,1,27.322,19.6" transform="translate(11.804 10.347)" fill="#fff"/>
    <circle id="Ellipse_2496" data-name="Ellipse 2496" cx="5.775" cy="5.775" r="5.775" transform="translate(27.575 24.174)" fill="#00ade9"/>
    <path id="Path_74686" data-name="Path 74686" d="M30.492,34.345H15.408A1.749,1.749,0,0,1,13.66,32.6V27.142H32.24V32.6a1.749,1.749,0,0,1-1.748,1.748" transform="translate(10.223 20.312)" fill="#fff"/>
    <path id="Path_74687" data-name="Path 74687" d="M30.492,34.345H15.408A1.749,1.749,0,0,1,13.66,32.6V27.142H32.24V32.6A1.749,1.749,0,0,1,30.492,34.345Z" transform="translate(10.223 20.312)" fill="#f9f9f9"/>
    <path id="Path_74688" data-name="Path 74688" d="M24.572,32.693h0a4.887,4.887,0,0,1,0,6.91L21.117,43.06,17.662,39.6a4.886,4.886,0,0,1,6.91-6.91" transform="translate(12.146 23.396)" fill="#fff"/>
    <path id="Path_74689" data-name="Path 74689" d="M24.572,32.693h0a4.887,4.887,0,0,1,0,6.91L21.117,43.06,17.662,39.6a4.886,4.886,0,0,1,6.91-6.91Z" transform="translate(12.146 23.396)" fill="#ffc100"/>
    <g id="Group_15667" data-name="Group 15667" transform="translate(17.275 -0.028)">
      <g id="Group_15666" data-name="Group 15666" transform="translate(0 0)" clip-path="url(#clip-path)">
        <path id="Path_74690" data-name="Path 74690" d="M4.59,33.3A44.917,44.917,0,0,1,17.235,2.138a3.448,3.448,0,0,1,.887-.651,3.519,3.519,0,0,0-4.987.079A44.914,44.914,0,0,0,.49,32.723a44.3,44.3,0,0,0,2.4,14.393H6.813A44.258,44.258,0,0,1,4.59,33.3" transform="translate(0.367 0.368)" fill="#e8e8e8"/>
        <path id="Path_74691" data-name="Path 74691" d="M4.59,33.3A44.917,44.917,0,0,1,17.235,2.138a3.448,3.448,0,0,1,.887-.651,3.519,3.519,0,0,0-4.987.079A44.914,44.914,0,0,0,.49,32.723a44.3,44.3,0,0,0,2.4,14.393H6.813A44.258,44.258,0,0,1,4.59,33.3Z" transform="translate(0.367 0.368)" fill="#e8e8e8"/>
      </g>
    </g>
    <path id="Path_74684" data-name="Path 74684" d="M32.7,11.232a46.4,46.4,0,0,0-7.1-9.667,3.509,3.509,0,0,0-5.053,0,46.573,46.573,0,0,0-6.929,9.361l9.454,4.719Z" transform="translate(10.192 0.366)" fill="#fd4949"/>
  </g>
  <path id="Path_74689-2" data-name="Path 74689" d="M429.3,494.229a7.913,7.913,0,0,0-4.3,4.3.364.364,0,0,1-.477.194.368.368,0,0,1-.194-.194,7.913,7.913,0,0,0-4.3-4.3.364.364,0,0,1,0-.671,7.919,7.919,0,0,0,4.3-4.3.363.363,0,0,1,.671,0,7.919,7.919,0,0,0,4.3,4.3.364.364,0,0,1,0,.671Z" transform="translate(-408.781 -439.33)" fill="#fff"/>
  <path id="Path_74689-3" data-name="Path 74689" d="M424.768,491.749A4.136,4.136,0,0,0,422.521,494a.19.19,0,0,1-.351,0,4.136,4.136,0,0,0-2.247-2.247.19.19,0,0,1,0-.351,4.139,4.139,0,0,0,2.247-2.247.19.19,0,0,1,.351,0,4.139,4.139,0,0,0,2.247,2.247.19.19,0,0,1,0,.351Z" transform="translate(-371.408 -439.33)" fill="#fff"/>
  <path id="Path_74689-4" data-name="Path 74689" d="M434.139,496.877a11.946,11.946,0,0,0-6.492,6.492.55.55,0,0,1-.72.293.556.556,0,0,1-.293-.293,11.946,11.946,0,0,0-6.492-6.492.55.55,0,0,1,0-1.013,11.956,11.956,0,0,0,6.492-6.492.549.549,0,0,1,1.013,0,11.956,11.956,0,0,0,6.492,6.492.55.55,0,0,1,0,1.013Z" transform="translate(-379.732 -474.33)" fill="#fff"/>
</svg>
