<svg xmlns="http://www.w3.org/2000/svg" width="23.621" height="29.093" viewBox="0 0 23.621 29.093">
  <g id="icon_water" transform="translate(1.151 1)">
    <path id="Path_70555" data-name="Path 70555" d="M215.693,201.935l7.465-7.464,7.465,7.464a10.777,10.777,0,0,1,2.431,11.642,10.354,10.354,0,0,1-9.219,6.748,12.739,12.739,0,0,1-1.354,0,10.36,10.36,0,0,1-9.22-6.748A10.787,10.787,0,0,1,215.693,201.935Z" transform="translate(-211.422 -192.25)" fill="#77d0ef"/>
    <path id="Path_70555-2" data-name="Path 70555" d="M214.616,199.714l7.464-7.464,7.465,7.464a10.776,10.776,0,0,1,2.432,11.642,10.354,10.354,0,0,1-9.22,6.748,12.72,12.72,0,0,1-1.353,0,10.357,10.357,0,0,1-9.22-6.748A10.784,10.784,0,0,1,214.616,199.714Z" transform="translate(-211.422 -192.25)" fill="none" stroke="#1d1d1d" stroke-linecap="round" stroke-linejoin="round" stroke-width="2"/>
    <path id="Path_70556" data-name="Path 70556" d="M221.368,213.443a6.036,6.036,0,0,1-6.038-6.035h0" transform="translate(-211.422 -192.25)" fill="none" stroke="#1d1d1d" stroke-linecap="round" stroke-linejoin="round" stroke-width="2"/>
  </g>
</svg>
