<svg xmlns="http://www.w3.org/2000/svg" width="8.141" height="8.136" viewBox="0 0 8.141 8.136">
  <g id="Group_4343" data-name="Group 4343" transform="translate(0 0)">
    <g id="Group_4341" data-name="Group 4341" transform="translate(0 0)">
      <path id="Path_37649" data-name="Path 37649" d="M7.937,3.717a.683.683,0,0,0-.388-1.165L5.707,2.269a.3.3,0,0,1-.217-.163L4.686.393a.676.676,0,0,0-1.227,0L2.651,2.121a.3.3,0,0,1-.217.163L.593,2.568A.684.684,0,0,0,.2,3.733l1.359,1.4a.3.3,0,0,1,.082.257L1.327,7.329A.687.687,0,0,0,2,8.136a.7.7,0,0,0,.322-.1l1.6-.893a.3.3,0,0,1,.28,0l1.612.893a.668.668,0,0,0,.715-.039.679.679,0,0,0,.284-.672L6.5,5.379a.288.288,0,0,1,.082-.252Z" transform="translate(0 0)" fill="#ffc100"/>
      <path id="Path_37650" data-name="Path 37650" d="M7.23,9.656,6.122,10.808a.234.234,0,0,0-.067.206l.26,1.587a.555.555,0,0,1-.232.549.547.547,0,0,1-.584.032l-1.317-.73a.242.242,0,0,0-.229,0l-1.311.73a.575.575,0,0,1-.264.086.562.562,0,0,1-.552-.66l.26-1.587a.244.244,0,0,0-.067-.21L.91,9.668C.867,9.625.481,9.244.061,8.816A.677.677,0,0,0,0,9.126a.685.685,0,0,0,.2.453l1.359,1.4h0a.3.3,0,0,1,.081.256l-.318,1.942A.687.687,0,0,0,2,13.983a.7.7,0,0,0,.322-.1l1.6-.893a.3.3,0,0,1,.28,0l1.612.893a.668.668,0,0,0,.714-.039.679.679,0,0,0,.284-.672L6.5,11.226a.287.287,0,0,1,.081-.252l1.355-1.41a.677.677,0,0,0,.13-.794c-.36.4-.78.831-.835.886" transform="translate(0 -5.847)" fill="#ffc100"/>
    </g>
  </g>
</svg>
