<svg id="illustration_rise-world" xmlns="http://www.w3.org/2000/svg" width="157.035" height="184.669" viewBox="0 0 157.035 184.669">
  <g id="Group_15495" data-name="Group 15495" transform="translate(-229.079 -507.349)">
    <path id="Path_71128" data-name="Path 71128" d="M292.279,507.467a.024.024,0,0,0,.024-.024.024.024,0,0,0-.048,0A.024.024,0,0,0,292.279,507.467Z" fill="#e5e5e5"/>
    <circle id="Ellipse_2154" data-name="Ellipse 2154" cx="0.071" cy="0.071" r="0.071" transform="translate(300.728 507.372)" fill="#e5e5e5"/>
    <path id="Path_71129" data-name="Path 71129" d="M309.318,507.538a.094.094,0,1,0-.094-.1A.094.094,0,0,0,309.318,507.538Z" fill="#e5e5e5"/>
    <circle id="Ellipse_2155" data-name="Ellipse 2155" cx="0.071" cy="0.071" r="0.071" transform="translate(317.767 507.372)" fill="#e5e5e5"/>
    <path id="Path_71130" data-name="Path 71130" d="M326.358,507.467a.024.024,0,0,0,.024-.024.024.024,0,0,0-.048,0A.024.024,0,0,0,326.358,507.467Z" fill="#e5e5e5"/>
    <circle id="Ellipse_2156" data-name="Ellipse 2156" cx="0.118" cy="0.118" r="0.118" transform="translate(275.121 515.845)" fill="#e5e5e5"/>
    <path id="Path_71131" data-name="Path 71131" d="M283.759,516.317a.354.354,0,1,0-.354-.354A.354.354,0,0,0,283.759,516.317Z" fill="#e5e5e5"/>
    <path id="Path_71132" data-name="Path 71132" d="M292.279,516.6a.638.638,0,1,0-.638-.638A.638.638,0,0,0,292.279,516.6Z" fill="#e5e5e5"/>
    <path id="Path_71133" data-name="Path 71133" d="M300.8,516.766a.8.8,0,1,0-.8-.8A.8.8,0,0,0,300.8,516.766Z" fill="#e5e5e5"/>
    <path id="Path_71134" data-name="Path 71134" d="M309.318,516.814a.851.851,0,1,0-.85-.851A.851.851,0,0,0,309.318,516.814Z" fill="#e5e5e5"/>
    <path id="Path_71135" data-name="Path 71135" d="M317.838,516.766a.8.8,0,1,0-.8-.8A.8.8,0,0,0,317.838,516.766Z" fill="#e5e5e5"/>
    <path id="Path_71136" data-name="Path 71136" d="M326.358,516.6a.638.638,0,1,0-.638-.638A.638.638,0,0,0,326.358,516.6Z" fill="#e5e5e5"/>
    <circle id="Ellipse_2157" data-name="Ellipse 2157" cx="0.378" cy="0.378" r="0.378" transform="translate(334.5 515.585)" fill="#e5e5e5"/>
    <circle id="Ellipse_2158" data-name="Ellipse 2158" cx="0.118" cy="0.118" r="0.118" transform="translate(343.279 515.845)" fill="#e5e5e5"/>
    <path id="Path_71137" data-name="Path 71137" d="M258.2,524.507a.024.024,0,1,0-.024-.024A.024.024,0,0,0,258.2,524.507Z" fill="#e5e5e5"/>
    <path id="Path_71138" data-name="Path 71138" d="M266.72,524.79a.307.307,0,1,0-.307-.307A.308.308,0,0,0,266.72,524.79Z" fill="#e5e5e5"/>
    <path id="Path_71139" data-name="Path 71139" d="M275.239,525.263a.78.78,0,1,0-.779-.78A.78.78,0,0,0,275.239,525.263Z" fill="#e5e5e5"/>
    <circle id="Ellipse_2159" data-name="Ellipse 2159" cx="1.181" cy="1.181" r="1.181" transform="translate(282.578 523.302)" fill="#e5e5e5"/>
    <path id="Path_71140" data-name="Path 71140" d="M292.279,525.971a1.488,1.488,0,1,0-1.488-1.488A1.488,1.488,0,0,0,292.279,525.971Z" fill="#e5e5e5"/>
    <path id="Path_71141" data-name="Path 71141" d="M300.8,526.16a1.677,1.677,0,1,0-1.678-1.677A1.677,1.677,0,0,0,300.8,526.16Z" fill="#e5e5e5"/>
    <circle id="Ellipse_2160" data-name="Ellipse 2160" cx="1.748" cy="1.748" r="1.748" transform="translate(307.57 522.735)" fill="#e5e5e5"/>
    <path id="Path_71142" data-name="Path 71142" d="M317.838,526.184a1.7,1.7,0,1,0-1.7-1.7A1.7,1.7,0,0,0,317.838,526.184Z" fill="#e5e5e5"/>
    <path id="Path_71143" data-name="Path 71143" d="M326.358,525.995a1.512,1.512,0,1,0-1.512-1.512A1.512,1.512,0,0,0,326.358,525.995Z" fill="#e5e5e5"/>
    <path id="Path_71144" data-name="Path 71144" d="M334.878,525.711a1.228,1.228,0,1,0-1.229-1.228A1.228,1.228,0,0,0,334.878,525.711Z" fill="#e5e5e5"/>
    <path id="Path_71145" data-name="Path 71145" d="M343.4,525.31a.827.827,0,1,0-.826-.827A.827.827,0,0,0,343.4,525.31Z" fill="#e5e5e5"/>
    <path id="Path_71146" data-name="Path 71146" d="M351.917,524.837a.354.354,0,1,0-.354-.354A.354.354,0,0,0,351.917,524.837Z" fill="#e5e5e5"/>
    <path id="Path_71147" data-name="Path 71147" d="M360.437,524.507a.024.024,0,1,0-.024-.024A.024.024,0,0,0,360.437,524.507Z" fill="#e5e5e5"/>
    <path id="Path_71148" data-name="Path 71148" d="M249.68,533.026a.024.024,0,1,0,0-.047.023.023,0,0,0-.023.024A.023.023,0,0,0,249.68,533.026Z" fill="#e5e5e5"/>
    <path id="Path_71149" data-name="Path 71149" d="M258.2,533.4a.4.4,0,1,0-.4-.4A.4.4,0,0,0,258.2,533.4Z" fill="#e5e5e5"/>
    <path id="Path_71150" data-name="Path 71150" d="M266.72,534.019A1.016,1.016,0,1,0,265.7,533,1.016,1.016,0,0,0,266.72,534.019Z" fill="#e5e5e5"/>
    <circle id="Ellipse_2161" data-name="Ellipse 2161" cx="1.559" cy="1.559" r="1.559" transform="translate(273.68 531.443)" fill="#e5e5e5"/>
    <circle id="Ellipse_2162" data-name="Ellipse 2162" cx="2.008" cy="2.008" r="2.008" transform="translate(281.751 530.994)" fill="#e5e5e5"/>
    <path id="Path_71151" data-name="Path 71151" d="M292.279,535.365A2.362,2.362,0,1,0,289.917,533,2.362,2.362,0,0,0,292.279,535.365Z" fill="#e5e5e5"/>
    <path id="Path_71152" data-name="Path 71152" d="M300.8,535.578A2.576,2.576,0,1,0,298.224,533,2.575,2.575,0,0,0,300.8,535.578Z" fill="#e5e5e5"/>
    <path id="Path_71153" data-name="Path 71153" d="M309.318,535.649A2.646,2.646,0,1,0,306.672,533,2.646,2.646,0,0,0,309.318,535.649Z" fill="#e5e5e5"/>
    <path id="Path_71154" data-name="Path 71154" d="M317.838,535.6a2.6,2.6,0,1,0-2.6-2.6A2.6,2.6,0,0,0,317.838,535.6Z" fill="#e5e5e5"/>
    <path id="Path_71155" data-name="Path 71155" d="M326.358,535.389A2.386,2.386,0,1,0,323.972,533,2.386,2.386,0,0,0,326.358,535.389Z" fill="#e5e5e5"/>
    <path id="Path_71156" data-name="Path 71156" d="M334.878,535.034A2.031,2.031,0,1,0,332.846,533,2.031,2.031,0,0,0,334.878,535.034Z" fill="#e5e5e5"/>
    <path id="Path_71157" data-name="Path 71157" d="M343.4,534.586A1.583,1.583,0,1,0,341.815,533,1.583,1.583,0,0,0,343.4,534.586Z" fill="#e5e5e5"/>
    <path id="Path_71158" data-name="Path 71158" d="M351.917,534.066A1.063,1.063,0,1,0,350.854,533,1.063,1.063,0,0,0,351.917,534.066Z" fill="#e5e5e5"/>
    <path id="Path_71159" data-name="Path 71159" d="M360.437,533.452a.449.449,0,1,0-.449-.449A.45.45,0,0,0,360.437,533.452Z" fill="#e5e5e5"/>
    <path id="Path_71160" data-name="Path 71160" d="M368.957,533.05A.047.047,0,0,0,369,533a.048.048,0,0,0-.047-.048.049.049,0,0,0-.048.048A.048.048,0,0,0,368.957,533.05Z" fill="#e5e5e5"/>
    <path id="Path_71161" data-name="Path 71161" d="M249.68,541.829a.307.307,0,1,0-.307-.307A.306.306,0,0,0,249.68,541.829Z" fill="#e5e5e5"/>
    <path id="Path_71162" data-name="Path 71162" d="M258.2,542.538a1.016,1.016,0,1,0-1.016-1.016A1.016,1.016,0,0,0,258.2,542.538Z" fill="#e5e5e5"/>
    <path id="Path_71163" data-name="Path 71163" d="M266.72,543.2a1.678,1.678,0,1,0-1.678-1.678A1.677,1.677,0,0,0,266.72,543.2Z" fill="#e5e5e5"/>
    <path id="Path_71164" data-name="Path 71164" d="M275.239,543.79a2.268,2.268,0,1,0-2.268-2.268A2.268,2.268,0,0,0,275.239,543.79Z" fill="#e5e5e5"/>
    <path id="Path_71165" data-name="Path 71165" d="M283.759,544.31a2.788,2.788,0,1,0-2.788-2.788A2.788,2.788,0,0,0,283.759,544.31Z" fill="#e5e5e5"/>
    <circle id="Ellipse_2163" data-name="Ellipse 2163" cx="3.189" cy="3.189" r="3.189" transform="translate(289.09 538.333)" fill="#e5e5e5"/>
    <path id="Path_71166" data-name="Path 71166" d="M300.8,544.924a3.4,3.4,0,1,0-3.4-3.4A3.4,3.4,0,0,0,300.8,544.924Z" fill="#e5e5e5"/>
    <path id="Path_71167" data-name="Path 71167" d="M309.318,544.972a3.449,3.449,0,1,0-3.449-3.45A3.45,3.45,0,0,0,309.318,544.972Z" fill="#e5e5e5"/>
    <path id="Path_71168" data-name="Path 71168" d="M317.838,544.924a3.4,3.4,0,1,0-3.4-3.4A3.4,3.4,0,0,0,317.838,544.924Z" fill="#e5e5e5"/>
    <path id="Path_71169" data-name="Path 71169" d="M326.358,544.735a3.213,3.213,0,1,0-3.213-3.213A3.213,3.213,0,0,0,326.358,544.735Z" fill="#e5e5e5"/>
    <path id="Path_71170" data-name="Path 71170" d="M334.878,544.357a2.835,2.835,0,1,0-2.835-2.835A2.835,2.835,0,0,0,334.878,544.357Z" fill="#e5e5e5"/>
    <circle id="Ellipse_2164" data-name="Ellipse 2164" cx="2.315" cy="2.315" r="2.315" transform="translate(341.082 539.207)" fill="#e5e5e5"/>
    <path id="Path_71171" data-name="Path 71171" d="M351.917,543.247a1.725,1.725,0,1,0-1.724-1.725A1.725,1.725,0,0,0,351.917,543.247Z" fill="#e5e5e5"/>
    <path id="Path_71172" data-name="Path 71172" d="M360.437,542.585a1.063,1.063,0,1,0-1.063-1.063A1.063,1.063,0,0,0,360.437,542.585Z" fill="#e5e5e5"/>
    <circle id="Ellipse_2165" data-name="Ellipse 2165" cx="0.378" cy="0.378" r="0.378" transform="translate(368.579 541.144)" fill="#e5e5e5"/>
    <circle id="Ellipse_2166" data-name="Ellipse 2166" cx="0.118" cy="0.118" r="0.118" transform="translate(241.042 549.924)" fill="#e5e5e5"/>
    <path id="Path_71173" data-name="Path 71173" d="M249.68,550.822a.78.78,0,1,0-.779-.78A.78.78,0,0,0,249.68,550.822Z" fill="#e5e5e5"/>
    <circle id="Ellipse_2167" data-name="Ellipse 2167" cx="1.559" cy="1.559" r="1.559" transform="translate(256.641 548.483)" fill="#e5e5e5"/>
    <path id="Path_71174" data-name="Path 71174" d="M266.72,552.31a2.268,2.268,0,1,0-2.268-2.268A2.268,2.268,0,0,0,266.72,552.31Z" fill="#e5e5e5"/>
    <path id="Path_71175" data-name="Path 71175" d="M275.239,552.995a2.953,2.953,0,1,0-2.953-2.953A2.954,2.954,0,0,0,275.239,552.995Z" fill="#e5e5e5"/>
    <path id="Path_71176" data-name="Path 71176" d="M283.759,553.491a3.449,3.449,0,1,0-3.449-3.449A3.45,3.45,0,0,0,283.759,553.491Z" fill="#e5e5e5"/>
    <circle id="Ellipse_2168" data-name="Ellipse 2168" cx="3.567" cy="3.567" r="3.567" transform="translate(288.184 547.095) rotate(-9.251)" fill="#e5e5e5"/>
    <circle id="Ellipse_2169" data-name="Ellipse 2169" cx="3.567" cy="3.567" r="3.567" transform="translate(296.704 547.095) rotate(-9.251)" fill="#e5e5e5"/>
    <circle id="Ellipse_2170" data-name="Ellipse 2170" cx="3.567" cy="3.567" r="3.567" transform="translate(305.224 547.095) rotate(-9.251)" fill="#e5e5e5"/>
    <circle id="Ellipse_2171" data-name="Ellipse 2171" cx="3.567" cy="3.567" r="3.567" transform="translate(313.744 547.095) rotate(-9.251)" fill="#e5e5e5"/>
    <circle id="Ellipse_2172" data-name="Ellipse 2172" cx="3.567" cy="3.567" r="3.567" transform="matrix(0.987, -0.161, 0.161, 0.987, 322.263, 547.095)" fill="#e5e5e5"/>
    <path id="Path_71177" data-name="Path 71177" d="M334.878,553.515a3.473,3.473,0,1,0-3.473-3.473A3.473,3.473,0,0,0,334.878,553.515Z" fill="#e5e5e5"/>
    <circle id="Ellipse_2173" data-name="Ellipse 2173" cx="3" cy="3" r="3" transform="translate(340.397 547.042)" fill="#e5e5e5"/>
    <path id="Path_71178" data-name="Path 71178" d="M351.917,552.381a2.339,2.339,0,1,0-2.339-2.339A2.339,2.339,0,0,0,351.917,552.381Z" fill="#e5e5e5"/>
    <path id="Path_71179" data-name="Path 71179" d="M360.437,551.649a1.607,1.607,0,1,0-1.607-1.607A1.607,1.607,0,0,0,360.437,551.649Z" fill="#e5e5e5"/>
    <path id="Path_71180" data-name="Path 71180" d="M368.957,550.893a.85.85,0,1,0-.851-.851A.851.851,0,0,0,368.957,550.893Z" fill="#e5e5e5"/>
    <path id="Path_71181" data-name="Path 71181" d="M377.476,550.184a.142.142,0,1,0-.141-.142A.142.142,0,0,0,377.476,550.184Z" fill="#e5e5e5"/>
    <path id="Path_71182" data-name="Path 71182" d="M241.16,558.916a.354.354,0,1,0-.354-.354A.354.354,0,0,0,241.16,558.916Z" fill="#e5e5e5"/>
    <circle id="Ellipse_2174" data-name="Ellipse 2174" cx="1.181" cy="1.181" r="1.181" transform="translate(248.499 557.381)" fill="#e5e5e5"/>
    <circle id="Ellipse_2175" data-name="Ellipse 2175" cx="2.008" cy="2.008" r="2.008" transform="translate(256.192 556.554)" fill="#e5e5e5"/>
    <path id="Path_71183" data-name="Path 71183" d="M266.72,561.35a2.788,2.788,0,1,0-2.788-2.788A2.788,2.788,0,0,0,266.72,561.35Z" fill="#e5e5e5"/>
    <path id="Path_71184" data-name="Path 71184" d="M275.239,562.011a3.449,3.449,0,1,0-3.449-3.449A3.45,3.45,0,0,0,275.239,562.011Z" fill="#e5e5e5"/>
    <circle id="Ellipse_2176" data-name="Ellipse 2176" cx="3.567" cy="3.567" r="3.567" transform="translate(279.665 555.614) rotate(-9.252)" fill="#e5e5e5"/>
    <circle id="Ellipse_2177" data-name="Ellipse 2177" cx="3.567" cy="3.567" r="3.567" transform="translate(288.184 555.614) rotate(-9.251)" fill="#e5e5e5"/>
    <circle id="Ellipse_2178" data-name="Ellipse 2178" cx="3.567" cy="3.567" r="3.567" transform="translate(296.704 555.614) rotate(-9.251)" fill="#e5e5e5"/>
    <circle id="Ellipse_2179" data-name="Ellipse 2179" cx="3.567" cy="3.567" r="3.567" transform="translate(305.224 555.614) rotate(-9.251)" fill="#e5e5e5"/>
    <circle id="Ellipse_2180" data-name="Ellipse 2180" cx="3.567" cy="3.567" r="3.567" transform="translate(313.744 555.614) rotate(-9.251)" fill="#e5e5e5"/>
    <circle id="Ellipse_2181" data-name="Ellipse 2181" cx="3.567" cy="3.567" r="3.567" transform="translate(322.263 555.614) rotate(-9.25)" fill="#e5e5e5"/>
    <circle id="Ellipse_2182" data-name="Ellipse 2182" cx="3.567" cy="3.567" r="3.567" transform="matrix(0.987, -0.161, 0.161, 0.987, 330.783, 555.614)" fill="#e5e5e5"/>
    <path id="Path_71185" data-name="Path 71185" d="M343.4,562.035a3.473,3.473,0,1,0-3.472-3.473A3.473,3.473,0,0,0,343.4,562.035Z" fill="#e5e5e5"/>
    <path id="Path_71186" data-name="Path 71186" d="M351.917,561.42a2.858,2.858,0,1,0-2.858-2.858A2.858,2.858,0,0,0,351.917,561.42Z" fill="#e5e5e5"/>
    <path id="Path_71187" data-name="Path 71187" d="M360.437,560.641a2.079,2.079,0,1,0-2.079-2.079A2.079,2.079,0,0,0,360.437,560.641Z" fill="#e5e5e5"/>
    <circle id="Ellipse_2183" data-name="Ellipse 2183" cx="1.252" cy="1.252" r="1.252" transform="translate(367.705 557.31)" fill="#e5e5e5"/>
    <path id="Path_71188" data-name="Path 71188" d="M377.476,558.987a.425.425,0,1,0-.425-.425A.426.426,0,0,0,377.476,558.987Z" fill="#e5e5e5"/>
    <path id="Path_71189" data-name="Path 71189" d="M232.641,567.1a.023.023,0,0,0,.023-.023.023.023,0,0,0-.023-.024.024.024,0,1,0,0,.047Z" fill="#e5e5e5"/>
    <path id="Path_71190" data-name="Path 71190" d="M241.16,567.72a.638.638,0,1,0-.637-.638A.638.638,0,0,0,241.16,567.72Z" fill="#e5e5e5"/>
    <path id="Path_71191" data-name="Path 71191" d="M249.68,568.57a1.488,1.488,0,1,0-1.488-1.488A1.489,1.489,0,0,0,249.68,568.57Z" fill="#e5e5e5"/>
    <path id="Path_71192" data-name="Path 71192" d="M258.2,569.444a2.362,2.362,0,1,0-2.362-2.362A2.362,2.362,0,0,0,258.2,569.444Z" fill="#e5e5e5"/>
    <circle id="Ellipse_2184" data-name="Ellipse 2184" cx="3.189" cy="3.189" r="3.189" transform="translate(263.53 563.892)" fill="#e5e5e5"/>
    <circle id="Ellipse_2185" data-name="Ellipse 2185" cx="3.567" cy="3.567" r="3.567" transform="translate(271.145 564.134) rotate(-9.252)" fill="#e5e5e5"/>
    <circle id="Ellipse_2186" data-name="Ellipse 2186" cx="3.567" cy="3.567" r="3.567" transform="translate(279.665 564.134) rotate(-9.252)" fill="#e5e5e5"/>
    <circle id="Ellipse_2187" data-name="Ellipse 2187" cx="3.567" cy="3.567" r="3.567" transform="translate(288.184 564.134) rotate(-9.251)" fill="#e5e5e5"/>
    <circle id="Ellipse_2188" data-name="Ellipse 2188" cx="3.567" cy="3.567" r="3.567" transform="translate(296.704 564.134) rotate(-9.251)" fill="#e5e5e5"/>
    <circle id="Ellipse_2189" data-name="Ellipse 2189" cx="3.567" cy="3.567" r="3.567" transform="translate(305.224 564.134) rotate(-9.251)" fill="#e5e5e5"/>
    <circle id="Ellipse_2190" data-name="Ellipse 2190" cx="3.567" cy="3.567" r="3.567" transform="translate(313.744 564.134) rotate(-9.251)" fill="#e5e5e5"/>
    <circle id="Ellipse_2191" data-name="Ellipse 2191" cx="3.567" cy="3.567" r="3.567" transform="translate(322.263 564.134) rotate(-9.25)" fill="#e5e5e5"/>
    <circle id="Ellipse_2192" data-name="Ellipse 2192" cx="3.567" cy="3.567" r="3.567" transform="matrix(0.987, -0.161, 0.161, 0.987, 330.783, 564.134)" fill="#e5e5e5"/>
    <circle id="Ellipse_2193" data-name="Ellipse 2193" cx="3.567" cy="3.567" r="3.567" transform="translate(339.303 564.134) rotate(-9.25)" fill="#e5e5e5"/>
    <path id="Path_71193" data-name="Path 71193" d="M351.917,570.342a3.26,3.26,0,1,0-3.26-3.26A3.261,3.261,0,0,0,351.917,570.342Z" fill="#e5e5e5"/>
    <circle id="Ellipse_2194" data-name="Ellipse 2194" cx="2.433" cy="2.433" r="2.433" transform="translate(357.26 568.405) rotate(-67.609)" fill="#e5e5e5"/>
    <path id="Path_71194" data-name="Path 71194" d="M368.957,568.665a1.583,1.583,0,1,0-1.583-1.583A1.583,1.583,0,0,0,368.957,568.665Z" fill="#e5e5e5"/>
    <path id="Path_71195" data-name="Path 71195" d="M377.476,567.79a.708.708,0,1,0-.708-.708A.708.708,0,0,0,377.476,567.79Z" fill="#e5e5e5"/>
    <path id="Path_71196" data-name="Path 71196" d="M386,567.129a.047.047,0,0,0,.047-.047.047.047,0,1,0-.094,0A.047.047,0,0,0,386,567.129Z" fill="#e5e5e5"/>
    <circle id="Ellipse_2195" data-name="Ellipse 2195" cx="0.071" cy="0.071" r="0.071" transform="translate(232.57 575.53)" fill="#e5e5e5"/>
    <path id="Path_71197" data-name="Path 71197" d="M241.16,576.405a.8.8,0,1,0-.8-.8A.8.8,0,0,0,241.16,576.405Z" fill="#e5e5e5"/>
    <path id="Path_71198" data-name="Path 71198" d="M249.68,577.279A1.677,1.677,0,1,0,248,575.6,1.678,1.678,0,0,0,249.68,577.279Z" fill="#e5e5e5"/>
    <path id="Path_71199" data-name="Path 71199" d="M258.2,578.177a2.576,2.576,0,1,0-2.575-2.576A2.575,2.575,0,0,0,258.2,578.177Z" fill="#e5e5e5"/>
    <path id="Path_71200" data-name="Path 71200" d="M266.72,579a3.4,3.4,0,1,0-3.4-3.4A3.4,3.4,0,0,0,266.72,579Z" fill="#e5e5e5"/>
    <circle id="Ellipse_2196" data-name="Ellipse 2196" cx="3.567" cy="3.567" r="3.567" transform="translate(271.145 572.654) rotate(-9.252)" fill="#e5e5e5"/>
    <circle id="Ellipse_2197" data-name="Ellipse 2197" cx="3.567" cy="3.567" r="3.567" transform="translate(279.665 572.654) rotate(-9.252)" fill="#e5e5e5"/>
    <circle id="Ellipse_2198" data-name="Ellipse 2198" cx="3.567" cy="3.567" r="3.567" transform="translate(288.184 572.654) rotate(-9.251)" fill="#e5e5e5"/>
    <circle id="Ellipse_2199" data-name="Ellipse 2199" cx="3.567" cy="3.567" r="3.567" transform="translate(296.704 572.654) rotate(-9.251)" fill="#e5e5e5"/>
    <circle id="Ellipse_2200" data-name="Ellipse 2200" cx="3.567" cy="3.567" r="3.567" transform="translate(305.224 572.654) rotate(-9.251)" fill="#e5e5e5"/>
    <circle id="Ellipse_2201" data-name="Ellipse 2201" cx="3.567" cy="3.567" r="3.567" transform="translate(313.744 572.654) rotate(-9.251)" fill="#e5e5e5"/>
    <circle id="Ellipse_2202" data-name="Ellipse 2202" cx="3.567" cy="3.567" r="3.567" transform="translate(322.263 572.654) rotate(-9.25)" fill="#e5e5e5"/>
    <circle id="Ellipse_2203" data-name="Ellipse 2203" cx="3.567" cy="3.567" r="3.567" transform="matrix(0.987, -0.161, 0.161, 0.987, 330.783, 572.654)" fill="#e5e5e5"/>
    <circle id="Ellipse_2204" data-name="Ellipse 2204" cx="3.567" cy="3.567" r="3.567" transform="translate(339.303 572.654) rotate(-9.25)" fill="#e5e5e5"/>
    <path id="Path_71201" data-name="Path 71201" d="M351.917,579.051a3.45,3.45,0,1,0-3.449-3.45A3.45,3.45,0,0,0,351.917,579.051Z" fill="#e5e5e5"/>
    <path id="Path_71202" data-name="Path 71202" d="M360.437,578.247a2.646,2.646,0,1,0-2.646-2.646A2.646,2.646,0,0,0,360.437,578.247Z" fill="#e5e5e5"/>
    <path id="Path_71203" data-name="Path 71203" d="M368.957,577.373a1.772,1.772,0,1,0-1.772-1.772A1.772,1.772,0,0,0,368.957,577.373Z" fill="#e5e5e5"/>
    <circle id="Ellipse_2205" data-name="Ellipse 2205" cx="0.874" cy="0.874" r="0.874" transform="translate(376.602 574.727)" fill="#e5e5e5"/>
    <path id="Path_71204" data-name="Path 71204" d="M386,575.7a.094.094,0,1,0,0-.189.094.094,0,0,0,0,.189Z" fill="#e5e5e5"/>
    <path id="Path_71205" data-name="Path 71205" d="M232.641,584.216a.095.095,0,1,0-.1-.1A.095.095,0,0,0,232.641,584.216Z" fill="#e5e5e5"/>
    <path id="Path_71206" data-name="Path 71206" d="M241.16,584.972a.85.85,0,1,0-.85-.851A.851.851,0,0,0,241.16,584.972Z" fill="#e5e5e5"/>
    <circle id="Ellipse_2206" data-name="Ellipse 2206" cx="1.748" cy="1.748" r="1.748" transform="translate(247.932 582.373)" fill="#e5e5e5"/>
    <path id="Path_71207" data-name="Path 71207" d="M258.2,586.767a2.646,2.646,0,1,0-2.646-2.646A2.646,2.646,0,0,0,258.2,586.767Z" fill="#e5e5e5"/>
    <path id="Path_71208" data-name="Path 71208" d="M266.72,587.57a3.449,3.449,0,1,0-3.45-3.449A3.449,3.449,0,0,0,266.72,587.57Z" fill="#e5e5e5"/>
    <circle id="Ellipse_2207" data-name="Ellipse 2207" cx="3.567" cy="3.567" r="3.567" transform="translate(271.145 581.174) rotate(-9.252)" fill="#e5e5e5"/>
    <circle id="Ellipse_2208" data-name="Ellipse 2208" cx="3.567" cy="3.567" r="3.567" transform="translate(279.665 581.174) rotate(-9.252)" fill="#e5e5e5"/>
    <circle id="Ellipse_2209" data-name="Ellipse 2209" cx="3.567" cy="3.567" r="3.567" transform="translate(288.184 581.174) rotate(-9.251)" fill="#e5e5e5"/>
    <circle id="Ellipse_2210" data-name="Ellipse 2210" cx="3.567" cy="3.567" r="3.567" transform="translate(296.704 581.174) rotate(-9.251)" fill="#e5e5e5"/>
    <circle id="Ellipse_2211" data-name="Ellipse 2211" cx="3.567" cy="3.567" r="3.567" transform="translate(305.224 581.174) rotate(-9.251)" fill="#e5e5e5"/>
    <circle id="Ellipse_2212" data-name="Ellipse 2212" cx="3.567" cy="3.567" r="3.567" transform="translate(313.744 581.174) rotate(-9.251)" fill="#e5e5e5"/>
    <circle id="Ellipse_2213" data-name="Ellipse 2213" cx="3.567" cy="3.567" r="3.567" transform="translate(322.263 581.174) rotate(-9.25)" fill="#e5e5e5"/>
    <circle id="Ellipse_2214" data-name="Ellipse 2214" cx="3.567" cy="3.567" r="3.567" transform="matrix(0.987, -0.161, 0.161, 0.987, 330.783, 581.173)" fill="#e5e5e5"/>
    <circle id="Ellipse_2215" data-name="Ellipse 2215" cx="3.567" cy="3.567" r="3.567" transform="translate(339.303 581.173) rotate(-9.25)" fill="#e5e5e5"/>
    <path id="Path_71209" data-name="Path 71209" d="M351.917,587.594a3.473,3.473,0,1,0-3.473-3.473A3.473,3.473,0,0,0,351.917,587.594Z" fill="#e5e5e5"/>
    <path id="Path_71210" data-name="Path 71210" d="M360.437,586.862a2.741,2.741,0,1,0-2.74-2.741A2.741,2.741,0,0,0,360.437,586.862Z" fill="#e5e5e5"/>
    <path id="Path_71211" data-name="Path 71211" d="M368.957,585.964a1.843,1.843,0,1,0-1.843-1.843A1.843,1.843,0,0,0,368.957,585.964Z" fill="#e5e5e5"/>
    <path id="Path_71212" data-name="Path 71212" d="M377.476,585.042a.921.921,0,1,0-.921-.921A.921.921,0,0,0,377.476,585.042Z" fill="#e5e5e5"/>
    <circle id="Ellipse_2216" data-name="Ellipse 2216" cx="0.118" cy="0.118" r="0.118" transform="translate(385.878 584.003)" fill="#e5e5e5"/>
    <circle id="Ellipse_2217" data-name="Ellipse 2217" cx="0.071" cy="0.071" r="0.071" transform="translate(232.57 592.57)" fill="#e5e5e5"/>
    <path id="Path_71213" data-name="Path 71213" d="M241.16,593.444a.8.8,0,1,0-.8-.8A.8.8,0,0,0,241.16,593.444Z" fill="#e5e5e5"/>
    <path id="Path_71214" data-name="Path 71214" d="M249.68,594.342a1.7,1.7,0,1,0-1.7-1.7A1.7,1.7,0,0,0,249.68,594.342Z" fill="#e5e5e5"/>
    <path id="Path_71215" data-name="Path 71215" d="M258.2,595.24a2.6,2.6,0,1,0-2.6-2.6A2.6,2.6,0,0,0,258.2,595.24Z" fill="#e5e5e5"/>
    <path id="Path_71216" data-name="Path 71216" d="M266.72,596.043a3.4,3.4,0,1,0-3.4-3.4A3.4,3.4,0,0,0,266.72,596.043Z" fill="#e5e5e5"/>
    <circle id="Ellipse_2218" data-name="Ellipse 2218" cx="3.567" cy="3.567" r="3.567" transform="translate(271.145 589.693) rotate(-9.252)" fill="#e5e5e5"/>
    <circle id="Ellipse_2219" data-name="Ellipse 2219" cx="3.567" cy="3.567" r="3.567" transform="translate(279.665 589.693) rotate(-9.252)" fill="#e5e5e5"/>
    <circle id="Ellipse_2220" data-name="Ellipse 2220" cx="3.567" cy="3.567" r="3.567" transform="translate(288.184 589.693) rotate(-9.251)" fill="#e5e5e5"/>
    <circle id="Ellipse_2221" data-name="Ellipse 2221" cx="3.567" cy="3.567" r="3.567" transform="translate(296.704 589.693) rotate(-9.251)" fill="#e5e5e5"/>
    <circle id="Ellipse_2222" data-name="Ellipse 2222" cx="3.567" cy="3.567" r="3.567" transform="translate(305.224 589.693) rotate(-9.251)" fill="#e5e5e5"/>
    <circle id="Ellipse_2223" data-name="Ellipse 2223" cx="3.567" cy="3.567" r="3.567" transform="translate(313.744 589.693) rotate(-9.251)" fill="#e5e5e5"/>
    <circle id="Ellipse_2224" data-name="Ellipse 2224" cx="3.567" cy="3.567" r="3.567" transform="translate(322.263 589.693) rotate(-9.25)" fill="#e5e5e5"/>
    <circle id="Ellipse_2225" data-name="Ellipse 2225" cx="3.567" cy="3.567" r="3.567" transform="matrix(0.987, -0.161, 0.161, 0.987, 330.783, 589.693)" fill="#e5e5e5"/>
    <circle id="Ellipse_2226" data-name="Ellipse 2226" cx="3.567" cy="3.567" r="3.567" transform="translate(339.303 589.693) rotate(-9.25)" fill="#e5e5e5"/>
    <path id="Path_71217" data-name="Path 71217" d="M351.917,596.09a3.449,3.449,0,1,0-3.449-3.449A3.449,3.449,0,0,0,351.917,596.09Z" fill="#e5e5e5"/>
    <path id="Path_71218" data-name="Path 71218" d="M360.437,595.31a2.669,2.669,0,1,0-2.67-2.669A2.67,2.67,0,0,0,360.437,595.31Z" fill="#e5e5e5"/>
    <path id="Path_71219" data-name="Path 71219" d="M368.957,594.413a1.772,1.772,0,1,0-1.772-1.772A1.773,1.773,0,0,0,368.957,594.413Z" fill="#e5e5e5"/>
    <circle id="Ellipse_2227" data-name="Ellipse 2227" cx="0.874" cy="0.874" r="0.874" transform="translate(376.602 591.767)" fill="#e5e5e5"/>
    <path id="Path_71220" data-name="Path 71220" d="M386,592.735a.094.094,0,1,0-.094-.094A.095.095,0,0,0,386,592.735Z" fill="#e5e5e5"/>
    <path id="Path_71221" data-name="Path 71221" d="M232.641,601.184a.024.024,0,0,0,0-.047.024.024,0,1,0,0,.047Z" fill="#e5e5e5"/>
    <path id="Path_71222" data-name="Path 71222" d="M241.16,601.8a.638.638,0,1,0-.637-.638A.638.638,0,0,0,241.16,601.8Z" fill="#e5e5e5"/>
    <path id="Path_71223" data-name="Path 71223" d="M249.68,602.673a1.512,1.512,0,1,0-1.512-1.512A1.512,1.512,0,0,0,249.68,602.673Z" fill="#e5e5e5"/>
    <path id="Path_71224" data-name="Path 71224" d="M258.2,603.547a2.387,2.387,0,1,0-2.386-2.386A2.386,2.386,0,0,0,258.2,603.547Z" fill="#e5e5e5"/>
    <path id="Path_71225" data-name="Path 71225" d="M266.72,604.374a3.213,3.213,0,1,0-3.213-3.213A3.214,3.214,0,0,0,266.72,604.374Z" fill="#e5e5e5"/>
    <circle id="Ellipse_2228" data-name="Ellipse 2228" cx="3.567" cy="3.567" r="3.567" transform="translate(271.145 598.213) rotate(-9.252)" fill="#e5e5e5"/>
    <circle id="Ellipse_2229" data-name="Ellipse 2229" cx="3.567" cy="3.567" r="3.567" transform="translate(279.665 598.213) rotate(-9.252)" fill="#e5e5e5"/>
    <circle id="Ellipse_2230" data-name="Ellipse 2230" cx="3.567" cy="3.567" r="3.567" transform="translate(288.184 598.213) rotate(-9.251)" fill="#e5e5e5"/>
    <circle id="Ellipse_2231" data-name="Ellipse 2231" cx="3.567" cy="3.567" r="3.567" transform="translate(296.704 598.213) rotate(-9.251)" fill="#e5e5e5"/>
    <circle id="Ellipse_2232" data-name="Ellipse 2232" cx="3.567" cy="3.567" r="3.567" transform="translate(305.224 598.213) rotate(-9.251)" fill="#e5e5e5"/>
    <circle id="Ellipse_2233" data-name="Ellipse 2233" cx="3.567" cy="3.567" r="3.567" transform="translate(313.744 598.213) rotate(-9.251)" fill="#e5e5e5"/>
    <circle id="Ellipse_2234" data-name="Ellipse 2234" cx="3.567" cy="3.567" r="3.567" transform="matrix(0.987, -0.161, 0.161, 0.987, 322.263, 598.213)" fill="#e5e5e5"/>
    <circle id="Ellipse_2235" data-name="Ellipse 2235" cx="3.567" cy="3.567" r="3.567" transform="translate(330.783 598.213) rotate(-9.25)" fill="#e5e5e5"/>
    <circle id="Ellipse_2236" data-name="Ellipse 2236" cx="3.567" cy="3.567" r="3.567" transform="translate(339.303 598.213) rotate(-9.25)" fill="#e5e5e5"/>
    <path id="Path_71226" data-name="Path 71226" d="M351.917,604.444a3.283,3.283,0,1,0-3.284-3.283A3.283,3.283,0,0,0,351.917,604.444Z" fill="#e5e5e5"/>
    <path id="Path_71227" data-name="Path 71227" d="M360.437,603.618a2.457,2.457,0,1,0-2.457-2.457A2.457,2.457,0,0,0,360.437,603.618Z" fill="#e5e5e5"/>
    <path id="Path_71228" data-name="Path 71228" d="M368.957,602.744a1.583,1.583,0,1,0-1.583-1.583A1.583,1.583,0,0,0,368.957,602.744Z" fill="#e5e5e5"/>
    <path id="Path_71229" data-name="Path 71229" d="M377.476,601.869a.708.708,0,1,0-.708-.708A.708.708,0,0,0,377.476,601.869Z" fill="#e5e5e5"/>
    <path id="Path_71230" data-name="Path 71230" d="M386,601.208a.047.047,0,0,0,.047-.047.047.047,0,1,0-.094,0A.047.047,0,0,0,386,601.208Z" fill="#e5e5e5"/>
    <circle id="Ellipse_2237" data-name="Ellipse 2237" cx="0.378" cy="0.378" r="0.378" transform="translate(240.782 609.302)" fill="#e5e5e5"/>
    <path id="Path_71231" data-name="Path 71231" d="M249.68,610.909a1.228,1.228,0,1,0-1.228-1.229A1.229,1.229,0,0,0,249.68,610.909Z" fill="#e5e5e5"/>
    <path id="Path_71232" data-name="Path 71232" d="M258.2,611.712a2.031,2.031,0,1,0-2.032-2.032A2.032,2.032,0,0,0,258.2,611.712Z" fill="#e5e5e5"/>
    <path id="Path_71233" data-name="Path 71233" d="M266.72,612.515a2.835,2.835,0,1,0-2.835-2.835A2.835,2.835,0,0,0,266.72,612.515Z" fill="#e5e5e5"/>
    <path id="Path_71234" data-name="Path 71234" d="M275.239,613.153a3.473,3.473,0,1,0-3.472-3.473A3.473,3.473,0,0,0,275.239,613.153Z" fill="#e5e5e5"/>
    <circle id="Ellipse_2238" data-name="Ellipse 2238" cx="3.567" cy="3.567" r="3.567" transform="translate(279.665 606.733) rotate(-9.252)" fill="#e5e5e5"/>
    <circle id="Ellipse_2239" data-name="Ellipse 2239" cx="3.567" cy="3.567" r="3.567" transform="translate(288.184 606.733) rotate(-9.251)" fill="#e5e5e5"/>
    <circle id="Ellipse_2240" data-name="Ellipse 2240" cx="3.567" cy="3.567" r="3.567" transform="translate(296.704 606.733) rotate(-9.251)" fill="#e5e5e5"/>
    <circle id="Ellipse_2241" data-name="Ellipse 2241" cx="3.567" cy="3.567" r="3.567" transform="translate(305.224 606.733) rotate(-9.251)" fill="#e5e5e5"/>
    <circle id="Ellipse_2242" data-name="Ellipse 2242" cx="3.567" cy="3.567" r="3.567" transform="translate(313.744 606.733) rotate(-9.251)" fill="#e5e5e5"/>
    <circle id="Ellipse_2243" data-name="Ellipse 2243" cx="3.567" cy="3.567" r="3.567" transform="translate(322.263 606.733) rotate(-9.25)" fill="#e5e5e5"/>
    <circle id="Ellipse_2244" data-name="Ellipse 2244" cx="3.567" cy="3.567" r="3.567" transform="matrix(0.987, -0.161, 0.161, 0.987, 330.783, 606.733)" fill="#e5e5e5"/>
    <circle id="Ellipse_2245" data-name="Ellipse 2245" cx="3.497" cy="3.497" r="3.497" transform="translate(339.901 606.184)" fill="#e5e5e5"/>
    <circle id="Ellipse_2246" data-name="Ellipse 2246" cx="2.882" cy="2.882" r="2.882" transform="translate(349.035 606.798)" fill="#e5e5e5"/>
    <path id="Path_71235" data-name="Path 71235" d="M360.437,611.783a2.1,2.1,0,1,0-2.1-2.1A2.1,2.1,0,0,0,360.437,611.783Z" fill="#e5e5e5"/>
    <path id="Path_71236" data-name="Path 71236" d="M368.957,610.956a1.275,1.275,0,1,0-1.276-1.276A1.275,1.275,0,0,0,368.957,610.956Z" fill="#e5e5e5"/>
    <path id="Path_71237" data-name="Path 71237" d="M377.476,610.129a.449.449,0,1,0-.448-.449A.449.449,0,0,0,377.476,610.129Z" fill="#e5e5e5"/>
    <circle id="Ellipse_2247" data-name="Ellipse 2247" cx="0.118" cy="0.118" r="0.118" transform="translate(241.042 618.082)" fill="#e5e5e5"/>
    <path id="Path_71238" data-name="Path 71238" d="M249.68,619.027a.827.827,0,1,0-.827-.827A.827.827,0,0,0,249.68,619.027Z" fill="#e5e5e5"/>
    <path id="Path_71239" data-name="Path 71239" d="M258.2,619.783a1.583,1.583,0,1,0-1.583-1.583A1.583,1.583,0,0,0,258.2,619.783Z" fill="#e5e5e5"/>
    <circle id="Ellipse_2248" data-name="Ellipse 2248" cx="2.315" cy="2.315" r="2.315" transform="translate(264.404 615.885)" fill="#e5e5e5"/>
    <circle id="Ellipse_2249" data-name="Ellipse 2249" cx="3" cy="3" r="3" transform="translate(272.239 615.2)" fill="#e5e5e5"/>
    <path id="Path_71240" data-name="Path 71240" d="M283.759,621.673a3.473,3.473,0,1,0-3.473-3.473A3.473,3.473,0,0,0,283.759,621.673Z" fill="#e5e5e5"/>
    <circle id="Ellipse_2250" data-name="Ellipse 2250" cx="3.567" cy="3.567" r="3.567" transform="translate(288.184 615.253) rotate(-9.251)" fill="#e5e5e5"/>
    <circle id="Ellipse_2251" data-name="Ellipse 2251" cx="3.567" cy="3.567" r="3.567" transform="translate(296.704 615.253) rotate(-9.251)" fill="#e5e5e5"/>
    <circle id="Ellipse_2252" data-name="Ellipse 2252" cx="3.567" cy="3.567" r="3.567" transform="translate(305.224 615.253) rotate(-9.251)" fill="#e5e5e5"/>
    <circle id="Ellipse_2253" data-name="Ellipse 2253" cx="3.567" cy="3.567" r="3.567" transform="translate(313.744 615.253) rotate(-9.251)" fill="#e5e5e5"/>
    <circle id="Ellipse_2254" data-name="Ellipse 2254" cx="3.567" cy="3.567" r="3.567" transform="matrix(0.987, -0.161, 0.161, 0.987, 322.263, 615.253)" fill="#e5e5e5"/>
    <circle id="Ellipse_2255" data-name="Ellipse 2255" cx="3.497" cy="3.497" r="3.497" transform="translate(331.381 614.704)" fill="#e5e5e5"/>
    <path id="Path_71241" data-name="Path 71241" d="M343.4,621.248a3.047,3.047,0,1,0-3.047-3.048A3.048,3.048,0,0,0,343.4,621.248Z" fill="#e5e5e5"/>
    <path id="Path_71242" data-name="Path 71242" d="M351.917,620.586a2.386,2.386,0,1,0-2.386-2.386A2.386,2.386,0,0,0,351.917,620.586Z" fill="#e5e5e5"/>
    <path id="Path_71243" data-name="Path 71243" d="M360.437,619.854a1.654,1.654,0,1,0-1.654-1.654A1.655,1.655,0,0,0,360.437,619.854Z" fill="#e5e5e5"/>
    <path id="Path_71244" data-name="Path 71244" d="M368.957,619.1a.9.9,0,1,0-.9-.9A.9.9,0,0,0,368.957,619.1Z" fill="#e5e5e5"/>
    <path id="Path_71245" data-name="Path 71245" d="M377.476,618.365a.165.165,0,1,0-.165-.165A.165.165,0,0,0,377.476,618.365Z" fill="#e5e5e5"/>
    <path id="Path_71246" data-name="Path 71246" d="M249.68,627.074a.354.354,0,1,0-.354-.354A.354.354,0,0,0,249.68,627.074Z" fill="#e5e5e5"/>
    <path id="Path_71247" data-name="Path 71247" d="M258.2,627.783a1.063,1.063,0,1,0-1.063-1.063A1.063,1.063,0,0,0,258.2,627.783Z" fill="#e5e5e5"/>
    <path id="Path_71248" data-name="Path 71248" d="M266.72,628.444a1.724,1.724,0,1,0-1.725-1.724A1.724,1.724,0,0,0,266.72,628.444Z" fill="#e5e5e5"/>
    <path id="Path_71249" data-name="Path 71249" d="M275.239,629.059a2.339,2.339,0,1,0-2.338-2.339A2.339,2.339,0,0,0,275.239,629.059Z" fill="#e5e5e5"/>
    <path id="Path_71250" data-name="Path 71250" d="M283.759,629.578a2.858,2.858,0,1,0-2.858-2.858A2.858,2.858,0,0,0,283.759,629.578Z" fill="#e5e5e5"/>
    <path id="Path_71251" data-name="Path 71251" d="M292.279,629.98a3.26,3.26,0,1,0-3.26-3.26A3.26,3.26,0,0,0,292.279,629.98Z" fill="#e5e5e5"/>
    <path id="Path_71252" data-name="Path 71252" d="M300.8,630.169a3.449,3.449,0,1,0-3.45-3.449A3.449,3.449,0,0,0,300.8,630.169Z" fill="#e5e5e5"/>
    <path id="Path_71253" data-name="Path 71253" d="M309.318,630.193a3.473,3.473,0,1,0-3.472-3.473A3.473,3.473,0,0,0,309.318,630.193Z" fill="#e5e5e5"/>
    <path id="Path_71254" data-name="Path 71254" d="M317.838,630.169a3.449,3.449,0,1,0-3.449-3.449A3.449,3.449,0,0,0,317.838,630.169Z" fill="#e5e5e5"/>
    <path id="Path_71255" data-name="Path 71255" d="M326.358,630a3.284,3.284,0,1,0-3.284-3.284A3.284,3.284,0,0,0,326.358,630Z" fill="#e5e5e5"/>
    <circle id="Ellipse_2256" data-name="Ellipse 2256" cx="2.882" cy="2.882" r="2.882" transform="translate(331.995 623.838)" fill="#e5e5e5"/>
    <path id="Path_71256" data-name="Path 71256" d="M343.4,629.106a2.386,2.386,0,1,0-2.386-2.386A2.387,2.387,0,0,0,343.4,629.106Z" fill="#e5e5e5"/>
    <path id="Path_71257" data-name="Path 71257" d="M351.917,628.515a1.8,1.8,0,1,0-1.795-1.8A1.8,1.8,0,0,0,351.917,628.515Z" fill="#e5e5e5"/>
    <path id="Path_71258" data-name="Path 71258" d="M360.437,627.83a1.11,1.11,0,1,0-1.11-1.11A1.11,1.11,0,0,0,360.437,627.83Z" fill="#e5e5e5"/>
    <path id="Path_71259" data-name="Path 71259" d="M368.957,627.122a.4.4,0,1,0-.4-.4A.4.4,0,0,0,368.957,627.122Z" fill="#e5e5e5"/>
    <path id="Path_71260" data-name="Path 71260" d="M249.68,635.263a.024.024,0,1,0,0-.047.023.023,0,0,0-.023.024A.023.023,0,0,0,249.68,635.263Z" fill="#e5e5e5"/>
    <path id="Path_71261" data-name="Path 71261" d="M258.2,635.689a.449.449,0,1,0-.449-.449A.45.45,0,0,0,258.2,635.689Z" fill="#e5e5e5"/>
    <path id="Path_71262" data-name="Path 71262" d="M266.72,636.3a1.063,1.063,0,1,0-1.063-1.063A1.063,1.063,0,0,0,266.72,636.3Z" fill="#e5e5e5"/>
    <path id="Path_71263" data-name="Path 71263" d="M275.239,636.846a1.607,1.607,0,1,0-1.606-1.606A1.606,1.606,0,0,0,275.239,636.846Z" fill="#e5e5e5"/>
    <path id="Path_71264" data-name="Path 71264" d="M283.759,637.319a2.079,2.079,0,1,0-2.079-2.079A2.079,2.079,0,0,0,283.759,637.319Z" fill="#e5e5e5"/>
    <circle id="Ellipse_2257" data-name="Ellipse 2257" cx="2.433" cy="2.433" r="2.433" transform="translate(289.102 636.563) rotate(-67.615)" fill="#e5e5e5"/>
    <path id="Path_71265" data-name="Path 71265" d="M300.8,637.886a2.646,2.646,0,1,0-2.646-2.646A2.646,2.646,0,0,0,300.8,637.886Z" fill="#e5e5e5"/>
    <path id="Path_71266" data-name="Path 71266" d="M309.318,637.98a2.74,2.74,0,1,0-2.74-2.74A2.741,2.741,0,0,0,309.318,637.98Z" fill="#e5e5e5"/>
    <path id="Path_71267" data-name="Path 71267" d="M317.838,637.909a2.669,2.669,0,1,0-2.669-2.669A2.669,2.669,0,0,0,317.838,637.909Z" fill="#e5e5e5"/>
    <path id="Path_71268" data-name="Path 71268" d="M326.358,637.7a2.457,2.457,0,1,0-2.457-2.457A2.457,2.457,0,0,0,326.358,637.7Z" fill="#e5e5e5"/>
    <path id="Path_71269" data-name="Path 71269" d="M334.878,637.342a2.1,2.1,0,1,0-2.1-2.1A2.1,2.1,0,0,0,334.878,637.342Z" fill="#e5e5e5"/>
    <path id="Path_71270" data-name="Path 71270" d="M343.4,636.893a1.654,1.654,0,1,0-1.653-1.653A1.653,1.653,0,0,0,343.4,636.893Z" fill="#e5e5e5"/>
    <path id="Path_71271" data-name="Path 71271" d="M351.917,636.35a1.11,1.11,0,1,0-1.11-1.11A1.111,1.111,0,0,0,351.917,636.35Z" fill="#e5e5e5"/>
    <path id="Path_71272" data-name="Path 71272" d="M360.437,635.759a.52.52,0,1,0-.52-.519A.519.519,0,0,0,360.437,635.759Z" fill="#e5e5e5"/>
    <path id="Path_71273" data-name="Path 71273" d="M368.957,635.287a.047.047,0,0,0,.047-.047.048.048,0,0,0-.047-.048.049.049,0,0,0-.048.048A.048.048,0,0,0,368.957,635.287Z" fill="#e5e5e5"/>
    <path id="Path_71274" data-name="Path 71274" d="M258.2,643.807a.048.048,0,0,0,.047-.048.047.047,0,0,0-.094,0A.048.048,0,0,0,258.2,643.807Z" fill="#e5e5e5"/>
    <circle id="Ellipse_2258" data-name="Ellipse 2258" cx="0.378" cy="0.378" r="0.378" transform="translate(266.342 643.381)" fill="#e5e5e5"/>
    <path id="Path_71275" data-name="Path 71275" d="M275.239,644.61a.85.85,0,1,0-.85-.851A.851.851,0,0,0,275.239,644.61Z" fill="#e5e5e5"/>
    <circle id="Ellipse_2259" data-name="Ellipse 2259" cx="1.252" cy="1.252" r="1.252" transform="translate(282.507 642.507)" fill="#e5e5e5"/>
    <path id="Path_71276" data-name="Path 71276" d="M292.279,645.342a1.583,1.583,0,1,0-1.583-1.583A1.583,1.583,0,0,0,292.279,645.342Z" fill="#e5e5e5"/>
    <path id="Path_71277" data-name="Path 71277" d="M300.8,645.531a1.772,1.772,0,1,0-1.772-1.772A1.772,1.772,0,0,0,300.8,645.531Z" fill="#e5e5e5"/>
    <path id="Path_71278" data-name="Path 71278" d="M309.318,645.6a1.842,1.842,0,1,0-1.842-1.843A1.843,1.843,0,0,0,309.318,645.6Z" fill="#e5e5e5"/>
    <path id="Path_71279" data-name="Path 71279" d="M317.838,645.531a1.772,1.772,0,1,0-1.772-1.772A1.772,1.772,0,0,0,317.838,645.531Z" fill="#e5e5e5"/>
    <path id="Path_71280" data-name="Path 71280" d="M326.358,645.342a1.583,1.583,0,1,0-1.583-1.583A1.583,1.583,0,0,0,326.358,645.342Z" fill="#e5e5e5"/>
    <path id="Path_71281" data-name="Path 71281" d="M334.878,645.035a1.275,1.275,0,1,0-1.276-1.276A1.275,1.275,0,0,0,334.878,645.035Z" fill="#e5e5e5"/>
    <path id="Path_71282" data-name="Path 71282" d="M343.4,644.657a.9.9,0,1,0-.9-.9A.9.9,0,0,0,343.4,644.657Z" fill="#e5e5e5"/>
    <path id="Path_71283" data-name="Path 71283" d="M351.917,644.161a.4.4,0,1,0-.4-.4A.4.4,0,0,0,351.917,644.161Z" fill="#e5e5e5"/>
    <path id="Path_71284" data-name="Path 71284" d="M360.437,643.807a.048.048,0,0,0,.047-.048.047.047,0,0,0-.094,0A.048.048,0,0,0,360.437,643.807Z" fill="#e5e5e5"/>
    <path id="Path_71285" data-name="Path 71285" d="M275.239,652.421a.142.142,0,1,0-.141-.142A.142.142,0,0,0,275.239,652.421Z" fill="#e5e5e5"/>
    <path id="Path_71286" data-name="Path 71286" d="M283.759,652.7a.425.425,0,1,0-.425-.425A.425.425,0,0,0,283.759,652.7Z" fill="#e5e5e5"/>
    <path id="Path_71287" data-name="Path 71287" d="M292.279,652.988a.709.709,0,1,0-.709-.709A.709.709,0,0,0,292.279,652.988Z" fill="#e5e5e5"/>
    <circle id="Ellipse_2260" data-name="Ellipse 2260" cx="0.874" cy="0.874" r="0.874" transform="translate(299.924 651.405)" fill="#e5e5e5"/>
    <path id="Path_71288" data-name="Path 71288" d="M309.318,653.2a.921.921,0,1,0-.921-.921A.921.921,0,0,0,309.318,653.2Z" fill="#e5e5e5"/>
    <circle id="Ellipse_2261" data-name="Ellipse 2261" cx="0.874" cy="0.874" r="0.874" transform="translate(316.964 651.405)" fill="#e5e5e5"/>
    <path id="Path_71289" data-name="Path 71289" d="M326.358,652.988a.709.709,0,1,0-.709-.709A.709.709,0,0,0,326.358,652.988Z" fill="#e5e5e5"/>
    <path id="Path_71290" data-name="Path 71290" d="M334.878,652.728a.449.449,0,1,0-.449-.449A.449.449,0,0,0,334.878,652.728Z" fill="#e5e5e5"/>
    <path id="Path_71291" data-name="Path 71291" d="M343.4,652.444a.165.165,0,1,0-.165-.165A.165.165,0,0,0,343.4,652.444Z" fill="#e5e5e5"/>
    <path id="Path_71292" data-name="Path 71292" d="M292.279,660.846a.047.047,0,1,0-.047-.047A.047.047,0,0,0,292.279,660.846Z" fill="#e5e5e5"/>
    <path id="Path_71293" data-name="Path 71293" d="M300.8,660.893a.095.095,0,0,0,0-.189.095.095,0,1,0,0,.189Z" fill="#e5e5e5"/>
    <circle id="Ellipse_2262" data-name="Ellipse 2262" cx="0.118" cy="0.118" r="0.118" transform="translate(309.2 660.681)" fill="#e5e5e5"/>
    <path id="Path_71294" data-name="Path 71294" d="M317.838,660.893a.095.095,0,1,0-.094-.094A.095.095,0,0,0,317.838,660.893Z" fill="#e5e5e5"/>
    <path id="Path_71295" data-name="Path 71295" d="M326.358,660.846a.047.047,0,1,0-.047-.047A.047.047,0,0,0,326.358,660.846Z" fill="#e5e5e5"/>
  </g>
  <path id="Path_71296" data-name="Path 71296" d="M239.133,547c.358,6.189,2.46,12.286,4.616,18.163q9.3,25.352,20.562,49.929c4.935,10.771,10.244,21.564,18.1,30.429s18.661,15.71,30.487,16.43c13.752.838,26.941-6.732,36.171-16.962,32.732-36.277,20.754-91.879-21.724-114.8-15.552-8.392-31.923-17-49.594-17.069s-36.743,11.579-38.53,29.161A29.557,29.557,0,0,0,239.133,547Z" transform="translate(-239.079 -477.349)" fill="#f9f9f9"/>
  <circle id="Ellipse_341" data-name="Ellipse 341" cx="3.736" cy="3.736" r="3.736" transform="translate(128.282 159.047)" fill="none" stroke="#bdbdbd" stroke-linecap="round" stroke-width="2.497"/>
  <g id="Group_15496" data-name="Group 15496" transform="translate(-239.079 -477.349)">
    <path id="Path_71297" data-name="Path 71297" d="M385.3,560.393c0,18.293-21.157,33.122-47.254,33.122s-47.254-14.829-47.254-33.122c0-6.438,24.214-8.715,28.748-13.8,6.739-7.556,1.121-10.976,9.2-18.043,2.34-2.045,6.038-1.279,9.3-1.279C364.142,527.271,385.3,542.1,385.3,560.393Z" fill="#ffc101"/>
    <circle id="Ellipse_1819" data-name="Ellipse 1819" cx="54.606" cy="54.606" r="54.606" transform="translate(254.506 527.992)" fill="#ccf2ff"/>
    <path id="Path_70579" data-name="Path 70579" d="M285.532,534.291c-.373,3.869,2.707,7.276,6.112,9.149s7.3,2.769,10.624,4.779c3.932,2.38,8.634,9.683,11.922,6.473,2.118-2.067.025-5.919.037-8.879a6.33,6.33,0,0,1,.39-2.6c1.155-2.547,4.708-2.418,7.421-3.1a9.854,9.854,0,0,0,7.128-7.6" fill="none" stroke="#1a1e23" stroke-linecap="round" stroke-linejoin="round" stroke-width="1.5"/>
    <path id="Path_70580" data-name="Path 70580" d="M348.276,544.2a24.414,24.414,0,0,0-8.281,6.99,11.073,11.073,0,0,0-1.293,10.938c2.145,4.238,7.684,6.475,8.54,11.144.839,4.559-3.376,8.86-2.73,13.456a12.864,12.864,0,0,0,2.272,5q.865,1.336,1.755,2.666" fill="none" stroke="#1a1e23" stroke-linecap="round" stroke-linejoin="round" stroke-width="1.5"/>
    <path id="Path_70581" data-name="Path 70581" d="M295.9,618.813a7.3,7.3,0,0,0,7.51.735,13.761,13.761,0,0,0,5.7-5.281c3.467-5.285,4.895-11.574,7.623-17.257,2.494-5.194,6.143-10.079,6.752-15.781a8.193,8.193,0,0,0-1.338-5.978,9.112,9.112,0,0,0-6.046-2.88c-4.485-.6-9.316.242-13.339-1.767-4.263-2.126-6.738-7.081-11.331-8.4A10.075,10.075,0,0,0,280.179,568a16.534,16.534,0,0,0,.5,13.155,73.584,73.584,0,0,0,7.059,11.631c2.614,3.937,5.026,8.058,5.252,12.816C293.179,609.69,292.365,615.788,295.9,618.813Z" fill="#fff" stroke="#1a1e23" stroke-linecap="round" stroke-linejoin="round" stroke-width="1.5"/>
    <circle id="Ellipse_1819-2" data-name="Ellipse 1819" cx="54.606" cy="54.606" r="54.606" transform="translate(254.506 527.992)" fill="none" stroke="#1d1d1d" stroke-linecap="round" stroke-linejoin="round" stroke-width="1.5"/>
  </g>
  <g id="Group_15497" data-name="Group 15497" transform="translate(-239.079 -477.349)">
    <g id="icon_heart" data-name="icon heart">
      <g id="Group_3608" data-name="Group 3608">
        <path id="Path_23441" data-name="Path 23441" d="M310.95,607.958c-.924,0-2.633,0-12.081-8.8-4.483-4.169-8.626-8.393-8.669-8.457a13.731,13.731,0,0,1-.222-19.417c.073-.074.148-.147.222-.221a14.328,14.328,0,0,1,20.007,0l.749.73.767-.7a14.328,14.328,0,0,1,20.012,0,13.73,13.73,0,0,1,.241,19.416c-.08.081-.16.161-.241.24,0,0-4.167,4.228-8.65,8.415C313.584,607.958,311.868,607.958,310.95,607.958Z" fill="#ffb1b1" stroke="#1a1e23" stroke-linecap="round" stroke-linejoin="round" stroke-width="1.5"/>
      </g>
    </g>
    <g id="Group_15397" data-name="Group 15397">
      <path id="Path_70601" data-name="Path 70601" d="M314.143,583.278v-.133a3.112,3.112,0,0,0-3.112-3.112h0a2.7,2.7,0,0,0-2.7,2.7v.025h0c-.084,4.353-.461,7.279-1.361,9.136h7.171" fill="none" stroke="#1a1e23" stroke-linecap="round" stroke-linejoin="round" stroke-width="1.5"/>
      <line id="Line_1513" data-name="Line 1513" x2="5.208" transform="translate(306.337 586.272)" fill="none" stroke="#1a1e23" stroke-linecap="round" stroke-linejoin="round" stroke-width="1.5"/>
    </g>
  </g>
  <g id="Group_15498" data-name="Group 15498" transform="translate(-239.079 -477.349)">
    <path id="Path_71298" data-name="Path 71298" d="M366.3,576.279c-1.83-11.734-8.894-18.2-21.754-18.823V538.073l27.69,15.536Z" fill="#ffc101"/>
    <path id="Path_71299" data-name="Path 71299" d="M344.533,528.154c22.892,1.631,40.766,15.408,40.766,32.162,0,11.614-8.589,21.8-21.485,27.5" fill="none" stroke="#1d1d1d" stroke-linecap="round" stroke-width="1.5"/>
    <path id="Path_71300" data-name="Path 71300" d="M344.545,557.456c12.014,0,21.754,8.427,21.754,18.823" fill="none" stroke="#1d1d1d" stroke-linecap="round" stroke-width="1.5"/>
    <path id="Path_71301" data-name="Path 71301" d="M344.533,557.287v10.307a2,2,0,0,1-3.365,1.461l-26.8-25.042a2,2,0,0,1,.029-2.95l26.8-24.055a2,2,0,0,1,3.336,1.488v9.491" fill="#ffc101" stroke="#1d1d1d" stroke-linecap="round" stroke-width="1.5"/>
  </g>
  <g id="Group_2374" data-name="Group 2374" transform="translate(-239.079 -477.349)">
    <circle id="Ellipse_123" data-name="Ellipse 123" cx="10.653" cy="10.653" r="10.653" transform="translate(255.104 506.531)" fill="#fff" stroke="#1d1d1d" stroke-linecap="round" stroke-linejoin="round" stroke-width="1.5"/>
    <circle id="Ellipse_122" data-name="Ellipse 122" cx="4.431" cy="4.431" r="4.431" transform="translate(261.325 510.67)" fill="none" stroke="#1d1d1d" stroke-linecap="round" stroke-linejoin="round" stroke-width="1.5"/>
    <path id="Path_5611" data-name="Path 5611" d="M272.564,525.26a9.89,9.89,0,0,0-13.621,0" fill="none" stroke="#1d1d1d" stroke-linecap="round" stroke-linejoin="round" stroke-width="1.5"/>
  </g>
  <g id="Group_2374-2" data-name="Group 2374" transform="translate(-239.079 -477.349)">
    <circle id="Ellipse_123-2" data-name="Ellipse 123" cx="8.73" cy="8.73" r="8.73" transform="translate(337.829 611.13)" fill="#fff" stroke="#1d1d1d" stroke-linecap="round" stroke-linejoin="round" stroke-width="1.5"/>
    <circle id="Ellipse_122-2" data-name="Ellipse 122" cx="3.631" cy="3.631" r="3.631" transform="translate(342.927 614.522)" fill="none" stroke="#1d1d1d" stroke-linecap="round" stroke-linejoin="round" stroke-width="1.5"/>
    <path id="Path_5611-2" data-name="Path 5611" d="M352.137,626.478a8.105,8.105,0,0,0-11.162,0" fill="none" stroke="#1d1d1d" stroke-linecap="round" stroke-linejoin="round" stroke-width="1.5"/>
  </g>
  <g id="Group_2374-3" data-name="Group 2374" transform="translate(-239.079 -477.349)">
    <circle id="Ellipse_123-3" data-name="Ellipse 123" cx="16.413" cy="16.413" r="16.413" transform="translate(249.344 593.716)" fill="#fff" stroke="#1d1d1d" stroke-linecap="round" stroke-linejoin="round" stroke-width="1.5"/>
    <circle id="Ellipse_122-3" data-name="Ellipse 122" cx="6.827" cy="6.827" r="6.827" transform="translate(258.929 600.093)" fill="none" stroke="#1d1d1d" stroke-linecap="round" stroke-linejoin="round" stroke-width="1.5"/>
    <path id="Path_5611-3" data-name="Path 5611" d="M276.244,622.572a15.236,15.236,0,0,0-20.985,0" fill="none" stroke="#1d1d1d" stroke-linecap="round" stroke-linejoin="round" stroke-width="1.5"/>
  </g>
  <g id="Group_3279" data-name="Group 3279" transform="translate(-239.079 -477.349)">
    <line id="Line_752" data-name="Line 752" x1="4.05" y2="1.4" transform="translate(389.35 545.445)" fill="none" stroke="#1a1e23" stroke-linecap="round" stroke-linejoin="round" stroke-width="1"/>
    <line id="Line_753" data-name="Line 753" x1="1.759" y2="3.617" transform="translate(386.172 539.53)" fill="none" stroke="#1a1e23" stroke-linecap="round" stroke-linejoin="round" stroke-width="1"/>
    <line id="Line_754" data-name="Line 754" x1="3.617" y1="1.759" transform="translate(389.318 551.661)" fill="none" stroke="#1a1e23" stroke-linecap="round" stroke-linejoin="round" stroke-width="1"/>
  </g>
  <g id="Group_15499" data-name="Group 15499" transform="translate(-239.079 -477.349)">
    <rect id="Rectangle_6169" data-name="Rectangle 6169" width="29.624" height="21.343" rx="2.956" transform="translate(277.955 529.173)" fill="#ffc101" stroke="#1d1d1d" stroke-linecap="round" stroke-width="1.5"/>
    <path id="Path_71302" data-name="Path 71302" d="M281.834,532.715l10.934,10.4,10.984-10.4" fill="none" stroke="#1d1d1d" stroke-linecap="round" stroke-width="1.5"/>
    <line id="Line_1537" data-name="Line 1537" x1="7.305" y2="7.305" transform="translate(282.023 539.845)" fill="none" stroke="#1d1d1d" stroke-linecap="round" stroke-width="1.5"/>
    <line id="Line_1538" data-name="Line 1538" x2="7.305" y2="7.305" transform="translate(296.239 539.845)" fill="none" stroke="#1d1d1d" stroke-linecap="round" stroke-width="1.5"/>
  </g>
</svg>
