<svg id="illustration_create-account" xmlns="http://www.w3.org/2000/svg" width="145.511" height="145.511" viewBox="0 0 145.511 145.511">
  <g id="Group_17395" data-name="Group 17395" transform="translate(-285.819 -630.344)">
    <circle id="Ellipse_1642" data-name="Ellipse 1642" cx="72.755" cy="72.755" r="72.755" transform="translate(285.819 630.344)" fill="#f9f9f9"/>
    <circle id="Ellipse_341" data-name="Ellipse 341" cx="3.736" cy="3.736" r="3.736" transform="translate(323.779 652)" fill="none" stroke="#bdbdbd" stroke-linecap="round" stroke-width="2.497"/>
    <circle id="Ellipse_341-2" data-name="Ellipse 341" cx="8.736" cy="8.736" r="8.736" transform="translate(385.308 756)" fill="none" stroke="#bdbdbd" stroke-linecap="round" stroke-width="2.497"/>
  </g>
  <g id="Group_17394" data-name="Group 17394" transform="translate(37.96 39.35)">
    <g id="Group_17397" data-name="Group 17397">
      <path id="Path_78582" data-name="Path 78582" d="M33.9.75A33.153,33.153,0,1,1,.75,33.9,33.153,33.153,0,0,1,33.9.75" fill="#ccf2ff"/>
      <path id="Path_78583" data-name="Path 78583" d="M34.164,50.563A31.465,31.465,0,0,0,12.48,59.195a33.119,33.119,0,0,0,43.12-.237,31.468,31.468,0,0,0-21.436-8.4" fill="#fff"/>
      <circle id="Ellipse_2497" data-name="Ellipse 2497" cx="33.153" cy="33.153" r="33.153" transform="translate(0.75 0.75)" fill="none" stroke="#1d1d1d" stroke-linecap="round" stroke-linejoin="round" stroke-width="1.5"/>
      <path id="Path_78584" data-name="Path 78584" d="M33.9,13.629A13.789,13.789,0,1,1,20.109,27.418,13.79,13.79,0,0,1,33.9,13.629" fill="#ffc101"/>
      <circle id="Ellipse_2498" data-name="Ellipse 2498" cx="13.789" cy="13.789" r="13.789" transform="translate(20.109 13.629)" fill="none" stroke="#1d1d1d" stroke-linecap="round" stroke-width="1.5"/>
      <path id="Path_78585" data-name="Path 78585" d="M55.085,59.024a30.777,30.777,0,0,0-42.389,0" fill="none" stroke="#1d1d1d" stroke-width="1"/>
      <path id="Path_78586" data-name="Path 78586" d="M63.028.957A12.672,12.672,0,1,1,50.356,13.629,12.671,12.671,0,0,1,63.028.957" fill="#b4ffe8"/>
      <circle id="Ellipse_2499" data-name="Ellipse 2499" cx="12.672" cy="12.672" r="12.672" transform="translate(50.356 0.957)" fill="none" stroke="#1d1d1d" stroke-linecap="round" stroke-width="1.5"/>
      <line id="Line_2313" data-name="Line 2313" x2="8" transform="translate(59.028 13.629)" fill="none" stroke="#1d1d1d" stroke-linecap="round" stroke-width="1.5"/>
      <line id="Line_2314" data-name="Line 2314" y2="8" transform="translate(63.028 9.629)" fill="none" stroke="#1d1d1d" stroke-linecap="round" stroke-width="1.5"/>
    </g>
  </g>
</svg>
