<svg xmlns="http://www.w3.org/2000/svg" width="145.511" height="148.103" viewBox="0 0 145.511 148.103">
  <g id="illustration_donate-color" transform="translate(0 1.248)">
    <circle id="Ellipse_1642" data-name="Ellipse 1642" cx="72.755" cy="72.755" r="72.755" transform="translate(0 1.344)" fill="#f9f9f9"/>
    <g id="Group_15370" data-name="Group 15370" transform="translate(-542 -4074)">
      <g id="Group_2917" data-name="Group 2917" transform="translate(614.006 4111.498)">
        <circle id="Ellipse_343" data-name="Ellipse 343" cx="12.334" cy="12.334" r="12.334" transform="translate(0 0)" fill="#ffc100" stroke="#1a1e23" stroke-linecap="round" stroke-linejoin="round" stroke-width="1.5"/>
      </g>
      <g id="Group_2917-2" data-name="Group 2917" transform="translate(589.565 4106.76)">
        <circle id="Ellipse_343-2" data-name="Ellipse 343" cx="18.388" cy="18.388" r="18.388" transform="translate(0 0)" fill="#ffc100" stroke="#1a1e23" stroke-linecap="round" stroke-linejoin="round" stroke-width="1.5"/>
      </g>
      <g id="Group_3117" data-name="Group 3117" transform="translate(576.028 4121.52)">
        <g id="Group_3285" data-name="Group 3285" transform="translate(0 0)">
          <path id="Rectangle_3973-2" data-name="Rectangle 3973-2" d="M962.971,113.149h62.554c4.2,0,7.608,2.966,7.608,6.627V162.11c0,3.66-3.406,6.627-7.608,6.627H962.971c-4.2,0-7.608-2.966-7.608-6.627V119.776C955.363,116.115,958.769,113.149,962.971,113.149Z" transform="translate(-955.363 -113.149)" fill="#fff" stroke="#1a1e23" stroke-linecap="round" stroke-linejoin="round" stroke-width="1.5"/>
        </g>
        <g id="Rectangle_3974" data-name="Rectangle 3974" transform="translate(15.073 3.681)">
          <path id="Rectangle_6153" data-name="Rectangle 6153" d="M0,0H57a3,3,0,0,1,3,3V45a3,3,0,0,1-3,3H0a0,0,0,0,1,0,0V0A0,0,0,0,1,0,0Z" transform="translate(-1.59 0.226)" fill="#ccf2ff"/>
        </g>
        <g id="Rectangle_3974-2" data-name="Rectangle 3974" transform="translate(3.804 3.681)">
          <path id="Path_17165" data-name="Path 17165" d="M964.449,117.8h60.863a3.982,3.982,0,0,1,4.227,3.681v40.126a3.982,3.982,0,0,1-4.227,3.681H964.449a3.982,3.982,0,0,1-4.227-3.681V121.485A3.982,3.982,0,0,1,964.449,117.8Z" transform="translate(-959.799 -117.436)" fill="none" stroke="#1a1e23" stroke-linecap="round" stroke-linejoin="round" stroke-width="1"/>
          <path id="Path_17166" data-name="Path 17166" d="M964.385,117.381h60.863c2.568,0,4.649,1.813,4.649,4.049v40.126c0,2.236-2.082,4.049-4.649,4.049H964.385c-2.568,0-4.649-1.813-4.649-4.049V121.43C959.736,119.194,961.818,117.381,964.385,117.381Z" transform="translate(-959.736 -117.381)" fill="none" stroke="#1a1e23" stroke-linecap="round" stroke-linejoin="round" stroke-width="1"/>
        </g>
        <path id="Rectangle_3975" data-name="Rectangle 3975" d="M1029.037,138.118h15.093v12.148h-15.093a3.313,3.313,0,0,1-3.313-3.313h0v-5.522A3.313,3.313,0,0,1,1029.037,138.118Z" transform="translate(-964.52 -116.399)" fill="#fff" stroke="#1a1e23" stroke-linecap="round" stroke-linejoin="round" stroke-width="1.5"/>
        <circle id="Ellipse_354" data-name="Ellipse 354" cx="2.761" cy="2.761" r="2.761" transform="translate(64.885 25.033)" fill="#ccf2ff" stroke="#1a1e23" stroke-linecap="round" stroke-linejoin="round" stroke-width="1"/>
        <line id="Line_386" data-name="Line 386" x1="8.835" y2="9.203" transform="translate(40.957 15.829)" fill="#fff" stroke="#1a1e23" stroke-linecap="round" stroke-linejoin="round" stroke-width="1" style="mix-blend-mode: normal;isolation: isolate"/>
        <line id="Line_387" data-name="Line 387" x1="4.786" y2="4.786" transform="translate(51.816 16.382)" fill="#fff" stroke="#1a1e23" stroke-linecap="round" stroke-linejoin="round" stroke-width="1" style="mix-blend-mode: normal;isolation: isolate"/>
      </g>
      <g id="Group_3288" data-name="Group 3288" transform="translate(568.858 4114.869)">
        <line id="Line_756" data-name="Line 756" x1="2.636" y1="2.636" transform="translate(2.67 2.547)" fill="#fff" stroke="#1a1e23" stroke-linecap="round" stroke-linejoin="round" stroke-width="1"/>
        <line id="Line_757" data-name="Line 757" y1="3.498" transform="translate(9.199 0)" fill="#fff" stroke="#1a1e23" stroke-linecap="round" stroke-linejoin="round" stroke-width="1"/>
        <line id="Line_758" data-name="Line 758" x1="3.498" transform="translate(0 8.962)" fill="#fff" stroke="#1a1e23" stroke-linecap="round" stroke-linejoin="round" stroke-width="1"/>
      </g>
    </g>
    <circle id="Ellipse_341" data-name="Ellipse 341" cx="3.736" cy="3.736" r="3.736" transform="translate(120.489)" fill="none" stroke="#bdbdbd" stroke-linecap="round" stroke-width="2.497"/>
    <circle id="Ellipse_341-2" data-name="Ellipse 341" cx="8.736" cy="8.736" r="8.736" transform="translate(20.489 123)" fill="none" stroke="#bdbdbd" stroke-linecap="round" stroke-width="2.497"/>
  </g>
</svg>
