<svg id="illustration_take-link" xmlns="http://www.w3.org/2000/svg" width="186.228" height="170.848" viewBox="0 0 186.228 170.848">
  <g id="Group_15505" data-name="Group 15505" transform="translate(-230.828 -931.323)">
    <path id="Path_71474" data-name="Path 71474" d="M323.22,931.441a.024.024,0,1,0-.024-.024A.024.024,0,0,0,323.22,931.441Z" fill="#e5e5e5"/>
    <circle id="Ellipse_2375" data-name="Ellipse 2375" cx="0.071" cy="0.071" r="0.071" transform="translate(331.669 931.347)" fill="#e5e5e5"/>
    <path id="Path_71475" data-name="Path 71475" d="M340.259,931.512a.095.095,0,1,0-.094-.1A.094.094,0,0,0,340.259,931.512Z" fill="#e5e5e5"/>
    <circle id="Ellipse_2376" data-name="Ellipse 2376" cx="0.071" cy="0.071" r="0.071" transform="translate(348.708 931.347)" fill="#e5e5e5"/>
    <path id="Path_71476" data-name="Path 71476" d="M357.3,931.441a.024.024,0,1,0-.024-.024A.024.024,0,0,0,357.3,931.441Z" fill="#e5e5e5"/>
    <circle id="Ellipse_2377" data-name="Ellipse 2377" cx="0.118" cy="0.118" r="0.118" transform="translate(306.062 939.819)" fill="#e5e5e5"/>
    <path id="Path_71477" data-name="Path 71477" d="M314.7,940.292a.354.354,0,1,0-.354-.355A.355.355,0,0,0,314.7,940.292Z" fill="#e5e5e5"/>
    <path id="Path_71478" data-name="Path 71478" d="M323.22,940.575a.638.638,0,1,0-.638-.638A.638.638,0,0,0,323.22,940.575Z" fill="#e5e5e5"/>
    <path id="Path_71479" data-name="Path 71479" d="M331.74,940.74a.8.8,0,1,0-.8-.8A.8.8,0,0,0,331.74,940.74Z" fill="#e5e5e5"/>
    <path id="Path_71480" data-name="Path 71480" d="M340.259,940.788a.851.851,0,1,0-.85-.851A.851.851,0,0,0,340.259,940.788Z" fill="#e5e5e5"/>
    <path id="Path_71481" data-name="Path 71481" d="M348.779,940.74a.8.8,0,1,0-.8-.8A.8.8,0,0,0,348.779,940.74Z" fill="#e5e5e5"/>
    <path id="Path_71482" data-name="Path 71482" d="M357.3,940.575a.638.638,0,1,0-.638-.638A.638.638,0,0,0,357.3,940.575Z" fill="#e5e5e5"/>
    <circle id="Ellipse_2378" data-name="Ellipse 2378" cx="0.378" cy="0.378" r="0.378" transform="translate(365.441 939.559)" fill="#e5e5e5"/>
    <circle id="Ellipse_2379" data-name="Ellipse 2379" cx="0.118" cy="0.118" r="0.118" transform="translate(374.22 939.819)" fill="#e5e5e5"/>
    <path id="Path_71483" data-name="Path 71483" d="M289.141,948.481a.024.024,0,1,0-.024-.024A.024.024,0,0,0,289.141,948.481Z" fill="#e5e5e5"/>
    <path id="Path_71484" data-name="Path 71484" d="M297.661,948.764a.307.307,0,1,0-.307-.307A.307.307,0,0,0,297.661,948.764Z" fill="#e5e5e5"/>
    <path id="Path_71485" data-name="Path 71485" d="M306.18,949.237a.78.78,0,1,0-.779-.78A.78.78,0,0,0,306.18,949.237Z" fill="#e5e5e5"/>
    <circle id="Ellipse_2380" data-name="Ellipse 2380" cx="1.181" cy="1.181" r="1.181" transform="translate(313.519 947.276)" fill="#e5e5e5"/>
    <path id="Path_71486" data-name="Path 71486" d="M323.22,949.945a1.488,1.488,0,1,0-1.488-1.488A1.488,1.488,0,0,0,323.22,949.945Z" fill="#e5e5e5"/>
    <path id="Path_71487" data-name="Path 71487" d="M331.74,950.134a1.677,1.677,0,1,0-1.678-1.677A1.677,1.677,0,0,0,331.74,950.134Z" fill="#e5e5e5"/>
    <circle id="Ellipse_2381" data-name="Ellipse 2381" cx="1.748" cy="1.748" r="1.748" transform="translate(338.511 946.709)" fill="#e5e5e5"/>
    <path id="Path_71488" data-name="Path 71488" d="M348.779,950.158a1.7,1.7,0,1,0-1.7-1.7A1.7,1.7,0,0,0,348.779,950.158Z" fill="#e5e5e5"/>
    <path id="Path_71489" data-name="Path 71489" d="M357.3,949.969a1.512,1.512,0,1,0-1.512-1.512A1.512,1.512,0,0,0,357.3,949.969Z" fill="#e5e5e5"/>
    <path id="Path_71490" data-name="Path 71490" d="M365.819,949.685a1.228,1.228,0,1,0-1.229-1.228A1.228,1.228,0,0,0,365.819,949.685Z" fill="#e5e5e5"/>
    <path id="Path_71491" data-name="Path 71491" d="M374.338,949.284a.827.827,0,1,0-.826-.827A.827.827,0,0,0,374.338,949.284Z" fill="#e5e5e5"/>
    <path id="Path_71492" data-name="Path 71492" d="M382.858,948.811a.354.354,0,1,0-.354-.354A.354.354,0,0,0,382.858,948.811Z" fill="#e5e5e5"/>
    <path id="Path_71493" data-name="Path 71493" d="M391.378,948.481a.024.024,0,1,0-.024-.024A.024.024,0,0,0,391.378,948.481Z" fill="#e5e5e5"/>
    <path id="Path_71494" data-name="Path 71494" d="M280.621,957a.023.023,0,0,0,.024-.023.024.024,0,0,0-.024-.024.023.023,0,0,0-.023.024A.023.023,0,0,0,280.621,957Z" fill="#e5e5e5"/>
    <path id="Path_71495" data-name="Path 71495" d="M289.141,957.378a.4.4,0,1,0-.4-.4A.4.4,0,0,0,289.141,957.378Z" fill="#e5e5e5"/>
    <path id="Path_71496" data-name="Path 71496" d="M297.661,957.993a1.016,1.016,0,1,0-1.016-1.016A1.016,1.016,0,0,0,297.661,957.993Z" fill="#e5e5e5"/>
    <circle id="Ellipse_2382" data-name="Ellipse 2382" cx="1.559" cy="1.559" r="1.559" transform="translate(304.621 955.417)" fill="#e5e5e5"/>
    <circle id="Ellipse_2383" data-name="Ellipse 2383" cx="2.008" cy="2.008" r="2.008" transform="translate(312.692 954.969)" fill="#e5e5e5"/>
    <path id="Path_71497" data-name="Path 71497" d="M323.22,959.339a2.362,2.362,0,1,0-2.362-2.362A2.362,2.362,0,0,0,323.22,959.339Z" fill="#e5e5e5"/>
    <path id="Path_71498" data-name="Path 71498" d="M331.74,959.552a2.575,2.575,0,1,0-2.575-2.575A2.575,2.575,0,0,0,331.74,959.552Z" fill="#e5e5e5"/>
    <path id="Path_71499" data-name="Path 71499" d="M340.259,959.623a2.646,2.646,0,1,0-2.645-2.646A2.647,2.647,0,0,0,340.259,959.623Z" fill="#e5e5e5"/>
    <path id="Path_71500" data-name="Path 71500" d="M348.779,959.576a2.6,2.6,0,1,0-2.6-2.6A2.6,2.6,0,0,0,348.779,959.576Z" fill="#e5e5e5"/>
    <path id="Path_71501" data-name="Path 71501" d="M357.3,959.363a2.386,2.386,0,1,0-2.386-2.386A2.386,2.386,0,0,0,357.3,959.363Z" fill="#e5e5e5"/>
    <path id="Path_71502" data-name="Path 71502" d="M365.819,959.009a2.032,2.032,0,1,0-2.032-2.032A2.032,2.032,0,0,0,365.819,959.009Z" fill="#e5e5e5"/>
    <path id="Path_71503" data-name="Path 71503" d="M374.338,958.56a1.583,1.583,0,1,0-1.582-1.583A1.583,1.583,0,0,0,374.338,958.56Z" fill="#e5e5e5"/>
    <path id="Path_71504" data-name="Path 71504" d="M382.858,958.04a1.063,1.063,0,1,0-1.063-1.063A1.063,1.063,0,0,0,382.858,958.04Z" fill="#e5e5e5"/>
    <path id="Path_71505" data-name="Path 71505" d="M391.378,957.426a.449.449,0,1,0-.449-.449A.449.449,0,0,0,391.378,957.426Z" fill="#e5e5e5"/>
    <path id="Path_71506" data-name="Path 71506" d="M399.9,957.024a.047.047,0,1,0-.047-.047A.047.047,0,0,0,399.9,957.024Z" fill="#e5e5e5"/>
    <path id="Path_71507" data-name="Path 71507" d="M280.621,965.8a.307.307,0,1,0-.307-.308A.307.307,0,0,0,280.621,965.8Z" fill="#e5e5e5"/>
    <path id="Path_71508" data-name="Path 71508" d="M289.141,966.512a1.016,1.016,0,1,0-1.016-1.016A1.016,1.016,0,0,0,289.141,966.512Z" fill="#e5e5e5"/>
    <path id="Path_71509" data-name="Path 71509" d="M297.661,967.174a1.678,1.678,0,1,0-1.678-1.678A1.677,1.677,0,0,0,297.661,967.174Z" fill="#e5e5e5"/>
    <path id="Path_71510" data-name="Path 71510" d="M306.18,967.765a2.268,2.268,0,1,0-2.268-2.269A2.269,2.269,0,0,0,306.18,967.765Z" fill="#e5e5e5"/>
    <path id="Path_71511" data-name="Path 71511" d="M314.7,968.284a2.788,2.788,0,1,0-2.787-2.788A2.788,2.788,0,0,0,314.7,968.284Z" fill="#e5e5e5"/>
    <circle id="Ellipse_2384" data-name="Ellipse 2384" cx="3.189" cy="3.189" r="3.189" transform="translate(320.031 962.307)" fill="#e5e5e5"/>
    <path id="Path_71512" data-name="Path 71512" d="M331.74,968.9a3.4,3.4,0,1,0-3.4-3.4A3.4,3.4,0,0,0,331.74,968.9Z" fill="#e5e5e5"/>
    <path id="Path_71513" data-name="Path 71513" d="M340.259,968.946a3.449,3.449,0,1,0-3.449-3.45A3.45,3.45,0,0,0,340.259,968.946Z" fill="#e5e5e5"/>
    <path id="Path_71514" data-name="Path 71514" d="M348.779,968.9a3.4,3.4,0,1,0-3.4-3.4A3.4,3.4,0,0,0,348.779,968.9Z" fill="#e5e5e5"/>
    <path id="Path_71515" data-name="Path 71515" d="M357.3,968.71a3.213,3.213,0,1,0-3.213-3.214A3.214,3.214,0,0,0,357.3,968.71Z" fill="#e5e5e5"/>
    <path id="Path_71516" data-name="Path 71516" d="M365.819,968.332a2.835,2.835,0,1,0-2.835-2.836A2.836,2.836,0,0,0,365.819,968.332Z" fill="#e5e5e5"/>
    <circle id="Ellipse_2385" data-name="Ellipse 2385" cx="2.315" cy="2.315" r="2.315" transform="translate(372.023 963.181)" fill="#e5e5e5"/>
    <path id="Path_71517" data-name="Path 71517" d="M382.858,967.221a1.725,1.725,0,1,0-1.724-1.725A1.725,1.725,0,0,0,382.858,967.221Z" fill="#e5e5e5"/>
    <path id="Path_71518" data-name="Path 71518" d="M391.378,966.56a1.064,1.064,0,1,0-1.063-1.064A1.063,1.063,0,0,0,391.378,966.56Z" fill="#e5e5e5"/>
    <circle id="Ellipse_2386" data-name="Ellipse 2386" cx="0.378" cy="0.378" r="0.378" transform="translate(399.52 965.118)" fill="#e5e5e5"/>
    <circle id="Ellipse_2387" data-name="Ellipse 2387" cx="0.118" cy="0.118" r="0.118" transform="translate(271.983 973.898)" fill="#e5e5e5"/>
    <path id="Path_71519" data-name="Path 71519" d="M280.621,974.8a.78.78,0,1,0-.779-.78A.78.78,0,0,0,280.621,974.8Z" fill="#e5e5e5"/>
    <circle id="Ellipse_2388" data-name="Ellipse 2388" cx="1.559" cy="1.559" r="1.559" transform="translate(287.582 972.457)" fill="#e5e5e5"/>
    <path id="Path_71520" data-name="Path 71520" d="M297.661,976.284a2.268,2.268,0,1,0-2.268-2.268A2.268,2.268,0,0,0,297.661,976.284Z" fill="#e5e5e5"/>
    <path id="Path_71521" data-name="Path 71521" d="M306.18,976.969a2.953,2.953,0,1,0-2.953-2.953A2.954,2.954,0,0,0,306.18,976.969Z" fill="#e5e5e5"/>
    <path id="Path_71522" data-name="Path 71522" d="M314.7,977.466a3.449,3.449,0,1,0-3.449-3.45A3.45,3.45,0,0,0,314.7,977.466Z" fill="#e5e5e5"/>
    <circle id="Ellipse_2389" data-name="Ellipse 2389" cx="3.567" cy="3.567" r="3.567" transform="translate(319.125 971.069) rotate(-9.251)" fill="#e5e5e5"/>
    <circle id="Ellipse_2390" data-name="Ellipse 2390" cx="3.567" cy="3.567" r="3.567" transform="translate(327.645 971.069) rotate(-9.251)" fill="#e5e5e5"/>
    <circle id="Ellipse_2391" data-name="Ellipse 2391" cx="3.567" cy="3.567" r="3.567" transform="translate(336.165 971.069) rotate(-9.251)" fill="#e5e5e5"/>
    <circle id="Ellipse_2392" data-name="Ellipse 2392" cx="3.567" cy="3.567" r="3.567" transform="translate(344.685 971.069) rotate(-9.251)" fill="#e5e5e5"/>
    <circle id="Ellipse_2393" data-name="Ellipse 2393" cx="3.567" cy="3.567" r="3.567" transform="matrix(0.987, -0.161, 0.161, 0.987, 353.204, 971.069)" fill="#e5e5e5"/>
    <path id="Path_71523" data-name="Path 71523" d="M365.819,977.489a3.473,3.473,0,1,0-3.473-3.473A3.473,3.473,0,0,0,365.819,977.489Z" fill="#e5e5e5"/>
    <circle id="Ellipse_2394" data-name="Ellipse 2394" cx="3" cy="3" r="3" transform="translate(371.338 971.016)" fill="#e5e5e5"/>
    <path id="Path_71524" data-name="Path 71524" d="M382.858,976.355a2.339,2.339,0,1,0-2.339-2.339A2.339,2.339,0,0,0,382.858,976.355Z" fill="#e5e5e5"/>
    <path id="Path_71525" data-name="Path 71525" d="M391.378,975.623a1.607,1.607,0,1,0-1.606-1.607A1.606,1.606,0,0,0,391.378,975.623Z" fill="#e5e5e5"/>
    <path id="Path_71526" data-name="Path 71526" d="M399.9,974.867a.85.85,0,1,0-.851-.851A.851.851,0,0,0,399.9,974.867Z" fill="#e5e5e5"/>
    <path id="Path_71527" data-name="Path 71527" d="M408.417,974.158a.142.142,0,1,0-.141-.142A.141.141,0,0,0,408.417,974.158Z" fill="#e5e5e5"/>
    <path id="Path_71528" data-name="Path 71528" d="M272.1,982.89a.354.354,0,1,0-.354-.354A.354.354,0,0,0,272.1,982.89Z" fill="#e5e5e5"/>
    <circle id="Ellipse_2395" data-name="Ellipse 2395" cx="1.181" cy="1.181" r="1.181" transform="translate(279.44 981.355)" fill="#e5e5e5"/>
    <circle id="Ellipse_2396" data-name="Ellipse 2396" cx="2.008" cy="2.008" r="2.008" transform="translate(287.133 980.528)" fill="#e5e5e5"/>
    <path id="Path_71529" data-name="Path 71529" d="M297.661,985.324a2.788,2.788,0,1,0-2.788-2.788A2.788,2.788,0,0,0,297.661,985.324Z" fill="#e5e5e5"/>
    <path id="Path_71530" data-name="Path 71530" d="M306.18,985.985a3.449,3.449,0,1,0-3.449-3.449A3.45,3.45,0,0,0,306.18,985.985Z" fill="#e5e5e5"/>
    <circle id="Ellipse_2397" data-name="Ellipse 2397" cx="3.567" cy="3.567" r="3.567" transform="translate(310.606 979.589) rotate(-9.252)" fill="#e5e5e5"/>
    <circle id="Ellipse_2398" data-name="Ellipse 2398" cx="3.567" cy="3.567" r="3.567" transform="translate(319.125 979.589) rotate(-9.251)" fill="#e5e5e5"/>
    <circle id="Ellipse_2399" data-name="Ellipse 2399" cx="3.567" cy="3.567" r="3.567" transform="translate(327.645 979.588) rotate(-9.251)" fill="#e5e5e5"/>
    <circle id="Ellipse_2400" data-name="Ellipse 2400" cx="3.567" cy="3.567" r="3.567" transform="translate(336.165 979.588) rotate(-9.251)" fill="#e5e5e5"/>
    <circle id="Ellipse_2401" data-name="Ellipse 2401" cx="3.567" cy="3.567" r="3.567" transform="translate(344.685 979.588) rotate(-9.251)" fill="#e5e5e5"/>
    <circle id="Ellipse_2402" data-name="Ellipse 2402" cx="3.567" cy="3.567" r="3.567" transform="translate(353.204 979.588) rotate(-9.25)" fill="#e5e5e5"/>
    <circle id="Ellipse_2403" data-name="Ellipse 2403" cx="3.567" cy="3.567" r="3.567" transform="matrix(0.987, -0.161, 0.161, 0.987, 361.724, 979.588)" fill="#e5e5e5"/>
    <path id="Path_71531" data-name="Path 71531" d="M374.338,986.009a3.473,3.473,0,1,0-3.472-3.473A3.472,3.472,0,0,0,374.338,986.009Z" fill="#e5e5e5"/>
    <path id="Path_71532" data-name="Path 71532" d="M382.858,985.4A2.859,2.859,0,1,0,380,982.536,2.859,2.859,0,0,0,382.858,985.4Z" fill="#e5e5e5"/>
    <path id="Path_71533" data-name="Path 71533" d="M391.378,984.615a2.079,2.079,0,1,0-2.079-2.079A2.079,2.079,0,0,0,391.378,984.615Z" fill="#e5e5e5"/>
    <circle id="Ellipse_2404" data-name="Ellipse 2404" cx="1.252" cy="1.252" r="1.252" transform="translate(398.646 981.284)" fill="#e5e5e5"/>
    <path id="Path_71534" data-name="Path 71534" d="M408.417,982.961a.425.425,0,1,0-.425-.425A.425.425,0,0,0,408.417,982.961Z" fill="#e5e5e5"/>
    <path id="Path_71535" data-name="Path 71535" d="M263.582,991.079a.023.023,0,0,0,.023-.023.024.024,0,0,0-.023-.024.024.024,0,0,0-.024.024A.023.023,0,0,0,263.582,991.079Z" fill="#e5e5e5"/>
    <path id="Path_71536" data-name="Path 71536" d="M272.1,991.694a.638.638,0,1,0-.637-.638A.638.638,0,0,0,272.1,991.694Z" fill="#e5e5e5"/>
    <path id="Path_71537" data-name="Path 71537" d="M280.621,992.544a1.488,1.488,0,1,0-1.488-1.488A1.489,1.489,0,0,0,280.621,992.544Z" fill="#e5e5e5"/>
    <path id="Path_71538" data-name="Path 71538" d="M289.141,993.418a2.363,2.363,0,1,0-2.362-2.362A2.362,2.362,0,0,0,289.141,993.418Z" fill="#e5e5e5"/>
    <circle id="Ellipse_2405" data-name="Ellipse 2405" cx="3.189" cy="3.189" r="3.189" transform="translate(294.471 987.866)" fill="#e5e5e5"/>
    <circle id="Ellipse_2406" data-name="Ellipse 2406" cx="3.567" cy="3.567" r="3.567" transform="translate(302.086 988.108) rotate(-9.252)" fill="#e5e5e5"/>
    <circle id="Ellipse_2407" data-name="Ellipse 2407" cx="3.567" cy="3.567" r="3.567" transform="translate(310.606 988.108) rotate(-9.252)" fill="#e5e5e5"/>
    <circle id="Ellipse_2408" data-name="Ellipse 2408" cx="3.567" cy="3.567" r="3.567" transform="translate(319.125 988.108) rotate(-9.251)" fill="#e5e5e5"/>
    <circle id="Ellipse_2409" data-name="Ellipse 2409" cx="3.567" cy="3.567" r="3.567" transform="translate(327.645 988.108) rotate(-9.251)" fill="#e5e5e5"/>
    <circle id="Ellipse_2410" data-name="Ellipse 2410" cx="3.567" cy="3.567" r="3.567" transform="translate(336.165 988.108) rotate(-9.251)" fill="#e5e5e5"/>
    <circle id="Ellipse_2411" data-name="Ellipse 2411" cx="3.567" cy="3.567" r="3.567" transform="translate(344.685 988.108) rotate(-9.251)" fill="#e5e5e5"/>
    <circle id="Ellipse_2412" data-name="Ellipse 2412" cx="3.567" cy="3.567" r="3.567" transform="translate(353.204 988.108) rotate(-9.25)" fill="#e5e5e5"/>
    <circle id="Ellipse_2413" data-name="Ellipse 2413" cx="3.567" cy="3.567" r="3.567" transform="matrix(0.987, -0.161, 0.161, 0.987, 361.724, 988.108)" fill="#e5e5e5"/>
    <circle id="Ellipse_2414" data-name="Ellipse 2414" cx="3.567" cy="3.567" r="3.567" transform="translate(370.244 988.108) rotate(-9.25)" fill="#e5e5e5"/>
    <path id="Path_71539" data-name="Path 71539" d="M382.858,994.316a3.26,3.26,0,1,0-3.26-3.26A3.261,3.261,0,0,0,382.858,994.316Z" fill="#e5e5e5"/>
    <circle id="Ellipse_2415" data-name="Ellipse 2415" cx="2.433" cy="2.433" r="2.433" transform="translate(388.201 992.379) rotate(-67.609)" fill="#e5e5e5"/>
    <path id="Path_71540" data-name="Path 71540" d="M399.9,992.639a1.583,1.583,0,1,0-1.583-1.583A1.583,1.583,0,0,0,399.9,992.639Z" fill="#e5e5e5"/>
    <path id="Path_71541" data-name="Path 71541" d="M408.417,991.765a.709.709,0,1,0-.708-.709A.709.709,0,0,0,408.417,991.765Z" fill="#e5e5e5"/>
    <path id="Path_71542" data-name="Path 71542" d="M416.937,991.1a.047.047,0,1,0,0-.094.047.047,0,0,0,0,.094Z" fill="#e5e5e5"/>
    <circle id="Ellipse_2416" data-name="Ellipse 2416" cx="0.071" cy="0.071" r="0.071" transform="translate(263.511 999.505)" fill="#e5e5e5"/>
    <path id="Path_71543" data-name="Path 71543" d="M272.1,1000.379a.8.8,0,1,0-.8-.8A.8.8,0,0,0,272.1,1000.379Z" fill="#e5e5e5"/>
    <path id="Path_71544" data-name="Path 71544" d="M280.621,1001.253a1.677,1.677,0,1,0-1.677-1.678A1.678,1.678,0,0,0,280.621,1001.253Z" fill="#e5e5e5"/>
    <path id="Path_71545" data-name="Path 71545" d="M289.141,1002.151a2.576,2.576,0,1,0-2.575-2.576A2.575,2.575,0,0,0,289.141,1002.151Z" fill="#e5e5e5"/>
    <path id="Path_71546" data-name="Path 71546" d="M297.661,1002.978a3.4,3.4,0,1,0-3.4-3.4A3.4,3.4,0,0,0,297.661,1002.978Z" fill="#e5e5e5"/>
    <circle id="Ellipse_2417" data-name="Ellipse 2417" cx="3.567" cy="3.567" r="3.567" transform="translate(302.086 996.628) rotate(-9.252)" fill="#e5e5e5"/>
    <circle id="Ellipse_2418" data-name="Ellipse 2418" cx="3.567" cy="3.567" r="3.567" transform="translate(310.606 996.628) rotate(-9.252)" fill="#e5e5e5"/>
    <circle id="Ellipse_2419" data-name="Ellipse 2419" cx="3.567" cy="3.567" r="3.567" transform="translate(319.125 996.628) rotate(-9.251)" fill="#e5e5e5"/>
    <circle id="Ellipse_2420" data-name="Ellipse 2420" cx="3.567" cy="3.567" r="3.567" transform="translate(327.645 996.628) rotate(-9.251)" fill="#e5e5e5"/>
    <circle id="Ellipse_2421" data-name="Ellipse 2421" cx="3.567" cy="3.567" r="3.567" transform="translate(336.165 996.628) rotate(-9.251)" fill="#e5e5e5"/>
    <circle id="Ellipse_2422" data-name="Ellipse 2422" cx="3.567" cy="3.567" r="3.567" transform="translate(344.685 996.628) rotate(-9.251)" fill="#e5e5e5"/>
    <circle id="Ellipse_2423" data-name="Ellipse 2423" cx="3.567" cy="3.567" r="3.567" transform="translate(353.204 996.628) rotate(-9.25)" fill="#e5e5e5"/>
    <circle id="Ellipse_2424" data-name="Ellipse 2424" cx="3.567" cy="3.567" r="3.567" transform="matrix(0.987, -0.161, 0.161, 0.987, 361.724, 996.628)" fill="#e5e5e5"/>
    <circle id="Ellipse_2425" data-name="Ellipse 2425" cx="3.567" cy="3.567" r="3.567" transform="translate(370.244 996.628) rotate(-9.25)" fill="#e5e5e5"/>
    <path id="Path_71547" data-name="Path 71547" d="M382.858,1003.025a3.45,3.45,0,1,0-3.449-3.45A3.451,3.451,0,0,0,382.858,1003.025Z" fill="#e5e5e5"/>
    <path id="Path_71548" data-name="Path 71548" d="M391.378,1002.222a2.646,2.646,0,1,0-2.646-2.647A2.647,2.647,0,0,0,391.378,1002.222Z" fill="#e5e5e5"/>
    <path id="Path_71549" data-name="Path 71549" d="M399.9,1001.347a1.771,1.771,0,1,0-1.772-1.772A1.772,1.772,0,0,0,399.9,1001.347Z" fill="#e5e5e5"/>
    <circle id="Ellipse_2426" data-name="Ellipse 2426" cx="0.874" cy="0.874" r="0.874" transform="translate(407.543 998.701)" fill="#e5e5e5"/>
    <path id="Path_71550" data-name="Path 71550" d="M416.937,999.67a.094.094,0,1,0,0-.189.094.094,0,0,0,0,.189Z" fill="#e5e5e5"/>
    <path id="Path_71551" data-name="Path 71551" d="M263.582,1008.19a.095.095,0,1,0-.1-.1A.095.095,0,0,0,263.582,1008.19Z" fill="#e5e5e5"/>
    <path id="Path_71552" data-name="Path 71552" d="M272.1,1008.946a.85.85,0,1,0-.85-.851A.851.851,0,0,0,272.1,1008.946Z" fill="#e5e5e5"/>
    <circle id="Ellipse_2427" data-name="Ellipse 2427" cx="1.748" cy="1.748" r="1.748" transform="translate(278.873 1006.347)" fill="#e5e5e5"/>
    <path id="Path_71553" data-name="Path 71553" d="M289.141,1010.741a2.646,2.646,0,1,0-2.646-2.646A2.646,2.646,0,0,0,289.141,1010.741Z" fill="#e5e5e5"/>
    <path id="Path_71554" data-name="Path 71554" d="M297.661,1011.545a3.449,3.449,0,1,0-3.45-3.45A3.45,3.45,0,0,0,297.661,1011.545Z" fill="#e5e5e5"/>
    <circle id="Ellipse_2428" data-name="Ellipse 2428" cx="3.567" cy="3.567" r="3.567" transform="translate(302.086 1005.148) rotate(-9.252)" fill="#e5e5e5"/>
    <circle id="Ellipse_2429" data-name="Ellipse 2429" cx="3.567" cy="3.567" r="3.567" transform="translate(310.606 1005.148) rotate(-9.252)" fill="#e5e5e5"/>
    <circle id="Ellipse_2430" data-name="Ellipse 2430" cx="3.567" cy="3.567" r="3.567" transform="translate(319.125 1005.148) rotate(-9.251)" fill="#e5e5e5"/>
    <circle id="Ellipse_2431" data-name="Ellipse 2431" cx="3.567" cy="3.567" r="3.567" transform="translate(327.645 1005.148) rotate(-9.251)" fill="#e5e5e5"/>
    <circle id="Ellipse_2432" data-name="Ellipse 2432" cx="3.567" cy="3.567" r="3.567" transform="translate(336.165 1005.148) rotate(-9.251)" fill="#e5e5e5"/>
    <circle id="Ellipse_2433" data-name="Ellipse 2433" cx="3.567" cy="3.567" r="3.567" transform="translate(344.685 1005.148) rotate(-9.251)" fill="#e5e5e5"/>
    <circle id="Ellipse_2434" data-name="Ellipse 2434" cx="3.567" cy="3.567" r="3.567" transform="translate(353.204 1005.148) rotate(-9.25)" fill="#e5e5e5"/>
    <circle id="Ellipse_2435" data-name="Ellipse 2435" cx="3.567" cy="3.567" r="3.567" transform="matrix(0.987, -0.161, 0.161, 0.987, 361.724, 1005.148)" fill="#e5e5e5"/>
    <circle id="Ellipse_2436" data-name="Ellipse 2436" cx="3.567" cy="3.567" r="3.567" transform="translate(370.244 1005.148) rotate(-9.25)" fill="#e5e5e5"/>
    <path id="Path_71555" data-name="Path 71555" d="M382.858,1011.568a3.473,3.473,0,1,0-3.473-3.473A3.473,3.473,0,0,0,382.858,1011.568Z" fill="#e5e5e5"/>
    <path id="Path_71556" data-name="Path 71556" d="M391.378,1010.836a2.741,2.741,0,1,0-2.74-2.741A2.741,2.741,0,0,0,391.378,1010.836Z" fill="#e5e5e5"/>
    <path id="Path_71557" data-name="Path 71557" d="M399.9,1009.938a1.842,1.842,0,1,0-1.843-1.843A1.843,1.843,0,0,0,399.9,1009.938Z" fill="#e5e5e5"/>
    <path id="Path_71558" data-name="Path 71558" d="M408.417,1009.017a.922.922,0,1,0-.921-.922A.922.922,0,0,0,408.417,1009.017Z" fill="#e5e5e5"/>
    <circle id="Ellipse_2437" data-name="Ellipse 2437" cx="0.118" cy="0.118" r="0.118" transform="translate(416.819 1007.977)" fill="#e5e5e5"/>
    <circle id="Ellipse_2438" data-name="Ellipse 2438" cx="0.071" cy="0.071" r="0.071" transform="translate(263.511 1016.544)" fill="#e5e5e5"/>
    <path id="Path_71559" data-name="Path 71559" d="M272.1,1017.418a.8.8,0,1,0-.8-.8A.8.8,0,0,0,272.1,1017.418Z" fill="#e5e5e5"/>
    <path id="Path_71560" data-name="Path 71560" d="M280.621,1018.316a1.7,1.7,0,1,0-1.7-1.7A1.7,1.7,0,0,0,280.621,1018.316Z" fill="#e5e5e5"/>
    <path id="Path_71561" data-name="Path 71561" d="M289.141,1019.214a2.6,2.6,0,1,0-2.6-2.6A2.6,2.6,0,0,0,289.141,1019.214Z" fill="#e5e5e5"/>
    <path id="Path_71562" data-name="Path 71562" d="M297.661,1020.017a3.4,3.4,0,1,0-3.4-3.4A3.4,3.4,0,0,0,297.661,1020.017Z" fill="#e5e5e5"/>
    <circle id="Ellipse_2439" data-name="Ellipse 2439" cx="3.567" cy="3.567" r="3.567" transform="translate(302.086 1013.667) rotate(-9.252)" fill="#e5e5e5"/>
    <circle id="Ellipse_2440" data-name="Ellipse 2440" cx="3.567" cy="3.567" r="3.567" transform="translate(310.606 1013.667) rotate(-9.252)" fill="#e5e5e5"/>
    <circle id="Ellipse_2441" data-name="Ellipse 2441" cx="3.567" cy="3.567" r="3.567" transform="translate(319.125 1013.667) rotate(-9.251)" fill="#e5e5e5"/>
    <circle id="Ellipse_2442" data-name="Ellipse 2442" cx="3.567" cy="3.567" r="3.567" transform="translate(327.645 1013.667) rotate(-9.251)" fill="#e5e5e5"/>
    <circle id="Ellipse_2443" data-name="Ellipse 2443" cx="3.567" cy="3.567" r="3.567" transform="translate(336.165 1013.667) rotate(-9.251)" fill="#e5e5e5"/>
    <circle id="Ellipse_2444" data-name="Ellipse 2444" cx="3.567" cy="3.567" r="3.567" transform="translate(344.685 1013.667) rotate(-9.251)" fill="#e5e5e5"/>
    <circle id="Ellipse_2445" data-name="Ellipse 2445" cx="3.567" cy="3.567" r="3.567" transform="translate(353.204 1013.667) rotate(-9.25)" fill="#e5e5e5"/>
    <circle id="Ellipse_2446" data-name="Ellipse 2446" cx="3.567" cy="3.567" r="3.567" transform="matrix(0.987, -0.161, 0.161, 0.987, 361.724, 1013.667)" fill="#e5e5e5"/>
    <circle id="Ellipse_2447" data-name="Ellipse 2447" cx="3.567" cy="3.567" r="3.567" transform="translate(370.244 1013.667) rotate(-9.25)" fill="#e5e5e5"/>
    <path id="Path_71563" data-name="Path 71563" d="M382.858,1020.064a3.449,3.449,0,1,0-3.449-3.449A3.45,3.45,0,0,0,382.858,1020.064Z" fill="#e5e5e5"/>
    <path id="Path_71564" data-name="Path 71564" d="M391.378,1019.285a2.67,2.67,0,1,0-2.67-2.67A2.671,2.671,0,0,0,391.378,1019.285Z" fill="#e5e5e5"/>
    <path id="Path_71565" data-name="Path 71565" d="M399.9,1018.387a1.772,1.772,0,1,0-1.772-1.772A1.772,1.772,0,0,0,399.9,1018.387Z" fill="#e5e5e5"/>
    <circle id="Ellipse_2448" data-name="Ellipse 2448" cx="0.874" cy="0.874" r="0.874" transform="translate(407.543 1015.741)" fill="#e5e5e5"/>
    <path id="Path_71566" data-name="Path 71566" d="M416.937,1016.71a.095.095,0,1,0,0-.189.095.095,0,0,0,0,.189Z" fill="#e5e5e5"/>
    <path id="Path_71567" data-name="Path 71567" d="M263.582,1025.158a.023.023,0,0,0,.023-.023.023.023,0,0,0-.023-.024.024.024,0,0,0-.024.024A.023.023,0,0,0,263.582,1025.158Z" fill="#e5e5e5"/>
    <path id="Path_71568" data-name="Path 71568" d="M272.1,1025.773a.638.638,0,1,0-.637-.638A.638.638,0,0,0,272.1,1025.773Z" fill="#e5e5e5"/>
    <path id="Path_71569" data-name="Path 71569" d="M280.621,1026.647a1.512,1.512,0,1,0-1.512-1.512A1.512,1.512,0,0,0,280.621,1026.647Z" fill="#e5e5e5"/>
    <path id="Path_71570" data-name="Path 71570" d="M289.141,1027.521a2.386,2.386,0,1,0-2.386-2.386A2.386,2.386,0,0,0,289.141,1027.521Z" fill="#e5e5e5"/>
    <path id="Path_71571" data-name="Path 71571" d="M297.661,1028.348a3.213,3.213,0,1,0-3.213-3.213A3.214,3.214,0,0,0,297.661,1028.348Z" fill="#e5e5e5"/>
    <circle id="Ellipse_2449" data-name="Ellipse 2449" cx="3.567" cy="3.567" r="3.567" transform="translate(302.086 1022.187) rotate(-9.252)" fill="#e5e5e5"/>
    <circle id="Ellipse_2450" data-name="Ellipse 2450" cx="3.567" cy="3.567" r="3.567" transform="translate(310.606 1022.187) rotate(-9.252)" fill="#e5e5e5"/>
    <circle id="Ellipse_2451" data-name="Ellipse 2451" cx="3.567" cy="3.567" r="3.567" transform="translate(319.125 1022.187) rotate(-9.251)" fill="#e5e5e5"/>
    <circle id="Ellipse_2452" data-name="Ellipse 2452" cx="3.567" cy="3.567" r="3.567" transform="translate(327.645 1022.187) rotate(-9.251)" fill="#e5e5e5"/>
    <circle id="Ellipse_2453" data-name="Ellipse 2453" cx="3.567" cy="3.567" r="3.567" transform="translate(336.165 1022.187) rotate(-9.251)" fill="#e5e5e5"/>
    <circle id="Ellipse_2454" data-name="Ellipse 2454" cx="3.567" cy="3.567" r="3.567" transform="translate(344.685 1022.187) rotate(-9.251)" fill="#e5e5e5"/>
    <circle id="Ellipse_2455" data-name="Ellipse 2455" cx="3.567" cy="3.567" r="3.567" transform="matrix(0.987, -0.161, 0.161, 0.987, 353.204, 1022.187)" fill="#e5e5e5"/>
    <circle id="Ellipse_2456" data-name="Ellipse 2456" cx="3.567" cy="3.567" r="3.567" transform="translate(361.724 1022.187) rotate(-9.25)" fill="#e5e5e5"/>
    <circle id="Ellipse_2457" data-name="Ellipse 2457" cx="3.567" cy="3.567" r="3.567" transform="translate(370.244 1022.187) rotate(-9.25)" fill="#e5e5e5"/>
    <path id="Path_71572" data-name="Path 71572" d="M382.858,1028.419a3.284,3.284,0,1,0-3.284-3.284A3.284,3.284,0,0,0,382.858,1028.419Z" fill="#e5e5e5"/>
    <path id="Path_71573" data-name="Path 71573" d="M391.378,1027.592a2.457,2.457,0,1,0-2.457-2.457A2.457,2.457,0,0,0,391.378,1027.592Z" fill="#e5e5e5"/>
    <path id="Path_71574" data-name="Path 71574" d="M399.9,1026.718a1.583,1.583,0,1,0-1.583-1.583A1.583,1.583,0,0,0,399.9,1026.718Z" fill="#e5e5e5"/>
    <path id="Path_71575" data-name="Path 71575" d="M408.417,1025.844a.709.709,0,1,0-.708-.709A.709.709,0,0,0,408.417,1025.844Z" fill="#e5e5e5"/>
    <path id="Path_71576" data-name="Path 71576" d="M416.937,1025.182a.047.047,0,1,0,0-.094.047.047,0,0,0,0,.094Z" fill="#e5e5e5"/>
    <circle id="Ellipse_2458" data-name="Ellipse 2458" cx="0.378" cy="0.378" r="0.378" transform="translate(271.723 1033.276)" fill="#e5e5e5"/>
    <path id="Path_71577" data-name="Path 71577" d="M280.621,1034.883a1.229,1.229,0,1,0-1.228-1.229A1.229,1.229,0,0,0,280.621,1034.883Z" fill="#e5e5e5"/>
    <path id="Path_71578" data-name="Path 71578" d="M289.141,1035.686a2.031,2.031,0,1,0-2.032-2.032A2.032,2.032,0,0,0,289.141,1035.686Z" fill="#e5e5e5"/>
    <path id="Path_71579" data-name="Path 71579" d="M297.661,1036.49a2.836,2.836,0,1,0-2.835-2.836A2.836,2.836,0,0,0,297.661,1036.49Z" fill="#e5e5e5"/>
    <path id="Path_71580" data-name="Path 71580" d="M306.18,1037.127a3.472,3.472,0,1,0-3.472-3.473A3.472,3.472,0,0,0,306.18,1037.127Z" fill="#e5e5e5"/>
    <circle id="Ellipse_2459" data-name="Ellipse 2459" cx="3.567" cy="3.567" r="3.567" transform="translate(310.606 1030.707) rotate(-9.252)" fill="#e5e5e5"/>
    <circle id="Ellipse_2460" data-name="Ellipse 2460" cx="3.567" cy="3.567" r="3.567" transform="translate(319.125 1030.707) rotate(-9.251)" fill="#e5e5e5"/>
    <circle id="Ellipse_2461" data-name="Ellipse 2461" cx="3.567" cy="3.567" r="3.567" transform="translate(327.645 1030.707) rotate(-9.251)" fill="#e5e5e5"/>
    <circle id="Ellipse_2462" data-name="Ellipse 2462" cx="3.567" cy="3.567" r="3.567" transform="translate(336.165 1030.707) rotate(-9.251)" fill="#e5e5e5"/>
    <circle id="Ellipse_2463" data-name="Ellipse 2463" cx="3.567" cy="3.567" r="3.567" transform="translate(344.685 1030.707) rotate(-9.251)" fill="#e5e5e5"/>
    <circle id="Ellipse_2464" data-name="Ellipse 2464" cx="3.567" cy="3.567" r="3.567" transform="translate(353.204 1030.707) rotate(-9.25)" fill="#e5e5e5"/>
    <circle id="Ellipse_2465" data-name="Ellipse 2465" cx="3.567" cy="3.567" r="3.567" transform="matrix(0.987, -0.161, 0.161, 0.987, 361.724, 1030.707)" fill="#e5e5e5"/>
    <circle id="Ellipse_2466" data-name="Ellipse 2466" cx="3.497" cy="3.497" r="3.497" transform="translate(370.842 1030.158)" fill="#e5e5e5"/>
    <circle id="Ellipse_2467" data-name="Ellipse 2467" cx="2.882" cy="2.882" r="2.882" transform="translate(379.976 1030.772)" fill="#e5e5e5"/>
    <path id="Path_71581" data-name="Path 71581" d="M391.378,1035.757a2.1,2.1,0,1,0-2.1-2.1A2.1,2.1,0,0,0,391.378,1035.757Z" fill="#e5e5e5"/>
    <path id="Path_71582" data-name="Path 71582" d="M399.9,1034.93a1.276,1.276,0,1,0-1.276-1.276A1.276,1.276,0,0,0,399.9,1034.93Z" fill="#e5e5e5"/>
    <path id="Path_71583" data-name="Path 71583" d="M408.417,1034.1a.448.448,0,1,0-.448-.449A.449.449,0,0,0,408.417,1034.1Z" fill="#e5e5e5"/>
    <circle id="Ellipse_2468" data-name="Ellipse 2468" cx="0.118" cy="0.118" r="0.118" transform="translate(271.983 1042.056)" fill="#e5e5e5"/>
    <path id="Path_71584" data-name="Path 71584" d="M280.621,1043a.827.827,0,1,0-.827-.827A.827.827,0,0,0,280.621,1043Z" fill="#e5e5e5"/>
    <path id="Path_71585" data-name="Path 71585" d="M289.141,1043.757a1.583,1.583,0,1,0-1.583-1.583A1.583,1.583,0,0,0,289.141,1043.757Z" fill="#e5e5e5"/>
    <circle id="Ellipse_2469" data-name="Ellipse 2469" cx="2.315" cy="2.315" r="2.315" transform="translate(295.345 1039.859)" fill="#e5e5e5"/>
    <circle id="Ellipse_2470" data-name="Ellipse 2470" cx="3" cy="3" r="3" transform="translate(303.18 1039.174)" fill="#e5e5e5"/>
    <path id="Path_71586" data-name="Path 71586" d="M314.7,1045.647a3.473,3.473,0,1,0-3.473-3.473A3.473,3.473,0,0,0,314.7,1045.647Z" fill="#e5e5e5"/>
    <circle id="Ellipse_2471" data-name="Ellipse 2471" cx="3.567" cy="3.567" r="3.567" transform="translate(319.125 1039.227) rotate(-9.251)" fill="#e5e5e5"/>
    <circle id="Ellipse_2472" data-name="Ellipse 2472" cx="3.567" cy="3.567" r="3.567" transform="translate(327.645 1039.227) rotate(-9.251)" fill="#e5e5e5"/>
    <circle id="Ellipse_2473" data-name="Ellipse 2473" cx="3.567" cy="3.567" r="3.567" transform="translate(336.165 1039.227) rotate(-9.251)" fill="#e5e5e5"/>
    <circle id="Ellipse_2474" data-name="Ellipse 2474" cx="3.567" cy="3.567" r="3.567" transform="translate(344.685 1039.227) rotate(-9.251)" fill="#e5e5e5"/>
    <circle id="Ellipse_2475" data-name="Ellipse 2475" cx="3.567" cy="3.567" r="3.567" transform="matrix(0.987, -0.161, 0.161, 0.987, 353.204, 1039.227)" fill="#e5e5e5"/>
    <circle id="Ellipse_2476" data-name="Ellipse 2476" cx="3.497" cy="3.497" r="3.497" transform="translate(362.322 1038.678)" fill="#e5e5e5"/>
    <path id="Path_71587" data-name="Path 71587" d="M374.338,1045.222a3.048,3.048,0,1,0-3.047-3.048A3.048,3.048,0,0,0,374.338,1045.222Z" fill="#e5e5e5"/>
    <path id="Path_71588" data-name="Path 71588" d="M382.858,1044.56a2.386,2.386,0,1,0-2.386-2.386A2.386,2.386,0,0,0,382.858,1044.56Z" fill="#e5e5e5"/>
    <path id="Path_71589" data-name="Path 71589" d="M391.378,1043.828a1.654,1.654,0,1,0-1.654-1.654A1.654,1.654,0,0,0,391.378,1043.828Z" fill="#e5e5e5"/>
    <path id="Path_71590" data-name="Path 71590" d="M399.9,1043.072a.9.9,0,1,0-.9-.9A.9.9,0,0,0,399.9,1043.072Z" fill="#e5e5e5"/>
    <path id="Path_71591" data-name="Path 71591" d="M408.417,1042.34a.165.165,0,1,0-.165-.166A.166.166,0,0,0,408.417,1042.34Z" fill="#e5e5e5"/>
    <path id="Path_71592" data-name="Path 71592" d="M280.621,1051.048a.354.354,0,1,0-.354-.354A.354.354,0,0,0,280.621,1051.048Z" fill="#e5e5e5"/>
    <path id="Path_71593" data-name="Path 71593" d="M289.141,1051.757a1.063,1.063,0,1,0-1.063-1.063A1.063,1.063,0,0,0,289.141,1051.757Z" fill="#e5e5e5"/>
    <path id="Path_71594" data-name="Path 71594" d="M297.661,1052.419a1.725,1.725,0,1,0-1.725-1.725A1.725,1.725,0,0,0,297.661,1052.419Z" fill="#e5e5e5"/>
    <path id="Path_71595" data-name="Path 71595" d="M306.18,1053.033a2.339,2.339,0,1,0-2.338-2.339A2.339,2.339,0,0,0,306.18,1053.033Z" fill="#e5e5e5"/>
    <path id="Path_71596" data-name="Path 71596" d="M314.7,1053.553a2.859,2.859,0,1,0-2.858-2.859A2.859,2.859,0,0,0,314.7,1053.553Z" fill="#e5e5e5"/>
    <path id="Path_71597" data-name="Path 71597" d="M323.22,1053.954a3.26,3.26,0,1,0-3.26-3.26A3.259,3.259,0,0,0,323.22,1053.954Z" fill="#e5e5e5"/>
    <path id="Path_71598" data-name="Path 71598" d="M331.74,1054.143a3.449,3.449,0,1,0-3.45-3.449A3.449,3.449,0,0,0,331.74,1054.143Z" fill="#e5e5e5"/>
    <path id="Path_71599" data-name="Path 71599" d="M340.259,1054.167a3.473,3.473,0,1,0-3.472-3.473A3.472,3.472,0,0,0,340.259,1054.167Z" fill="#e5e5e5"/>
    <path id="Path_71600" data-name="Path 71600" d="M348.779,1054.143a3.449,3.449,0,1,0-3.449-3.449A3.45,3.45,0,0,0,348.779,1054.143Z" fill="#e5e5e5"/>
    <path id="Path_71601" data-name="Path 71601" d="M357.3,1053.978a3.284,3.284,0,1,0-3.284-3.284A3.284,3.284,0,0,0,357.3,1053.978Z" fill="#e5e5e5"/>
    <circle id="Ellipse_2477" data-name="Ellipse 2477" cx="2.882" cy="2.882" r="2.882" transform="translate(362.936 1047.812)" fill="#e5e5e5"/>
    <path id="Path_71602" data-name="Path 71602" d="M374.338,1053.08a2.386,2.386,0,1,0-2.386-2.386A2.387,2.387,0,0,0,374.338,1053.08Z" fill="#e5e5e5"/>
    <path id="Path_71603" data-name="Path 71603" d="M382.858,1052.489a1.795,1.795,0,1,0-1.8-1.8A1.8,1.8,0,0,0,382.858,1052.489Z" fill="#e5e5e5"/>
    <path id="Path_71604" data-name="Path 71604" d="M391.378,1051.8a1.11,1.11,0,1,0-1.11-1.11A1.11,1.11,0,0,0,391.378,1051.8Z" fill="#e5e5e5"/>
    <path id="Path_71605" data-name="Path 71605" d="M399.9,1051.1a.4.4,0,1,0-.4-.4A.4.4,0,0,0,399.9,1051.1Z" fill="#e5e5e5"/>
    <path id="Path_71606" data-name="Path 71606" d="M280.621,1059.237a.023.023,0,0,0,.024-.023.024.024,0,0,0-.024-.024.024.024,0,0,0-.023.024A.023.023,0,0,0,280.621,1059.237Z" fill="#e5e5e5"/>
    <path id="Path_71607" data-name="Path 71607" d="M289.141,1059.663a.449.449,0,1,0-.449-.449A.449.449,0,0,0,289.141,1059.663Z" fill="#e5e5e5"/>
    <path id="Path_71608" data-name="Path 71608" d="M297.661,1060.277a1.063,1.063,0,1,0-1.063-1.063A1.063,1.063,0,0,0,297.661,1060.277Z" fill="#e5e5e5"/>
    <path id="Path_71609" data-name="Path 71609" d="M306.18,1060.82a1.606,1.606,0,1,0-1.606-1.606A1.606,1.606,0,0,0,306.18,1060.82Z" fill="#e5e5e5"/>
    <path id="Path_71610" data-name="Path 71610" d="M314.7,1061.293a2.079,2.079,0,1,0-2.079-2.079A2.079,2.079,0,0,0,314.7,1061.293Z" fill="#e5e5e5"/>
    <circle id="Ellipse_2478" data-name="Ellipse 2478" cx="2.433" cy="2.433" r="2.433" transform="translate(320.043 1060.537) rotate(-67.615)" fill="#e5e5e5"/>
    <path id="Path_71611" data-name="Path 71611" d="M331.74,1061.86a2.646,2.646,0,1,0-2.646-2.646A2.646,2.646,0,0,0,331.74,1061.86Z" fill="#e5e5e5"/>
    <path id="Path_71612" data-name="Path 71612" d="M340.259,1061.954a2.74,2.74,0,1,0-2.74-2.74A2.74,2.74,0,0,0,340.259,1061.954Z" fill="#e5e5e5"/>
    <path id="Path_71613" data-name="Path 71613" d="M348.779,1061.883a2.67,2.67,0,1,0-2.669-2.669A2.669,2.669,0,0,0,348.779,1061.883Z" fill="#e5e5e5"/>
    <path id="Path_71614" data-name="Path 71614" d="M357.3,1061.671a2.457,2.457,0,1,0-2.457-2.457A2.457,2.457,0,0,0,357.3,1061.671Z" fill="#e5e5e5"/>
    <path id="Path_71615" data-name="Path 71615" d="M365.819,1061.316a2.1,2.1,0,1,0-2.1-2.1A2.1,2.1,0,0,0,365.819,1061.316Z" fill="#e5e5e5"/>
    <path id="Path_71616" data-name="Path 71616" d="M374.338,1060.868a1.654,1.654,0,1,0-1.653-1.654A1.654,1.654,0,0,0,374.338,1060.868Z" fill="#e5e5e5"/>
    <path id="Path_71617" data-name="Path 71617" d="M382.858,1060.324a1.11,1.11,0,1,0-1.11-1.11A1.111,1.111,0,0,0,382.858,1060.324Z" fill="#e5e5e5"/>
    <path id="Path_71618" data-name="Path 71618" d="M391.378,1059.734a.52.52,0,1,0-.52-.52A.52.52,0,0,0,391.378,1059.734Z" fill="#e5e5e5"/>
    <path id="Path_71619" data-name="Path 71619" d="M399.9,1059.261a.047.047,0,1,0-.047-.047A.047.047,0,0,0,399.9,1059.261Z" fill="#e5e5e5"/>
    <path id="Path_71620" data-name="Path 71620" d="M289.141,1067.781a.047.047,0,1,0-.047-.048A.047.047,0,0,0,289.141,1067.781Z" fill="#e5e5e5"/>
    <circle id="Ellipse_2479" data-name="Ellipse 2479" cx="0.378" cy="0.378" r="0.378" transform="translate(297.283 1067.355)" fill="#e5e5e5"/>
    <path id="Path_71621" data-name="Path 71621" d="M306.18,1068.584a.85.85,0,1,0-.85-.851A.851.851,0,0,0,306.18,1068.584Z" fill="#e5e5e5"/>
    <circle id="Ellipse_2480" data-name="Ellipse 2480" cx="1.252" cy="1.252" r="1.252" transform="translate(313.448 1066.481)" fill="#e5e5e5"/>
    <path id="Path_71622" data-name="Path 71622" d="M323.22,1069.316a1.583,1.583,0,1,0-1.583-1.583A1.583,1.583,0,0,0,323.22,1069.316Z" fill="#e5e5e5"/>
    <path id="Path_71623" data-name="Path 71623" d="M331.74,1069.505a1.771,1.771,0,1,0-1.772-1.772A1.772,1.772,0,0,0,331.74,1069.505Z" fill="#e5e5e5"/>
    <path id="Path_71624" data-name="Path 71624" d="M340.259,1069.576a1.843,1.843,0,1,0-1.842-1.843A1.843,1.843,0,0,0,340.259,1069.576Z" fill="#e5e5e5"/>
    <path id="Path_71625" data-name="Path 71625" d="M348.779,1069.505a1.771,1.771,0,1,0-1.772-1.772A1.772,1.772,0,0,0,348.779,1069.505Z" fill="#e5e5e5"/>
    <path id="Path_71626" data-name="Path 71626" d="M357.3,1069.316a1.583,1.583,0,1,0-1.583-1.583A1.583,1.583,0,0,0,357.3,1069.316Z" fill="#e5e5e5"/>
    <path id="Path_71627" data-name="Path 71627" d="M365.819,1069.009a1.276,1.276,0,1,0-1.276-1.276A1.276,1.276,0,0,0,365.819,1069.009Z" fill="#e5e5e5"/>
    <path id="Path_71628" data-name="Path 71628" d="M374.338,1068.631a.9.9,0,1,0-.9-.9A.9.9,0,0,0,374.338,1068.631Z" fill="#e5e5e5"/>
    <path id="Path_71629" data-name="Path 71629" d="M382.858,1068.135a.4.4,0,1,0-.4-.4A.4.4,0,0,0,382.858,1068.135Z" fill="#e5e5e5"/>
    <path id="Path_71630" data-name="Path 71630" d="M391.378,1067.781a.047.047,0,1,0-.047-.048A.047.047,0,0,0,391.378,1067.781Z" fill="#e5e5e5"/>
    <path id="Path_71631" data-name="Path 71631" d="M306.18,1076.4a.142.142,0,1,0-.141-.142A.141.141,0,0,0,306.18,1076.4Z" fill="#e5e5e5"/>
    <path id="Path_71632" data-name="Path 71632" d="M314.7,1076.678a.425.425,0,1,0-.425-.425A.425.425,0,0,0,314.7,1076.678Z" fill="#e5e5e5"/>
    <path id="Path_71633" data-name="Path 71633" d="M323.22,1076.962a.709.709,0,1,0-.709-.709A.709.709,0,0,0,323.22,1076.962Z" fill="#e5e5e5"/>
    <circle id="Ellipse_2481" data-name="Ellipse 2481" cx="0.874" cy="0.874" r="0.874" transform="translate(330.866 1075.379)" fill="#e5e5e5"/>
    <path id="Path_71634" data-name="Path 71634" d="M340.259,1077.175a.922.922,0,1,0-.921-.922A.922.922,0,0,0,340.259,1077.175Z" fill="#e5e5e5"/>
    <circle id="Ellipse_2482" data-name="Ellipse 2482" cx="0.874" cy="0.874" r="0.874" transform="translate(347.905 1075.379)" fill="#e5e5e5"/>
    <path id="Path_71635" data-name="Path 71635" d="M357.3,1076.962a.709.709,0,1,0-.709-.709A.709.709,0,0,0,357.3,1076.962Z" fill="#e5e5e5"/>
    <path id="Path_71636" data-name="Path 71636" d="M365.819,1076.7a.449.449,0,1,0-.449-.449A.449.449,0,0,0,365.819,1076.7Z" fill="#e5e5e5"/>
    <path id="Path_71637" data-name="Path 71637" d="M374.338,1076.419a.165.165,0,1,0-.165-.166A.166.166,0,0,0,374.338,1076.419Z" fill="#e5e5e5"/>
    <path id="Path_71638" data-name="Path 71638" d="M323.22,1084.82a.047.047,0,1,0-.047-.047A.047.047,0,0,0,323.22,1084.82Z" fill="#e5e5e5"/>
    <path id="Path_71639" data-name="Path 71639" d="M331.74,1084.868a.095.095,0,1,0-.1-.1A.095.095,0,0,0,331.74,1084.868Z" fill="#e5e5e5"/>
    <circle id="Ellipse_2483" data-name="Ellipse 2483" cx="0.118" cy="0.118" r="0.118" transform="translate(340.141 1084.655)" fill="#e5e5e5"/>
    <path id="Path_71640" data-name="Path 71640" d="M348.779,1084.868a.095.095,0,1,0,0-.189.095.095,0,0,0,0,.189Z" fill="#e5e5e5"/>
    <path id="Path_71641" data-name="Path 71641" d="M357.3,1084.82a.047.047,0,1,0-.047-.047A.047.047,0,0,0,357.3,1084.82Z" fill="#e5e5e5"/>
  </g>
  <path id="Path_71642" data-name="Path 71642" d="M273.242,1090.717a197.283,197.283,0,0,1-19.089-13.969c-8.176-6.53-16.641-13.572-20.43-23.325-7.668-19.735.793-55.732,14.836-71.1,9.122-9.985,28.082-16.906,40.778-21.1a85.951,85.951,0,0,1,103.821,42.08c4.011,7.752,6.865,16.3,6.735,25.029-.169,11.382-5.375,22.132-11.861,31.487-11.377,16.41-27.288,29.922-45.961,37s-40.114,7.393-58.418-.59A82.956,82.956,0,0,1,273.242,1090.717Z" transform="translate(-230.828 -931.323)" fill="#f9f9f9"/>
  <circle id="Ellipse_341" data-name="Ellipse 341" cx="3.736" cy="3.736" r="3.736" transform="translate(35.914 157.105)" fill="none" stroke="#bdbdbd" stroke-linecap="round" stroke-width="2.497"/>
  <circle id="Ellipse_341-2" data-name="Ellipse 341-2" cx="8.736" cy="8.736" r="8.736" transform="translate(122.114 52.847)" fill="none" stroke="#bdbdbd" stroke-linecap="round" stroke-width="2.497"/>
  <g id="Group_15506" data-name="Group 15506" transform="translate(-230.828 -931.323)">
    <path id="Path_17149" data-name="Path 17149" d="M294.7,1018.247h-.308a107.167,107.167,0,0,1-12.077-3.332c-4.8-1.512-7.339-4.558-6.785-8.147.457-2.968,3.068-5.446,5.534-5.137,4.337.532,14.634,3.207,15.071,3.32a.5.5,0,0,1,.371.537L295.2,1017.8a.5.5,0,0,1-.5.447Z" fill="none" stroke="#1a1e23" stroke-linecap="round" stroke-linejoin="round" stroke-width="1.5"/>
    <path id="Path_17150" data-name="Path 17150" d="M293.819,1035.957h-.307a106.929,106.929,0,0,1-12.078-3.331c-4.8-1.513-7.336-4.559-6.785-8.147.456-2.969,3.07-5.451,5.534-5.138,4.337.532,14.633,3.207,15.071,3.321a.5.5,0,0,1,.371.536l-1.309,12.312a.5.5,0,0,1-.5.447Z" fill="none" stroke="#1a1e23" stroke-linecap="round" stroke-linejoin="round" stroke-width="1.5"/>
    <path id="Path_17151" data-name="Path 17151" d="M295.888,1048.734h-.312A107.387,107.387,0,0,1,283.5,1045.4c-4.8-1.513-7.337-4.559-6.785-8.147.456-2.969,3.063-5.449,5.534-5.138,4.337.532,14.634,3.207,15.07,3.321a.5.5,0,0,1,.371.536l-1.3,12.313a.5.5,0,0,1-.5.448Z" fill="none" stroke="#1a1e23" stroke-linecap="round" stroke-linejoin="round" stroke-width="1.5"/>
    <path id="Path_17152" data-name="Path 17152" d="M348.929,1079.706l.7-12.006a61.08,61.08,0,0,0-3.7-24.771l-9.233-24.942v36.705H291.431s-.334,11.5,8.454,25.01" fill="none" stroke="#1a1e23" stroke-linecap="round" stroke-linejoin="round" stroke-width="1.5"/>
    <rect id="Rectangle_5886" data-name="Rectangle 5886" width="59.515" height="108.328" rx="12.826" transform="translate(280.992 954.895)" fill="#ccf2ff" stroke="#1a1e23" stroke-linecap="round" stroke-linejoin="round" stroke-width="1.5"/>
    <path id="Path_17186" data-name="Path 17186" d="M288.65,969.332h44.338a2.685,2.685,0,0,1,2.685,2.685h0v78.375a2.686,2.686,0,0,1-2.685,2.685H288.65a2.686,2.686,0,0,1-2.685-2.685V972.017A2.685,2.685,0,0,1,288.65,969.332Z" fill="#fff" stroke="#1a1e23" stroke-linecap="round" stroke-linejoin="round" stroke-width="1.5"/>
    <line id="Line_750" data-name="Line 750" x2="13.468" transform="translate(303.846 964.658)" fill="none" stroke="#1a1e23" stroke-linecap="round" stroke-linejoin="round" stroke-width="1.5"/>
    <circle id="Ellipse_1645" data-name="Ellipse 1645" cx="1.634" cy="1.634" r="1.634" transform="translate(309.178 958.922)" fill="none" stroke="#1a1e23" stroke-linecap="round" stroke-linejoin="round" stroke-width="1.5"/>
    <line id="Line_751" data-name="Line 751" x2="8.285" transform="translate(306.705 1057.683)" fill="none" stroke="#1a1e23" stroke-linecap="round" stroke-linejoin="round" stroke-width="1.5"/>
    <g id="Group_3279" data-name="Group 3279">
      <line id="Line_752" data-name="Line 752" x1="3.03" y1="3.03" transform="translate(275.404 951.181)" fill="none" stroke="#1a1e23" stroke-linecap="round" stroke-linejoin="round" stroke-width="1"/>
      <line id="Line_753" data-name="Line 753" y1="4.022" transform="translate(282.909 948.253)" fill="none" stroke="#1a1e23" stroke-linecap="round" stroke-linejoin="round" stroke-width="1"/>
      <line id="Line_754" data-name="Line 754" x1="4.022" transform="translate(272.334 958.556)" fill="none" stroke="#1a1e23" stroke-linecap="round" stroke-linejoin="round" stroke-width="1"/>
    </g>
    <g id="logo_facebook" data-name="logo facebook">
      <path id="Path_1385" data-name="Path 1385" d="M311.056,985.691h2.168v2.168h-2.168v5.046h-2.168v-5.046h-2.167v-2.168h2.167v-.919a4.846,4.846,0,0,1,.217-1.4,2.871,2.871,0,0,1,.6-1.127,2.59,2.59,0,0,1,2.011-.885h1.509v2.168h-1.509a.651.651,0,0,0-.468.182.609.609,0,0,0-.191.46Z" fill="#1a1e23"/>
    </g>
    <g id="logo_twitter" data-name="logo twitter">
      <path id="Path_1386" data-name="Path 1386" d="M317.318,1003.944a6,6,0,0,1-1.734.474,3.022,3.022,0,0,0,1.329-1.667,6.038,6.038,0,0,1-1.915.731,3.017,3.017,0,0,0-5.136,2.749,8.557,8.557,0,0,1-6.213-3.149,3.017,3.017,0,0,0,.933,4.024,2.984,2.984,0,0,1-1.365-.377v.039a3.016,3.016,0,0,0,2.417,2.955,3.023,3.023,0,0,1-1.362.052,3.017,3.017,0,0,0,2.818,2.095,6.078,6.078,0,0,1-4.464,1.246,8.572,8.572,0,0,0,13.2-7.105q0-.059,0-.117c0-.131,0-.261-.008-.39A6.108,6.108,0,0,0,317.318,1003.944Z" fill="#1a1e23"/>
    </g>
    <g id="logo_instagram" data-name="logo instagram">
      <path id="Path_1387" data-name="Path 1387" d="M318.993,1026.132a6.662,6.662,0,0,0-.422-2.2,4.651,4.651,0,0,0-2.654-2.655,6.684,6.684,0,0,0-2.2-.421c-.937-.043-1.255-.055-3.517-.055h-.449c-2.26,0-2.579.012-3.517.055a6.684,6.684,0,0,0-2.2.421,4.651,4.651,0,0,0-2.654,2.655,6.661,6.661,0,0,0-.422,2.2c-.045.968-.055,1.277-.055,3.741s.01,2.776.055,3.742a6.661,6.661,0,0,0,.422,2.2,4.645,4.645,0,0,0,2.654,2.654,6.663,6.663,0,0,0,2.2.422c.968.044,1.277.054,3.741.054s2.774-.01,3.742-.054a6.663,6.663,0,0,0,2.2-.422,4.643,4.643,0,0,0,2.654-2.654,6.662,6.662,0,0,0,.422-2.2c.043-.94.054-1.257.054-3.517v-.449C319.047,1027.389,319.034,1027.07,318.993,1026.132Zm-1.634,7.408a4.993,4.993,0,0,1-.312,1.685,3.01,3.01,0,0,1-1.722,1.723,5,5,0,0,1-1.686.312c-.956.044-1.243.053-3.667.053s-2.71-.009-3.667-.053a5.028,5.028,0,0,1-1.685-.312,3.006,3.006,0,0,1-1.722-1.723,5.019,5.019,0,0,1-.313-1.685c-.043-.956-.052-1.243-.052-3.667s.009-2.71.052-3.667a5.029,5.029,0,0,1,.313-1.685,3.009,3.009,0,0,1,1.722-1.722,5.027,5.027,0,0,1,1.685-.313c.958-.043,1.244-.052,3.667-.052s2.711.009,3.667.052a5.028,5.028,0,0,1,1.686.313,3.009,3.009,0,0,1,1.722,1.722,5.028,5.028,0,0,1,.312,1.685c.044.957.054,1.244.054,3.667S317.4,1032.584,317.359,1033.54Z" fill="#1a1e23"/>
      <path id="Path_1388" data-name="Path 1388" d="M309.972,1025.213a4.66,4.66,0,1,0,4.661,4.66,4.661,4.661,0,0,0-4.661-4.66Zm0,7.686a3.026,3.026,0,1,1,3.026-3.026,3.025,3.025,0,0,1-3.026,3.026Z" fill="#1a1e23"/>
      <path id="Path_1389" data-name="Path 1389" d="M314.817,1023.94a1.089,1.089,0,1,0,1.088,1.089h0A1.089,1.089,0,0,0,314.817,1023.94Z" fill="#1a1e23"/>
    </g>
    <path id="Path_17155" data-name="Path 17155" d="M345.45,1057.005h0s-5.812-20.583-8.754-23.239-17.52-7.839-20.82-9.048c-5.032-1.842-10.268,6.281-3.762,11.267,5.776,4.427,10.877,9.317,10.877,9.317l1.064,14.473a30.712,30.712,0,0,0-4.862,29.548" fill="#f9f9f9" stroke="#1a1e23" stroke-linecap="round" stroke-linejoin="round" stroke-width="1.5"/>
  </g>
  <g id="icon_check-circle" data-name="icon check-circle" transform="translate(-230.828 -931.323)">
    <circle id="Ellipse_2" data-name="Ellipse 2" cx="17.109" cy="17.109" r="17.109" transform="translate(265.279 974.978)" fill="#b4ffe8" stroke="#1d1d1d" stroke-linecap="round" stroke-width="1.5"/>
    <g id="Group_3280" data-name="Group 3280">
      <line id="Line_755" data-name="Line 755" x2="5.06" transform="translate(279.718 992.52)" fill="none" stroke="#1a1e23" stroke-linecap="round" stroke-linejoin="round" stroke-width="1.5"/>
      <path id="Path_17156" data-name="Path 17156" d="M280.678,988.883h-3.786a3.794,3.794,0,1,0,0,7.589h3.785" fill="none" stroke="#1a1e23" stroke-linecap="round" stroke-linejoin="round" stroke-width="1.5"/>
      <path id="Path_17157" data-name="Path 17157" d="M284.1,988.883h3.785a3.794,3.794,0,0,1,0,7.589H284.1" fill="none" stroke="#1a1e23" stroke-linecap="round" stroke-linejoin="round" stroke-width="1.5"/>
    </g>
  </g>
  <g id="icon_check-circle-2" data-name="icon check-circle" transform="translate(-230.828 -931.323)">
    <circle id="Ellipse_2-2" data-name="Ellipse 2" cx="24.176" cy="24.176" r="24.176" transform="translate(326.636 1014.136)" fill="#ffb1b1" stroke="#1a1e23" stroke-linecap="round" stroke-linejoin="round" stroke-width="1.5"/>
  </g>
  <g id="Group_15507" data-name="Group 15507" transform="translate(-230.828 -931.323)">
    <path id="Path_71643" data-name="Path 71643" d="M359.936,1043.741a5.946,5.946,0,0,0,0-8.409h0a5.946,5.946,0,0,0-8.409,0l-.715.715-.715-.715a5.946,5.946,0,0,0-8.408,8.409l9.113,9.114" fill="none" stroke="#1a1e23" stroke-linecap="round" stroke-linejoin="round" stroke-width="1.5"/>
    <circle id="Ellipse_2484" data-name="Ellipse 2484" cx="3.223" cy="3.223" r="3.223" transform="translate(347.59 1023.771)" fill="none" stroke="#1a1e23" stroke-linecap="round" stroke-linejoin="round" stroke-width="1.5"/>
    <line id="Line_1547" data-name="Line 1547" x1="4.107" y1="4.107" transform="translate(352.959 1042.609)" fill="none" stroke="#1a1e23" stroke-linecap="round" stroke-linejoin="round" stroke-width="1.5"/>
    <line id="Line_1548" data-name="Line 1548" x1="4.269" y1="4.269" transform="translate(349.75 1045.656)" fill="none" stroke="#1a1e23" stroke-linecap="round" stroke-linejoin="round" stroke-width="1.5"/>
    <line id="Line_1549" data-name="Line 1549" x1="4.41" y2="4.41" transform="translate(346.402 1036.047)" fill="none" stroke="#1a1e23" stroke-linecap="round" stroke-linejoin="round" stroke-width="1.5"/>
  </g>
</svg>
