<svg id="icon_quote-right-filled" xmlns="http://www.w3.org/2000/svg" width="64" height="43" viewBox="0 0 64 43">
  <g id="Group_2928" data-name="Group 2928">
    <g id="Group_2929" data-name="Group 2929">
      <path id="Path_7719" data-name="Path 7719" d="M15.118,0C6.783,0,0,7.325,0,16.329S6.783,32.658,15.118,32.658a14.047,14.047,0,0,0,3.43-.424,18.769,18.769,0,0,1-13,5.326,2.728,2.728,0,0,0,0,5.44C19.031,43,30.019,31.262,30.23,16.75c0-.14,0-.28,0-.421C30.235,7.326,23.457,0,15.117,0Z" fill="#ffc100"/>
      <path id="Path_7720" data-name="Path 7720" d="M370.908,0c-8.334,0-15.118,7.326-15.118,16.329s6.783,16.329,15.118,16.329a14.056,14.056,0,0,0,3.436-.426,18.776,18.776,0,0,1-13.01,5.328,2.728,2.728,0,0,0,0,5.44c13.485,0,24.479-11.736,24.691-26.246v0c0-.14,0-.28,0-.421,0-9-6.783-16.329-15.122-16.329Z" transform="translate(-322.029)" fill="#ffc100"/>
    </g>
  </g>
</svg>
