<svg id="logo_apple" xmlns="http://www.w3.org/2000/svg" width="17.268" height="21.38" viewBox="0 0 17.268 21.38">
  <path id="Path_48255" data-name="Path 48255" d="M65.479,1324.2a4.862,4.862,0,0,1,2.3-4.077,4.927,4.927,0,0,0-3.889-2.119c-1.636-.173-3.224.986-4.057.986-.851,0-2.133-.97-3.518-.941a5.177,5.177,0,0,0-4.36,2.678c-1.886,3.288-.479,8.119,1.328,10.777.9,1.3,1.958,2.754,3.34,2.7,1.352-.055,1.856-.867,3.489-.867,1.616,0,2.09.867,3.5.835,1.452-.023,2.365-1.308,3.237-2.621a10.785,10.785,0,0,0,1.48-3.036A4.689,4.689,0,0,1,65.479,1324.2Zm-2.661-7.944a4.821,4.821,0,0,0,1.087-3.427,4.821,4.821,0,0,0-3.128,1.63,4.575,4.575,0,0,0-1.115,3.3,3.987,3.987,0,0,0,3.156-1.5" transform="translate(-51.057 -1312.831)" fill="#fff" fill-rule="evenodd"/>
</svg>
